<?xml version="1.0" encoding="utf-8"?>
<!-- Generator: Adobe Illustrator 27.1.1, SVG Export Plug-In . SVG Version: 6.00 Build 0)  -->
<svg version="1.1" id="Layer_1" xmlns="http://www.w3.org/2000/svg" xmlns:xlink="http://www.w3.org/1999/xlink" x="0px" y="0px"
	 viewBox="0 0 370.95 543.53" style="enable-background:new 0 0 370.95 543.53;" xml:space="preserve">
<style type="text/css">
	.st0{fill:#FFFFFF;}
</style>
<g>
	<path d="M254.41,126.65c1.11,0,2.12,0,3.14,0c25.17,0,50.35-0.01,75.52,0.02c1.09,0,2.28,0.05,3.26,0.46
		c2.32,0.97,3.81,2.87,3.76,5.38c-0.16,6.97,1.16,13.84,1.24,20.79c0.02,1.44,0,2.88,0.01,4.32c0.02,2.62,0.91,3.66,3.54,4.12
		c0.55,0.1,1.12,0.09,1.66,0.21c4.18,0.94,5.74,3.34,6.47,7.56c0.24,1.41,0.45,2.83,0.64,4.24c0.17,1.26,0.38,2.53,0.41,3.8
		c0.07,2.88-0.06,5.76,0.06,8.63c0.15,3.43,0.51,6.84,0.7,10.27c0.16,2.87,0.31,5.75,0.32,8.62c0.02,5.44,0.18,10.85,0.76,16.27
		c0.43,4.04,0.17,8.14,0.33,12.22c0.18,4.55,0.52,9.09,0.71,13.63c0.17,3.83,0.18,7.67,0.34,11.5c0.21,5.02,0.55,10.04,0.75,15.07
		c0.17,4.31,0.18,8.63,0.33,12.94c0.19,5.19,0.48,10.37,0.67,15.56c0.17,4.71,0.22,9.43,0.39,14.14c0.2,5.67,0.52,11.33,0.71,17
		c0.16,4.63,0.19,9.27,0.35,13.9c0.22,6.39,0.54,12.77,0.75,19.16c0.16,4.87,0.15,9.75,0.31,14.62c0.19,5.91,0.51,11.81,0.71,17.72
		c0.16,4.63,0.18,9.27,0.35,13.9c0.22,5.99,0.55,11.97,0.78,17.95c0.15,3.83,0.14,7.67,0.31,11.5c0.12,2.71,0.41,5.41,0.64,8.11
		c0.03,0.4,0.14,0.79,0.16,1.19c0.44,6.53,0.85,13.05,1.3,19.58c0.16,2.39,0.42,4.76,0.59,7.15c0.18,2.47,0.28,4.94,0.46,7.41
		c0.2,2.62,0.48,5.24,0.68,7.86c0.17,2.23,0.23,4.46,0.39,6.69c0.19,2.71,0.43,5.41,0.66,8.11c0.04,0.48,0.18,0.95,0.21,1.42
		c0.42,6.69,0.81,13.38,1.27,20.06c0.12,1.73,0.33,3.48,0.75,5.15c0.81,3.21-1.88,7.36-5.21,7.57c-4.22,0.27-8.45,0.51-12.68,0.53
		c-44.67,0.21-89.33,0.46-134,0.53c-46.11,0.07-92.22-0.02-138.33-0.12c-6.06-0.01-12.12-0.55-18.19-0.68
		c-8.31-0.18-16.62-0.14-24.93-0.32c-4.31-0.09-8.61-0.45-12.92-0.67c-2.55-0.13-5.11-0.25-7.66-0.3c-3.03-0.06-6.06,0.03-9.03-0.84
		c-1.05-0.31-2.22-0.2-3.33-0.25c-2.53-0.11-4.51-2.04-4.51-4.52c0-2.63-0.18-5.28,0.79-7.82c0.11-0.29,0.15-0.62,0.18-0.94
		c0.42-5.32,0.81-10.65,1.24-15.97c0.21-2.62,0.51-5.23,0.77-7.85c0.02-0.24,0.1-0.47,0.12-0.71c0.41-5.33,0.8-10.65,1.22-15.98
		c0.2-2.46,0.48-4.92,0.72-7.38c0.12-1.27,0.21-2.54,0.33-3.81c0.28-2.85,0.56-5.7,0.85-8.55c0.02-0.16,0.06-0.31,0.08-0.47
		c0.41-5.48,0.79-10.97,1.23-16.45c0.16-2.06,0.44-4.12,0.67-6.18c0.11-0.95,0.3-1.9,0.33-2.85c0.38-13.82,0.78-27.64,1.08-41.47
		c0.19-8.87-0.19-17.77,0.37-26.61c0.98-15.42,0.18-30.86,1.09-46.26c0.78-13.18,0.52-26.37,0.79-39.55
		c0.14-6.71,0.7-13.41,0.86-20.12c0.17-7.11-0.01-14.23,0.16-21.34c0.14-5.83,0.66-11.65,0.83-17.48
		c0.18-6.15,0.07-12.31,0.22-18.46c0.11-4.31,0.5-8.61,0.66-12.93c0.18-4.71,0.34-9.42,0.33-14.14c-0.01-5.2,0.26-10.38,0.92-15.54
		c0.22-1.75,1.01-2.66,2.69-3.17c2.11-0.65,4.15-1.55,6.2-2.39c1.35-0.55,1.86-1.5,2.12-3.07c0.89-5.4,0.85-10.82,0.95-16.25
		c0.03-1.43,0.32-2.85,0.47-4.28c0.18-1.74,0.44-3.49,0.49-5.24c0.09-3.16,0.53-3.27,3.5-3.9c7.04-1.49,14.19-0.59,21.26-1.3
		c4.76-0.48,9.57-0.61,14.35-0.64c14.3-0.08,28.61-0.03,42.91-0.04c0.4,0,0.8,0.01,1.2,0c1.97-0.06,2.51-0.49,2.81-2.48
		c0.14-0.94,0.03-1.92,0.14-2.87c0.13-1.18,0.36-2.35,0.57-3.52c0.07-0.39,0.32-0.76,0.32-1.15c0.05-3.04,0.57-6,1.12-8.98
		c0.64-3.5,0.72-7.1,1.25-10.63c0.44-2.89,1.2-5.72,1.8-8.58c0.13-0.62,0.12-1.27,0.24-1.89c0.19-1.01,0.42-2,0.65-3
		c0.11-0.46,0.32-0.91,0.36-1.38c0.26-2.77,1.09-5.39,1.93-8.03c0.91-2.85,1.51-5.8,2.45-8.65c0.91-2.77,1.9-5.54,3.19-8.15
		c2.06-4.19,4.19-8.39,6.68-12.32c2.35-3.7,5.33-6.98,8.68-9.84c2.06-1.76,3.56-3.81,4.52-6.32c1.59-4.19,3.77-8.1,6.37-11.71
		c4.15-5.77,9.21-10.55,16.09-12.97c2.9-1.02,5.82-1.98,8.75-2.9c0.59-0.19,1.27-0.06,1.9-0.16c1.4-0.23,2.78-0.53,4.18-0.78
		c0.78-0.14,1.57-0.31,2.36-0.33c2.08-0.05,4.15-0.02,6.23-0.02c0.32,0,0.65-0.01,0.96,0.05c2.93,0.64,5.87,1.2,8.77,1.96
		c2.51,0.66,5.03,1.37,7.42,2.38c3.66,1.54,7.04,3.53,10.04,6.26c5.61,5.11,9.43,11.36,12.28,18.27c1.5,3.64,2.88,7.34,4.02,11.1
		c0.7,2.33,0.82,4.83,1.26,7.24c0.56,3.04,1.18,6.07,1.77,9.1c0.09,0.47,0.32,0.96,0.26,1.4c-0.29,2.11,0.95,3.82,1.39,5.74
		c0.49,2.13,1.27,4.2,1.88,6.31c0.64,2.2,1.24,4.4,1.82,6.61c0.18,0.69,0.18,1.42,0.3,2.12c0.15,0.85,0.34,1.7,0.54,2.54
		c0.14,0.62,0.46,1.23,0.46,1.84c0,1.78,0.51,3.43,0.87,5.14c0.68,3.25,0.84,6.6,1.32,9.89c0.55,3.76,1.2,7.51,1.82,11.26
		c0.03,0.16,0.11,0.3,0.13,0.46c0.42,3.38,0.77,6.78,1.26,10.15C253.42,122.02,253.93,124.18,254.41,126.65z M12.16,533.13
		c0.47,0,0.86,0.02,1.25,0c7.17-0.38,14.34-0.89,21.52-1.11c13.17-0.41,26.35-0.28,39.53-0.95c17.87-0.9,35.78-0.35,53.68-0.84
		c22.6-0.62,45.22-0.4,67.83-0.51c40.51-0.2,81.02-0.36,121.53-0.56c12.62-0.06,25.25-0.18,37.87-0.28c0.64,0,1.34,0.12,1.9-0.1
		c0.49-0.19,1.17-0.78,1.16-1.19c-0.01-2.87-0.11-5.75-0.32-8.61c-0.2-2.78-0.58-5.54-0.83-8.31c-0.1-1.11,0.15-2.3-0.15-3.34
		c-1.02-3.52-0.89-7.12-0.93-10.71c-0.01-0.72,0-1.47-0.21-2.14c-0.85-2.72-0.69-5.53-0.85-8.31c-0.31-5.25-1.38-10.44-1.13-15.73
		c0.01-0.15-0.07-0.31-0.09-0.47c-0.3-2.85-0.65-5.7-0.88-8.55c-0.44-5.48-0.8-10.97-1.19-16.45c-0.02-0.24-0.09-0.47-0.12-0.71
		c-0.26-2.3-0.72-4.59-0.74-6.89c-0.1-11.83-0.26-23.64-0.86-35.46c-0.76-15-0.15-30.03-1-45.05c-1-17.79-0.21-35.63-0.93-53.45
		c-0.66-16.36-0.36-32.76-0.48-49.15c-0.01-0.88,0-1.76-0.04-2.64c-0.29-6.62-0.78-13.25-0.84-19.87
		c-0.16-18.46-0.13-36.93-0.18-55.39c0-0.64,0.04-1.28-0.01-1.92c-0.11-1.54-0.33-1.77-1.9-1.81c-3.83-0.09-7.67-0.22-11.5-0.22
		c-30.68-0.02-61.37,0.01-92.05-0.04c-22.37-0.03-44.75,0.09-67.12-0.32c-18.21-0.33-36.41-0.83-54.63-0.75
		c-16.46,0.07-32.91-0.01-49.36-0.87c-7.97-0.42-15.98-0.11-23.97-0.21c-2.39-0.03-4.78-0.3-7.16-0.5c-1.66-0.14-3.32-0.45-4.99-0.5
		c-3.98-0.13-7.98,0.23-11.92-0.66c-0.12-0.03-0.28,0.12-0.52,0.23c-0.09,0.31-0.27,0.69-0.28,1.06c-0.05,6.47-0.1,12.94-0.12,19.42
		c-0.06,20.3-0.03,40.6-0.17,60.9c-0.09,12.3-0.59,24.6-0.66,36.91c-0.22,42.12,0.35,84.24-0.8,126.35
		c-0.27,9.74-0.22,19.5-0.37,29.25c-0.03,1.99-0.28,3.98-0.46,5.97c-0.17,1.9-0.39,3.8-0.53,5.71c-0.2,2.54-0.33,5.09-0.53,7.64
		c-0.14,1.82-0.37,3.64-0.52,5.46c-0.21,2.54-0.36,5.09-0.57,7.63c-0.12,1.42-0.37,2.84-0.49,4.26c-0.23,2.86-0.38,5.73-0.6,8.59
		c-0.13,1.67-0.36,3.32-0.48,4.99c-0.18,2.47-0.27,4.94-0.46,7.41c-0.15,1.98-0.43,3.95-0.61,5.93c-0.21,2.38-0.34,4.77-0.55,7.15
		c-0.14,1.58-0.44,3.16-0.49,4.74c-0.11,3.11-0.04,6.21-0.84,9.28C11.54,529.22,11.44,531.18,12.16,533.13z M140.42,126.51
		c1.26,0.06,2.28,0.14,3.29,0.14c23.48,0.01,46.96,0.01,70.44,0.01c2.56,0,5.11,0.03,7.67-0.01c2.19-0.03,2.49-0.35,2.56-2.5
		c0.07-2.23-0.14-4.51,0.24-6.7c1.13-6.59,0.76-13.22,0.81-19.84c0.01-0.87-0.02-1.78-0.22-2.62c-0.87-3.7-0.84-7.45-0.84-11.2
		c0-0.95-0.08-1.91-0.19-2.86c-0.26-2.29-0.87-4.59-0.78-6.86c0.14-3.37-0.43-6.43-2.19-9.29c-1.77-2.89-3.19-6.06-5.31-8.66
		c-2.65-3.25-5.6-6.31-9.34-8.45c-3.39-1.94-6.92-3.38-10.78-4.01c-0.62-0.1-1.22-0.33-1.84-0.47c-0.84-0.19-1.69-0.49-2.54-0.52
		c-3.03-0.08-6.07-0.18-9.1-0.06c-3.31,0.13-6.72-0.58-9.89,1.01c-0.2,0.1-0.48,0.03-0.71,0.08c-1.83,0.44-3.75,0.66-5.46,1.38
		c-3.57,1.51-6.96,3.4-9.93,5.96c-1.19,1.03-2.03,2.2-2.1,3.83c-0.03,0.63-0.08,1.28-0.24,1.89c-0.59,2.28-1.25,4.54-1.85,6.81
		c-0.4,1.52-0.77,3.05-1.08,4.59c-0.44,2.15-0.62,4.38-1.27,6.47c-0.9,2.87-1.49,5.78-1.99,8.72c-0.07,0.39-0.24,0.76-0.33,1.14
		c-0.24,0.99-0.46,1.98-0.69,2.97c-0.16,0.69-0.32,1.38-0.5,2.07c-0.17,0.69-0.42,1.36-0.54,2.05c-0.43,2.57-0.81,5.14-1.24,7.71
		c-0.05,0.31-0.27,0.58-0.35,0.89c-0.2,0.76-0.51,1.53-0.52,2.3c-0.04,3.11-1.62,5.99-1.3,9.15c0.02,0.22-0.16,0.45-0.2,0.68
		c-0.23,1.24-0.49,2.47-0.65,3.72c-0.18,1.34,0.01,2.8-0.46,4.01C140.22,122.06,140.43,124.08,140.42,126.51z M128.94,136.36
		c-0.22,1.36-0.16,2.49-0.61,3.36c-0.58,1.13-0.73,2.24-0.73,3.45c0,0.47-0.1,0.95-0.23,1.41c-0.6,2.2-1.42,4.36-1.77,6.6
		c-0.47,2.97-1.12,5.86-2.06,8.71c-0.49,1.48,0.06,2.23,1.71,2.24c2.07,0.02,4.15-0.09,6.23-0.1c26.27-0.08,52.54-0.16,78.82-0.23
		c8.62-0.02,17.25-0.01,25.87-0.04c0.89,0,1.78-0.19,2.46-0.27c-0.16-2-0.29-3.65-0.42-5.3c-0.05-0.63,0.05-1.35-0.21-1.88
		c-0.94-1.88-0.83-3.87-0.86-5.87c-0.01-0.64,0.07-1.34-0.17-1.89c-1-2.29-0.85-4.68-0.89-7.08c-0.01-0.62-0.12-1.23-0.21-2.06
		C200.19,136.81,164.65,135.66,128.94,136.36z M183.78,31.69c-2.29,0.36-4.64,0.75-6.99,1.1c-0.94,0.14-1.9,0.19-2.86,0.27
		c-0.64,0.05-1.31-0.05-1.9,0.14c-2.93,0.93-5.86,1.87-8.74,2.94c-5.49,2.03-10.38,4.96-14.54,9.18c-2.59,2.63-5.03,5.36-6.93,8.49
		c-3.25,5.33-5.53,11.13-7.66,16.98c-0.48,1.32-0.84,2.69-1.2,4.05c-0.46,1.74-0.84,3.51-1.3,5.25c-0.62,2.35-1.3,4.69-1.91,7.04
		c-0.48,1.83-0.88,3.69-1.32,5.53c-0.27,1.14-0.54,2.29-0.82,3.43c-0.13,0.54-0.3,1.06-0.44,1.6c-0.21,0.83-0.43,1.67-0.59,2.51
		c-0.11,0.62-0.05,1.29-0.2,1.9c-0.6,2.44-1.39,4.83-1.85,7.29c-0.53,2.87-0.57,5.84-1.25,8.66c-0.56,2.33-0.7,4.71-1.24,6.99
		c-0.45,1.88-0.78,3.7-0.84,5.61c-0.02,0.54-0.27,1.07-0.38,1.62c-0.22,1.08-0.43,2.17-0.62,3.25c-0.28,1.56-0.54,3.12-0.8,4.68
		c-0.1,0.63-0.25,1.26-0.26,1.89c-0.03,1.84-0.42,3.59-0.77,5.39c-0.55,2.77-0.62,5.65-1.36,8.43c-0.38,1.44-0.5,2.95-0.82,4.41
		c-0.26,1.17-0.05,1.59,1.19,1.79c0.55,0.09,1.12,0.11,1.67,0.08c1.87-0.08,2.05-0.37,2.24-2.3c0.18-1.89,0.57-3.76,0.84-5.65
		c0.1-0.71,0.13-1.43,0.18-2.14c0.41-5.07,0.8-10.15,1.23-15.22c0.05-0.62,0.34-1.23,0.5-1.85c0.15-0.62,0.36-1.24,0.39-1.87
		c0.1-2.7-0.2-5.44,1-8.02c0.19-0.4,0.04-0.95,0.09-1.42c0.4-3.38,0.6-6.81,1.3-10.13c0.36-1.71,0.9-3.36,0.86-5.13
		c-0.01-0.39,0.13-0.78,0.23-1.17c0.61-2.43,1.28-4.85,1.83-7.3c0.8-3.53,1.37-7.13,2.29-10.62c0.8-3.03,1.92-5.98,2.97-8.93
		c1.53-4.3,2.94-8.66,4.76-12.84c2.67-6.15,5.85-12.04,9.97-17.4c2.34-3.05,5.29-5.38,8.46-7.3c2.51-1.52,5.18-2.9,8.14-3.68
		c2.57-0.67,4.98-1.92,7.72-1.92c0.39,0,0.78-0.16,1.17-0.23c1.64-0.27,3.27-0.68,4.91-0.76c2.55-0.13,5.13-0.19,7.67,0.01
		c2.83,0.23,5.63,0.79,8.44,1.21c0.08,0.01,0.15,0.05,0.23,0.08c2.58,0.96,5.15,1.94,7.74,2.87c5.38,1.93,9.69,5.45,13.52,9.51
		c3.05,3.22,5.4,7.01,7.36,11.01c2.52,5.14,5.05,10.3,5.72,16.11c0.04,0.38,0.29,0.74,0.38,1.13c0.23,1,0.45,2,0.62,3.01
		c0.13,0.7,0,1.51,0.31,2.11c0.74,1.42,0.78,2.9,0.78,4.43c0,0.55,0.14,1.1,0.25,1.64c0.25,1.31,0.54,2.62,0.78,3.93
		c0.13,0.7,0.13,1.43,0.27,2.12c0.6,2.93,1.24,5.86,1.85,8.79c0.03,0.15-0.01,0.32,0.02,0.48c0.25,1.31,0.51,2.62,0.75,3.93
		c0.12,0.62,0.21,1.25,0.3,1.88c0.4,2.66,0.79,5.32,1.2,7.97c0.04,0.23,0.21,0.43,0.26,0.66c0.23,0.99,0.45,1.99,0.66,2.99
		c0.14,0.69,0.24,1.4,0.39,2.09c0.21,0.99,0.47,1.98,0.67,2.97c0.14,0.7,0.22,1.41,0.35,2.11c0.23,1.16,0.49,2.3,0.73,3.46
		c0.14,0.7,0.27,1.4,0.4,2.1c0.22,1.16,0.45,2.32,0.65,3.49c0.12,0.7,0.13,1.42,0.26,2.13c0.24,1.31,0.54,2.62,0.81,3.93
		c0.16,0.77,0.31,1.55,0.47,2.32c0.2,1.01,0.41,2.01,0.58,3.02c0.44,2.73,0.82,5.47,1.31,8.19c0.18,1.01,0.5,2.01,0.93,2.93
		c0.17,0.37,0.81,0.69,1.25,0.71c0.24,0.01,0.63-0.61,0.74-1.01c0.09-0.34-0.12-0.77-0.19-1.16c-0.28-1.55-0.54-3.11-0.82-4.66
		c-0.14-0.78-0.29-1.55-0.44-2.33c-0.21-1.09-0.45-2.17-0.61-3.26c-0.44-3.06-0.84-6.12-1.28-9.17c-0.04-0.31-0.27-0.59-0.34-0.89
		c-0.19-0.85-0.4-1.7-0.51-2.56c-0.41-3.22-0.5-6.51-1.26-9.64c-0.52-2.12-0.91-4.18-0.9-6.34c0-0.46-0.2-0.93-0.28-1.4
		c-0.25-1.4-0.56-2.79-0.74-4.2c-0.44-3.46-0.83-6.93-1.24-10.39c-0.02-0.16-0.12-0.3-0.15-0.45c-0.26-1.48-0.55-2.96-0.75-4.44
		c-0.42-3.14-0.53-6.34-1.29-9.4c-0.42-1.71-0.84-3.36-0.87-5.13c-0.01-0.46-0.25-0.91-0.36-1.37c-0.23-1-0.44-2-0.67-2.99
		c-0.19-0.84-0.39-1.68-0.59-2.51c-0.15-0.61-0.34-1.22-0.47-1.84c-0.42-1.92-0.68-3.9-1.28-5.76c-0.88-2.75-1.85-5.5-3.05-8.12
		c-1.46-3.17-3.06-6.29-4.85-9.28c-2.39-4-5.74-7.23-9.12-10.4c-0.81-0.76-1.59-1.61-2.51-2.21c-2.91-1.87-5.87-3.63-9.22-4.73
		c-4.05-1.33-8-2.93-12.35-2.95c-0.63,0-1.26-0.19-1.89-0.28C188.48,32.38,186.2,32.05,183.78,31.69z M77.85,145.94
		c-1.04-0.06-1.82-0.08-2.59-0.16c-0.71-0.08-1.41-0.2-2.11-0.35c-0.99-0.22-1.97-0.48-2.96-0.71c-0.69-0.16-1.39-0.3-2.08-0.46
		c-0.84-0.19-1.68-0.4-2.51-0.61c-0.91-0.22-1.82-0.46-2.74-0.67c-0.61-0.14-1.23-0.26-1.85-0.39c-2.24-0.45-4.49-0.83-6.71-1.38
		c-1.91-0.47-3.76-1.16-5.64-1.73c-1.35-0.4-2.72-0.75-4.07-1.14c-2.11-0.61-4.21-1.22-6.31-1.84c-1.31-0.39-2.62-0.79-3.95-1.2
		c-0.16,0.5-0.29,0.72-0.29,0.95c-0.06,6.63-0.12,13.26-0.15,19.89c0,0.5,0.28,1,0.44,1.54c1.28-0.12,2.52,0.07,3.45-0.39
		c1.27-0.63,2.51-0.92,3.89-0.92c0.23,0,0.45-0.13,0.68-0.2c2.1-0.61,4.18-1.31,6.31-1.81c2.22-0.52,4.49-0.84,6.74-1.26
		c0.31-0.06,0.58-0.26,0.89-0.34c2.12-0.56,4.24-1.12,6.36-1.65c1.98-0.49,3.98-0.91,5.96-1.4c2.36-0.59,4.7-1.25,7.07-1.81
		C76.63,147.69,77.53,147.54,77.85,145.94z M334.55,157.98c0.55-2.11,0.55-18.43,0.01-20.46c-0.41-0.07-0.86-0.15-1.32-0.23
		c-2.86-0.51-5.46,0.72-8.12,1.35c-3.28,0.77-6.46,1.96-9.73,2.79c-2.21,0.56-4.5,0.8-6.75,1.2c-0.39,0.07-0.76,0.21-1.15,0.3
		c-1.07,0.25-2.13,0.5-3.21,0.73c-0.62,0.13-1.25,0.22-1.86,0.35c-1.07,0.23-2.14,0.48-3.22,0.71c-0.69,0.15-1.39,0.3-2.08,0.44
		c-1,0.21-2,0.45-3.01,0.62c-0.55,0.09-1.15-0.04-1.66,0.13c-0.38,0.13-0.96,0.69-0.9,0.87c0.15,0.43,0.56,0.92,0.98,1.06
		c0.89,0.29,1.86,0.31,2.77,0.55c1.97,0.52,3.91,1.12,5.88,1.65c2.42,0.65,4.85,1.27,7.28,1.88c1.83,0.46,3.66,0.91,5.5,1.3
		c2.23,0.47,4.5,0.77,6.71,1.3c2.14,0.51,4.21,1.3,6.34,1.83C329.45,156.96,331.93,157.42,334.55,157.98z M65.57,135.28
		c0.01,0.25,0.03,0.5,0.04,0.76c0.59,0.09,1.18,0.18,1.77,0.26c0.79,0.1,1.58,0.16,2.37,0.29c1.4,0.22,2.79,0.49,4.19,0.7
		c0.71,0.11,1.52-0.06,2.12,0.24c1.73,0.85,3.63,0.51,5.36,0.93c2.8,0.68,5.6,1.03,8.45,1.14c0.38,0.01,0.75,0.26,1.14,0.35
		c0.84,0.2,1.68,0.45,2.53,0.53c2.45,0.24,4.51,1.38,6.47,2.74c0.85,0.59,1.1,1.48,1.07,2.52c-0.04,1.35-0.36,2.9,0.16,4.03
		c1.41,3.06,0.59,6.42,1.74,9.56c1.07,2.9,0.63,3.06,3.87,3.06c0.64,0,1.28,0.04,1.92,0c1.45-0.09,1.75-0.41,1.87-1.9
		c0.03-0.4,0.01-0.8,0.01-1.2c-0.01-3.51-0.09-7.03,0.93-10.46c0.11-0.37,0.1-0.79,0.11-1.19c0.06-3.02-0.15-6.02,0.93-8.98
		c0.66-1.81-0.01-2.41-1.98-2.49c-0.4-0.02-0.8,0-1.2-0.01c-8.86-0.16-17.71-0.28-26.57-0.49c-4.94-0.12-9.88-0.4-14.83-0.57
		C67.22,135.06,66.39,135.21,65.57,135.28z M41.39,161.99c0.01,0.24,0.01,0.48,0.02,0.72c0.98,0.05,1.97,0.15,2.95,0.15
		c7.27-0.05,14.53-0.12,21.8-0.18c9.18-0.08,18.36-0.15,27.54-0.23c1.96-0.02,2.37-0.26,2.64-2.27c0.29-2.12,0.35-4.28,0.47-6.43
		c0.06-1.14,0.01-2.29,0.01-3.39c-0.33-0.07-0.5-0.17-0.63-0.12c-2.44,0.87-4.86,1.82-7.5,1.99c-0.38,0.02-0.75,0.25-1.13,0.34
		c-0.91,0.23-1.83,0.45-2.75,0.65c-0.62,0.13-1.25,0.19-1.87,0.32c-1.15,0.24-2.3,0.5-3.45,0.76c-0.61,0.14-1.23,0.27-1.84,0.41
		c-0.91,0.22-1.82,0.46-2.73,0.65c-0.62,0.13-1.25,0.18-1.87,0.31c-1.15,0.24-2.3,0.51-3.45,0.76c-0.61,0.14-1.23,0.28-1.84,0.42
		c-1,0.22-2,0.43-3,0.63c-0.77,0.15-1.56,0.25-2.33,0.41c-1,0.2-1.99,0.45-3,0.65c-0.7,0.14-1.42,0.17-2.11,0.32
		c-2.62,0.58-5.22,1.21-7.84,1.78c-0.46,0.1-0.96,0-1.43,0.05c-0.63,0.08-1.25,0.22-1.87,0.34c-1.08,0.21-2.17,0.43-3.25,0.65
		C42.41,161.79,41.9,161.89,41.39,161.99z M234.5,46.05c0.21-0.07,0.43-0.14,0.64-0.21c-0.17-0.89-0.29-1.8-0.51-2.68
		c-0.11-0.45-0.44-0.85-0.59-1.3c-0.79-2.39-1.32-4.91-2.39-7.17c-2.03-4.29-4.23-8.52-6.61-12.62c-2.35-4.03-5.47-7.56-9.49-9.91
		c-3.9-2.28-7.99-4.47-12.71-4.72c-0.47-0.03-0.92-0.27-1.38-0.36c-1.08-0.22-2.16-0.52-3.25-0.59c-1.75-0.11-3.52-0.14-5.27-0.06
		c-4.27,0.21-8.52-0.31-12.81,0.87c-2.72,0.75-5.48,1.36-8.09,2.43c-3.78,1.55-7.1,3.85-9.9,6.85c-2.62,2.81-4.49,6.15-6.55,9.35
		c-0.2,0.31-0.08,0.83-0.15,1.78c1.19-0.85,2.11-1.31,2.78-2.02c1.37-1.44,2.48-3.14,3.92-4.51c2.01-1.91,4.12-3.75,6.36-5.38
		c2.62-1.91,5.6-3.13,8.65-4.33c3.42-1.35,6.96-2.01,10.47-2.65c4.89-0.89,9.89-0.26,14.64,1.05c3.38,0.93,6.6,2.55,9.74,4.18
		c3.73,1.93,6.75,4.86,9.27,8.16c1.96,2.55,3.55,5.42,5.08,8.26c1.27,2.35,2.44,4.81,3.23,7.35
		C230.56,41.03,232.33,43.64,234.5,46.05z M259.7,161.77c1.12,0,1.99,0.01,2.86,0c2.42-0.03,3.16-0.65,3.27-3.07
		c0.09-1.99-0.04-3.99,0.97-5.83c0.21-0.38,0.11-0.94,0.12-1.42c0.05-1.44,0.15-2.88,0.1-4.31c-0.07-1.96,0.87-3.39,2.36-4.43
		c1.9-1.32,3.98-2.26,6.39-2.25c0.71,0.01,1.42-0.15,2.12-0.26c1.56-0.25,3.11-0.55,4.67-0.78c0.78-0.12,1.66,0.06,2.36-0.22
		c1.92-0.77,3.89-0.79,5.89-0.81c0.62-0.01,1.25-0.21,1.87-0.32c-0.02-0.27-0.05-0.54-0.07-0.81c-3.99-0.18-7.99,0.04-11.99,0.01
		c-3.99-0.04-7.98-0.02-11.97-0.02c-4.04,0-8.08-0.02-12.46,0.01c0.11,2.08,0.07,3.82,0.32,5.51c0.54,3.59,1.59,7.13,1.76,10.73
		C258.4,156.27,259.33,158.75,259.7,161.77z M218.66,30.38c0.18-0.16,0.35-0.32,0.53-0.48c-0.81-1.3-1.43-2.78-2.45-3.88
		c-2.48-2.67-4.92-5.41-8.29-7.11c-3.88-1.95-7.75-3.87-12.23-3.99c-0.71-0.02-1.44-0.13-2.12-0.34c-1.89-0.59-3.77-0.49-5.68-0.1
		c-1.09,0.22-2.22,0.53-3.31,0.45c-2.24-0.17-4.19,0.85-6.19,1.46c-3.63,1.1-6.9,3.1-10.17,5.01c-0.46,0.27-0.74,0.83-1.11,1.26
		c2.56-0.16,4.87-0.67,7.18-1.16c0.39-0.08,0.8-0.12,1.19-0.1c6.73,0.37,13.48-0.78,20.23,0.85c3.03,0.73,6.12,1.3,9.16,2.13
		c3.39,0.92,6.47,2.43,9.53,4.04C216.19,29.07,217.42,29.72,218.66,30.38z M322.31,161.03c-0.42-0.13-0.83-0.34-1.26-0.38
		c-0.95-0.1-1.94,0.01-2.86-0.21c-3.53-0.84-7.09-1.46-10.66-2.1c-2.02-0.36-4.1-0.55-6.06-1.05c-2.02-0.52-4.05-0.66-6.05-1.06
		c-1.78-0.35-3.5-1-5.36-0.97c-0.3,0-0.61-0.18-0.92-0.26c-1.07-0.25-2.14-0.49-3.22-0.72c-0.54-0.12-1.1-0.16-1.63-0.32
		c-1.87-0.57-3.7-1.37-5.61-1.7c-2.06-0.35-3.92-1.12-5.82-1.87c-0.39-0.15-1.03-0.22-1.29-0.01c-0.26,0.22-0.4,0.94-0.24,1.26
		c1.15,2.18,0.78,4.52,0.87,6.82c0.04,1,0.11,2.01,0.16,2.94C274.95,161.97,320.72,161.93,322.31,161.03z M147.68,64.04
		c-0.19-0.03-0.38-0.07-0.56-0.1c-0.81,1.69-1.75,3.33-2.41,5.08c-1.09,2.87-2.03,5.8-2.99,8.72c-0.49,1.49-0.92,3-1.32,4.51
		c-0.46,1.75-0.79,3.54-1.29,5.27c-0.54,1.88-1.34,3.7-1.8,5.59c-0.54,2.21-0.83,4.49-1.27,6.73c-0.09,0.46-0.38,0.88-0.51,1.33
		c-0.18,0.6-0.33,1.22-0.43,1.84c-0.42,2.64-0.61,5.33-1.31,7.9c-0.46,1.71-0.89,3.35-0.91,5.12c-0.01,0.6-0.37,1.2-0.54,1.81
		c-0.17,0.6-0.41,1.22-0.43,1.83c-0.04,1.68-0.12,3.29-0.87,4.89c-0.66,1.41-0.08,2.07,1.5,2.07c0.44,0,0.88-0.22,1.22-0.32
		c0.12-0.3,0.21-0.44,0.23-0.59c0.4-3.62,0.63-7.27,1.24-10.85c0.33-1.93,1.09-3.79,1.06-5.81c-0.01-0.44,0.37-0.87,0.52-1.32
		c0.17-0.52,0.3-1.06,0.4-1.6c0.45-2.32,0.83-4.65,1.34-6.96c0.58-2.61,1.26-5.19,1.9-7.78c0.45-1.83,0.88-3.67,1.37-5.49
		c0.56-2.04,1.23-4.05,1.76-6.09c0.5-1.9,0.78-3.87,1.35-5.74c0.89-2.94,1.96-5.82,2.91-8.75
		C147.95,64.95,147.74,64.47,147.68,64.04z M230.54,94.6c-0.23,0.01-0.46,0.01-0.7,0.02c-0.07,0.81-0.21,1.62-0.21,2.44
		c0,6.22,0.11,12.44,0,18.65c-0.04,2.61-0.52,5.21-0.81,7.81c-0.06,0.55-0.2,1.11-0.19,1.66c0.03,1.41,0.38,1.55,3.34,1.47
		c1.95-0.05,2.26-0.27,2.21-1.65c-0.07-2.15-0.15-4.3-0.25-6.44c-0.03-0.63-0.18-1.25-0.28-1.88c-0.26-1.72-0.55-3.44-0.76-5.16
		c-0.43-3.53-0.8-7.07-1.21-10.61c-0.02-0.16-0.11-0.3-0.13-0.46c-0.24-1.32-0.48-2.64-0.71-3.96
		C230.74,95.86,230.64,95.23,230.54,94.6z"/>
	<path d="M88.31,437.57c1.09-1.32,1.03-2.45,0.68-3.93c-0.38-1.61-0.02-3.47,0.34-5.15c0.23-1.07,1.39-1.16,2.41-0.95
		c1.41,0.28,2.81,0.57,4.22,0.83c1.58,0.3,3.05,0.44,4.61-0.47c0.73-0.43,2.09-0.2,2.97,0.17c1.09,0.45,2.02,0.86,3.17,0.32
		c0.33-0.15,0.85-0.21,1.15-0.06c2.08,1.09,4.24,0.3,6.36,0.34c0.6,0.01,1.21-0.27,1.82-0.42c0.37-0.09,0.8-0.37,1.11-0.27
		c3.11,0.99,6.22,0.44,9.33,0.07c0.45-0.05,0.92,0.04,1.39,0.05c2.05,0.05,4.2,0.5,6.14,0.06c2.47-0.57,4.89-0.55,7.35-0.51
		c1.66,0.02,3.36,0.35,4.83-0.8c0.12-0.09,0.3-0.13,0.45-0.14c2.45-0.17,4.9-0.34,7.35-0.49c0.32-0.02,0.67,0.08,0.95-0.02
		c3.22-1.07,6.62-0.63,9.9-1.21c0.24-0.04,0.54,0,0.7-0.13c1.57-1.35,3.65-0.89,5.33-1.51c1.78-0.66,3.52-0.69,5.29-0.89
		c1.59-0.18,3.1-0.39,4.56-1.17c1-0.53,2.27-0.56,3.42-0.81c0.31-0.07,0.64-0.06,0.94-0.17c3.88-1.36,7.78-2.69,11.64-4.1
		c2.82-1.04,5.76-1.91,8.37-3.36c2.91-1.62,6.02-2.75,8.92-4.42c3.81-2.19,7.16-4.96,10.83-7.29c0.27-0.17,0.55-0.34,0.78-0.56
		c0.93-0.87,0.87-1.57-0.14-2.35c-3.01-2.3-5.85-4.8-8.79-7.19c-0.06-0.05-0.11-0.12-0.18-0.16c-3.22-2.16-6.44-4.32-9.65-6.49
		c-0.52-0.35-0.98-0.8-1.46-1.23c-0.36-0.32-0.63-0.79-1.04-0.97c-4.25-1.83-7.88-4.66-11.75-7.12c-0.46-0.29-1-0.45-1.51-0.65
		c-0.44-0.18-0.93-0.27-1.32-0.52c-2.59-1.71-5.16-3.43-7.72-5.17c-3.55-2.42-7.22-4.67-10.57-7.34c-3.01-2.39-6.18-4.62-8.72-7.57
		c-0.35-0.41-0.92-0.61-1.37-0.94c-0.51-0.38-1.25-0.7-1.44-1.21c-0.67-1.75-2.25-2.65-3.36-3.97c-3.29-3.95-6.88-7.68-8.91-12.55
		c-0.6-1.45-1.44-2.81-2.16-4.21c-1.22-2.36-1.59-4.66,0.65-6.82c-0.47-0.32-0.79-0.53-1.11-0.74c-1.51-0.98-1.92-1.81-1.11-3.38
		c0.87-1.69,0.36-3.25,0.11-4.88c-0.14-0.9-0.3-1.79-0.45-2.68c0.19-0.04,0.38-0.09,0.57-0.13c0.42,1.31,0.77,2.64,1.28,3.91
		c0.31,0.77,0.83,1.46,1.29,2.17c0.43,0.66,1,1.24,1.37,1.92c0.97,1.81,1.87,3.67,2.79,5.51c0.07,0.14,0.09,0.34,0.2,0.43
		c3.5,2.89,4.85,7.56,8.64,10.29c1.94,1.4,3.35,3.52,5.04,5.28c0.38,0.4,0.85,0.72,1.33,0.99c2.12,1.21,2.95,0.78,2.95-1.6
		c0-1.75-0.24-3.5-0.25-5.26c-0.02-2.21,0.08-4.42,0.12-6.63c0.04-1.91,0.07-3.82,0.1-5.73c0.03-2.47,0.1-4.93,0.03-7.4
		c-0.03-1.24-0.32-2.48-0.48-3.72c-0.04-0.31-0.08-0.62-0.05-0.93c0.11-1.17,0.35-2.34,0.36-3.51c0.01-2.3-0.12-4.61-0.16-6.91
		c-0.02-1.11,0.15-2.23,0.02-3.32c-0.29-2.37-0.84-4.66-2.83-6.31c-0.91-0.75-1.76-1.58-2.6-2.42c-1.08-1.08-2.11-1.2-3.41-0.39
		c-1.71,1.06-3.12,2.42-4.38,3.99c-0.84,1.05-1.99,1.85-2.82,2.91c-2.01,2.54-4.07,5.04-5.5,8.01c-0.7,1.44-1.94,2.62-3.24,4.31
		c-0.42-2.03-0.43-3.56-0.25-5.13c0.16-1.4,0.17-2.83,0.22-4.25c0.06-1.83,0.09-3.65,0.13-5.48c0.02-0.7,0.06-1.39,0.08-1.71
		c0.73-0.51,1.42-0.8,1.83-1.31c2.01-2.46,3.25-5.48,5.72-7.63c0.62-0.54,1.05-1.46,1.27-2.28c0.19-0.7,0.18-1.64-0.16-2.24
		c-0.69-1.24-1.68-2.3-2.49-3.47c-0.76-1.1-1.49-2.22-2.14-3.38c-0.81-1.45-1.68-2.9-2.23-4.45c-0.43-1.24-0.42-2.63-0.63-4.16
		c-0.27-0.1-0.76-0.29-1.41-0.54c-0.08-4.4-0.95-8.8,0-13.4c2.04,0.49,2.08,2.31,2.77,3.5c1.54,2.68,2.56,5.72,4.37,8.18
		c1.47,1.99,2.82,4.02,4.06,6.14c0.16,0.27,0.33,0.59,0.58,0.75c0.63,0.4,1.45,1.15,1.93,0.99c1.04-0.35,0.47-1.29,0.18-2.02
		c-0.09-0.22-0.17-0.46-0.16-0.69c0.12-2.03,0.27-4.07,0.41-6.1c0.02-0.24,0.15-0.49,0.1-0.71c-0.77-3.23,0-6.43,0.17-9.64
		c0.03-0.55,0.15-1.3-0.14-1.61c-1.18-1.3-0.82-2.97-0.41-4.08c0.83-2.23-0.12-4.47,0.55-6.62c0.11-0.37-0.14-0.95-0.4-1.32
		c-0.57-0.81-0.36-1.58-0.27-2.48c0.19-2,0.06-4.02,0.06-6.14c-1.51-0.05-2.37,0.99-3.14,1.92c-1.84,2.19-3.54,4.49-5.29,6.76
		c-0.29,0.38-0.51,0.81-0.77,1.21c-1.38,2.08-2.77,4.17-4.15,6.25c-0.19-0.06-0.38-0.12-0.57-0.19c0.13-1.79,0.27-3.58,0.38-5.37
		c0.03-0.54,0.19-1.15-0.02-1.6c-1.03-2.26-0.73-4.35,0.22-6.61c2.63-6.32,6.82-11.44,11.6-16.21c1.71-1.7,3.32-3.41,5.63-4.3
		c0.41-0.16,0.71-0.6,1.03-0.94c0.27-0.28,0.44-0.72,0.76-0.9c2.52-1.42,5.07-2.8,7.62-4.18c0.27-0.15,0.64-0.14,0.91-0.29
		c2.26-1.29,4.45-2.72,6.78-3.85c2.06-1,4.27-1.69,6.43-2.51c0.3-0.11,0.71-0.04,0.92-0.22c2.51-2.12,6.01-1.91,8.69-3.7
		c0.87-0.58,2.1-0.63,3.18-0.9c2.23-0.56,4.46-1.1,6.7-1.65c0.39-0.09,0.79-0.13,1.16-0.26c2.63-0.89,5.23-1.85,7.88-2.69
		c2.15-0.68,2.78-0.09,2.52,2.17c-0.12,1.02-0.48,2.05,0.3,2.99c0.13,0.16,0.22,0.54,0.12,0.66c-1.21,1.53-0.32,2.93,0.01,4.48
		c0.27,1.25-0.36,2.66-0.4,4c-0.12,3.97-0.13,7.94-0.2,11.91c-0.04,2.07-0.17,4.15-0.13,6.22c0.03,1.25,0.32,2.5,0.46,3.75
		c0.05,0.46,0.08,0.95,0.01,1.4c-0.31,1.96-1.06,3.96-0.89,5.87c0.19,2.1-0.21,4.17,0.24,6.3c0.78,3.74,0.51,7.59,0.39,11.4
		c-0.08,2.71-0.18,5.43-0.23,8.14c-0.01,0.54,0.03,1.17,0.29,1.61c0.47,0.79,0.3,1.44,0.06,2.25c-0.26,0.87-0.24,1.87-0.17,2.8
		c0.13,1.86,0.14,2.02-1.62,2.58c-2.96,0.95-5.94,1.8-8.91,2.72c-2.04,0.63-4.06,1.32-6.1,1.97c-0.98,0.31-1.96,0.6-2.95,0.9
		c-0.31,0.09-0.65,0.09-0.92,0.24c-3.29,1.79-7.13,2.25-10.37,3.95c-3.59,1.89-7.55,2.92-11,5.06c-0.86,0.53-1.64,1.19-2.72,1.98
		c1.38,1.13,2.47,2.12,3.66,2.98c1.15,0.84,2.43,1.51,3.6,2.32c1.42,0.98,2.73,2.13,4.2,3.04c4.66,2.9,9.35,5.74,14.05,8.55
		c2.23,1.34,4.58,2.48,6.79,3.85c1.74,1.08,3.27,2.49,5.02,3.55c4.71,2.86,8.94,6.35,13.21,9.8c2.17,1.75,4.17,3.7,6.24,5.56
		c0.18,0.16,0.31,0.38,0.51,0.5c3.17,1.96,5.01,5.2,7.47,7.83c1.46,1.55,2.35,3.62,4.28,4.77c0.25,0.15,0.45,0.47,0.59,0.74
		c2.15,4.24,4.34,8.45,6.38,12.75c0.67,1.41,0.82,2.95,0.58,4.64c-0.36,2.49-0.19,5.06-0.25,7.59c-0.01,0.51-0.08,1.03-0.58,1.64
		c-0.19-0.53-0.36-1.06-0.56-1.59c-0.36-0.96-0.47-2.2-1.15-2.81c-2.49-2.23-3.7-5.23-5.31-8c-0.23-0.4-0.63-0.7-0.94-1.05
		c-0.72-0.84-1.59-1.6-2.13-2.55c-1.28-2.26-2.97-4.11-4.99-5.73c-0.59-0.47-0.97-1.24-1.34-1.92c-0.78-1.43-1.31-1.75-3.3-1.72
		c-0.23,3.84-0.49,7.69-0.68,11.54c-0.04,0.76,0.19,1.54,0.32,2.3c0.05,0.31,0.36,0.72,0.25,0.88c-1.34,1.95,0.37,4.07-0.37,6.06
		c-0.12,0.32,0.05,0.77,0.14,1.15s0.46,0.82,0.36,1.11c-0.73,2.06,0.23,4.13-0.12,6.23c-0.36,2.15-0.1,4.4-0.13,6.61
		c-0.01,0.76,0.01,1.55-0.16,2.29c-0.26,1.12-0.13,8.63,0.34,9.69c0.28,0.65,0.64,1.29,1.07,1.85c1.22,1.58,2.45,3.14,3.76,4.64
		c0.44,0.51,1.12,0.81,1.91,1.36c1.25-1.51,2.49-2.82,3.52-4.28c1.78-2.52,3.45-5.13,5.12-7.72c0.33-0.52,0.5-1.15,0.71-1.75
		c0.16-0.45,0.19-0.95,0.42-1.36c1.04-1.86,2.24-3.64,3.15-5.56c0.53-1.12,0.66-2.43,0.91-3.67c0.12-0.57,0.12-1.18,0.17-1.76
		c0.17,0.01,0.34,0.01,0.5,0.02c0.05,2.27,0.13,4.55,0.14,6.82c0.01,2.14-0.13,4.29-0.06,6.43c0.07,2.26-0.13,4.42-1.17,6.49
		c-0.9,1.77-1.5,3.7-2.43,5.45c-1.11,2.1-2.34,4.16-3.7,6.12c-0.96,1.39-1.3,2.4-0.22,4.04c1.95,2.97,3.64,6.13,5.14,9.35
		c0.76,1.63,0.61,3.55-0.1,5.32c-0.25,0.6-0.43,1.23-0.65,1.84c0.14,0.09,0.28,0.19,0.42,0.28c0.49-0.28,0.99-0.57,1.51-0.86
		c1.21,1.14,1.06,2.63,0.72,3.84c-0.49,1.73-0.52,3.44-0.56,5.19c0,0.19-0.16,0.38-0.37,0.86c-0.28-0.55-0.46-0.85-0.59-1.18
		c-0.24-0.59-0.27-1.39-0.69-1.76c-2.45-2.16-3.15-5.44-5.13-7.92c-1.09-1.36-1.6-3.19-3.64-4.27c-0.1,4.58-0.22,8.97-0.3,13.36
		c-0.07,4.37-0.52,8.78-0.03,13.09c0.49,4.35-0.71,8.76,0.78,13.18c1.37-0.51,2.02-1.74,2.67-2.84c1.14-1.91,2.08-3.94,3.15-5.89
		c0.49-0.9,1.03-1.8,1.66-2.61c1.55-1.99,2.11-4.39,2.77-6.84c0.98,0.36,0.89,1.08,0.7,1.6c-0.98,2.7-0.92,5.35-0.5,8.21
		c0.38,2.54-0.3,5.23-0.52,7.85c-0.01,0.08-0.03,0.17-0.08,0.22c-2.38,2.42-2.55,5.99-4.39,8.6c-1.43,2.04-2.52,4.44-4.64,5.98
		c-0.25,0.18-0.46,0.46-0.59,0.74c-1.21,2.68-3.61,4.4-5.4,6.61c-1.18,1.45-3.08,2.32-4.26,3.77c-2.26,2.78-5.71,4.05-8.03,6.71
		c-4.89,2.23-9,5.89-14.19,7.58c-1.78,0.58-3.41,1.62-5.11,2.46c-0.28,0.14-0.54,0.43-0.82,0.46c-3.24,0.3-5.95,2.14-8.99,3.03
		c-3.33,0.97-6.59,2.21-9.96,2.99c-4.7,1.09-9.47,1.88-14.22,2.75c-0.93,0.17-1.91,0.07-2.85,0.22c-0.84,0.13-1.71,0.3-2.46,0.67
		c-1.39,0.69-2.78,1.05-4.35,1.08c-2.13,0.04-4.24-0.09-6.38,0.68c-1.57,0.56-3.44,0.29-5.18,0.37c-2.62,0.12-5.24,0.23-7.86,0.34
		c-0.4,0.02-0.91-0.14-1.17,0.06c-1.51,1.13-3.22,0.65-4.87,0.7c-3.9,0.12-7.8,0.33-11.7,0.34c-3.18,0.01-6.36-0.25-9.54-0.3
		c-3.34-0.06-6.68-0.01-10.02-0.01c-0.56,0-1.16,0.1-1.66-0.08c-2.64-0.97-5.36-0.68-8.06-0.61c-0.48,0.01-0.96,0.03-1.44,0
		c-2.19-0.14-2.47-0.42-2.21-2.59c0.14-1.16,0.51-2.29,0.77-3.43c0.05-0.23,0.17-0.46,0.16-0.69c-0.1-2.13-0.28-4.26-0.3-6.39
		c-0.01-1.09,0.34-2.18,0.38-3.28c0.09-2.77,0.07-5.55,0.14-8.32c0.04-1.59,0.23-3.18,0.23-4.77c-0.01-2.9-0.46-5.86-0.05-8.69
		c0.29-2.01,0-3.81-0.1-5.74c-0.16-3.05,0.43-6.13,0.5-9.2c0.05-2.36-0.27-4.72-0.3-7.09c-0.02-1.4,0.34-2.79-0.29-4.18
		c-0.18-0.38,0.11-1.14,0.41-1.55C89.63,439.57,89.31,438.62,88.31,437.57z M164.63,489.31c0.05,0.15,0.1,0.29,0.15,0.44
		c0.7-0.13,1.4-0.25,2.1-0.4c2.09-0.44,4.17-0.93,6.27-1.34c2.87-0.56,5.09-3.3,5.03-6.3c-0.04-2.14-0.24-4.29-0.11-6.43
		c0.15-2.5,0.76-4.88-0.21-7.48c-0.59-1.57,0.61-3.63-0.29-5.44c0.9-1.24,0.71-2.5,0.11-3.8c-0.11-0.25-0.03-0.65,0.09-0.93
		c0.45-1.02,0.34-1.99,0.04-3.03c-0.19-0.66-0.12-1.41-0.09-2.11c0.09-2.3,0.27-4.6,0.31-6.9c0.04-1.97-0.18-3.96-0.05-5.92
		c0.12-1.8-0.08-2.32-1.89-2.48c-2.28-0.21-4.43-0.1-6.77,0.65c-2.46,0.79-5.21,0.94-7.84,1.48c-3.86,0.78-7.89,0.77-11.85,1.12
		c-2.13,0.18-4.39,0.02-6.37,0.68c-3.06,1.02-6.15,0.57-9.21,0.87c-2.28,0.22-4.6,0.12-6.9,0.19c-4.12,0.13-8.24,0.33-12.37,0.39
		c-3.2,0.04-6.39-0.88-9.6,0.03c-0.46,0.13-1.06-0.22-1.6-0.35c-1.96-0.47-3.78,0.01-5.52,0.87c-0.83,0.41-1.34,1.15-1.26,2.15
		c0.1,1.26,0.24,2.51,0.38,3.77c0.04,0.39,0.26,0.81,0.16,1.15c-0.8,2.65-0.48,5.37-0.54,8.06c-0.11,5.26-0.13,10.53-0.09,15.79
		c0.03,3.7-0.56,7.44,0.65,11.08c0.1,0.31-0.08,0.77-0.24,1.11c-0.78,1.68-0.11,3.3,0.31,4.87c0.29,1.06,1.17,1.75,2.39,1.54
		c1.01-0.18,1.87-0.07,2.67,0.64c0.26,0.23,0.75,0.25,1.14,0.26c3.53,0.02,7.06,0,10.58,0.01c4.69,0,9.38,0.06,14.07-0.01
		c1.32-0.02,2.64-0.67,3.94-0.61c3.57,0.18,7.1,0.08,10.63-0.49c1-0.16,2.02-0.26,3.03-0.41c0.92-0.13,1.83-0.35,2.76-0.42
		c2.06-0.16,4.12-0.24,6.18-0.4c0.86-0.07,1.7-0.31,2.55-0.42c1.66-0.21,3.33-0.31,4.97-0.59
		C163.14,490.06,163.87,489.62,164.63,489.31z M174.55,298.86c-0.24,1.19-0.8,2.26-0.57,3.12c0.67,2.5-0.21,4.89-0.15,7.33
		c0.01,0.55-0.37,1.28-0.14,1.62c0.94,1.34,0.61,2.72,0.46,4.15c-0.16,1.49-0.26,2.99-0.3,4.49c-0.09,3.9-0.13,7.79-0.2,11.69
		c-0.04,2.3,0.08,4.63-0.24,6.9c-0.38,2.64,0.94,5.16,0.27,7.79c-0.1,0.38,0.23,0.92,0.44,1.34c1.03,2,2.18,3.88,4.2,5.11
		c1.97,1.2,3.82,2.62,5.8,3.8c4.52,2.69,9.1,5.28,13.64,7.92c1.44,0.84,2.86,1.72,4.26,2.61c1.8,1.15,3.58,2.32,5.35,3.51
		c1.83,1.24,3.68,2.47,5.45,3.79c2.03,1.51,3.98,3.14,5.98,4.68c0.5,0.39,1.07,0.71,1.66,0.94c1.13,0.45,1.75,0.11,1.79-1.06
		c0.1-3.02,0.09-6.05,0.15-9.07c0.08-4.06,0.13-8.12,0.28-12.17c0.09-2.51,0.57-5.03,0.47-7.52c-0.08-1.76-0.52-3.5-0.65-5.31
		c-0.2-2.87-0.34-5.72,0.07-8.52c0.58-4.07-1.72-6.69-4.31-9c-2.41-2.15-5.24-3.82-7.95-5.62c-5.49-3.67-10.99-7.32-16.55-10.89
		c-1.66-1.07-3.6-1.71-5.28-2.76c-2.81-1.76-5.5-3.74-8.29-5.54C178.53,301.08,176.76,300.15,174.55,298.86z M233.22,408.49
		c-0.79,0.38-1.25,0.51-1.58,0.79c-2.25,1.9-4.5,3.8-6.7,5.76c-1.01,0.89-1.9,1.91-2.86,2.85c-0.22,0.22-0.48,0.52-0.75,0.56
		c-3.15,0.42-4.83,3.5-7.79,4.25c-0.93,1.88-2.96,1.93-4.55,2.69c-1,0.48-2.07,0.81-3.09,1.26c-3.03,1.34-5.95,3.14-9.11,3.92
		c-2.34,0.58-4.54,1.46-6.74,2.27c-4.11,1.5-5.24,3.05-5.05,6.53c0.1,1.82,0.26,3.65,0.24,5.48c-0.04,3.35-0.27,6.69-0.29,10.04
		c-0.03,5.49,0.04,10.98,0.08,16.48c0.01,2.14,0.05,4.28,0.05,6.43c0,1.12-0.1,2.24-0.06,3.35c0.04,0.9,0.22,1.8,0.33,2.62
		c2.45,0.25,4.43,0.17,6.5-0.81c3-1.41,6.25-2.28,9.39-3.4c0.66-0.24,1.29-0.57,1.93-0.87c1.13-0.52,2.27-1.04,3.39-1.58
		c0.5-0.24,0.95-0.58,1.46-0.81c1.8-0.82,3.63-1.56,5.41-2.43c1.28-0.63,2.56-1.3,3.72-2.13c2.5-1.8,5.02-3.61,7.34-5.63
		c2.19-1.91,4.69-3.42,6.37-6.01c2.04-3.14,2.58-6.4,2.29-9.98c-0.13-1.57-0.51-3.24-0.12-4.69c0.61-2.24-0.1-4.4,0.12-6.61
		c0.25-2.5-0.19-5.06-0.18-7.59c0.01-3.58,0.21-7.15,0.25-10.73C233.26,416.65,233.22,412.8,233.22,408.49z M163.15,271.76
		c1.05-0.52,2.03-0.83,2.82-1.41c2.91-2.13,6.14-3.67,9.36-5.23c0.77-0.38,1.64-0.57,2.41-0.94c1.42-0.69,2.77-1.56,4.23-2.17
		c2.7-1.12,5.45-2.13,8.19-3.14c2.68-0.98,5.37-1.95,8.08-2.84c1.42-0.46,2.91-0.73,4.35-1.11c0.82-0.22,1.63-0.47,2.42-0.76
		c1.18-0.43,2.49-0.72,3.45-1.46c0.45-0.35,0.21-1.59,0.32-2.42c0.05-0.39,0.28-0.76,0.3-1.15c0.03-0.77,0-1.54-0.06-2.31
		c-0.04-0.54-0.27-1.08-0.25-1.62c0.05-1.34,0.22-2.68,0.3-4.02c0.36-5.89,0.74-11.79,0.01-17.69c-0.05-0.39,0.06-0.79,0.07-1.19
		c0.04-2.39,0.06-4.77,0.11-7.16c0.04-2.22,0.19-4.44,0.16-6.65c-0.03-2.03,0.44-4.09-0.09-6.15c-1.91-0.12-3.55-0.09-4.93,1.13
		c-0.29,0.26-0.67,0.58-1.01,0.58c-2.01,0.01-3.83,0.8-5.72,1.22c-2.97,0.67-5.6,2.13-8.46,3c-1.87,0.57-3.54,1.9-5.43,2.3
		c-3.3,0.7-5.74,3.33-9.11,3.76c-0.14,0.02-0.26,0.18-0.38,0.28c-1.89,1.61-4.17,2.56-6.36,3.66c-3.65,1.82-5.27,4.87-5.25,8.86
		c0.02,3.63,0.17,7.27,0.16,10.9c0,5.47-0.08,10.94-0.15,16.41c-0.01,1.18-0.15,2.36-0.15,3.55c-0.02,2.78-0.04,5.56,0.03,8.35
		C162.61,267.98,162.11,269.67,163.15,271.76z M103.94,436.8c0.28-2.35-0.56-3.68-2.73-3.76c-1.87-0.07-3.75,0.29-5.63,0.48
		c-0.8,0.08-1.62,0.21-1.88,1.15c-0.31,1.1,0.53,1.6,1.23,2.07c0.43,0.28,1.04,0.42,1.56,0.41
		C98.91,437.08,101.34,436.93,103.94,436.8z M101.08,502.34c0.65-0.09,1.34-0.05,1.89-0.31c0.49-0.23,1.06-0.73,1.19-1.22
		c0.4-1.51-0.32-2.4-1.88-2.13c-1.79,0.31-3.4,0.17-5.11-0.5c-1.74-0.68-2.68,0.01-3.4,1.96c-0.47,1.29,0.17,2.23,1.44,1.83
		c1.33-0.42,2.5-0.15,3.75,0.08C99.66,502.18,100.38,502.24,101.08,502.34z M123.38,501.62c0.06-2.28-0.12-2.76-1.28-2.78
		c-2.6-0.04-5.21,0-7.81,0.04c-0.79,0.01-1.43,0.35-1.41,1.25s0.2,1.88,1.32,1.95C117.22,502.26,120.28,503.41,123.38,501.62z
		 M113.66,434.25c-0.05,0.62-0.11,1.08-0.12,1.54c-0.04,1.12,0.54,1.54,1.62,1.53c2.46-0.04,4.91,0,7.37-0.03
		c1.49-0.02,1.97-0.78,1.47-2.17c-0.32-0.89-0.96-1.14-1.82-1.25C119.39,433.49,116.65,433.63,113.66,434.25z M143.16,500.97
		c0.56-2.21,0.34-3.01-0.85-3.03c-2.53-0.04-5.06,0.05-7.6,0.13c-1,0.03-1.33,0.71-1.28,1.64c0.06,1.17,0.7,1.98,1.66,1.91
		C137.82,501.44,140.53,501.19,143.16,500.97z M152.82,499.65c0.65,0.06,1.33,0.21,2,0.17c1.41-0.09,2.84-0.16,4.21-0.45
		c0.97-0.21,1.93-0.68,2.76-1.23c0.34-0.22,0.55-1.04,0.42-1.46c-0.12-0.38-0.77-0.8-1.22-0.84c-1.42-0.14-2.87-0.22-4.29-0.11
		C154.18,495.94,152.9,497.23,152.82,499.65z M153.15,432.32c0.82,2.55,1.94,3.22,4.01,2.61c1.2-0.35,2.41-0.66,3.63-0.93
		c1.32-0.3,1.99-1.13,1.81-2.35c-0.16-1.11-0.93-1.55-2.35-1.3c-1.01,0.18-2.02,0.65-3.01,0.6
		C155.69,430.89,154.48,431.46,153.15,432.32z M134.31,436.21c2.13,0,4.11,0.09,6.08-0.04c0.92-0.06,1.89-0.4,2.69-0.87
		c0.4-0.24,0.66-1.08,0.6-1.61c-0.04-0.34-0.76-0.87-1.18-0.87c-2.14-0.02-4.3-0.02-6.43,0.23
		C134.28,433.26,133.92,434.06,134.31,436.21z M209,258.91c-2.74-0.2-5.15,0.6-7.57,1.32c-1,0.29-1.39,0.95-1,2.01
		c0.46,1.27,0.93,1.62,2.07,1.32c1.53-0.41,3.06-0.83,4.57-1.3C209.01,261.67,209.13,261.44,209,258.91z M201.52,198.59
		c2.17-0.62,4.37-1.24,6.55-1.89c0.29-0.09,0.65-0.29,0.76-0.54c0.27-0.6,0.64-1.31,0.53-1.88c-0.07-0.34-0.98-0.68-1.53-0.72
		c-1.97-0.14-3.75,0.66-5.45,1.48C200.89,195.76,200.78,196.53,201.52,198.59z M179.09,426.97c-2.3,0.72-4.64,0.13-6.63,1.72
		c-1.45,1.15-1.56,1.03-0.65,3.33c1.61-0.35,3.29-0.69,4.96-1.08C179.46,430.31,179.46,430.3,179.09,426.97z M171.11,496.42
		c0.4,0.12,0.69,0.23,1,0.29c2.33,0.41,4.2-1.18,6.37-1.53c0.3-0.05,0.66-1.03,0.61-1.54c-0.06-0.69-0.46-1.4-1.41-1.29
		c-1.11,0.13-2.33,0.03-3.29,0.48C172.96,493.5,170.82,493.73,171.11,496.42z M185.36,268.98c1.33,0.05,2.56,0.1,3.45-0.85
		c0.64-0.68,1.3-1.02,2.23-1.18c1.21-0.2,1.91-1.54,1.43-2.51c-0.54-1.09-1.48-0.75-2.28-0.44c-1.18,0.46-2.3,1.04-3.45,1.58
		C184.95,266.42,184.94,266.46,185.36,268.98z M187.52,493.04c1.29-0.29,2.44-0.53,3.58-0.82c2.77-0.72,3.37-1.63,2.94-4.46
		c-1.97,0.63-3.92,1.25-5.87,1.89c-0.75,0.25-1.24,0.74-1.06,1.62C187.23,491.87,187.39,492.47,187.52,493.04z M187.52,428.05
		c2.1-0.63,3.98-1.18,5.85-1.76c0.96-0.3,1.47-0.92,1.14-1.98c-0.33-1.08-1.13-1.28-2.06-0.99c-0.9,0.28-1.74,0.75-2.64,1.03
		C187.65,425,187.48,425.2,187.52,428.05z M192.65,198.14c-2.25,1.05-4.24,1.89-6.14,2.9c-1.09,0.58-1.19,1.7-1.08,2.98
		c0.51-0.11,0.91-0.12,1.24-0.27c1.56-0.71,2.99-1.75,4.82-1.79c0.33-0.01,0.85-0.53,0.92-0.89
		C192.59,200.19,192.57,199.27,192.65,198.14z M199.92,309.08c0.4-3.95-2.25-6.49-5.85-5.86c-0.06,1.59,0.07,2.99,2.06,3.43
		c0.57,0.12,1.02,0.72,1.55,1.06C198.38,308.16,199.09,308.58,199.92,309.08z M195.01,368.05c-1.48,1.96-1.47,2.27,0.15,3.32
		c1.32,0.85,2.68,1.65,4.01,2.47c1.3-2.01,1.35-2.49-0.1-3.54C197.87,369.43,196.47,368.84,195.01,368.05z M207.04,417.52
		c-1.2,0.51-2.43,1.04-3.67,1.56c-1.75,0.73-1.99,1.58-0.85,3.7c1.51-0.8,3.12-1.48,4.53-2.44
		C208.47,419.38,208.39,419.09,207.04,417.52z M182.33,295c-0.73,1.03-0.95,1.97-0.33,2.81c1.19,1.61,2.98,2.38,4.66,3.45
		c0.8-2.44,0.7-2.86-0.82-3.9C184.75,296.61,183.64,295.88,182.33,295z M186.57,366.21c0.9-0.94,1.08-2.21,0.35-2.84
		c-1.42-1.22-2.78-2.76-4.92-2.95c-0.6,1.19-0.7,2.37,0.25,3.12C183.55,364.58,185.1,365.32,186.57,366.21z M211.97,317.06
		c0.14-1.62,0.38-2.74-0.6-3.57c-1.09-0.93-2.24-1.79-3.44-2.57c-0.76-0.49-1.51-0.08-1.48,0.82c0.02,0.66,0.2,1.54,0.65,1.91
		C208.48,314.79,210.02,315.73,211.97,317.06z M172.67,210.26c1.68-0.88,3.19-1.56,4.59-2.43c1.42-0.88,1.52-1.41,1.04-3.11
		C173.2,206.36,172.19,207.27,172.67,210.26z M202.29,487.04c1.7,0.83,2.84-0.43,4.07-1.17c1.48-0.89,1.5-1.32,0.31-3.06
		c-1.01,0.4-2.04,0.8-3.06,1.23C202.09,484.66,201.95,484.99,202.29,487.04z M211.23,381.66c1-1.6,1.13-1.95,0.46-2.6
		c-1.45-1.42-3.09-2.6-5.03-3.4C206.2,377.93,207.52,379.64,211.23,381.66z M172.46,274.25c0.13,0.19,0.26,0.38,0.39,0.56
		c1.45-0.69,2.92-1.34,4.35-2.08c0.62-0.32,1.3-0.76,0.9-1.68c-0.37-0.85-1.18-1.05-2.22-0.63
		C174.08,271.14,173.04,272.49,172.46,274.25z M218.63,475.99c-0.85,0.52-1.52,0.92-2.19,1.33c-1.86,1.14-2.05,1.72-1.27,4.24
		c0.41-0.25,0.8-0.46,1.16-0.71c0.38-0.28,0.71-0.64,1.1-0.89C219.35,478.73,219.42,478.54,218.63,475.99z M175,358.4
		c0.21-0.26,0.38-0.37,0.4-0.5c0.35-2.37-1.03-4.04-4.13-5.01C170.88,355.66,171.02,355.87,175,358.4z M175.05,293.57
		c1-2.07,0.74-3.06-1.05-4.35c-0.75-0.54-1.51-1.39-2.52-0.54c-0.67,0.56-0.41,1.49,0.79,2.64
		C173.12,292.14,174.1,292.81,175.05,293.57z M218.6,318.45c-1.41,2.38-0.19,4.13,3.65,5.57c0-0.78,0.27-1.66-0.05-2.04
		C221.18,320.75,219.93,319.72,218.6,318.45z M218.48,411.29c-0.94,0.6-1.71,1.13-2.51,1.58c-1.31,0.74-1.46,1.27-0.77,3.01
		C218.28,415.31,219.38,413.85,218.48,411.29z M228.15,468.77c-2.91,1.59-3.54,2.71-2.84,4.87
		C228.33,472.51,228.99,471.44,228.15,468.77z M161.97,215.75c0.89-0.33,1.39-0.64,1.91-0.69c1.97-0.17,2.26-1.74,2.67-3.17
		c0.08-0.28-0.13-0.84-0.38-0.97c-0.26-0.14-0.84-0.07-1.06,0.14c-1.07,1.04-2.08,2.13-3.05,3.26
		C161.88,214.54,162.01,215.03,161.97,215.75z M227.98,403.83c-1.01,1.04-1.88,1.83-2.61,2.74c-0.79,0.97-0.63,1.32,0.72,2.31
		C228.9,406.68,229.12,406.2,227.98,403.83z M218.41,384.04c-0.58,1.84,0.44,3.67,2.67,4.77
		C221.69,386.44,220.93,385.07,218.41,384.04z M161.49,346.03c1.04,1.5,1.83,2.67,2.68,3.79c0.12,0.16,0.66,0.22,0.85,0.09
		c0.28-0.19,0.57-0.59,0.58-0.91C165.66,347.52,163.91,346.03,161.49,346.03z M156.66,218.14c-0.98,1.03-1.78,1.76-2.42,2.6
		c-0.19,0.25-0.05,1.01,0.21,1.24c0.23,0.21,0.94,0.18,1.25-0.02C156.87,221.19,157.36,220.11,156.66,218.14z M233.55,466.31
		c1.14-1.43,2.75-2.24,2.14-4.3C233.03,463.66,232.82,464.04,233.55,466.31z M156.67,283.79c-2.58,0.48-3.13,1.46-2,3.63
		C155.81,286.51,156.81,285.64,156.67,283.79z M228.28,327.53c-1.69,1.58-0.43,2.31,2.23,3.02
		C230.96,328.54,228.88,328.62,228.28,327.53z M230.26,395.11c-0.21-1.56-1.37-1.83-2.57-2.18
		C227.35,394.86,227.92,395.34,230.26,395.11z M236.96,338c0.19-1.66,0.19-1.66-1.58-2.3C235.19,337.37,235.19,337.37,236.96,338z
		 M147.91,293.9c0.16,0.1,0.31,0.21,0.47,0.31c1.82-0.85,1.91-1.1,0.76-2.66C148.69,292.4,148.3,293.15,147.91,293.9z
		 M154.79,338.49c0.28,1.6,1.05,2.18,2.31,2.55C157.29,339.36,156.32,338.94,154.79,338.49z M156.99,275.23
		c-0.25-0.94-0.26-1.81-1.25-2.33C155.06,274.93,155.06,274.93,156.99,275.23z M239.37,456.92c1.81-0.22,1.81-0.22,1.55-2.04
		C240.31,455.67,239.84,456.29,239.37,456.92z M148.95,228.65c0.62-0.76,0.96-1.17,1.57-1.92
		C148.98,226.72,148.64,227.14,148.95,228.65z M150.11,333.59c0.21-0.03,0.43-0.05,0.64-0.08c0.46-0.71,0.38-1.27-0.9-1.85
		C149.97,332.5,150.04,333.04,150.11,333.59z M150.18,268.05c0.27-0.01,0.54-0.02,0.81-0.03c-0.09-0.54-0.18-1.09-0.27-1.63
		c-0.18,0.02-0.36,0.04-0.55,0.06C150.18,266.97,150.18,267.51,150.18,268.05z M241.91,410.92c0.2-0.5,0.38-0.75,0.37-0.99
		c-0.01-0.16-0.35-0.48-0.41-0.45c-0.23,0.11-0.56,0.33-0.57,0.53C241.28,410.22,241.58,410.46,241.91,410.92z M145.84,259.66
		c0.19-0.01,0.38-0.03,0.57-0.04c-0.08-0.31-0.16-0.62-0.23-0.92c-0.14,0.04-0.39,0.07-0.39,0.12
		C145.77,259.09,145.82,259.37,145.84,259.66z M241.97,344.67c-0.18,0.27-0.34,0.42-0.38,0.6c-0.02,0.1,0.19,0.36,0.23,0.35
		c0.19-0.07,0.45-0.17,0.5-0.33C242.36,345.17,242.15,344.96,241.97,344.67z"/>
	<path class="st0" d="M145.84,259.66c-0.02-0.28-0.06-0.57-0.05-0.85c0-0.05,0.25-0.08,0.39-0.12c0.08,0.31,0.16,0.62,0.23,0.92
		C146.22,259.63,146.03,259.64,145.84,259.66z"/>
</g>
</svg>
