<?xml version="1.0" encoding="utf-8"?>
<!-- Generator: Adobe Illustrator 27.1.1, SVG Export Plug-In . SVG Version: 6.00 Build 0)  -->
<svg version="1.1" id="Layer_1" xmlns="http://www.w3.org/2000/svg" xmlns:xlink="http://www.w3.org/1999/xlink" x="0px" y="0px"
	 viewBox="0 0 433.4 571.2" style="enable-background:new 0 0 433.4 571.2;" xml:space="preserve">
<g>
	<path d="M296.83,212.77c-1.05,2.62-1.83,5.4-3.23,7.82c-0.89,1.55-2.61,2.68-4.11,3.8c-1.96,1.47-3.95,3.01-6.16,4.02
		c-1.53,0.7-2.9,1.55-4.26,2.47c-0.67,0.45-0.97,1.02-0.78,1.84c0.27,1.17,0.37,2.4,0.81,3.5c0.53,1.34,0.61,2.76,0.94,4.08
		c0.51,2.07,0.47,4.13,0.76,6.17c0.16,1.12,0.03,2.27,0.03,3.27c7.82-1.87,15.51-3.84,23.26-5.51c7.16-1.54,14.43-2.59,21.76-2.97
		c6.13-0.32,12.28-0.75,18.41-0.63c9.81,0.19,19.57,1.2,29.24,2.93c6.83,1.22,13.65,2.52,20.25,4.68c7.14,2.34,14.01,5.34,20.5,9.18
		c2.34,1.38,4.76,2.62,7.09,4.02c2.26,1.36,4.46,2.81,6.01,5.03c0.27,0.39,0.55,0.79,0.76,1.22c0.95,1.93,0.7,2.55-1.06,3.75
		c-1.97,1.35-3.88,2.8-5.77,4.26c-0.55,0.42-0.96,1.02-1.63,1.75c0.79,0.5,1.43,0.9,2.07,1.31c2.96,1.9,3.73,4.08,2.48,7.36
		c-0.65,1.7-1.46,3.35-2.19,5.01c0.03,0.08,0.04,0.19,0.09,0.23c4.45,3.44,4.06,6.68,1.99,11.5c-0.78,1.81-1.91,3.48-2.96,5.35
		c0.54,0.58,1.08,1.14,1.6,1.73c1.37,1.53,1.73,3.2,0.66,5.06c-0.28,0.48-0.58,0.95-0.86,1.44c-1.21,2.14-1.02,2.9,0.9,4.35
		c0.69,0.52,1.39,1.11,1.91,1.79c1.07,1.41,1.25,3,0.18,4.45c-0.94,1.27-2.07,2.4-3.18,3.53c-0.59,0.6-1.34,1.05-1.95,1.52
		c1.17,1.51,2.23,2.79,3.18,4.16c1.4,2.01,1.56,4.18,0.37,6.34c-1.81,3.29-3.66,6.55-5.57,9.78c-1.62,2.75-3.42,5.4-5.01,8.17
		c-0.75,1.3-1.07,2.86-1.82,4.16c-1.78,3.12-3.54,6.27-5.6,9.19c-1.96,2.78-3.48,5.75-4.61,8.91c-1.11,3.12-2.61,6.01-4.34,8.79
		c-6.29,10.1-12.75,20.1-18.85,30.31c-6.4,10.69-12.51,21.55-18.65,32.4c-4.22,7.44-8.63,14.74-13.77,21.6
		c-7.35,9.8-13.37,20.44-19.22,31.18c-2.25,4.13-4.72,8.16-7.28,12.12c-5.57,8.58-11.2,17.11-16.92,25.59
		c-2.45,3.64-5.21,7.07-7.77,10.64c-0.97,1.36-1.81,2.82-2.64,4.27c-1.35,2.35-2.58,4.78-4,7.09c-1.1,1.79-2.62,3.2-4.6,4.07
		c-1.24,0.55-2.31,0.53-3.18-0.66c-0.52-0.71-1.13-1.35-1.62-2.07c-2.35-3.44-4.31-7.09-5.85-10.97
		c-2.46-6.21-5.7-11.93-10.27-16.89c-3.41-3.7-6.41-7.76-9.77-11.5c-4.7-5.25-9.79-10.06-15.57-14.16
		c-5.47-3.88-10.76-8.01-16.17-11.98c-10.45-7.68-21.22-14.85-33.42-19.48c-4.38-1.66-9.01-2.67-13.55-3.91
		c-0.65-0.18-1.51-0.17-2.09,0.11c-2.91,1.43-5.91,1.19-8.9,0.61c-3.92-0.76-7.74-1.87-11.33-3.7c-2.2-1.12-3.84-2.83-5.37-4.69
		c-0.55-0.66-1.14-1.32-1.82-1.85c-5.03-3.93-10.18-7.72-15.12-11.75c-5.46-4.46-11.09-8.64-17.2-12.15
		c-6.93-3.98-14.2-7.22-21.67-10.06c-10.2-3.87-20.77-6.26-31.55-7.58c-6.56-0.8-13.18-1.28-19.78-1.52
		c-11.25-0.41-22.51-0.52-33.76-0.76c-0.64-0.01-1.28,0.02-1.92-0.07c-1.48-0.2-2.68-1.34-2.87-2.8c-0.22-1.74-0.42-3.49-0.48-5.23
		c-0.19-6.44,0.46-12.75,3.05-18.75c0.92-2.12,1.67-4.32,2.51-6.48c1.89-4.82,2.51-9.87,2.96-14.98c0.24-2.68,0.88-5.33,1.3-8
		c0.56-3.62,1.35-7.22,1.57-10.86c0.61-10.37,1.77-20.65,3.94-30.83c0.91-4.28,1.3-8.67,2.17-12.97c1.19-5.86,2.53-11.69,3.94-17.51
		c1.72-7.14,2.97-14.36,3.92-21.64c0.8-6.09,2.02-12.09,3.74-18.02c1.35-4.65,2.02-9.51,2.88-14.29c1.04-5.72,1.83-11.5,2.98-17.2
		c1.26-6.23,3.58-12.07,7.13-17.4c1.21-1.82,2.73-2.28,4.71-1.95c0.85,0.14,1.71,0.21,2.67,0.32c0.59-1.37,1.2-2.58,1.65-3.85
		c0.8-2.29,2.29-3.6,4.75-3.71c0.22-0.01,0.44-0.16,0.85-0.31c0.21-3.48,1.56-6.15,5.7-6.25c0.17-0.4,0.23-0.86,0.48-1.09
		c2.06-1.8,1.68-4.34,2.09-6.64c0.16-0.86,0.2-1.75,0.44-2.58c0.63-2.12,1.65-2.86,3.81-2.9c0.32-0.01,0.64,0.01,0.96,0.01
		c1.73-0.01,2.14-0.32,2.08-2.07c-0.15-4.26,0.51-8.43,1.09-12.62c0.35-2.52,1.11-3,3.53-2.37c1.14,0.3,2.28,0.6,3.76,0.98
		c0-1.68-0.04-3.07,0.01-4.46c0.08-1.9,0.09-3.82,0.4-5.69c0.16-0.96,0.79-1.92,1.43-2.69c1.05-1.28,1.86-1.45,3.36-0.64
		c3.46,1.87,5.07,0.87,6.92-2.45c0.66-1.19,1.24-2.43,2.01-3.54c1.55-2.22,3.21-2.81,5.8-2.09c5.99,1.68,12.02,3.24,17.94,5.14
		c6.4,2.05,12.49,4.83,18.39,8.08c9.61,5.3,18.56,11.57,27.52,17.87c5.35,3.77,10.82,7.39,16.03,11.34
		c5.86,4.45,11.15,9.57,16.11,15.02c4.14,4.54,8.27,9.1,12.39,13.66c2.14,2.37,4.3,4.73,6.36,7.16c1.03,1.21,2.23,1.6,3.77,1.67
		c3.15,0.15,6.29,0.61,9.44,0.7c2.5,0.07,5,0.92,7.51,0.11c0.08-0.02,0.18-0.08,0.23-0.05c2.16,1.36,4.5,0.07,6.73,0.44
		c1.01,0.17,2.06,0.13,3.09,0.1c3.39-0.08,6.79-0.16,10.18-0.31c1-0.05,2-0.34,2.99-0.53c0.69-0.13,1.37-0.27,2.16-0.43
		c-0.02-0.78-0.24-1.45-0.99-2.13c-0.71-0.64-1.1-1.66-1.6-2.53c-0.8-1.41-1.47-2.9-2.83-3.91c-0.18-0.13-0.27-0.39-0.37-0.6
		c-1.75-3.85-4.58-6.97-7.1-10.28c-3.02-3.97-6.29-7.76-9.2-11.81c-3.45-4.81-6.69-9.78-9.9-14.76c-1.94-3.01-3.77-6.08-5.36-9.32
		c-1.28-2.62-2.79-5.12-3.88-7.85c-0.17-0.42-0.61-0.73-0.88-1.13c-0.36-0.52-0.89-1.04-0.96-1.61c-0.47-4.01-2.62-7.5-3.39-11.41
		c-0.12-0.61-0.54-1.15-0.76-1.74c-0.25-0.65-0.58-1.32-0.62-2c-0.28-4.6-1.69-9.07-1.23-13.79c0.14-1.43-0.01-2.95,0.4-4.39
		c0.12-0.44,0.46-0.81,0.76-1.3c0.63,0.42,1.21,0.81,2.04,1.37c0-1.02,0-1.69,0-2.41c-0.55-0.06-0.98-0.1-1.74-0.18
		c1.26-2.52,2.42-4.84,3.72-7.45c0.11,1.13,0.24,2.03,0.28,2.94c0.05,1.34-0.18,2.73,1.11,3.72c0.23,0.18,0.18,0.73,0.24,1.11
		c0.23,1.52,0.44,3.05,0.68,4.57c0.05,0.31,0.34,0.67,0.25,0.91c-0.76,2.06,0.9,3.55,1.23,5.35c0.33,1.79,0.81,3.56,1.38,5.29
		c0.37,1.12,1.01,2.15,1.51,3.23c0.23,0.5,0.67,1.05,0.61,1.53c-0.25,2.13,0.93,3.44,2.61,4.82c0.17-0.57,0.33-1.04,0.43-1.51
		c0.1-0.45-0.01-1.05,0.25-1.35c0.78-0.92,1.07-2.05,1.59-3.07c1.52-2.97,2.7-6.03,3.62-9.23c0.41-1.43,1.06-2.83,1.87-4.08
		c1.38-2.16,0.96-5.03,2.85-6.96c0.18-0.18,0.21-0.63,0.14-0.91c-0.27-1.02,0.24-1.6,0.94-2.25c0.49-0.46,1.02-1.23,1-1.84
		c-0.05-1.48,1.08-2.48,1.32-3.69c0.68-3.44,2.9-6.18,3.86-9.48c0.62-2.13,1.53-4.05,0.35-6.41c-1-2.01-1.3-4.37-1.95-6.56
		c-0.13-0.44-0.45-0.82-0.7-1.26c-9.15,3.78-15.81,10.78-23.44,17.32c0.15-0.93,0.13-1.53,0.34-2.02c1.67-3.87,3.3-7.76,5.13-11.55
		c0.63-1.3,1.69-2.45,2.74-3.49c3.49-3.45,6.91-6.99,11.32-9.34c0.35-0.19,0.68-0.43,0.58-0.36c-0.21-1.89-0.17-3.33-0.55-4.64
		c-0.77-2.7-0.54-5.51-1.11-8.2c-0.24-1.16-0.09-2.08,0.44-2.93c1.06-1.68,0.98-3.49,0.78-5.3c-0.22-1.99,0.49-3.37,2.02-4.92
		c0.83-0.84,1.11-2.24,1.57-3.42c0.21-0.56,0.25-1.18,0.76-1.8c0.02,0.47,0.18,0.98,0.05,1.4c-0.49,1.62-0.34,3.09,0.7,4.45
		c0.18,0.24,0.39,0.55,0.38,0.82c-0.11,2.67,0.74,5.24,0.92,7.83c0.14,2.07,1.3,3.59,1.47,5.71c0.4-0.33,0.68-0.45,0.71-0.61
		c0.69-4.39,3.42-7.97,4.8-12.1c0.98-2.92,2.34-5.72,3.47-8.6c0.75-1.91,0.95-4.04,2.34-5.68c-0.42-2.38,2.2-3.75,2.02-6.09
		c-0.03-0.38,0.5-0.79,0.71-1.21c0.32-0.64,0.89-1.35,0.8-1.94c-0.23-1.5,0.43-2.6,1.29-3.67c-0.61-0.58-1.1-0.71-1.75-0.2
		c-1.81,1.4-3.7,2.69-5.46,4.14c-2.02,1.67-3.68,4.02-5.96,5.05c-2.34,1.07-3.16,3.32-5.26,4.48c0.47-0.97,0.71-2.24,1.47-2.84
		c1.32-1.05,1.32-2.64,2.13-3.86c0.13-0.19,0.23-0.43,0.25-0.66c0.47-3.99,0.81-4.38,3.1-7.91c0.85-1.3,1.87-2.21,2.95-3.21
		c2.02-1.86,3.83-3.95,5.88-5.77c1.17-1.04,2.62-1.76,3.98-2.57c2.14-1.28,4.3-2.54,6.48-3.75c0.75-0.42,1.58-0.67,2.38-0.99
		c0.15-0.06,0.36-0.02,0.46-0.11c2.16-2.18,5.35-1.93,7.82-3.33c2.46-1.39,5.11-2.06,7.85-2.56c0.77-0.14,1.48-0.58,2.24-0.81
		c0.67-0.2,1.38-0.3,2.07-0.44c0.99-0.2,1.97-0.41,2.97-0.57c1.3-0.21,2.61-0.37,3.92-0.54c4.03-0.51,8.05-1.38,12.15-0.67
		c0.29,0.05,0.61-0.11,0.92-0.16c1.71-0.29,3.38-0.35,5.14-0.13c2.41,0.3,4.88,0.08,7.31,0.23c2.27,0.15,4.52,0.5,6.78,0.76
		c0.47,0.05,0.93,0.14,1.4,0.18c2,0.14,4.04-0.2,5.96,0.79c0.5,0.26,1.26-0.02,1.89,0.07c1.17,0.16,2.32,0.41,3.48,0.63
		c0.77,0.15,1.53,0.36,2.3,0.48c2.81,0.45,5.68,0.64,8.3,1.95c0.46,0.23,1.13,0.43,1.57,0.27c1.5-0.51,2.78,0.02,4.15,0.51
		c1.55,0.56,3.18,0.88,4.77,1.33c1.74,0.49,3.47,1.02,5.22,1.5c0.6,0.17,1.24,0.21,1.84,0.37c1.13,0.3,2.26,0.63,3.38,0.98
		c2.78,0.85,5.57,1.67,8.33,2.58c2.1,0.69,4.11,1.64,6.23,2.25c2.97,0.85,5.74,2.22,8.75,2.98c1.6,0.41,3.09,1.42,4.69,2.05
		c2.64,1.03,5.06,2.57,7.91,3.11c0.83,0.16,1.57,0.79,2.38,1.1c1.61,0.61,3.26,1.14,4.88,1.72c0.44,0.16,0.96,0.29,1.28,0.6
		c2.25,2.18,5.06,3.08,8.02,3.76c1.21,0.28,2.31,1.01,3.57,1.59c-0.15,0.52-0.18,0.94-0.38,1.23c-1.09,1.63-2.43,3.13-3.27,4.87
		c-0.95,1.97-1.47,4.15-2.18,6.23c-0.23,0.67-0.26,1.54-0.71,1.98c-2.21,2.14-3.24,5.05-4.13,7.73c-1,3-2.47,5.76-3.53,8.69
		c-0.82,2.27-1.47,4.61-2.23,6.9c-0.14,0.43-0.45,0.8-0.69,1.2c-0.29,0.47-0.75,0.9-0.85,1.4c-0.56,2.83-2.31,5.2-3.07,7.88
		c-0.61,2.13-2.06,3.86-2.36,6.11c-0.14,1.04-1.41,2.02-1.36,2.99c0.13,2.25-2.11,3.73-1.64,6.01c0.09,0.43-0.31,1.1-0.69,1.45
		c-0.86,0.81-1.44,1.69-1.39,2.9c0.01,0.16,0.04,0.37-0.05,0.47c-2.42,2.66-2.14,6.6-4.61,9.4c-1.29,0.08-2.39-0.43-3.7-1.19
		c-2.32-1.34-4.44-3.27-7.48-3.31c-1.1-0.01-2.19-1.12-3.3-1.71c-0.6-0.32-1.2-0.62-1.82-0.89c-0.99-0.43-1.99-0.82-2.98-1.24
		c-0.84-0.36-1.67-0.76-2.52-1.1c-0.51-0.21-1.06-0.33-1.57-0.53c-1.01-0.4-1.89-1.24-3.13-0.92c-0.13,0.03-0.35-0.04-0.44-0.15
		c-1.5-1.62-3.7-1.6-5.56-2.35c-1.43-0.57-2.78-1.68-4.52-1.28c-0.2,0.05-0.55-0.05-0.65-0.2c-1.54-2.29-4.24-2.05-6.42-2.8
		c-2.12-0.72-4.41-1.04-6.46-1.99c-2.11-0.98-4.33-1.37-6.56-1.89c-2.84-0.65-5.59-1.68-8.38-2.53c-0.45-0.14-0.99-0.38-1.37-0.25
		c-1.14,0.4-1.97-0.19-2.93-0.59c-1.22-0.5-2.51-0.88-3.8-1.13c-1.68-0.33-3.39-0.48-5.08-0.74c-0.46-0.07-0.92-0.21-1.37-0.36
		c-0.3-0.1-0.59-0.39-0.87-0.38c-4.61,0.17-8.87-2.41-13.53-1.69c-0.16,0.02-0.35,0.08-0.47,0.01c-2.69-1.63-5.77-0.95-8.62-1.15
		c-4.56-0.31-9.18-1.39-13.78-0.04c-0.69,0.2-1.55-0.2-2.33-0.27c-1.08-0.09-2.17-0.43-3.24,0.26c-0.34,0.22-0.93,0.13-1.39,0.08
		c-2.16-0.26-4.25,0.06-6.33,0.63c-0.51,0.14-1.09,0.05-1.63,0.12c-0.76,0.1-1.52,0.24-2.27,0.39c-0.31,0.06-0.61,0.3-0.9,0.28
		c-3.54-0.2-6.49,2.08-9.92,2.35c-0.58,0.05-1.13,0.5-1.62,0.73c-0.04,0.32-0.14,0.53-0.07,0.62c1.4,2,2.13,4.34,3.26,6.47
		c1.42,2.7,3.2,5.2,4.83,7.79c1.23,1.95,2.24,4.08,3.72,5.82c1.8,2.1,2.81,4.68,4.79,6.71c2.17,2.22,3.66,5.12,5.45,7.72
		c0.45,0.66,0.78,1.46,1.37,1.95c3.12,2.59,4.87,6.23,7.29,9.35c3.59,4.63,6.64,9.6,9.58,14.64c0.85,1.46,2.49,2.72,2.71,4.23
		c0.28,1.91,2.3,2.92,1.98,4.92c-0.01,0.07,0.03,0.18,0.08,0.22c2.52,2,1.97,5.39,3.53,7.83c1.49,2.34,1.68,5.12,2.42,7.72
		c0.26,0.9,0.7,1.74,1.06,2.61c0.09,0.22,0.27,0.42,0.29,0.64c0.34,4.68,1.26,9.34,0.85,14.04c-0.09,1.06-1.12,2.04-1.71,3.05
		c0.07-0.82-0.05-1.46-1.2-1.24c-0.55,1.04-0.68,2.11-0.34,3.74c0.7-1.14,1.14-1.85,1.58-2.57c0.28,2.02-0.11,3.7-1.36,5.5
		c-1.17,1.67-1.68,3.91-2.09,5.97c-0.43,2.2-0.9,4.31-2.05,6.27c-0.55,0.94-0.75,2.08-1.21,3.08c-0.35,0.75-0.88,1.41-1.33,2.13
		c-0.17-0.14-0.42-0.46-0.5-0.42c-0.95,0.42-1.35,1.15-1.2,2.62C295.83,214.07,296.33,213.42,296.83,212.77z M145.63,463.09
		c0.33-1.07,0.57-1.87,0.82-2.67c0.48-1.52,0.86-3.09,1.48-4.55c2.37-5.58,4.83-11.13,7.25-16.7c3.6-8.27,7.16-16.56,10.83-24.8
		c3.57-8.02,7.34-15.96,10.89-24c3.29-7.45,6.46-14.96,9.58-22.49c3.84-9.27,7.63-18.57,11.31-27.9c3.43-8.69,6.77-17.41,9.97-26.18
		c2.02-5.53,3.71-11.18,5.54-16.76c-1.03-1.2-1.89-2.25-2.81-3.24c-3.26-3.52-6.22-7.27-8.96-11.22c-1.68-2.42-3.49-4.78-5.5-6.93
		c-3.71-3.96-7.62-7.74-11.43-11.61c-4.23-4.29-8.99-7.93-14.05-11.12c-8.74-5.5-18.1-9.78-27.67-13.65
		c-4.29-1.73-8.59-3.47-12.76-5.47c-8.45-4.06-17.09-7.51-26.28-9.53c-7.79-1.71-15.54-3.56-23.29-5.43
		c-10.15-2.45-20.29-4.99-30.43-7.49c-0.99-0.24-1.99-0.43-3.27-0.71c-1.33,2.54-2.72,4.95-3.87,7.47
		c-2.67,5.86-3.97,12.13-5.11,18.42c-1.39,7.69-2.59,15.41-4.05,23.08c-0.77,4.07-2.23,8.02-2.84,12.11
		c-1.11,7.4-1.77,14.86-2.73,22.28c-0.29,2.28-0.81,4.55-1.43,6.76c-0.99,3.53-2.36,6.96-3.19,10.52
		c-1.22,5.2-2.02,10.49-3.15,15.71c-1.94,8.99-3.33,18.02-3.19,27.26c0.07,4.63-0.57,9.22-1.59,13.76
		c-0.93,4.11-1.76,8.25-2.4,12.42c-0.84,5.38-1.77,10.7-3.77,15.8c-2.46,6.27-4.11,12.76-4.94,19.45c-0.24,1.94-0.28,3.91-0.43,6.09
		c1.14,0,2.01,0.04,2.86-0.01c8.04-0.44,16.08-1.09,24.13-1.27c5.73-0.12,11.49,0.26,17.21,0.67c5.4,0.38,10.81,0.87,16.15,1.69
		c13.56,2.08,26.56,6.06,38.96,11.99c7.22,3.46,14.17,7.41,20.73,11.96c5.5,3.82,10.76,7.99,16.11,12.04
		C142.03,460.16,143.68,461.54,145.63,463.09z M282.75,566.29c0.75-1.03,1.29-1.61,1.65-2.28c1.27-2.4,2.42-4.86,3.72-7.24
		c0.83-1.53,1.79-3,2.8-4.42c1.25-1.75,2.74-3.34,3.9-5.15c5.39-8.4,10.72-16.84,16.04-25.29c3.02-4.8,6.03-9.61,8.93-14.48
		c3.1-5.22,5.87-10.64,9.14-15.75c5.34-8.34,10.96-16.5,16.49-24.72c4.38-6.5,8.48-13.16,12.13-20.1c2.12-4.03,4.13-8.12,6.47-12.02
		c5.72-9.51,11.55-18.96,17.42-28.38c4.77-7.67,9.25-15.48,13.17-23.63c4.74-9.88,10.37-19.25,16.24-28.5
		c2.73-4.3,4.85-8.99,7.13-13.56c0.9-1.81,0.68-2.48-0.79-3.77c-0.95-0.84-1.97-1.66-3.09-2.24c-4.68-2.41-9.36-4.82-14.13-7.05
		c-6.31-2.95-12.87-5.26-19.74-6.46c-11.01-1.93-21.83-4.68-32.64-7.46c-9.05-2.32-18.25-3.79-27.49-5.05
		c-6.15-0.84-12.32-1.6-18.49-2.24c-5.38-0.56-10.79-1.22-16.19-1.31c-8.86-0.14-17.72,0.1-26.58,0.3
		c-3.41,0.08-6.81,0.49-10.34,0.76c-0.72,4.18-2.68,7.66-4.91,10.97c-1.68,2.49-2.79,5.2-3.75,8c-0.82,2.41-1.56,4.87-2.55,7.22
		c-1.39,3.31-3.05,6.46-5.08,9.46c-2.27,3.36-4.24,6.94-6.15,10.53c-2.63,4.93-5.1,9.93-7.59,14.93c-1.21,2.42-2.4,4.86-3.42,7.36
		c-1.76,4.28-2.97,8.78-5.43,12.77c-4.55,7.36-8.22,15.17-11.52,23.15c-3.86,9.31-6.87,18.92-9.87,28.53
		c-1.86,5.96-4.18,11.69-7.76,16.91c-3.57,5.2-6.59,10.76-8.96,16.64c-0.31,0.78-0.54,1.6-0.81,2.42c0.47,0.18,0.69,0.32,0.91,0.34
		c8.7,0.71,16.85,3.33,24.76,6.9c5.99,2.7,11.55,6.13,17.12,9.59c12.02,7.46,23.69,15.43,34.8,24.2c7.3,5.77,14,12.16,19.34,19.82
		c2.37,3.39,4.43,7.02,6.42,10.65c2.3,4.2,4.45,8.48,6.48,12.82C281.42,561.43,281.89,563.62,282.75,566.29z M395.1,31.85
		c-0.57,0.59-1.25,0.47-2.01-0.31c-0.53-0.54-1.28-0.95-2.01-1.19c-2.44-0.81-4.93-1.45-7.37-2.27c-2.32-0.78-4.58-1.72-6.87-2.58
		c-0.37-0.14-0.76-0.21-1.14-0.3c-1.3-0.28-2.62-0.47-3.89-0.86c-1.87-0.58-3.69-1.32-5.56-1.95c-1.34-0.45-2.73-1.19-4.07-1.15
		c-2.4,0.07-4.41-1.2-6.66-1.58c-1.43-0.24-2.96-0.2-4.27-0.63c-1.67-0.56-3.27-1.02-5.04-1.16c-1.9-0.14-3.76-0.65-5.65-0.97
		c-3.31-0.57-5.86,0.95-7.04,4.17c-0.87,2.38-1.47,4.92-2.72,7.08c-1.8,3.12-1.95,6.89-4.14,9.8c-0.04,0.06-0.07,0.16-0.05,0.23
		c0.47,1.54-0.24,2.57-1.35,3.52c-0.31,0.27-0.45,0.85-0.49,1.31c-0.23,2.27-2.2,4.02-1.91,6.44c0.01,0.07-0.05,0.17-0.1,0.21
		c-1.56,1.18-1.37,3.29-2.53,4.72c-0.57,0.7-0.91,1.75-0.97,2.67c-0.16,2.31-1.28,4.21-2.46,6.05c-0.69,1.08-0.51,2,0.31,2.49
		c1.62,0.97,3.36,2.04,5.16,2.35c2,0.34,4.03,0.58,6.05,0.86c5.32,0.75,10.38,2.48,15.56,3.73c3.43,0.83,6.78,2,10.17,2.99
		c0.53,0.15,1.12,0.08,1.64,0.26c3.43,1.17,6.89,2.28,10.27,3.61c1.4,0.55,2.88,0.82,4.23,1.34c3.32,1.29,6.44,3.12,10.09,3.41
		c1.5,1.69,3.62,2.05,5.63,2.66c0.28,0.09,0.57,0.34,0.74,0.59c0.63,0.92,1.51,1.13,2.52,0.93c1.07-0.21,1.75,0.29,2.52,0.99
		c1.63,1.46,3.74,1.68,5.8,1.64c0.59-0.01,1.4-0.78,1.7-1.4c0.74-1.53,2.08-2.89,1.69-4.82c1.4-1.33,1.59-3.23,2.29-4.88
		c1.57-3.71,3.15-7.43,4.69-11.16c1.18-2.86,2.3-5.74,3.44-8.61c0.65-1.62,1.31-3.24,1.92-4.87c0.36-0.95,0.65-1.93,0.96-2.9
		c0.23-0.73,0.46-1.45,0.68-2.18c0.11-0.37,0.1-0.91,0.34-1.08c1.42-0.99,1.43-2.54,1.77-3.99c0.51-2.17-0.04-3.37-2.09-4.31
		c-0.64-0.29-1.19-0.76-1.79-1.12c-0.68-0.41-1.33-0.95-2.07-1.14c-2.05-0.54-3.63-2.26-5.9-2.26c-0.39,0-0.78-0.5-1.18-0.76
		c-0.32-0.21-0.62-0.48-0.97-0.59c-1.65-0.54-3.34-0.98-4.98-1.57C397.06,32.94,396.2,32.4,395.1,31.85z M167.03,475.77
		c1.06-2.66,1.79-4.94,2.86-7.05c3.23-6.42,6.59-12.78,9.91-19.16c2.22-4.26,4.08-8.66,5.41-13.3c1.08-3.76,2.15-7.54,3.57-11.17
		c3.75-9.59,7.61-19.14,11.59-28.63c3.27-7.81,6.66-15.57,10.18-23.26c2.62-5.73,5.43-11.39,8.37-16.97
		c2.15-4.07,4.81-7.88,6.98-11.95c2.78-5.21,5.34-10.54,7.89-15.87c1.59-3.31,2.87-6.77,4.49-10.06s3.49-6.46,5.23-9.7
		c0.39-0.72,0.69-1.48,1.11-2.41c-2.94-0.29-5.48-0.47-8-0.8c-5.11-0.67-10.03-1.89-14.13-5.31c-0.73-0.61-1.59-1.09-2.46-1.47
		c-1.27-0.55-2.17-0.24-2.8,0.99c-0.47,0.92-0.77,1.92-1.13,2.9c-1.14,3.15-2.23,6.32-3.42,9.45c-1.53,4.03-3.24,7.99-4.7,12.05
		c-3.06,8.47-5.53,17.16-9.12,25.44c-1.3,3-2.61,5.99-4.01,8.94c-1.4,2.96-3.05,5.81-4.34,8.81c-3.16,7.33-6.17,14.73-9.24,22.1
		c-2.8,6.71-5.53,13.45-8.44,20.1c-2.56,5.85-5.39,11.58-8.03,17.4c-3.59,7.93-7.02,15.93-10.66,23.83
		c-2.38,5.17-4.42,10.42-5.81,15.95c-0.3,1.18-0.1,2.04,0.68,2.83c0.62,0.62,1.26,1.24,1.99,1.71c3.82,2.43,8.03,3.9,12.48,4.6
		C164.72,475.93,166,475.77,167.03,475.77z M264.8,203.72c1.55-0.96,2.37-1.86,2.37-3.41c0-0.65,0.37-1.32,0.64-1.95
		c0.24-0.56,0.63-1.06,0.89-1.61c1.28-2.77,2.01-5.75,3.28-8.54c2.17-4.76,4.03-9.66,5.99-14.51c0.71-1.75,1.5-3.45,1.93-5.34
		c0.43-1.88,1.63-3.58,2.4-5.4c0.8-1.88,1.53-3.79,2.21-5.71c0.21-0.58,0.35-1.32,0.18-1.89c-0.58-1.95-1.02-4.02-2.05-5.73
		c-1.88-3.1-4.06-6.03-6.26-8.93c-4.11-5.41-8.39-10.7-12.46-16.14c-2.55-3.41-4.87-7-7.21-10.56c-1.81-2.75-3.51-5.59-5.23-8.4
		c-0.45-0.74-1-0.97-1.77-0.64c-0.38,0.96-0.71,1.92-1.12,2.84c-0.95,2.1-2.15,4.11-2.89,6.28c-1.86,5.51-4.31,10.73-7.05,15.84
		c-0.8,1.5-0.59,3.4-1.86,4.76c-0.24,0.26-0.06,0.92-0.07,1.39c-0.01,0.4,0.13,0.88-0.04,1.17c-0.91,1.51-1.23,3.17-1.68,4.85
		c-0.55,2.09-1.92,3.95-2.87,5.94c-1.16,2.44-1.63,4.78-0.53,7.56c0.75,1.89,1.75,3.6,2.78,5.26c2,3.25,3.93,6.54,6.18,9.65
		c1.64,2.28,3.21,4.66,4.83,6.98c1.21,1.73,2.58,3.33,3.84,5.03c0.57,0.76,0.97,1.64,1.55,2.39c2.35,3.09,4.74,6.16,7.12,9.23
		c0.73,0.94,1.52,1.84,2.21,2.81C261.66,199.12,263.16,201.34,264.8,203.72z M250.13,72.11c0.39,0.11,0.68,0.29,0.81,0.21
		c4.17-2.42,9.08-2.81,13.4-4.93c1.85-0.91,4.39-0.35,6.5-1.24c0.53-0.22,1.2-0.08,1.8-0.18c1.51-0.27,3.01-0.63,4.49-0.96
		c2.25-0.5,4.67-0.24,7.03-0.26c2.62-0.02,5.24,0.17,7.84-0.02c3.78-0.27,7.51,0.29,11.26,0.36c2.67,0.05,5.51-1.46,6.43-3.91
		c1.07-2.84,1.9-5.78,3.09-8.55c1.34-3.11,3.03-6.07,3.65-9.47c0.06-0.36,0.44-0.65,0.64-0.99c0.24-0.4,0.58-0.79,0.65-1.23
		c0.4-2.27,2.18-4.08,2.16-6.5c0-0.43,0.41-0.85,0.62-1.28c0.98-2.08,2.19-4.08,2.87-6.25c0.78-2.51,1.81-4.87,2.91-7.24
		c0.51-1.09,1.37-2.22,0.69-3.66c-0.4-0.04-0.85,0.04-1.17-0.12c-1.66-0.88-3.23-1.41-5.28-1.27c-3.51,0.23-7.07-0.29-10.62-0.45
		c-0.68-0.03-1.37,0.2-2.06,0.21c-1.25,0.02-2.5-0.14-3.74-0.03c-2.57,0.23-5.14,0.81-7.71,0.83c-2.46,0.02-4.8,0.28-7.1,1.13
		c-0.44,0.17-0.95,0.42-1.37,0.35c-1.69-0.29-3.11,0.45-4.61,0.97c-1.65,0.57-3.39,0.89-4.99,1.56c-2.18,0.91-4.32,1.96-6.37,3.13
		c-1,0.57-2.06,1.43-2.55,2.42c-1.03,2.11-2.79,3.96-2.71,6.54c0.01,0.22-0.09,0.51-0.24,0.66c-1.49,1.49-1.5,3.68-2.6,5.41
		c-1.69,2.65-2.19,5.86-3.46,8.76c-1.55,3.54-3.24,7.14-3.78,11.07c-0.05,0.38-0.23,0.85-0.51,1.07c-1.87,1.4-1.86,3.75-2.81,5.6
		C252,66.4,251.21,69.21,250.13,72.11z M84.06,164.89c0.65,0.21,1.4,0.47,2.16,0.7c16.55,5.1,32.36,11.99,47.59,20.16
		c12.74,6.83,25.3,14.01,37.93,21.05c9.33,5.19,17.88,11.48,25.77,18.65c8.71,7.91,16.64,16.57,24.02,25.73
		c6.82,8.46,13.48,17.04,20.21,25.57c0.46,0.59,0.97,1.14,1.8,2.11c0.37-1.52,0.5-2.53,0.86-3.46c0.57-1.51,0.08-2.45-1.06-3.54
		c-2.24-2.15-4.48-4.38-6.31-6.88c-4.01-5.47-7.86-11.07-11.61-16.73c-3.98-5.99-7.74-12.13-12.42-17.63
		c-7.27-8.55-15.44-16.17-24.02-23.38c-20.98-17.65-44.22-31.46-69.73-41.47c-8.99-3.53-17.99-7.01-27-10.49
		c-1.56-0.6-3.15-1.16-4.77-1.57c-1.57-0.4-2.63,0.27-3.14,1.79c-0.17,0.52-0.29,1.09-0.3,1.64
		C84.05,159.61,84.06,162.08,84.06,164.89z M75.21,181.24c1.69,0.28,3.09,0.49,4.49,0.76c14.2,2.72,27.82,7.25,40.73,13.76
		c11.56,5.82,23.02,11.83,34.47,17.87c8.83,4.66,17.68,9.3,26.32,14.3c9.78,5.66,18.89,12.32,26.59,20.68
		c4.59,4.99,8.97,10.18,13.34,15.37c5.4,6.42,10.72,12.91,16.78,18.74c1.05,1.01,2.21,1.92,3.31,2.87c1.38-1.64,0.64-2.71-0.23-3.88
		c-4.99-6.65-9.87-13.38-14.92-19.97c-3.49-4.57-7.02-9.13-10.86-13.4c-6.36-7.08-13.35-13.54-20.65-19.65
		c-12.83-10.74-26.47-20.34-40.84-28.9c-15.9-9.47-32.62-17.24-49.82-24.03c-8.32-3.29-16.68-6.49-25.42-8.51
		c-0.52-0.12-1.06-0.13-1.91-0.23C76.13,171.74,75.68,176.32,75.21,181.24z M245.54,280.28c4.34-1.15,8.18-2.21,12.04-3.18
		c5.03-1.27,10.07-2.51,15.11-3.69c6.37-1.5,12.71-3.12,19.13-4.34c7.2-1.37,14.46-2.4,21.71-3.49c8.84-1.33,17.71-2.32,26.65-2.63
		c7.68-0.26,15.31,0.47,22.89,1.54c13.52,1.92,26.84,4.83,39.98,8.57c3.53,1,7.12,1.8,10.65,2.78c1.18,0.33,2.02,0.15,2.66-0.89
		c0.29-0.46,0.6-0.9,1.02-1.52c-0.81-0.58-1.46-1.17-2.21-1.56c-3.67-1.93-7.26-4.07-11.08-5.65c-14.21-5.87-29.2-8.57-44.37-10.32
		c-8.73-1-17.51-1.43-26.29-1.05c-4.21,0.18-8.43,0.72-12.57,1.49c-3.91,0.73-7.72,2-11.58,2.99c-5.1,1.3-10.21,2.69-15.51,2.75
		c-5.23,0.05-10.33,0.82-15.36,2.12c-4.48,1.16-8.97,2.29-13.42,3.58c-5.06,1.47-10.08,3.07-15.1,4.67
		c-0.79,0.25-1.84,0.69-2.12,1.33C246.89,275.8,246.31,277.95,245.54,280.28z M423.99,268.47c-1.12-0.74-1.93-1.12-2.56-1.7
		c-3.31-3.08-7.27-5.2-11.13-7.45c-6.3-3.66-12.72-7.12-19.92-8.63c-8.18-1.72-16.41-3.24-24.64-4.72
		c-7.94-1.43-15.98-1.97-24.04-2.17c-8.39-0.21-16.71,0.77-25.03,1.77c-11.74,1.41-23.3,3.63-34.66,6.93
		c-8.92,2.59-17.51,6.04-25.88,10.03c-2.89,1.38-5.25,3.35-6.63,6.32c-0.2,0.44-0.26,0.95-0.46,1.68c0.61-0.25,0.91-0.36,1.18-0.5
		c5.19-2.56,10.64-4.41,16.31-5.44c4.27-0.77,8.38-1.96,12.38-3.59c2.98-1.21,6.08-1.8,9.31-2.01c3.65-0.23,7.34-0.49,10.92-1.19
		c8.68-1.7,17.31-3.71,25.97-5.5c3.76-0.78,7.59-0.95,11.43-0.71c4.46,0.28,8.93,0.38,13.39,0.7c6.59,0.48,13.19,0.97,19.77,1.67
		c7.88,0.84,15.48,3.03,23.06,5.28c6.74,2,13.48,4.02,19.78,7.21c2.48,1.26,4.86,2.71,7.31,4.09
		C421.12,269.91,422.39,269.27,423.99,268.47z M417.72,306.29c0.98-1.88,2.01-3.67,2.84-5.54c0.86-1.95,0.33-3.8-1.01-5.34
		c-0.72-0.83-1.58-1.65-2.55-2.14c-2.41-1.23-4.82-2.6-7.4-3.33c-8.9-2.53-17.83-4.99-26.83-7.12c-9.71-2.3-19.6-3.62-29.54-4.47
		c-6.04-0.51-12.12-0.76-18.18-0.78c-9.34-0.03-18.69,0.15-28.03,0.43c-6.06,0.18-12.11,0.7-18.16,1.06
		c-6.94,0.42-13.84,1.15-20.56,2.97c-8.09,2.19-16.12,4.6-24.17,6.94c-1.12,0.33-2.04,0.97-2.5,2.42c3.47-1,6.75-1.72,9.87-2.87
		c8.93-3.3,18.25-4.53,27.62-5.42c5.95-0.57,11.95-0.64,17.91-1.16c6.72-0.58,13.42-0.43,20.1,0.16c9.05,0.79,18.07,1.87,27.09,2.94
		c6.75,0.8,13.32,2.49,19.79,4.56c5.47,1.76,10.9,3.67,16.4,5.3c9.48,2.8,19.11,5.06,28.37,8.62
		C411.62,304.6,414.56,305.32,417.72,306.29z M238.91,296.06c3.03-0.52,5.9-1.08,8.79-1.51c3.39-0.5,6.8-0.83,10.18-1.33
		c5.53-0.83,11.07-1.37,16.67-1.38c7.67-0.01,15.34-0.22,23-0.22c5.27,0,10.56-0.06,15.79,0.42c6.89,0.64,13.58,2.64,20.55,3.02
		c4.09,0.23,8.11,1.57,12.17,2.42c6.24,1.31,12.51,2.5,18.72,3.95c11.66,2.72,22.95,6.72,34.29,10.51
		c5.53,1.85,11.09,3.6,16.64,5.38c0.58,0.19,1.2,0.26,1.9,0.41c0.25-0.82,0.49-1.49,0.65-2.18c0.69-2.86,0.17-3.87-2.58-5.02
		c-0.59-0.25-1.21-0.42-1.81-0.63c-2.33-0.83-4.66-1.67-7-2.48c-4.82-1.68-9.64-3.38-14.48-5c-2.87-0.96-5.78-1.8-8.68-2.66
		c-4.88-1.45-9.76-2.91-14.67-4.28c-4.91-1.37-9.85-2.65-14.78-3.96c-4.47-1.19-8.91-2.5-13.42-3.49c-3.18-0.7-6.46-0.96-9.69-1.44
		c-7.65-1.13-15.31-2.24-23.07-2.06c-9.42,0.22-18.84,0.45-28.25,0.85c-3.65,0.15-7.35,0.49-10.91,1.26
		c-7.4,1.59-14.74,3.5-22.09,5.35c-1.77,0.45-3.51,1.1-5.2,1.8C240.59,294.23,239.42,294.66,238.91,296.06z M245.63,269.54
		c0.87-1.75,1.45-2.96,2.07-4.15c0.42-0.82,0.34-1.54-0.32-2.17c-0.87-0.83-1.73-1.66-2.62-2.46c-4.21-3.82-8.17-7.87-11.43-12.55
		c-1.96-2.82-3.85-5.69-5.86-8.48c-0.92-1.28-2.28-2.28-3.04-3.63c-2.8-5.01-6.46-9.37-10.53-13.29
		c-7.22-6.95-13.53-14.67-19.87-22.38c-4.84-5.88-10.18-11.23-16.6-15.46c-4.87-3.21-9.64-6.57-14.38-9.96
		c-14.58-10.42-30.11-19.03-47.19-24.61c-4.84-1.58-9.81-2.79-14.76-4.04c-1.99-0.5-4-0.37-5.55,1.31c-1.2,1.3-2.02,2.81-2.7,4.57
		c0.58,0.22,0.99,0.41,1.43,0.54c4.88,1.47,9.91,2.56,14.6,4.48c10.56,4.33,21.03,8.9,31.39,13.69
		c17.73,8.21,33.86,18.88,48.25,32.18c5.63,5.2,11.5,10.14,17.28,15.17c3.74,3.26,7.46,6.54,10.37,10.59
		c8.14,11.37,16.22,22.78,24.36,34.14C242.05,265.16,243.76,267.15,245.63,269.54z M232.22,299.39
		c-5.2-6.51-10.82-12.28-16.33-18.13c-2.35-2.49-5.15-4.55-7.6-6.95c-5.03-4.92-9.98-9.91-14.92-14.92
		c-12.27-12.43-26.26-22.38-42.35-29.22c-10.95-4.66-21.93-9.27-32.99-13.66c-6.38-2.53-12.87-4.81-19.45-6.77
		c-6.57-1.96-13.31-3.33-19.96-5.05c-4.34-1.12-8.69-2.05-13.19-2.21c-3.14-0.11-6.24,0.06-9.13,1.48
		c-1.47,0.73-2.88,1.56-3.69,3.36c0.8,0.15,1.42,0.25,2.03,0.37c3.91,0.74,7.84,1.37,11.72,2.26c7.16,1.63,14.28,3.43,21.41,5.14
		c6.9,1.66,13.88,3.05,20.7,5.01c21.53,6.18,41.8,15.43,61.48,26c8.7,4.68,16.78,10.32,23.37,17.76c4.77,5.37,9.1,11.13,13.7,16.66
		c1.73,2.08,3.69,3.96,5.51,5.96c1.55,1.71,3.04,3.47,4.58,5.19c0.41,0.46,0.83,0.97,1.35,1.29c2.11,1.28,4.29,2.45,6.4,3.73
		C227.06,298.06,229.3,299.2,232.22,299.39z M237.43,300.52c0.91,0.26,1.28,0.38,1.66,0.47c4.97,1.05,9.97,0.83,14.99,0.39
		c6.43-0.57,12.88-1.19,19.33-1.34c6.94-0.16,13.89,0.14,20.83,0.39c3.26,0.11,6.52,0.47,9.76,0.87c6.01,0.74,12.01,1.5,17.99,2.42
		c8.19,1.26,16.4,2.47,24.52,4.1c7.51,1.51,14.89,3.62,22.36,5.31c5.44,1.23,10.96,2.12,16.41,3.32c8.56,1.89,16.53,5.39,24.36,9.25
		c2.56,1.27,5.08,2.64,7.74,4.03c1.54-1.32,3.06-2.65,4.42-4.67c-1.54-0.95-2.81-1.92-4.23-2.56c-3.13-1.4-6.3-2.74-9.53-3.9
		c-5.26-1.88-10.61-3.53-15.87-5.4c-8.44-3-17.15-5.02-25.82-7.2c-4.4-1.11-8.85-2.03-13.27-3.09c-5.81-1.39-11.59-2.96-17.44-4.17
		c-3.58-0.74-7.28-0.85-10.9-1.45c-8.04-1.34-16.12-2.1-24.27-2.12c-6.39-0.02-12.78-0.01-19.17,0c-0.88,0-1.76,0.03-2.63,0.08
		c-5.57,0.34-11.15,0.59-16.72,1.06c-5.79,0.48-11.58,1.08-17.35,1.82C242.29,298.43,239.94,298.96,237.43,300.52z M288.38,162.15
		c-0.47,0.88-0.89,1.56-1.21,2.28c-1.81,4.02-2.66,8.42-4.91,12.27c-0.12,0.2-0.08,0.48-0.17,0.69c-0.48,1.17-1,2.32-1.47,3.5
		c-0.2,0.5-0.29,1.04-0.43,1.56c-0.22,0.82-0.32,1.7-0.67,2.46c-0.86,1.87-1.85,3.68-2.73,5.54c-0.23,0.48-0.21,1.07-0.32,1.61
		c-0.09,0.46-0.11,0.95-0.29,1.37c-1.47,3.42-3.09,6.78-4.42,10.25c-0.88,2.31-2.28,4.57-1.85,7.22c0.21,1.31,0.33,2.75,0.98,3.85
		c0.65,1.1,1.31,2.1,1.62,3.38c0.3,1.27,1.46,2.08,2.44,1.8c2.28-0.66,4.69-0.98,6.65-2.53c0.61-0.48,1.43-0.67,2.14-1.03
		c1.68-0.84,3.39-1.61,5.01-2.56c2.18-1.28,4.3-2.67,6.06-4.54c0.32-0.34,0.78-0.69,1.21-0.74c1.68-0.19,2.45-1.43,3.12-2.67
		c1.49-2.79,1.75-5.91,2.21-8.97c0.04-0.27-0.1-0.71-0.31-0.85c-1.2-0.76-1.17-1.93-1.21-3.14c-0.04-1.21-0.02-2.48-0.38-3.62
		c-0.59-1.91,0-4.17-1.72-5.75c-0.18-0.16-0.17-0.62-0.14-0.92c0.3-2.51-0.62-4.77-1.69-6.88c-1.48-2.91-1.65-6.36-3.86-8.95
		c-0.22-0.26-0.13-0.77-0.28-1.12C291.11,164.16,290.54,162.57,288.38,162.15z M244.01,287.05c3.65-1.32,7.12-2.49,10.53-3.81
		c12.57-4.84,25.67-6.98,39.03-7.86c4.78-0.32,9.56-0.58,14.34-0.78c7.97-0.34,15.95-0.81,23.93-0.85
		c9.97-0.05,19.92,0.53,29.81,1.98c10.65,1.56,21.33,2.95,31.79,5.51c8.05,1.97,16.22,3.63,23.78,7.23c0.2,0.09,0.45,0.06,0.66,0.09
		c2-3.39,1.41-5.71-2.11-7.04c-3.65-1.38-7.38-2.65-11.17-3.55c-11.72-2.78-23.47-5.44-35.25-7.99c-8.36-1.81-16.82-2.87-25.4-2.65
		c-1.59,0.04-3.18,0.22-4.77,0.34c-7.08,0.51-14.17,0.9-21.23,1.58c-7.06,0.68-14.1,1.53-21.13,2.5
		c-10.84,1.5-21.53,3.79-31.96,7.16c-3.73,1.21-7.49,2.17-11.36,2.8c-2.58,0.42-5.09,1.29-7.58,2.12
		C244.68,284.22,243.72,285.1,244.01,287.05z M66.82,192.64c0.42,0.04,0.95,0.1,1.48,0.14c2.54,0.21,5.1,0.27,7.61,0.66
		c5.04,0.79,10.02,1.94,15.07,2.61c8.77,1.18,17.13,3.7,25.28,7.08c6.93,2.88,13.9,5.67,20.82,8.56c3.31,1.38,6.7,2.68,9.82,4.42
		c9.77,5.44,19.46,11.03,29.13,16.65c7.54,4.38,14.89,9.09,21.36,14.96c8.6,7.79,16.46,16.3,23.72,25.36
		c3.9,4.86,7.75,9.75,11.67,14.59c1.59,1.97,3.37,3.77,5.78,5.18c0.48-1.05,0.9-1.96,1.27-2.76c-0.18-0.33-0.22-0.51-0.33-0.6
		c-0.43-0.35-0.86-0.74-1.34-1.01c-5.22-2.95-8.86-7.45-12.32-12.21c-2.43-3.35-5.15-6.52-7.92-9.6
		c-4.86-5.39-10.3-10.29-14.17-16.52c-3.52-3.12-6.88-6.44-10.58-9.34c-10.98-8.62-23.05-15.53-35.46-21.83
		c-10.4-5.28-20.87-10.41-30.97-16.26c-7.54-4.37-15.22-8.58-23.55-11.19c-7.99-2.5-16.16-4.43-24.28-6.48
		c-2.62-0.66-5.33-0.99-8.02-1.35c-1.87-0.25-2.54,0.31-2.85,2.03C67.63,187.99,67.24,190.25,66.82,192.64z M235.82,296.46
		c1.09-0.7,1.03-1.27,0.27-2.01c-1.59-1.57-3.28-3.08-4.63-4.83c-4.59-5.96-9.65-11.5-14.85-16.92
		c-6.8-7.09-13.37-14.42-20.35-21.32c-7.35-7.27-15.58-13.5-24.66-18.5c-5.1-2.82-10.34-5.4-15.53-8.06
		c-7.39-3.79-14.68-7.81-22.22-11.26c-6.67-3.05-13.67-5.39-20.46-8.19c-5.49-2.27-11.15-3.85-16.98-4.89
		c-6.67-1.19-13.32-2.46-19.98-3.66c-3.54-0.64-7.11-1.06-10.72-0.69c-2.47,0.25-4.75,0.98-6.55,3.39c0.83,0.09,1.36,0.18,1.88,0.2
		c3.35,0.13,6.7,0.18,10.04,0.38c6.31,0.37,12.53,1.39,18.56,3.25c10.22,3.16,20.46,6.26,30.54,9.83
		c15.52,5.5,30.73,11.81,45.05,20.04c10.01,5.75,19.36,12.44,27.77,20.37c5.7,5.37,11.09,11.07,16.85,16.37
		c6.49,5.97,12.48,12.35,17.9,19.3C229.97,292.08,232.5,294.66,235.82,296.46z M229.15,237.6c0.26,0.63,0.35,1.02,0.56,1.32
		c3.68,4.91,7.18,9.96,12.01,13.88c1.91,1.55,3.7,3.27,5.45,5.02c1.28,1.28,2.38,2.73,3.59,4.13c1.03-0.57,1.95-1.25,2.98-1.61
		c2.41-0.83,4.51-1.8,4.19-4.91c-0.01-0.07,0.03-0.16,0.06-0.23c0.86-1.65,1.82-3.26,2.57-4.96c0.9-2.02,1.63-4.12,2.42-6.18
		c0.33-0.87,0.57-1.79,0.96-2.64c0.85-1.84,1.7-3.67,2.19-5.84c-2.56-0.28-4.77-0.25-6.92,0.68c-0.42,0.18-0.91,0.26-1.37,0.29
		c-3.61,0.26-7.22,0.49-10.83,0.74c-0.77,0.05-1.54,0.13-2.31,0.16c-2.01,0.07-4,0.31-6.05,0.02c-2.22-0.3-4.51-0.15-6.77-0.14
		C231.05,237.34,230.21,237.5,229.15,237.6z M270.56,240.21c-2.61,1.18-1.22,3.66-2.78,5.14c-1.26,1.2-0.95,3.75-2.3,5.31
		c0.5,1.93-1.3,3.25-1.76,5.53c3.27-1.24,6.02-2.22,8.72-3.35c1.08-0.45,1.39-1.57,0.69-2.6c-0.72-1.05-0.84-2.15-1.03-3.34
		C271.75,244.73,271.13,242.61,270.56,240.21z M394.19,25.39c2.84,1.27,5.51,2.5,8.22,3.65c0.7,0.3,1.51,0.35,2.2,0.51
		c1.22-1.02,0.77-2.24,0.87-3.29c-3.41-1.32-6.36-3.48-10.12-3.64C395.03,23.38,394.7,24.17,394.19,25.39z M389.09,94.81
		c-0.18,0.85-0.49,1.75-0.51,2.66c-0.01,0.45,0.37,1.09,0.77,1.35c2.66,1.79,5.59,2.73,8.75,2.73c0.95-2.35,0.67-3.16-1.3-4.15
		c-0.28-0.14-0.58-0.27-0.88-0.37C393.77,96.33,391.6,95.63,389.09,94.81z M368.28,90.3c3.56,1.29,6.95,2.53,10.29,3.74
		c0.54-1.22,0.96-2.2,1.51-3.46c-0.67-0.23-1.34-0.5-2.03-0.67c-0.73-0.18-1.55-0.11-2.22-0.41c-1.58-0.71-3.06-1.63-4.63-2.36
		c-0.52-0.24-1.19-0.14-1.89-0.21C368.94,88.12,368.62,89.16,368.28,90.3z M414.94,30.5c-0.38,0.9-0.79,1.89-1.29,3.08
		c1.15,0.37,2.02,0.84,2.92,0.89c1.06,0.06,1.75,0.43,2.44,1.2c0.97,1.09,2.25,1.68,3.83,1.91c0.38-1.32,2.27-1.62,1.91-3.57
		c-0.62-0.16-1.29-0.29-1.94-0.49c-0.74-0.23-1.7-0.31-2.15-0.82C419.16,31,417.3,30.46,414.94,30.5z M384.13,22.13
		c0.38-0.59,0.54-0.78,0.62-1c0.85-2.17,0.67-2.48-1.64-2.9c-0.31-0.06-0.61-0.16-0.91-0.26c-2.27-0.83-4.53-1.67-6.94-2.56
		c-0.33,0.67-0.69,1.2-0.85,1.77c-0.32,1.14,0.11,2.06,1.26,2.08c1.86,0.04,3.24,1.14,4.86,1.7
		C381.71,21.37,382.89,21.73,384.13,22.13z M329.08,78.1c1.17,0.77,7.59,2.29,9.61,2.23c0-0.98,0-1.97,0-3.03
		c-1.27-0.85-2.53-1.84-4.33-1.37c-0.4,0.1-0.91-0.2-1.36-0.35C330.21,74.71,329.57,75.11,329.08,78.1z M359.51,83.06
		c-3.36-0.92-6.59-1.81-10.01-2.75c-0.61,1.05-1.09,1.89-1.74,3.02c1,0.28,1.64,0.5,2.3,0.63c0.85,0.17,1.9,0,2.53,0.44
		c1.81,1.27,3.83,1.52,5.92,1.79C358.83,85.18,359.13,84.23,359.51,83.06z M365.81,12.9c-1.21-0.32-2.08-0.57-2.96-0.77
		c-0.59-0.13-1.3-0.03-1.77-0.32c-1.75-1.09-3.54-1.25-5.54-0.57c-0.25,0.68-0.52,1.42-0.9,2.44c3.17,0.88,6.21,1.73,9.27,2.58
		C364.62,15.04,365.13,14.11,365.81,12.9z M320.43,72.84c-2.94-0.46-5.71-0.9-8.41-1.32c-0.53,1.29-0.94,2.29-1.43,3.49
		c3.12,0.97,6.21,1.01,9.41,1.07C320.13,75.1,320.26,74.17,320.43,72.84z M336.91,10.52c1.65,0.38,3.02,0.72,4.4,1
		c2.6,0.53,3.77-0.04,5.35-2.74c-1.12-0.4-2.32-1.29-3.28-1.08c-2.02,0.44-3.89-0.08-6.06-0.37
		C337.18,8.43,337.05,9.39,336.91,10.52z M242.45,228.88c-2.26,0-4.34-0.07-6.42,0.05c-0.52,0.03-1.09,0.55-1.5,0.98
		c-0.33,0.34-0.74,1.06-0.59,1.31c0.27,0.46,0.91,0.96,1.41,0.97c2.19,0.04,4.39-0.08,6.74-0.15
		C242.21,230.99,242.31,230.15,242.45,228.88z M303.45,70.72c-3.09-0.19-5.85-0.36-8.73-0.54c-0.1,1.21-0.18,2.25-0.26,3.22
		c2.49,0.17,4.81,0.33,7.04,0.49C302.12,72.87,302.68,71.97,303.45,70.72z M319.54,8.91c2.99,0.14,5.75,0.28,8.53,0.41
		c0.13-1.27,0.23-2.25,0.34-3.23c-2.51-0.17-4.84-0.32-7.07-0.47C320.77,6.67,320.26,7.6,319.54,8.91z M248.14,189.29
		c-1.53-2.06-2.91-3.92-4.39-5.92c-0.51,1.38-0.91,2.48-1.34,3.64c1.48,1.93,2.67,4.05,5.07,5.59
		C247.74,191.26,247.96,190.15,248.14,189.29z M269.63,119.52c-0.55,1.08-1.77,1.76-1.17,3.02c0.47,0.98,1.18,1.86,1.9,2.69
		c0.63,0.73,1.41,1.32,2.17,2.02c0.46-0.53,1.01-1.16,1.67-1.92C273.08,123.11,271.6,121.25,269.63,119.52z M279.61,132.21
		c-1.92,1.8-2,2.29-0.62,4.3c0.63,0.91,1.25,1.82,1.94,2.68c0.31,0.39,0.77,0.65,1.18,0.99c1.58-2.57,1.58-2.94,0.24-4.53
		C281.46,134.58,280.61,133.47,279.61,132.21z M278.74,73.27c1.7,0,3.24-0.01,4.77,0c2.27,0.02,2.97-0.74,2.84-3.05
		c-1.1-0.06-2.19-0.1-3.28-0.17C280.25,69.86,279.19,70.6,278.74,73.27z M253.72,196.07c-0.67,1.43-1.09,2.33-1.51,3.23
		c1.34,1.86,2.59,3.6,4.08,5.69c0.65-1.24,1.08-2.05,1.49-2.84C256.47,200.19,255.26,198.37,253.72,196.07z M310.66,8.82
		c0.58-1.01,1.04-1.81,1.61-2.79c-2.41-1.22-4.65,0.32-6.97,0.11c-0.29,0.96-0.56,1.81-0.82,2.68
		C306.74,8.82,308.69,8.82,310.66,8.82z M261.33,107.39c-1.94,1.28-2.06,1.54-1.18,3.31c0.8,1.61,1.74,3.13,3.22,4.27
		c1.19-2.14,1.12-3.36-0.16-4.93C262.58,109.26,262.04,108.4,261.33,107.39z M237.46,179.61c0.98-1.52,1.92-2.55,0.86-4
		c-0.73-1-1.38-2.05-2.11-3.05c-0.28-0.39-0.67-0.69-1.13-1.16c-0.46,1.15-0.81,2.02-1.2,2.99
		C235.01,176.04,236.15,177.69,237.46,179.61z M287.9,144.32c-0.51,1.33-1.77,2.25-1.04,3.64c0.8,1.51,1.8,2.91,2.93,4.7
		c0.37-1.61,0.65-2.87,0.92-4.07C289.83,147.25,288.97,145.94,287.9,144.32z M264.88,74.96c0.09,0.16,0.19,0.33,0.28,0.49
		c1.74-0.47,3.47-0.94,5.48-1.48c0.21-0.62,1.15-1.31,0.9-2.47c-2.7-0.09-3.46-0.1-4.85,0.93C265.89,73.01,265.47,74.1,264.88,74.96
		z M291.64,7.89c-0.32,0.66-0.85,1.74-1.57,3.21c1.38-0.3,2.27-0.56,3.18-0.68c3.17-0.42,3.07-0.82,3.42-3.65
		C295.13,7.11,293.61,7.45,291.64,7.89z M257.55,228.72c-1.88-0.58-1.94-0.58-5.24,0.01c-1.65,0.29-1.76,0.47-1.49,2.41
		C255.38,231.88,255.64,231.62,257.55,228.72z M262.17,208.43c-1.77,3.63-1.24,5.67,1.64,7.01c0.61-0.72,1.79-1.17,0.99-2.5
		C263.96,211.53,263.16,210.12,262.17,208.43z M229.84,166.8c0.89-0.8,1.45-1.75,0.93-2.75c-0.69-1.32-1.67-2.49-2.78-4.09
		c-0.5,1.05-1.27,2.06-1.06,2.33C227.96,163.69,227.72,165.89,229.84,166.8z M255.79,102.67c0.17-1.19,0.45-2.02,0.35-2.8
		c-0.1-0.82-0.5-1.63-0.89-2.38c-0.34-0.66-0.85-1.24-1.43-2.06C253.17,100.31,253.17,100.31,255.79,102.67z M253.16,78.71
		c1.48-0.59,2.76-1,3.94-1.6c1.18-0.59,1.21-1.27,0.35-2.59C254.02,75.41,253.41,75.94,253.16,78.71z M278.91,14.16
		c3.84-0.43,4.3-0.81,5.03-4.16C281.87,10.98,279.28,10.95,278.91,14.16z M294.44,156.3c-0.46,0.83-0.97,1.34-0.95,1.84
		c0.03,0.91,0.29,1.84,0.63,2.69c0.19,0.46,0.68,0.87,1.13,1.15c0.64,0.4,1.31-0.07,1.19-0.82c-0.17-1.07-0.32-2.15-0.65-3.17
		C295.61,157.46,295.07,157.06,294.44,156.3z M249.23,91.16c1.15-0.71,0.94-2.03,1.32-3.08c-0.35,0.28-0.7,0.56-1.06,0.83
		c-0.4-1.06-0.81-2.12-1.21-3.18c-0.83,0.75-0.87,1.33-0.48,2.08C248.33,88.84,248.72,89.94,249.23,91.16z M280.92,222.88
		c-2,0.86-4.02,0.99-4.39,3.38C279.18,226.51,279.99,225.93,280.92,222.88z M222.57,150.17c-1.02,0.76-1.05,1.49-0.47,2.46
		c0.41,0.7,0.6,1.52,0.9,2.29c0.11,0.29,0.26,0.56,0.52,1.12c0.44-1.39,0.77-2.41,1.11-3.47
		C223.96,151.78,223.31,151.03,222.57,150.17z M224.23,231.4c0.2-0.02,0.41-0.04,0.61-0.07c0.11-1.01,0.23-2.02,0.35-3.13
		c-1.17-0.08-2.16-0.15-3.55-0.24C222.66,229.31,223.45,230.35,224.23,231.4z M272.71,14.81c-1.6-0.58-2.03,1.33-3.27,1.49
		c-0.31,0.04-0.48,1.12-0.79,1.92C270.9,17.8,272.27,16.9,272.71,14.81z M299.81,172.75c0.82-1.26,0.82-1.26-0.44-4.39
		C297.44,170.05,299.5,171.21,299.81,172.75z M218.95,140.02c-1.28,1.59-1.24,1.84,0.42,3.6
		C220.55,142.24,219.43,141.25,218.95,140.02z M273.63,236.94c0.98-0.95,1.4-1.96,0.24-3.13
		C272.34,234.77,273.77,235.93,273.63,236.94z M301.94,182.57c0.23,0.01,0.47,0.02,0.7,0.03c0.08-1.11,0.15-2.22,0.23-3.34
		C301.45,180.23,301.59,181.39,301.94,182.57z M276.15,247.24c1.07-1.07,1.22-2.27,0.5-3.88
		C275.62,244.58,276.08,245.89,276.15,247.24z M262.83,20.19c-0.93,1.05-2.56,1.08-1.92,3.16C261.68,22.31,263.1,22.12,262.83,20.19
		z M289.81,219.09c-2.26-0.27-2.36-0.18-2.51,2.23C288.19,220.53,288.89,219.91,289.81,219.09z M240.25,58.55
		c1.23-0.81,1.23-0.81,0.64-2.02C240.63,57.35,240.44,57.95,240.25,58.55z M242.38,65.92c-1.04,1.57-1.04,1.57,0.42,2.87
		C242.65,67.72,242.53,66.97,242.38,65.92z M216.66,130.55c-0.25,0.1-0.49,0.19-0.74,0.29c0.24,0.56,0.49,1.11,0.73,1.67
		c0.2-0.08,0.4-0.16,0.59-0.23C217.05,131.7,216.85,131.13,216.66,130.55z M235.69,87.08c0.98-0.24,1.21-0.79,1.2-1.71
		C235.86,85.61,235.38,86,235.69,87.08z M270.27,226.07c-0.13-0.06-0.26-0.12-0.38-0.17c-0.14,0.32-0.29,0.64-0.41,0.97
		c-0.01,0.02,0.23,0.12,0.35,0.19C269.97,226.73,270.12,226.4,270.27,226.07z"/>
	<path d="M218.76,106.67c-0.31,1.78-0.59,3.36-0.84,4.74C217.42,109.85,217.52,109.18,218.76,106.67z"/>
	<path d="M260.92,349.27c8.57,0.47,16.86,2.36,25.1,4.65c9.6,2.68,19.29,5.06,28.9,7.71c8.84,2.44,17.64,5.04,26.43,7.63
		c5.66,1.67,11.35,3.1,17.22,3.87c2.39,0.31,4.84,1.18,6.98,2.31c3.24,1.72,3.87,4.13,2.18,7.48c-1.18,2.33-2.63,4.55-4.18,6.67
		c-2.54,3.47-5.39,6.72-7.85,10.24c-2.05,2.94-3.71,6.15-5.56,9.23c-1.51,2.54-3.07,5.05-4.55,7.6c-2,3.46-5.13,4.89-8.93,5.11
		c-3.62,0.22-7.19-0.19-10.57-1.53c-11.66-4.61-23.66-8.21-35.61-11.98c-6.39-2.02-12.64-4.48-19.07-6.36
		c-8.87-2.61-17.82-4.9-26.77-7.23c-2.3-0.6-4.74-0.67-7.05-1.24c-4.35-1.07-6.1-3.49-3.79-8.51c1.49-3.22,3.74-6.11,5.71-9.1
		c3.43-5.19,7.04-10.28,10.32-15.56c1.63-2.62,2.87-5.53,3.94-8.44c0.68-1.84,1.78-2.52,3.54-2.58
		C258.52,349.24,259.72,349.27,260.92,349.27z M363.65,380.61c-0.91-0.24-1.59-0.43-2.27-0.61c-4.02-1.01-8.05-1.98-12.05-3.05
		c-3.32-0.88-6.61-1.86-9.9-2.82c-7.36-2.15-14.73-4.25-22.06-6.48c-10.16-3.09-20.25-6.43-30.45-9.4c-8.82-2.57-17.8-4.46-27-5.1
		c-1.87-0.13-1.88-0.11-2.57,1.69c-0.6,1.57-1.07,3.19-1.77,4.71c-0.69,1.51-1.53,2.98-2.43,4.38c-1.77,2.75-3.72,5.39-5.43,8.17
		c-1.47,2.39-2.93,4.74-4.92,6.76c-1.57,1.59-3.06,3.28-4.34,5.1c-1.53,2.18-0.98,3.39,1.59,3.82c2.2,0.37,4.43,0.52,6.65,0.8
		c8.57,1.08,16.83,3.54,25.05,6.06c12.37,3.79,24.65,7.9,36.96,11.87c5.47,1.77,10.9,3.7,16.43,5.25c3.9,1.09,7.88,2.08,12,2.02
		c1.57-0.03,2.72-0.59,3.55-1.99c1.1-1.85,2.3-3.66,3.55-5.41c5.11-7.15,10.22-14.3,15.41-21.4
		C360.76,383.47,362.2,382.19,363.65,380.61z"/>
</g>
</svg>
