<?xml version="1.0" encoding="utf-8"?>
<!-- Generator: Adobe Illustrator 27.1.1, SVG Export Plug-In . SVG Version: 6.00 Build 0)  -->
<svg version="1.1" id="Layer_1" xmlns="http://www.w3.org/2000/svg" xmlns:xlink="http://www.w3.org/1999/xlink" x="0px" y="0px"
	 viewBox="0 0 1837.93 807.03" style="enable-background:new 0 0 1837.93 807.03;" xml:space="preserve">
<g>
	<path d="M1297.94,390.87c-4.05-2.63-7.03-4.74-10.16-6.56c-5.23-3.05-11.18-5.19-15.72-9.02c-7.52-6.33-17.85-2.99-25.47-8.59
		c-1.9-1.39-5.12-1.32-7.74-1.34c-18-0.17-36-0.16-54-0.28c-1.97-0.01-4.54,0.17-5.79-0.92c-5.52-4.84-12.09-3.58-18.46-4.23
		c-3.19-0.32-6.22-2.35-9.3-3.65c-0.44-0.19-0.84-0.96-1.15-0.9c-8.24,1.73-13.97-5.02-21.42-6.36c-5.83-1.05-11.25-4.46-16.82-6.91
		c-1.19-0.53-2.12-1.71-3.33-2.13c-5.86-2.05-11.81-3.89-17.67-5.94c-1.68-0.59-3.23-1.6-4.76-2.54c-0.84-0.51-1.47-1.78-2.28-1.86
		c-6.34-0.64-11.65-4.09-17.48-6.02c-8.97-2.97-17.45-6.29-25.07-12.15c-6.72-5.17-14.29-9.25-21.5-13.78
		c-0.69-0.44-1.69-0.48-2.26-1.01c-5.59-5.3-13.63-6.39-19.38-10.4c-5.88-4.1-13.18-3.1-18.31-7.84c-1.09-1.01-3.1-0.99-4.65-1.54
		c-3.8-1.33-7.54-2.82-11.38-4.04c-2.32-0.74-4.77-1.04-7.14-1.66c-3.75-0.98-7.46-2.11-11.2-3.1c-2.38-0.63-4.76-1.45-7.18-1.67
		c-8.78-0.77-17.57-1.63-26.37-1.8c-3.31-0.06-6.66,1.69-9.99,2.61c-0.04,0.79-0.07,1.58-0.11,2.37c1.72,0.65,3.53,2.01,5.16,1.82
		c4.8-0.54,8.1,1.36,11.47,4.6c4.75,4.55,10.5,8.09,15.09,12.78c2.17,2.21,3.05,5.99,3.81,9.22c1.06,4.47,2.72,9.34,1.88,13.6
		c-1.52,7.72,1.09,16.71-5.62,23.02c-6.09,5.73-13.54,8.4-21.92,8.82c-1.63,0.08-3.18,1.63-4.77,2.5c1.16,1.25,2.15,2.71,3.5,3.71
		c3.91,2.9,7.83,5.82,11.98,8.35c3.89,2.38,8.28,3.96,12.09,6.44c11.09,7.23,22.1,14.59,32.94,22.18
		c7.93,5.55,15.31,11.9,23.37,17.24c7.1,4.71,14.97,8.23,22.17,12.8c9.27,5.9,20.38,7.7,29.45,14.27
		c6.75,4.89,14.89,7.82,22.21,11.98c6.26,3.56,12.22,7.64,18.33,11.47c7.54,4.73,15.14,9.36,22.62,14.18
		c2.75,1.77,5.23,3.97,7.84,5.97c5.76,4.42,11.47,8.89,17.29,13.22c2.52,1.87,5.17,3.59,7.89,5.16
		c9.54,5.53,18.83,11.65,28.82,16.22c7.32,3.35,15.6,4.63,23.45,6.82c1.12,0.31,2.63,0.17,3.33,0.87c4.6,4.6,10.39,3.7,15.99,3.72
		c8.99,0.03,17.99,0.02,26.98,0.03c0.83,0,1.78-0.22,2.48,0.1c1.68,0.76,3.24,1.77,4.85,2.67c-1.64,1.05-3.27,2.97-4.93,3.01
		c-10.49,0.24-20.99-0.02-31.49,0.08c-2.39,0.02-4.77,0.81-7.16,1.24c-0.09,0.66-0.18,1.32-0.27,1.98c4.25,2.24,8.5,4.48,12.76,6.71
		c4.32,2.27,8.69,4.46,12.97,6.8c7.71,4.21,15.34,8.56,23.07,12.71c1.41,0.76,3.18,0.87,4.79,1.22c1.29,0.28,3.22,0.03,3.79,0.8
		c3.8,5.19,9.91,2.83,14.4,4.78c7.44,3.23,15.65,3.22,22.65,5.99c6.95,2.75,13.49,3.88,20.6,4.13c1.96,0.07,4.25,0.27,5.78,1.31
		c6.1,4.14,12.9,4.23,19.73,3.75c9.55-0.66,18.33,2.59,27.35,4.75c1.86,0.45,3.86,0.47,5.79,0.49c19.83,0.16,39.66,0.26,59.49,0.46
		c1.98,0.02,4.07,0.25,5.9,0.93c9.86,3.69,20.15,3.78,30.45,4.27c3.21,0.15,6.34,2.01,9.5,3.13c0.45,0.16,0.77,0.71,1.23,0.84
		c7.61,2.14,15.25,4.18,22.85,6.38c2.28,0.66,4.48,1.67,6.65,2.66c1.04,0.47,1.84,1.52,2.89,1.89c5.89,2.01,11.99,3.5,17.7,5.93
		c5.67,2.41,10.93,5.75,16.41,8.61c3.54,1.85,7,3.97,10.74,5.27c9.99,3.48,18.1,10.05,26.96,15.44
		c10.2,6.19,20.91,11.52,31.31,17.39c5,2.83,9.42,7.19,14.73,8.84c7.37,2.29,12.76,7.4,19.26,10.85c5.76,3.05,11.13,6.83,16.8,10.07
		c3.94,2.25,8.11,4.07,12.12,6.19c6.99,3.7,14.47,6.77,20.75,11.44c6.4,4.75,13.91,6.61,20.6,10.35
		c6.46,3.62,12.52,7.95,18.94,11.65c5.55,3.2,11.48,5.72,17.01,8.95c6.33,3.7,12.34,7.92,18.58,11.77c4.93,3.04,9.97,5.9,15.02,8.74
		c3.85,2.17,7.85,4.1,11.65,6.35c0.99,0.59,1.5,1.99,2.46,3.33c-3.97,2.21-7.04,1.12-10.08-0.79c-1.67-1.05-3.4-2.02-5.1-3.03
		c-5-2.96-9.9-6.11-15.02-8.85c-4.99-2.66-10.25-4.82-15.32-7.35c-3.52-1.76-6.93-3.76-10.36-5.68
		c-7.06-3.95-14.08-7.97-21.18-11.86c-5.22-2.86-10.59-5.44-15.77-8.36c-2.42-1.37-4.41-3.52-6.85-4.84
		c-10.29-5.59-20.77-10.84-31.01-16.53c-6.22-3.45-12.05-7.58-18.19-11.17c-5.54-3.24-11.33-6.05-16.91-9.22
		c-6.47-3.68-12.76-7.66-19.24-11.32c-5.97-3.38-12.18-6.34-18.12-9.78c-6.28-3.64-12.28-7.78-18.56-11.43
		c-5.6-3.26-11.45-6.09-17.12-9.25c-2.87-1.6-5.49-3.66-8.37-5.24c-5.22-2.87-10.33-6.15-15.89-8.16
		c-8.48-3.07-16.08-8.92-26.11-7.52c-6.37,0.89-12.97,0.19-19.47,0.01c-2.47-0.07-5.35,0.01-7.31-1.18
		c-7.67-4.65-16.05-3.47-24.31-3.98c-3.79-0.23-7.45-2.09-11.22-3.02c-3.33-0.81-6.78-1.17-10.08-2.06
		c-3.55-0.95-6.97-2.38-10.49-3.44c-2.32-0.7-4.77-1-7.09-1.72c-3.04-0.94-6.02-2.11-9-3.23c-0.44-0.17-0.73-0.79-1.16-0.92
		c-7.07-1.97-14.05-4.71-21.26-5.61c-7.88-0.98-15.97-0.35-23.97-0.24c-7.1,0.1-13.95-0.56-20.23-4.37
		c-1.29-0.78-3.18-0.75-4.79-0.78c-5-0.09-10.01,0.18-14.99-0.12c-2.93-0.18-6.44-0.35-8.58-1.97c-4.3-3.25-8.92-3.15-13.71-3.21
		c-4.6-0.06-8.99,0.25-13.01-3.46c-1.92-1.77-5.97-1.49-9.09-1.65c-4.04-0.21-8.09,0.06-10.85-3.73c-0.27-0.36-0.83-0.79-1.21-0.75
		c-8.67,0.93-15.67-4.65-23.75-6.02c-0.49-0.08-1.06,0.01-1.48-0.2c-4.75-2.38-9.49-4.76-14.2-7.23
		c-5.31-2.78-10.61-5.57-15.85-8.49c-7.06-3.94-14.12-7.9-21.07-12.02c-10.99-6.52-21.16-14.17-32.85-19.84
		c-10.45-5.07-21.25-10.03-30.34-18.36c-9.65-8.83-21.57-15.15-32.42-22.69c-6.35-4.41-12.55-9.05-18.82-13.58
		c-0.53-0.38-1.07-0.74-1.65-1.05c-8.99-4.81-17.96-9.64-26.97-14.39c-4.9-2.59-9.87-5.02-14.79-7.57
		c-3.15-1.63-6.09-3.91-9.42-4.92c-7.51-2.27-14.57-1.39-20.7,4.24c-1.35,1.24-3.99,1.03-5.47,2.2c-4.37,3.48-8.92,6.91-12.55,11.09
		c-8.15,9.39-17.31,17.47-28.18,23.45c-7,3.85-14.05,7.95-21.58,10.37c-5.68,1.82-12.15,1.31-18.28,1.52
		c-3.79,0.13-7.64-0.8-11.39-0.45c-10.06,0.93-17.87-4.11-25.42-9.4c-7.3-5.12-7.06-13.65-7.27-21.29c-0.13-4.52-1.36-5.8-5.51-6.19
		c-2.66-0.25-5.2-1.75-7.78-2.71c-1.51-0.56-2.96-1.59-4.49-1.71c-12.37-0.92-20.43-8.93-26.82-17.99
		c-3.56-5.05-4.38-12.23-5.63-18.61c-0.66-3.36-1.55-5.4-5.07-5.33c-2.31,0.04-5.17-0.33-6.82,0.84
		c-8.39,5.97-17.93,3.74-27.05,4.45c-1.6,0.13-3.72,0.03-4.67,0.97c-4.15,4.12-9.24,4.14-14.43,3.98
		c-6.07-0.19-11.5,1.46-17.27,3.51c-6.16,2.19-13.45,1.09-20.2,1.81c-2.59,0.28-5.05,1.65-7.59,2.46c-2.77,0.89-5.5,2.09-8.34,2.45
		c-3.78,0.48-7.66,0.15-11.47,0.44c-0.97,0.07-2.33,1-2.64,1.85c-0.24,0.66,0.66,2.09,1.42,2.71c9.17,7.41,18.6,14.5,27.57,22.13
		c13.24,11.26,24.7,24.21,34.11,38.84c7.9,12.29,15.95,24.53,23.01,37.3c6.41,11.59,11.74,23.79,17.27,35.85
		c4.19,9.16,7.95,18.52,11.86,27.8c0.77,1.84,1.35,3.75,2,5.64c3.69,10.65,7.48,21.27,11,31.98c1.34,4.09,1.89,8.44,3.07,12.6
		c2.16,7.67,4.61,15.26,6.76,22.93c0.98,3.51,1.52,7.14,2.29,10.72c3.2,14.95,6.64,29.86,9.52,44.88
		c1.86,9.73,2.78,19.64,4.37,29.43c0.8,4.92,2.12,9.76,3.27,14.61c1.46,6.14-0.57,8.66-6.73,9.35c-6.56,0.73-13.03,2.17-19.58,3.07
		c-7.4,1.02-14.91,1.42-22.25,2.75c-13.72,2.49-27.36,5.4-41.02,8.22c-17.52,3.63-35,7.43-52.53,10.99
		c-12.2,2.47-24.48,4.53-36.68,7.04c-3.58,0.74-6.9,3.05-10.47,3.46c-5.69,0.65-7.75-1.8-8.41-7.67
		c-1.16-10.35-2.09-20.75-3.93-30.98c-1.8-10.04-4.75-19.87-6.94-29.84c-2.35-10.7-4.4-21.46-6.6-32.2
		c-0.3-1.46-0.59-2.94-1.02-4.37c-4.27-14-8.12-28.16-12.98-41.96c-6.45-18.33-13.54-36.44-20.65-54.53
		c-3.82-9.71-7.99-19.3-12.48-28.73c-3.07-6.45-6.61-12.73-10.53-18.7c-9.02-13.73-17.81-27.68-27.84-40.65
		c-7.58-9.8-16.91-18.26-25.53-27.25c-2.18-2.28-4.68-4.25-6.96-6.45c-2.77-2.68-5.31-2.9-7.17,0.82
		c-6.69,13.37-13.33,26.76-19.87,40.2c-2.97,6.11-5.85,12.29-8.42,18.58c-2.06,5.05-3.64,10.3-5.37,15.49
		c-2.71,8.16-5.19,16.4-8.09,24.48c-3.83,10.65-7.67,21.31-12.05,31.74c-5.35,12.73-10.85,25.42-17.07,37.73
		c-3.86,7.64-8.88,14.75-13.92,21.71c-5.65,7.8-12.03,15.06-17.86,22.73c-8.23,10.83-19.07,18.45-30.46,25.45
		c-8.23-0.71-14.87,5.07-22.76,5.61c-1.68,0.12-3.42-0.69-5.13-1.08c0.69-1.55,1.01-3.47,2.13-4.58c3.41-3.39,7.29-6.31,10.71-9.7
		c13.22-13.11,26.15-26.48,35.26-42.98c1.6-2.9,3.92-5.45,5.26-8.45c0.78-1.73,1.06-4.62,0.11-5.91c-0.94-1.27-3.89-1.97-5.66-1.58
		c-16.88,3.75-33.68,7.85-50.53,11.71c-10.64,2.44-21.33,4.68-32.02,6.91c-7.96,1.66-16,2.95-23.92,4.78
		c-11.19,2.58-16.59,11.22-19.94,21.09c-0.67,1.97,1.74,6.13,3.89,7.69c6.3,4.59,12.95,8.84,19.9,12.35
		c7.38,3.72,15.24,6.49,22.92,9.59c3.15,1.27,7.8,1.59,6.89,6.07c-0.28,1.38-5.51,1.89-8.53,2.55c-3.04,0.66-6.35,0.5-9.18,1.61
		c-8.91,3.5-17.33,3.45-25.99-1.1c-7.79-4.09-15.86-7.76-24.11-10.77c-2.23-0.82-6.24,0.63-8.28,2.38
		c-6.78,5.85-12.61,12.83-19.61,18.36c-5.74,4.54-12.44,8.03-19.08,11.22c-4.89,2.35-10.38,3.47-15.6,5.14
		c-1.59,0.51-3.18,1.42-4.76,1.41c-2.16-0.01-4.32-0.73-6.49-1.15c0.94-1.9,1.45-4.27,2.9-5.61c10.63-9.78,21.56-19.23,32.12-29.08
		c2.09-1.95,3-5.17,4.46-7.8c-2.69-0.04-5.49-0.57-8.05-0.02c-10.08,2.17-20.02,5-30.13,7.01c-19.22,3.81-38.53,7.16-57.76,10.92
		c-2.15,0.42-4.01,2.29-6,3.49c1.49,2.02,2.54,4.93,4.53,5.9c9.11,4.42,18.54,8.2,27.76,12.41c3.53,1.61,6.82,3.76,10.69,5.94
		c-1.31,1.39-1.75,2.31-2.38,2.47c-8.15,2.09-16.34,5.66-24.5,5.61c-7.67-0.05-15.54-3.37-22.91-6.31
		c-17.67-7.03-33.89-17.16-46.81-30.83c-14.07-14.88-26.06-31.75-38.64-47.99c-5.06-6.54-9.29-13.72-13.85-20.64
		c-0.82-1.24-1.4-2.64-2.1-3.95c-5.49-10.2-11.02-20.38-16.44-30.62c-1.86-3.52-3.83-7.07-5.06-10.82c-1.47-4.48,0.13-6.4,4.59-7.54
		c6.4-1.63,12.72-3.53,19.08-5.31c0.64-0.18,1.29-0.34,1.94-0.46c21.4-4,42.79-8.03,64.2-11.98c12.4-2.29,25.19-3.29,37.16-6.98
		c19.17-5.92,39.01-8.13,58.37-12.79c4.92-1.18,8.05,0.38,10.33,4.56c4.07,7.44,8.01,14.95,12.29,22.27
		c4.96,8.46,10.05,16.85,15.41,25.05c8.88,13.6,18.01,27.04,27.05,40.53c0.74,1.1,1.57,2.16,2.47,3.14c3.91,4.29,6.77,4.13,8.84-1.3
		c8.85-23.15,17.36-46.43,26.06-69.65c3.67-9.8,7.29-19.63,11.28-29.31c4.55-11.04,9.21-22.05,14.35-32.82
		c3.65-7.64,7.86-15.05,12.4-22.2c5.22-8.24,11.1-16.07,16.64-24.12c0.88-1.28,1.43-2.78,2.67-5.24
		c-9.67,0.47-18.31,0.34-26.75,1.53c-4.1,0.57-6.43-0.66-8.52-3.35c-3.69-4.75-3.57-10.32-2.19-15.72c0.34-1.35,2.87-2.91,4.49-3.02
		c6.04-0.42,11.61-1.37,17.07-4.6c2.94-1.74,7.51-0.5,11.23-1.19c4.11-0.76,8.07-2.28,12.13-3.28c3.02-0.75,6.1-1.58,9.17-1.72
		c5.99-0.26,11.68-0.42,17.22-3.77c3.13-1.89,7.75-1.16,11.62-1.97c3.32-0.7,6.53-1.93,9.8-2.9c2.66-0.79,5.3-1.65,8-2.28
		c6.37-1.51,12.75-3,19.17-4.31c14.92-3.05,29.81-6.29,44.81-8.88c8.45-1.45,17.09-1.76,25.65-2.59c0.49-0.05,1.11-0.03,1.45-0.31
		c6.68-5.54,14.74-4.14,22.45-4.57c1.59-0.09,3.37-0.43,4.69-1.24c6.7-4.16,14.13-4.53,21.67-4.72c1.72-0.04,3.98-0.1,5.05-1.13
		c6.27-6.04,13.43-6.22,21.27-4.26c1.59,0.4,4.11-0.06,5.22-1.13c3.2-3.1,6.79-3.64,10.99-3.53c5.49,0.15,11.37,1.12,15.42-4.33
		c0.5-0.67,1.79-0.75,2.72-1.11c10.83-4.25,22.2-4.31,33.58-4.38c3.17-0.02,6.34,0.08,9.5-0.04c1.64-0.06,3.73,0.06,4.82-0.85
		c6.45-5.4,14.12-3.95,21.5-4.34c1.91-0.1,4.2-0.31,5.61-1.39c4.44-3.4,9.41-3.97,14.67-3.74c5.4,0.24,10.39-0.35,15.22-3.56
		c2.48-1.64,6.4-1.03,9.64-1.63c5.14-0.96,10.23-2.21,15.39-3.1c4.88-0.85,9.85-1.19,14.7-2.13c4.3-0.84,8.47-2.27,12.74-3.29
		c3.03-0.73,6.12-1.22,9.19-1.8c5-0.95,10.01-1.84,15.01-2.83c3.9-0.77,7.84-2.57,11.65-2.31c7.57,0.52,14-2.14,20.5-5.2
		c2.82-1.33,3.59-3.36,1.26-5.4c-7.67-6.75-7.24-16.05-8-24.87c-0.37-4.29,0.89-8.23,4.43-11.65c9.21-8.91,18.02-18.24,26.81-27.57
		c1.83-1.94,2.88-4.6,4.51-7.31c-4.96-1.29-7.82-0.89-10.76,2.08c-1.68,1.71-5.09,1.99-7.8,2.36c-5.12,0.71-10.62-0.48-14.87,3.95
		c-0.97,1.01-3.11,1.17-4.73,1.21c-6.07,0.18-12.37-0.74-17.15,4.39c-9.81-0.52-18.28,5.11-27.71,6.05
		c-4.87,0.49-9.33,0.79-13.64,3.75c-2.31,1.59-6.08,0.94-9.12,1.63c-3.48,0.79-6.86,2.02-10.31,2.93c-3.15,0.83-6.36,1.41-9.52,2.22
		c-3.77,0.97-7.49,2.15-11.27,3.1c-3.17,0.79-6.42,1.26-9.58,2.08c-4.23,1.1-8.39,2.52-12.63,3.58c-3.01,0.76-6.15,1-9.16,1.76
		c-3.91,1-7.72,2.44-11.64,3.41c-3.16,0.79-6.48,0.96-9.64,1.78c-4.03,1.04-7.91,2.63-11.94,3.65c-3,0.76-6.2,0.75-9.2,1.53
		c-4,1.04-7.86,2.61-11.83,3.76c-2.19,0.64-4.48,1.16-6.74,1.26c-5.28,0.25-10.5-0.04-14.89,4.04c-1.31,1.22-4.09,0.96-6.22,1.18
		c-5.53,0.58-11.38-0.95-16.08,4.09c-1.4,1.5-5.04,1.05-7.68,1.23c-4.45,0.29-8.39,1.03-12.59,3.46c-3.8,2.21-9.33,1.31-14.05,2.11
		c-1.91,0.32-3.66,1.53-5.52,2.25c-2.23,0.87-4.44,2.14-6.75,2.39c-5.33,0.58-10.3,0.55-15.41,3.87c-3.65,2.37-9.65,1.1-14.6,1.51
		c-1.23,0.1-3.07-0.03-3.55,0.67c-3.41,5.05-8.59,4.4-13.52,4.58c-3.74,0.14-7.18,0-10.33,3.28c-1.68,1.75-5.59,1.3-8.48,1.94
		c-4.62,1.02-9.21,2.22-13.85,3.14c-4.2,0.83-8.45,1.53-12.7,2c-3.91,0.44-7.66,0.23-11,3.46c-1.67,1.61-5.28,1.48-8.04,1.66
		c-5.67,0.36-11.4-0.67-16.39,3.78c-1.76,1.57-5.38,1.3-8.17,1.43c-4.95,0.23-9.78,0.13-13.87,3.95c-1.31,1.22-4.09,1.06-6.21,1.17
		c-6.28,0.33-12.44,0.03-18.16,4.05c-2.49,1.75-6.73,1.12-10.2,1.34c-4.3,0.28-8.05,1.23-12.11,3.32
		c-4.24,2.18-10.01,1.27-15.06,2.04c-2.27,0.35-4.39,1.61-6.64,2.23c-3.74,1.02-7.57,1.71-11.28,2.81
		c-8.15,2.43-12.79-2.92-16.43-8.36c-1.71-2.57-0.98-7.14-0.4-10.64c0.18-1.05,3.58-1.56,5.5-2.33c2.74-1.09,5.42-2.38,8.23-3.25
		c3.11-0.95,6.35-1.45,9.5-2.28c3.91-1.02,7.78-2.17,11.66-3.3c0.46-0.14,0.83-0.62,1.3-0.73c8.89-2.12,17.81-4.16,26.69-6.32
		c4.42-1.08,8.79-2.34,13.17-3.56c1.59-0.44,3.14-1.37,4.73-1.41c5.48-0.15,10.95,0.16,15.3-4.29c0.87-0.88,2.82-0.85,4.29-0.96
		c5.59-0.43,10.67-1.39,16.11-3.88c8.13-3.72,17.57-4.54,26.43-6.69c4.28-1.03,8.51-2.26,12.76-3.41c0.31-0.09,0.57-0.38,0.89-0.45
		c9.55-2.18,19.11-4.29,28.64-6.56c3.47-0.83,6.86-2.03,10.27-3.09c0.46-0.14,0.82-0.64,1.28-0.76c8.89-2.22,17.8-4.35,26.68-6.62
		c4.07-1.04,8.06-2.42,12.13-3.47c2.86-0.73,5.85-0.98,8.69-1.76c3.42-0.94,6.7-2.35,10.12-3.31c2.81-0.79,5.76-1.09,8.58-1.84
		c3.91-1.03,7.77-2.26,11.65-3.44c0.46-0.14,0.87-0.76,1.28-0.73c9.54,0.65,17.57-4.95,26.62-6.39c3.49-0.56,6.84-1.96,10.24-3.02
		c0.46-0.14,0.83-0.62,1.29-0.74c8.9-2.19,17.81-4.35,26.72-6.48c0.63-0.15,1.37,0.12,1.99-0.06c9.68-2.77,19.35-5.57,29.02-8.39
		c0.47-0.14,0.89-0.74,1.3-0.7c10.54,0.94,19.2-6.35,29.5-6.69c2.85-0.1,5.59-2.09,8.46-2.99c2.61-0.83,5.33-1.3,7.98-2.03
		c4.06-1.12,8.07-2.41,12.14-3.48c2.69-0.7,5.48-1.01,8.16-1.72c3.75-0.99,7.45-2.17,11.15-3.32c0.62-0.19,1.17-0.94,1.74-0.93
		c9.31,0.26,17.56-4.01,26.31-6.1c3.68-0.88,7.28-2.05,10.95-2.99c9.82-2.53,19.65-5,29.49-7.49c2.86-0.72,6.01-0.88,8.51-2.24
		c3.77-2.04,3.33-5.58,0.02-8.34c-5.43-4.53-10.78-9.2-15.66-14.29c-1.73-1.81-2.66-4.96-2.84-7.57c-0.32-4.8-0.01-9.67,0.46-14.47
		c0.2-2.02,0.98-4.42,2.35-5.82c8.47-8.66,17.37-16.59,29.41-20.38c5.34-1.68,10.08-5.27,15.09-8.01c0.72-0.4,1.34-1.12,2.1-1.3
		c9.88-2.4,17.33-9.33,25.86-14.17c9.12-5.18,17.53-11.66,26.1-17.77c6.03-4.3,11.47-9.55,17.83-13.24
		c5.83-3.38,12.61-5.1,18.85-7.82c5.39-2.35,10.58-5.16,15.95-7.57c2.52-1.13,5.23-1.86,7.88-2.69c0.78-0.24,1.74,0.01,2.46-0.32
		c6.08-2.76,12.11-5.65,18.2-8.4c1.62-0.73,3.42-1.07,5.09-1.72c2.24-0.87,4.44-1.83,6.62-2.83c0.58-0.27,0.96-1.03,1.55-1.23
		c6.32-2.16,12.66-4.26,19-6.35c0.62-0.21,1.38-0.1,1.95-0.38c5.41-2.65,10.8-5.35,16.19-8.05c8.28-4.13,16.51-8.35,24.84-12.39
		c6.61-3.21,13.32-6.2,19.98-9.29c0.3-0.14,0.61-0.37,0.92-0.38c13.73-0.43,27.48-2.6,41.07,1.94c4.94,1.65,10.4,2.35,15.63,2.41
		c7.92,0.1,15.52,0.67,22.91,4.01c2.87,1.3,6.49,1.19,9.78,1.27c8.45,0.2,16.85-0.44,24.84,3.91c3.08,1.68,7.47,1.16,11.27,1.25
		c6.48,0.15,12.79,0.03,18.87,3.39c2.99,1.65,7.11,1.18,10.67,1.87c5.81,1.13,11.6,2.41,17.39,3.65c2.1,0.45,4.18,1.36,6.27,1.39
		c7.33,0.11,14.46,0.05,21.24,4.06c2.85,1.68,7.11,1.21,10.74,1.3c11.66,0.28,23.34,0.15,34.99,0.63c3.68,0.15,7.27,1.96,10.97,2.55
		c5.55,0.89,11.14,1.69,16.75,1.97c5.84,0.29,11.64-0.19,16.43,4.34c1.13,1.07,3.42,0.96,5.21,1.26c2.61,0.43,5.24,0.89,7.88,1.05
		c2.49,0.15,5.02,0.05,7.52-0.19c1.96-0.19,3.88-1.06,5.82-1.08c5.23-0.05,10.38-0.13,14.51-4.05c0.12-0.11,0.29-0.22,0.44-0.22
		c8.94,0.11,16.8-4.16,25.23-6.14c2.42-0.57,4.94-0.64,7.37-1.19c6.09-1.38,12.16-2.86,18.21-4.4c1.75-0.45,3.45-1.17,5.11-1.89
		c0.9-0.39,1.62-1.32,2.54-1.56c8.86-2.27,17.75-4.4,26.6-6.68c3.6-0.93,7.14-2.1,10.7-3.19c0.46-0.14,0.84-0.61,1.3-0.72
		c8.87-2.16,17.76-4.22,26.61-6.44c3.63-0.91,7.17-2.14,10.74-3.27c0.46-0.15,0.83-0.64,1.29-0.74c9.54-2.17,19.1-4.25,28.62-6.48
		c3.31-0.78,6.51-1.99,9.79-2.89c2.98-0.82,6.03-1.44,9.01-2.26c3.45-0.95,6.84-2.1,10.29-3c3.16-0.83,6.42-1.3,9.57-2.18
		c3.57-0.99,7.04-2.35,10.6-3.38c2.51-0.73,5.12-1.09,7.64-1.78c4.06-1.12,8.05-2.47,12.11-3.53c2.85-0.75,5.81-1.05,8.66-1.78
		c3.44-0.89,6.82-2,10.21-3.06c0.46-0.14,0.83-0.63,1.29-0.74c9.02-2.2,18.06-4.31,27.07-6.55c3.78-0.94,7.47-2.22,11.24-3.19
		c3.01-0.77,6.13-1.16,9.13-1.99c3.71-1.03,7.32-2.44,11.02-3.5c2.5-0.72,5.11-1.02,7.62-1.68c4.08-1.08,8.12-2.3,12.17-3.49
		c0.46-0.14,0.83-0.63,1.29-0.74c8.73-2.1,17.42-4.35,26.21-6.16c3.54-0.73,7.07-0.31,9.72-3.88c2.22-2.98,7.71-1.38,9.1,2.04
		c1.69,4.14,3.67,8.15,5.39,12.27c0.63,1.51,0.87,3.18,1.28,4.77c0.94,3.67,1.83,7.35,2.82,11.01c0.65,2.4,1.51,4.74,2.13,7.15
		c3.38,13.09-7.08,18.51-16.88,19.26c-5.18,0.39-10.24-0.59-14.68,3.86c-1.76,1.76-6.03,0.85-9.08,1.51
		c-3.5,0.75-6.89,1.99-10.37,2.83c-3.65,0.88-7.32,1.75-11.04,2.24c-4.39,0.58-9.13-0.82-12.53,3.84c-0.94,1.29-4.01,1.01-6.08,1.51
		c-4.6,1.12-9.19,2.27-13.78,3.42c-0.32,0.08-0.59,0.35-0.9,0.42c-10.09,2.19-20.15,4.54-30.29,6.46c-4.31,0.81-9.05-0.2-12.34,3.82
		c-0.19,0.23-0.6,0.44-0.89,0.42c-10.1-0.67-18.74,5.14-28.42,6.45c-3.59,0.48-6.99,2.27-10.54,3.27c-2.68,0.75-5.44,1.54-8.19,1.7
		c-4.99,0.29-9.5,1.11-14.24,3.39c-4.36,2.1-10.03,1.45-15.11,2.04c-1.41,0.17-3.43-0.07-4.12,0.76c-4.18,5.04-9.79,4.02-15.23,4.32
		c-2.24,0.12-4.95,0.82-6.52,2.27c-4.57,4.22-10.25,2.01-15.25,3.37c-2.26,0.61-4.43,1.57-6.61,2.45c-0.76,0.31-1.39,1.06-2.16,1.22
		c-9.99,2.14-20.02,4.13-30,6.33c-3.47,0.77-6.79,2.21-10.27,2.98c-4.14,0.92-8.34,1.82-12.56,2.02c-3.22,0.15-5.79,0.31-8.53,2.72
		c-2.07,1.82-5.78,1.77-8.75,2.59c-4.06,1.12-8.06,2.53-12.18,3.33c-4.32,0.84-8.77,1.68-13.11,1.47c-3.54-0.17-6.35,0.69-7.27,3.69
		c-0.7,2.28-0.42,5.77,0.93,7.61c5.49,7.44,11.69,14.36,17.39,21.66c3.86,4.94,7.28,10.22,10.99,15.28
		c1.26,1.72,2.85,3.18,4.18,4.85c2.67,3.35,5.37,6.67,7.85,10.15c6.42,9.01,12.64,18.16,19.12,27.13c2.54,3.52,5.45,2.98,9.12,0.86
		c3.12-1.8,7.07-2.74,10.71-2.94c6.01-0.32,11.67-0.52,17.28-3.68c3.31-1.87,8.11-0.93,12.15-1.72c4.45-0.87,8.78-2.35,13.2-3.42
		c2.86-0.69,5.78-1.51,8.69-1.58c6.67-0.17,13.06-0.23,19.3-3.76c3.32-1.88,8.12-0.98,12.19-1.72c4.17-0.76,8.23-2.13,12.39-2.97
		c4.35-0.88,8.79-1.27,13.13-2.19c4.6-0.98,9.1-2.4,13.68-3.48c2.88-0.68,5.81-1.43,8.74-1.55c6.66-0.27,13.08-0.41,19.35-3.77
		c3.38-1.81,8.15-0.83,12.2-1.6c3.81-0.73,7.48-2.19,11.25-3.17c2.85-0.74,5.75-1.71,8.64-1.77c7.03-0.15,13.8-0.41,20.32-3.98
		c2.96-1.62,7.16-0.86,10.73-1.54c5.14-0.98,10.19-2.38,15.32-3.42c3.54-0.72,7.18-1,10.72-1.74c5.12-1.07,10.17-2.51,15.31-3.52
		c3.87-0.76,7.81-1.4,11.74-1.55c5.36-0.21,10.6-0.18,15.19-3.73c1.32-1.02,3.42-1.15,5.21-1.41c6.87-1.01,13.76-1.82,20.62-2.87
		c2.97-0.45,4.49,0.6,5.78,3.33c4.13,8.79,7.29,17.6,6.32,27.68c-0.28,2.98,2.08,6.33,3.59,9.34c1.53,3.06,1.91,5.3-0.82,8.26
		c-5.54,6-12.25,7.52-19.91,7.02c-5.56-0.36-10.69,0.4-15.75,3.5c-2.83,1.73-7.05,1.42-10.67,1.57c-6.6,0.28-12.95,0.46-19.25,3.6
		c-3.88,1.93-9.13,0.94-13.69,1.73c-4.49,0.77-8.83,2.53-13.33,3.14c-7.36,0.99-14.81,1.36-22.21,2.09
		c-1.71,0.17-4.02,0.14-4.97,1.19c-3.35,3.67-7.52,3.87-11.92,3.82c-6.82-0.07-13.27,0.52-19.8,3.65
		c-4.48,2.15-10.46,0.99-15.69,1.79c-3.82,0.58-7.51,1.98-11.28,2.95c-2.86,0.73-5.74,1.86-8.63,1.95
		c-9.12,0.27-18.21,0.09-26.77,4.18c-2.01,0.96-4.54,1.08-6.84,1.13c-6.54,0.15-12.57,0.46-19.04,3.5
		c-6.04,2.84-14.02,1.44-21.1,2.27c-2.46,0.29-4.77,1.72-7.19,2.5c-2.49,0.8-5,1.64-7.56,2.08c-6.99,1.2-14.01,2.15-21.01,3.29
		c-3.1,0.5-6.15,1.27-9.25,1.79c-2.84,0.48-4.71,1.67-2.65,4.59c7.84,11.08,15.25,22.54,23.96,32.9
		c7.22,8.61,15.62,16.37,24.24,23.63c11.49,9.68,23.7,18.49,35.58,27.7c1.31,1.02,2.42,2.33,3.81,3.22
		c8.82,5.63,17.68,11.22,26.57,16.76c5.07,3.16,10.08,6.44,15.37,9.2c4.86,2.53,10.06,4.39,15.07,6.64
		c1.46,0.66,2.78,1.64,4.18,2.44c1.54,0.88,3.11,1.71,4.67,2.56c2.05,1.13,4.11,2.25,6.15,3.4c0.55,0.31,1,0.88,1.58,1.07
		c6.21,2.07,12.54,3.83,18.64,6.19c6.05,2.34,11.88,5.27,17.8,7.96c0.3,0.14,0.53,0.43,0.84,0.54c7.04,2.41,14.09,4.79,21.12,7.22
		c1.87,0.64,3.69,1.42,5.53,2.15c2.42,0.96,4.87,1.88,7.26,2.93c1.63,0.71,3.21,1.53,4.75,2.42c0.68,0.4,1.11,1.34,1.81,1.59
		c6.03,2.14,12.11,4.14,18.14,6.27c1.84,0.65,3.58,1.58,5.38,2.37c2.07,0.91,4.15,1.8,6.22,2.71c6.72,2.96,13.42,5.99,20.18,8.86
		c1.92,0.82,4.12,0.98,6.03,1.82c1.36,0.6,2.44,1.82,3.64,2.76c-1.38,0.9-2.67,2.26-4.18,2.57c-1.27,0.26-3.27-0.26-4.11-1.2
		c-3.04-3.4-6.87-3.68-10.96-3.71c-1.27-0.01-3.19-0.17-3.7-0.98c-2.7-4.24-7.44-2.92-10.88-4.55c-6.4-3.03-13.11-4.67-19.7-6.89
		c-7.87-2.65-15.58-5.8-23.33-8.82c-1.67-0.65-3.2-1.64-4.78-2.5c-1.3-0.71-2.51-1.59-3.86-2.19c-6.42-2.89-12.85-5.74-19.3-8.55
		c-1.51-0.66-3.11-1.13-4.64-1.75c-3.28-1.32-6.54-2.71-9.83-4.02c-1.36-0.55-2.82-0.87-4.15-1.48c-1.71-0.79-3.35-1.72-4.97-2.69
		c-0.83-0.5-1.49-1.72-2.28-1.76c-11.53-0.56-19.82-9.58-30.84-11.66c-3.5-0.66-6.66-3.41-9.86-5.39
		c-7.01-4.34-13.9-8.86-20.92-13.19c-3.62-2.23-7.55-3.99-11.09-6.35c-10.87-7.24-22.06-14.12-32.28-22.2
		c-8.83-6.97-15.75-16.51-24.91-22.91c-13.36-9.33-21.08-23.32-31.83-34.74c-5.81-6.18-10.06-13.83-14.97-20.84
		c-2.06-2.94-4.17-3.63-7.52-1.52c-2.38,1.5-5.4,2.36-8.23,2.71c-5.43,0.68-11.74-0.81-16.23,1.47c-9.07,4.59-18.38,3.45-27.69,4.04
		c-1.12,0.07-2.55,0.31-3.27,1.03c-4.7,4.73-10.68,3.76-16.44,4.02c-6.16,0.27-12.38-0.65-17.98,3.86
		c-2.16,1.75-6.38,1.14-9.68,1.24c-6.45,0.2-12.42,0.88-18.69,3.71c-5.53,2.49-12.74,1.08-19.17,1.83c-3.1,0.36-6.1,1.66-9.11,2.64
		c-1.73,0.56-3.43,1.99-5.07,1.89c-10.5-0.66-20.23,2.79-30.2,5.07c-2.56,0.59-5.3,0.62-7.95,0.56c-5.29-0.13-10.46-0.78-14.86,3.59
		c-1.37,1.36-4.37,1.33-6.65,1.49c-5.64,0.38-11.3,0.5-16.95,0.74c-0.82,0.04-1.91-0.11-2.41,0.34c-5.7,5.19-12.71,4.26-19.49,4.21
		c-3.82-0.03-7.11,0.96-10.73,2.38c-5.12,2.01-11.1,3.17-16.54,2.71c-8.49-0.72-13.59,3.87-18.63,9.13
		c-3.78,3.94-7.43,8.04-10.74,12.37c-1.27,1.67-1.42,4.19-2.08,6.32c1.69,0.33,3.37,0.85,5.07,0.95
		c12.93,0.76,25.86,1.37,38.78,2.22c1.71,0.11,3.38,1.27,5.02,2.05c1.2,0.57,2.3,1.85,3.47,1.88c7.28,0.18,13.72,2.84,20.01,6.15
		c8.66,4.56,17.18,9.3,22.93,17.63C1297.88,387.82,1297.72,388.59,1297.94,390.87z M1048.4,85.51c-0.02-0.05-0.05-0.11-0.07-0.16
		c-2.28,1.41-4.52,2.91-6.86,4.21c-1.15,0.64-2.94,0.55-3.67,1.43c-3.09,3.75-6.99,3.07-11.18,3.47c-3.8,0.36-7.3,3.73-10.98,5.68
		c-1.29,0.69-3.18,0.73-4.01,1.73c-2.59,3.11-5.83,3.46-9.47,3.21c-1.08-0.08-2.32,0.19-3.27,0.7c-5.32,2.86-10.4,7.82-15.88,8.29
		c-7.25,0.62-12.02,5.94-18.68,6.84c-1.48,0.2-3,0.51-4.35,1.11c-6.43,2.86-12.77,5.95-19.22,8.76c-5.73,2.49-11.58,4.71-17.37,7.06
		c-0.44,0.18-0.86,0.47-1.22,0.78c-11.9,10.48-24.65,19.81-38.06,28.27c-2.46,1.55-4.35,4.52-6.95,5.25
		c-7.51,2.11-12.23,7.6-17.26,12.77c-7.17,7.36-13.92,15.14-21.34,22.24c-7.06,6.75-14.3,13.61-25.5,12.29
		c-3.49-0.41-4.81,2.31-5.15,5.49c-0.57,5.33,7.52,17.99,13.03,19.71c6.16,1.92,10.98,7.56,18.22,6.47
		c0.55-0.08,1.27,0.42,1.78,0.82c7.68,5.96,16.67,4.29,24.25,1.72c6.14-2.08,11.9-3.52,18.25-3.67c2.19-0.05,4.37-1.13,6.52-1.88
		c2.9-1,5.71-2.3,8.65-3.18c7.22-2.16,14.48-4.16,21.73-6.23c0.31-0.09,0.58-0.32,0.86-0.49c4.74-2.91,9.53-5.73,14.2-8.75
		c4.82-3.11,9.5-6.44,14.27-9.61c3.21-2.13,3.67-5.2,3.57-8.74c-0.27-9.16-0.41-18.33-0.36-27.49c0.01-1.28,1.37-2.56,2.11-3.84
		c1.08,1.12,2.65,2.06,3.13,3.4c0.65,1.82,0.31,3.96,0.66,5.91c0.89,4.88,1.66,9.81,3.04,14.56c0.53,1.82,2.53,4.48,3.95,4.54
		c5.04,0.23,10.7,0.78,15.04-1.18c5.24-2.36,10.24-3.36,15.8-3.58c3.35-0.14,6.69-1.28,9.97-2.2c2.81-0.78,5.5-1.96,8.29-2.83
		c7.3-2.26,14.62-4.43,21.92-6.65c0.15-0.05,0.26-0.22,0.41-0.28c3.02-1.17,6.04-2.33,9.06-3.49c1.68-0.65,3.42-1.16,5.01-1.97
		c5.22-2.64,10.32-5.54,15.6-8.05c4.42-2.1,9.63-2.99,13.41-5.84c6.94-5.24,14.2-10.79,13.15-21.3c-0.23-2.25,0.24-4.68,0.92-6.87
		c0.38-1.21,1.87-2.08,2.85-3.1c1.08,1.1,2.5,2.03,3.15,3.35c0.62,1.26,0.77,2.97,0.56,4.39c-0.88,5.91-1.63,11.87-3.12,17.64
		c-1.03,4.01,0.05,5.37,3.89,6.15c3.42,0.69,6.66,2.27,9.98,3.45c1.4,0.5,2.76,1.16,4.2,1.42c12.82,2.32,23.68-5.95,35.94-6.76
		c0.44-0.03,0.83-0.59,1.29-0.73c3.26-1,6.51-2.06,9.82-2.9c3.33-0.85,6.74-1.35,10.06-2.22c3.44-0.91,6.76-2.37,10.24-3.07
		c9.12-1.83,17.57-6.4,27.09-6.56c0.43-0.01,0.82-0.58,1.29-0.73c3.38-1.06,6.73-2.22,10.16-3.08c3.01-0.76,6.18-0.93,9.16-1.78
		c9.71-2.78,19.35-5.79,29.03-8.65c4.21-1.25,8.46-2.41,12.71-3.5c9.2-2.35,18.34-5.09,27.66-6.82c9-1.68,17.14-7,26.69-6.19
		c0.28,0.02,0.63-0.24,0.87-0.46c4.01-3.75,8.96-3.85,14.04-3.92c2.57-0.04,5.77-0.19,7.56-1.66c3.74-3.07,7.72-3.54,12.14-3.32
		c1.48,0.07,3.05,0.05,4.45-0.35c2.86-0.82,3.65-2.94,1.06-4.54c-3.32-2.05-7.05-4.14-10.81-4.66c-13.46-1.86-26.98-3.4-40.52-4.42
		c-10.94-0.82-21.96-0.58-32.93-1.14c-3.03-0.15-6.03-1.43-9.01-2.28c-2.9-0.83-5.71-2.2-8.65-2.61
		c-6.55-0.91-13.21-1.14-19.75-2.09c-5.67-0.82-11.27-2.16-16.86-3.44c-3.98-0.91-7.89-2.11-11.85-3.14
		c-2.76-0.72-5.5-1.68-8.3-1.99c-6.9-0.76-14.35,0.16-20.59-2.2c-5.32-2.01-10.25-3-15.7-2.96c-4.17,0.03-8.35,0.13-12.49-0.19
		c-2.44-0.18-4.83-1.06-7.22-1.71c-3.89-1.05-7.7-2.65-11.65-3.13c-4.6-0.57-9.33,0.05-13.98-0.29c-3.43-0.25-7.26-0.42-10.13-2.03
		c-7.77-4.35-16.08-2.35-24.15-2.97c-1.16-0.09-3.1,1.54-3.53,2.78c-0.43,1.25,0.36,3.1,1.04,4.47c0.48,0.96,2.15,1.4,2.47,2.35
		c0.59,1.77,0.78,3.74,0.72,5.61c-0.02,0.57-2.02,1.62-2.08,1.55c-1.12-1.28-2.49-2.57-2.99-4.12c-1.5-4.64-4.65-7.2-9.28-7.94
		c-8.24-1.32-13.96,4.88-20.96,7.31C1054.57,81.9,1051.55,83.9,1048.4,85.51z M885.81,259.62c0.39,0.46,0.77,0.92,1.16,1.38
		c6.28-1.14,12.53-2.48,18.85-3.35c3.52-0.48,7.61-1.31,10.65-0.06c15.84,6.51,30.41-1.85,45.53-3.2c0.46-0.04,0.85-0.54,1.32-0.67
		c4.38-1.24,8.75-2.52,13.15-3.64c2.52-0.64,5.16-0.86,7.66-1.56c3.9-1.08,7.68-2.64,11.61-3.55c3.98-0.93,8.66-0.31,11.99-2.21
		c4.01-2.28,7.81-3.17,12.22-3.31c2.51-0.09,5-1.19,7.47-1.95c2.62-0.81,5.14-2.01,7.8-2.58c10.7-2.28,21.43-4.37,32.15-6.56
		c0.47-0.1,0.97-0.35,1.33-0.67c4.11-3.57,9.07-3.6,14.13-3.74c2.91-0.08,5.81-0.97,8.68-1.68c3.75-0.93,7.45-2.11,11.2-3.04
		c3.17-0.79,6.43-1.25,9.59-2.09c4.06-1.08,8.02-2.56,12.1-3.56c9.51-2.33,19.07-4.46,28.6-6.68c0.16-0.04,0.29-0.18,0.45-0.22
		c4.59-1.17,9.17-2.35,13.76-3.48c2.86-0.71,5.77-1.25,8.61-2.03c3.43-0.95,6.76-2.3,10.22-3.1c9.92-2.28,19.9-4.36,29.84-6.57
		c0.79-0.17,1.45-0.88,2.23-1.09c3.63-1.01,7.26-2.03,10.93-2.86c9.76-2.23,19.54-4.35,29.31-6.56c0.62-0.14,1.14-0.73,1.77-0.91
		c3.45-1,6.9-2.03,10.39-2.87c4.32-1.04,8.7-1.86,13.03-2.86c3.02-0.7,6-1.62,9.02-2.32c10.03-2.31,20.08-4.56,30.11-6.85
		c0.31-0.07,0.55-0.41,0.86-0.49c4.11-1.07,8.22-2.15,12.35-3.16c2.7-0.66,5.44-1.13,8.12-1.84c3.92-1.04,7.77-2.34,11.7-3.3
		c3.18-0.78,6.46-1.08,9.65-1.84c4.26-1.01,8.44-2.32,12.69-3.36c3.02-0.74,6.13-1.12,9.15-1.87c4.08-1.01,8.09-2.27,12.15-3.32
		c2.99-0.77,6.04-1.3,9.03-2.08c3.59-0.94,7.12-2.15,10.73-3.04c2.85-0.7,5.82-0.96,8.67-1.68c4.39-1.11,8.69-2.62,13.09-3.67
		c9.66-2.28,19.36-4.37,29.04-6.57c0.47-0.11,0.85-0.56,1.32-0.69c3.75-1.06,7.48-2.2,11.27-3.09c9.57-2.24,19.17-4.36,28.75-6.55
		c0.47-0.11,0.86-0.54,1.33-0.67c3.77-1.06,7.52-2.23,11.34-3.08c3.54-0.79,7.73-0.28,10.59-2.04c4.44-2.72,8.9-3.26,13.78-3.45
		c2.58-0.1,5.14-1.01,7.67-1.7c3.88-1.06,7.69-2.37,11.59-3.35c3.18-0.8,6.47-1.14,9.65-1.94c3.74-0.94,7.38-2.28,11.13-3.22
		c2.87-0.72,6.46-0.23,8.6-1.81c3.98-2.95,8.25-2.81,12.67-3.53c9.97-1.62,19.82-3.95,29.72-6.02c0.47-0.1,1-0.33,1.32-0.67
		c3.46-3.67,7.96-3.53,12.51-3.79c3.01-0.17,6-1.23,8.94-2.08c2.96-0.86,5.8-2.62,8.77-2.8c5.2-0.3,10.26-0.1,14.52-3.96
		c1.08-0.98,3.13-1.23,4.73-1.23c6.2,0,12.34,0.1,17.43-4.39c0.66-0.59,1.89-0.74,2.86-0.74c6.87,0.02,12.99-2.04,19.51-4.34
		c7.18-2.53,15.13-3.31,22.71-5.76c6.04-1.96,13.21-0.4,18.79-5.04c0.67-0.56,1.91-0.44,2.89-0.62c5.33-0.98,10.72-1.75,15.99-2.99
		c5.03-1.19,5.79-4.12,4.03-9.02c-1.76-4.91-3.15-10.11-3.62-15.28c-0.37-4.12-1.36-7.08-3.97-10.56
		c-3.33-4.44-6.58-3.86-10.74-3.26c-2.61,0.38-5.32,0.04-7.98,0.23c-1.22,0.09-3.11,0.3-3.5,1.07c-2.12,4.14-5.89,3.64-9.5,4.04
		c-3.26,0.37-7.44,0.09-9.49,1.97c-3.15,2.88-6.34,3.63-9.98,3.21c-4.75-0.54-8.89-0.52-12.38,3.66c-1.09,1.31-3.97,1.39-6.06,1.54
		c-4.54,0.32-9.27-0.5-12.82,3.6c-0.75,0.87-2.4,1.17-3.69,1.35c-6.31,0.86-12.38,0.45-18.6,4.33c-6.13,3.82-14.38,4.3-21.76,6
		c-2.05,0.47-4.31-0.12-6.44,0.11c-1.86,0.2-4.43,0.25-5.36,1.42c-2.9,3.64-6.64,3.89-10.72,4.17c-3.06,0.21-6.11,1.02-9.1,1.8
		c-3.76,0.98-7.42,2.35-11.19,3.26c-2.89,0.69-7.19-0.13-8.57,1.58c-3.29,4.06-7.3,3.22-11.3,3.67c-3.08,0.34-7.49-0.14-8.92,1.66
		c-2.74,3.45-5.85,3.2-9.26,3.51c-2.46,0.22-5.45-0.09-7.25,1.18c-5.76,4.05-11.99,4.41-18.58,3.85c-1.02-0.09-2.55,0.28-3.11,1.01
		c-3.87,5-9.32,4.33-14.63,4.48c-1.89,0.05-4.65,0-5.47,1.13c-2.83,3.9-6.71,3.71-10.7,4.06c-3.22,0.29-6.45,0.92-9.57,1.78
		c-3.07,0.85-5.92,2.8-9.01,3.2c-9.45,1.22-17.83,7.01-27.69,6.35c-0.55-0.04-1.11,0.74-1.73,0.93c-3.55,1.14-7.05,2.64-10.69,3.21
		c-3.95,0.62-8.53-1.51-11.1,3.76c-0.48,0.98-3,1.21-4.61,1.35c-3.48,0.3-6.99,0.26-10.47,0.5c-1.06,0.07-2.67,0.32-3.04,1.01
		c-2.05,3.83-5.67,3.27-9.06,3.94c-9.12,1.81-18.16,4.05-27.21,6.15c-0.62,0.14-1.12,0.78-1.74,0.96
		c-3.41,1.01-6.81,2.11-10.28,2.88c-3.66,0.82-7.45,1.07-11.08,1.99c-3.72,0.94-7.27,2.53-10.96,3.58c-2.78,0.79-5.72,1-8.49,1.79
		c-3.42,0.97-6.7,2.43-10.12,3.36c-2.7,0.73-6.55,0.01-8.1,1.64c-3.57,3.74-7.68,3.48-11.96,3.59c-9.24,0.23-16.88,7.13-26.37,6.35
		c-0.41-0.03-0.82,0.57-1.29,0.72c-3.54,1.12-7.05,2.41-10.67,3.22c-2.73,0.61-7.07-0.48-8.16,1.02
		c-4.24,5.87-10.18,3.61-15.46,4.47c-1.74,0.28-3.5,0.62-5.14,1.23c-3.1,1.16-6.08,3.48-9.19,3.63c-9.79,0.46-18.03,7.27-28.04,6.4
		c-0.42-0.04-0.95,0.36-1.31,0.68c-4.27,3.8-9.43,3.59-14.65,3.45c-1.69-0.04-4.12,0.06-4.96,1.1c-3.17,3.95-7.33,3.98-11.73,4.18
		c-3.06,0.14-6.16,0.73-9.11,1.57c-3.35,0.95-6.5,3.22-9.85,3.49c-9.33,0.77-17.2,7.21-26.82,6.47c-0.14-0.01-0.33,0.11-0.44,0.22
		c-4.75,4.51-10.69,3.86-16.5,3.93c-1.4,0.01-3.48,0.04-4.06,0.88c-2.62,3.75-6.46,3.27-10.2,3.98c-9.06,1.73-18.01,4.04-26.99,6.16
		c-0.61,0.15-1.1,0.79-1.71,1c-3.19,1.06-6.37,2.19-9.61,3.05c-2.83,0.75-5.79,1.02-8.61,1.78c-3.72,1-7.33,2.44-11.07,3.37
		c-2.87,0.71-6.78-0.09-8.62,1.57c-4.56,4.11-9.68,3.68-14.97,3.9c-2.23,0.09-5.53,0.22-6.45,1.6c-2.46,3.69-5.8,3.17-9.23,3.57
		c-3.4,0.4-6.77,1.2-10.1,2.05c-3.4,0.87-6.71,2.13-10.11,3.02c-3.15,0.83-6.39,1.28-9.54,2.11c-3.41,0.9-6.72,2.2-10.15,3.05
		c-2.54,0.63-5.89-0.04-7.64,1.38c-3.81,3.11-7.86,3.99-12.49,3.98c-1.42,0-2.93,0.64-4.24,1.31c-6.59,3.4-13.03,7.12-19.72,10.31
		c-4.27,2.03-8.88,3.34-13.34,4.97c-0.89,0.32-1.79,0.61-2.67,0.93c-3.01,1.11-6.05,3.22-9.02,3.13c-6.2-0.19-10.31,3.97-15.36,6.07
		C886.34,256.72,886.22,258.51,885.81,259.62z M706.78,777.6c5.12-1.01,11.64-2.27,18.14-3.6c8.64-1.76,17.26-3.64,25.91-5.34
		c12.89-2.55,25.8-4.97,38.69-7.48c6.36-1.24,12.66-2.82,19.05-3.79c9.44-1.43,13.14-6.64,12.33-16.13
		c-2.02-23.66-9.27-46.21-14.08-69.27c-2.47-11.83-6.22-23.4-9.59-35.03c-2.07-7.16-4.53-14.2-6.8-21.3
		c-1.92-6-3.37-12.2-5.83-17.97c-4.54-10.62-9.8-20.92-14.51-31.47c-3.28-7.35-9.69-10.63-17.35-8.89
		c-20.21,4.59-40.45,9.08-60.72,13.42c-14.13,3.03-28.33,5.72-42.48,8.61c-5.39,1.1-7.71,4.33-6.94,9.7
		c0.3,2.13,0.83,4.28,1.64,6.27c2.74,6.75,5.17,13.68,8.57,20.08c10.12,19.04,13.25,40.43,20.69,60.39
		c5.12,13.73,7.63,28.48,10.79,42.89c3.51,16.04,6.53,32.2,9.55,48.34C695.2,774.21,698.75,777.77,706.78,777.6z M1827.06,201.22
		c0.06-0.01,0.12-0.01,0.19-0.02c-0.3-4.31,0.26-8.93-1.13-12.84c-1.35-3.79-4.27-9.19-7.28-9.76c-6.29-1.21-13.82-1.35-19.51,1.13
		c-6.31,2.75-12.29,3.27-18.73,3.49c-3.12,0.11-7.19-0.33-9.15,1.39c-4.49,3.96-9.45,3.43-14.55,3.77
		c-3.95,0.27-8.72-0.18-11.62,1.85c-4.93,3.44-9.99,2.92-15.2,3.32c-3.63,0.27-8.13-0.29-10.67,1.62
		c-5.42,4.08-11.24,3.25-17.11,3.73c-3.75,0.31-7.49,1.01-11.16,1.85c-3.78,0.87-7.41,2.48-11.21,3.15
		c-4.24,0.75-9.59-0.65-12.69,1.47c-6.33,4.34-12.94,3.45-19.64,3.89c-2.78,0.18-6.37-0.07-8.1,1.51
		c-3.67,3.34-7.72,3.44-12.05,3.58c-6.38,0.21-13-0.72-18.43,4.04c-0.68,0.6-1.87,0.85-2.83,0.86c-8.57,0.13-16.81,0.88-25,4.46
		c-4.71,2.05-10.83,0.82-16.31,1.17c-1.61,0.1-3.9-0.03-4.68,0.92c-3.75,4.56-8.74,4.19-13.74,4.21
		c-5.54,0.02-11.29-1.17-15.77,3.87c-0.97,1.09-3.42,1.12-5.21,1.18c-4.32,0.16-8.66-0.05-12.99,0.09
		c-1.39,0.05-3.27,0.26-4.06,1.16c-3.69,4.22-8.41,4.12-13.33,3.94c-5.67-0.2-11.64-1.66-16.16,3.73c-0.8,0.95-2.74,1.26-4.17,1.31
		c-4.65,0.16-9.32-0.03-13.97,0.12c-1.89,0.06-4.49,0-5.5,1.13c-3.87,4.32-8.79,4.31-13.81,4.27c-5.86-0.05-11.62-0.17-16.55,4
		c-1.21,1.02-3.47,1.05-5.26,1.1c-3.99,0.12-8-0.16-11.99,0c-1.73,0.07-4.11,0.22-5.04,1.32c-3.12,3.67-7.1,3.84-11.34,3.98
		c-3.96,0.14-8.65-0.62-11.72,1.2c-6.66,3.96-13.57,3.85-20.73,4.06c-3.21,0.09-6.44,0.99-9.59,1.82c-3.41,0.9-6.66,2.48-10.1,3.15
		c-3.88,0.75-8.26-0.07-11.77,1.38c-7.11,2.94-14.23,4.38-21.88,4.17c-2.75-0.07-6.38,0-8.11,1.61c-3.99,3.73-8.52,3.09-13.09,3.48
		c-3.59,0.31-7.17,0.94-10.71,1.65c-4.79,0.96-9.5,2.35-14.32,3.16c-3.42,0.57-7.47-0.55-10.34,0.88
		c-9.23,4.61-19.02,4.73-28.87,5.19c-0.89,0.04-1.72,0.85-2.63,1.18c-3.16,1.16-6.26,2.64-9.52,3.29
		c-3.55,0.71-7.48-0.05-10.87,1.02c-9.17,2.88-18.3,5.37-28.04,4.59c-0.74-0.06-1.78,0.25-2.26,0.78
		c-4.82,5.27-11.17,4.14-17.22,4.23c-5.02,0.07-10.28-1.12-14.15,3.76c-0.75,0.95-2.74,1.18-4.18,1.27
		c-4.98,0.31-9.98,0.33-14.96,0.63c-1.52,0.09-3.57,0.21-4.42,1.17c-2.92,3.31-6.58,3.58-10.49,3.44
		c-3.83-0.14-7.66-0.27-11.48-0.43c-3.78-0.15-5,1.46-4.14,5.21c0.77,3.36,2.76,4.66,5.94,4.98c2.12,0.21,4.4,0.33,6.26,1.22
		c8.7,4.12,17.02,9.77,26.99,9.61c10.6-0.17,21.46-0.32,31.65-2.8c6.38-1.55,12.45-2.75,18.94-2.68c2.8,0.03,6.43,0.28,8.25-1.26
		c6.27-5.31,13.54-3.52,20.52-4.13c3.6-0.31,7.17-1.04,10.71-1.76c5.14-1.04,10.23-2.37,15.39-3.33c3.24-0.61,6.93,0.01,9.78-1.31
		c7.53-3.49,15.31-4.24,23.39-4.12c2.78,0.04,6.2,0.21,8.22-1.23c6.13-4.38,12.91-3.66,19.69-3.94c3.44-0.14,7.39-0.02,10.15-1.64
		c4.75-2.78,9.56-3.46,14.8-3.53c4.13-0.05,8.82,0.51,12.25-1.21c6.91-3.47,13.97-3.89,21.34-4c3.22-0.05,6.46-0.95,9.62-1.73
		c3.94-0.97,7.75-2.58,11.73-3.22c5.38-0.87,11.33,0.09,16.18-1.86c6.57-2.64,13.01-3.55,19.9-3.72c4.04-0.1,8.08-1.25,12.07-2.15
		c3.5-0.79,6.87-2.22,10.39-2.77c5.39-0.83,10.89-0.96,16.29-1.73c7.2-1.02,14.36-2.36,21.53-3.59c2.76-0.47,5.52-0.96,8.26-1.55
		c5.28-1.15,10.49-2.93,15.83-3.49c13.79-1.46,27.03-6.35,41.03-6.32c0.16,0,0.35-0.04,0.48-0.13c7.4-5.16,15.89-3.91,24.15-4.26
		c2.52-0.11,4.99-1.34,7.48-2.08c3.27-0.97,6.47-2.36,9.8-2.86c5.23-0.79,11.1,0.28,15.7-1.73c7.38-3.23,14.74-3.54,22.41-3.67
		c2.9-0.05,5.82-0.91,8.68-1.62c4.09-1.02,8.07-2.59,12.2-3.31c6.18-1.08,12.48-1.49,18.69-2.44c5.04-0.77,10.01-2,15.03-2.86
		c3.73-0.64,7.87-0.21,11.19-1.69c6.13-2.73,12.32-3.61,18.91-3.78c4.38-0.11,8.75-1.4,13.08-2.34c3.51-0.76,6.95-2.44,10.45-2.52
		c7.38-0.18,14.58-0.27,21.33-3.99c2.05-1.13,4.84-1.2,7.29-1.26c7.64-0.17,15.37,0.51,22.19-4.18c1.01-0.7,2.56-0.84,3.86-0.84
		c9.03-0.02,17.93-0.34,26.29-4.57c2.07-1.05,4.9-0.71,7.38-0.82c3.33-0.14,6.67-0.01,9.99-0.17c4.73-0.22,7.41-2.72,7.61-7.52
		C1827.17,207.89,1827.06,204.55,1827.06,201.22z M1231.42,193.35c-2.9,0.28-5.95,0.1-8.65,0.99c-2.63,0.86-4.84,2.92-7.35,4.24
		c-2.41,1.27-3.77,2.69-0.92,4.67c2.96,2.06,6.14,3.83,9.27,5.62c6.81,3.9,13.67,7.7,20.48,11.61c1.57,0.9,2.93,2.14,4.49,3.05
		c4.93,2.89,10.18,5.33,14.78,8.67c3.46,2.52,5.9,2.72,8.4-0.7c1.46-2.01,2.72-4.17,4.14-6.21c3.11-4.48,5.89-9.27,9.5-13.31
		c5.75-6.44,12.03-12.41,18.15-18.52c4.71-4.71,9.39-9.47,14.39-13.86c1.09-0.96,3.5-0.42,5.3-0.57c-0.07,1.37,0.42,3.26-0.3,4.02
		c-5.22,5.51-10.67,10.8-16.09,16.12c-1.41,1.38-3.19,2.43-4.4,3.95c-7.77,9.78-17.83,17.73-22.96,29.65
		c-2.66,6.17-6.28,11.92-9.43,17.89c-2.85,5.4-6.12,10.66-8.29,16.32c-1.21,3.16-0.69,7.04-0.58,10.58c0.01,0.38,2.5,1.13,3.74,0.97
		c5.2-0.67,10.38-1.6,15.55-2.49c3.42-0.59,6.84-1.21,10.23-1.92c4.97-1.04,9.89-2.28,14.88-3.21c3.74-0.7,8.26,0.07,11.17-1.8
		c5.39-3.45,10.97-3.33,16.77-3.62c3.28-0.16,7.21,0.11,9.66-1.55c4.67-3.17,9.5-3.51,14.71-3.63c3.61-0.09,7.87,0.21,10.66-1.55
		c5.21-3.27,10.58-3.44,16.25-3.62c3.62-0.11,7.91,0.32,10.68-1.44c5.51-3.48,11.2-3.57,17.22-3.79c3.71-0.14,7.41-1.22,11.06-2.12
		c3.3-0.81,6.46-2.28,9.78-2.85c4.57-0.78,10.07,0.41,13.69-1.73c6.76-4.01,13.67-3.45,20.76-3.75c2.22-0.09,4.48-0.84,6.59-1.62
		c2.61-0.96,4.99-2.61,7.64-3.36c3.91-1.1,4.59-2.96,2.18-6.06c-2.23-2.87-4.67-5.59-6.83-8.52c-3.33-4.5-6.45-9.16-9.75-13.68
		c-1.56-2.13-3.91-3.86-4.91-6.19c-3.64-8.51-8.93-15.01-17.83-18.63c-3.32-1.35-6.33-4.29-8.6-7.2c-2.46-3.15-3.27-7.67-5.93-10.55
		c-2.66-2.88-3.85-5.75-4.67-9.45c-1.35-6.11-7.81-9.11-12.18-5.75c-3.91,3.01-8.06,3.5-12.64,3.55c-3.13,0.03-7.62-0.44-9.11,1.33
		c-4.04,4.8-8.98,3.3-13.74,3.84c-2.9,0.33-6.69,0.18-8.42,1.91c-2.93,2.93-6.04,2.91-9.51,3.24c-3.6,0.34-7.21,0.94-10.73,1.8
		c-3.56,0.87-6.93,2.64-10.51,3.21c-4.67,0.75-9.7-0.08-13.08,4.51c-0.44,0.6-1.84,0.75-2.77,0.7c-7.17-0.37-13.6,1.32-20.38,4.12
		c-6.85,2.83-14.99,1.68-21.99,6c-2.94,1.81-7.83,0.33-11.81,0.62c-1.49,0.11-2.93,0.98-4.38,1.54c-2.97,1.14-5.85,2.65-8.92,3.35
		c-3.37,0.77-8.25-0.51-10.1,1.41C1241.4,194.1,1236.43,193.16,1231.42,193.35z M306.01,662.4c0.61-0.07,1.11-0.1,1.6-0.19
		c13.53-2.61,27.07-5.22,40.6-7.86c15.66-3.06,31.34-6,46.95-9.29c7.8-1.65,15.49-3.86,23.17-6.06c1.65-0.47,3.09-1.88,4.47-3.05
		c6.9-5.87,9.89-13.88,12.64-22.22c5.67-17.16,11.64-34.23,17.82-51.22c4.2-11.52,8.83-22.89,13.54-34.22
		c2.54-6.12,5.8-11.94,8.45-18.03c2.58-5.93,0.78-8.42-5.43-7.57c-5.93,0.81-11.83,1.89-17.7,3.06c-6.17,1.24-12.25,2.96-18.44,4.05
		c-8.01,1.41-16.17,2.02-24.13,3.66c-13.95,2.88-27.75,6.45-41.69,9.38c-5.87,1.24-11.43,2.66-14.92,7.98
		c-2.07,3.17-4.01,6.46-5.63,9.88c-6.11,12.89-12.56,25.65-17.93,38.85c-5.13,12.59-9.06,25.68-13.56,38.53
		c-2.31,6.59-4.71,13.16-7.1,19.72c-2.22,6.08-4.65,12.09-6.65,18.24C300.98,659.38,302.06,662,306.01,662.4z M639.2,563.57
		c2.96-0.44,5.96-0.7,8.88-1.34c15.51-3.44,30.99-6.99,46.49-10.46c3.25-0.73,6.55-1.17,9.81-1.87c12.99-2.76,25.92-5.89,38.99-8.26
		c10.33-1.87,11.48-3.32,7.63-13.28c-0.36-0.93-0.68-1.91-1.22-2.73c-8.26-12.63-16.38-25.36-24.9-37.82
		c-11.74-17.19-26.49-31.54-43.18-43.89c-9.13-6.75-18.99-10.52-30.79-7.72c-15.85,3.76-31.81,7.12-47.81,10.17
		c-16.11,3.07-31.93,7.96-48.59,7.86c-4.6-0.03-9.26,0.96-13.8,1.89c-1.7,0.35-3.15,1.87-4.72,2.85c1.46,1.16,2.78,2.56,4.39,3.44
		c5.35,2.93,11.58,4.77,16.03,8.68c7.24,6.37,15.8,11.16,21.69,19.29c4.64,6.4,11.68,11.07,16.27,17.49
		c11.09,15.54,21.25,31.74,32.04,47.51C629.36,559.73,632.63,564.37,639.2,563.57z M121.31,730.79c5.02-1.08,10.03-2.22,15.06-3.23
		c8.3-1.67,16.67-3.04,24.92-4.94c10.19-2.34,20.21-5.45,30.44-7.59c12.68-2.66,25.53-4.54,38.24-7.07
		c2.16-0.43,5.17-2.04,5.69-3.75c0.55-1.78-0.83-4.99-2.41-6.45c-15.54-14.41-27.46-31.63-38.45-49.51
		c-8.23-13.4-15.89-27.14-23.61-40.85c-3.3-5.87-7.13-7.68-13.61-5.6c-4.58,1.47-9.05,3.45-13.74,4.34
		c-19.43,3.72-38.96,6.95-58.39,10.71c-12.9,2.5-25.68,5.57-38.5,8.45c-4.67,1.05-5.94,4.65-3.19,9.22
		c1.54,2.55,3.57,4.81,5.07,7.38c6.87,11.77,12.78,24.2,20.62,35.26c11.13,15.72,23.5,30.58,35.68,45.53
		C109.08,727.53,114.27,731.13,121.31,730.79z M1088.08,261.35c1.03-0.2,2.05-0.4,3.08-0.6c0.79,2.76,2.16,5.5,2.26,8.29
		c0.3,8.82,0.29,17.67,0.01,26.49c-0.07,2.07-1.35,4.33-2.63,6.08c-2.58,3.52-2.18,5.22,1.88,6.45c1.87,0.57,3.58,1.79,5.47,2.17
		c2.43,0.49,5.47,1.42,7.36,0.45c5.75-2.97,11.7-3.5,17.93-3.49c2.77,0.01,6.23,0.17,8.19-1.31c5.31-4.01,11.14-3.83,17.14-3.8
		c4.82,0.02,9.62,0.22,13.44-3.8c0.95-1,3.08-1.06,4.7-1.19c2.82-0.22,5.66-0.15,8.49-0.23c4.06-0.12,6.51-1.69,6.64-6.28
		c0.06-2.21,1.36-4.37,2.03-6.57c0.99-3.25,2.52-6.48,2.75-9.8c0.41-5.97,0.19-12-0.13-17.98c-0.13-2.4-1.13-4.77-1.84-7.13
		c-0.94-3.14-2.18-6.2-2.91-9.39c-0.6-2.63-1.57-4.53-4.58-3.95c-2.74,0.52-5.56,1.05-8.08,2.17c-8.28,3.68-16.14,2.63-24.08-1.13
		c-2.41-1.14-5.33-1.4-8.05-1.61c-9.42-0.72-19.49,2.47-27.77-4.86c-0.44-0.39-1.25-0.49-1.89-0.49c-8.99,0.09-17.98,0.17-26.97,0.4
		c-1.24,0.03-2.43,1.02-3.7,1.38c-4.38,1.23-8.72,2.78-13.19,3.45c-4.63,0.69-9.74-0.75-13.04,4.18c-0.43,0.65-1.85,0.58-2.74,0.99
		c-2.46,1.14-5.27,1.92-7.24,3.64c-7.61,6.63-14.73,13.83-22.48,20.3c-4.97,4.15-10.78,7.28-16.06,11.08c-2,1.44-4.5,4.69-0.54,5.4
		c4.88,0.87,8.39,3.38,12.31,5.72c7.07,4.22,14.45,7.95,21.37,12.39c5.52,3.54,10.48,7.94,15.81,11.79
		c4.32,3.12,12.27,3.88,15.09,1.18c6.86-6.54,11.78-14.18,11.95-24.1c0.13-7.49,0.08-14.99,0.48-22.47c0.09-1.72,1.7-3.36,2.61-5.03
		c0.5,0.21,0.99,0.43,1.49,0.64c0.54,2.69,1.55,5.39,1.53,8.07c-0.06,7.43-0.73,14.85-0.75,22.28c-0.01,1.81,1.55,3.63,2.39,5.44
		c0.76-0.15,1.51-0.31,2.27-0.46C1088.08,284.52,1088.08,272.94,1088.08,261.35z M419.49,371.84c-0.22-0.61-0.45-1.22-0.67-1.83
		c-2.64,0.59-5.35,0.98-7.91,1.82c-3.47,1.13-6.76,2.86-10.26,3.84c-3.29,0.92-6.83,0.95-10.14,1.82c-3.35,0.88-6.48,2.58-9.83,3.4
		c-3.2,0.79-7.81-0.3-9.6,1.56c-4.22,4.38-9.07,3.25-13.87,3.77c-2.43,0.26-5.84,0.18-7.02,1.67c-2.8,3.53-6.32,2.85-9.83,3.53
		c-4.35,0.85-8.53,2.59-12.78,3.95c-0.94,0.3-1.95,1.01-2.81,0.87c-8.26-1.34-15.08,2.84-22.18,5.77c-1.46,0.6-3.3,2.33-3.39,3.64
		c-0.09,1.36,1.62,3.98,2.74,4.09c4.45,0.44,9.68,1.53,13.3-0.28c4.74-2.37,9.21-3.24,14.24-3.36c3.09-0.07,6.82,0.08,9.11-1.52
		c4.32-3.01,8.79-3.49,13.68-3.67c3.08-0.11,6.16-0.94,9.19-1.65c4.77-1.11,9.47-2.51,14.26-3.54c3.39-0.73,7.61,0.03,10.17-1.75
		c4.69-3.25,9.57-3.24,14.71-3.57c3.08-0.19,6.13-1.07,9.15-1.83c3.92-0.99,7.76-2.34,11.71-3.2c3.7-0.81,7.52-1.03,11.23-1.8
		c4.77-0.99,9.47-2.32,14.22-3.43c2.71-0.63,5.49-1,8.19-1.69c4.23-1.08,8.38-2.48,12.63-3.44c3.37-0.76,7.32-0.2,10.2-1.74
		c9.65-5.16,21.07-3.67,30.66-8.72c0.53-0.28,1.34,0.04,1.98-0.1c10.36-2.36,20.72-4.75,31.08-7.14c0.31-0.07,0.57-0.38,0.88-0.45
		c3.83-0.92,7.65-1.84,11.49-2.73c9.84-2.29,19.69-4.57,29.53-6.86c0.15-0.04,0.27-0.22,0.42-0.26c4.41-1.14,8.82-2.3,13.25-3.38
		c2.85-0.69,5.77-1.16,8.61-1.9c3.92-1.01,7.78-2.3,11.71-3.25c3.18-0.77,6.47-1.09,9.66-1.86c4.09-0.99,8.1-2.29,12.17-3.35
		c3.01-0.78,6.08-1.31,9.08-2.09c3.6-0.95,7.12-2.23,10.75-3.06c9.7-2.21,19.44-4.2,29.14-6.41c1.23-0.28,2.25-1.4,3.43-2.01
		c1.32-0.68,2.69-1.65,4.08-1.73c6.92-0.42,14.01,0.11,19.78-4.95c0.43-0.38,1.27-0.42,1.92-0.42c6.69,0.03,12.72-2.43,19.03-4.07
		c8.34-2.17,16.85-4.14,25.29-6.27c10.02-2.52,20.28-4.06,30.42-6.09c0.95-0.19,1.76-0.96,2.71-1.25c3.86-1.17,7.71-2.42,11.64-3.33
		c10.32-2.39,20.67-4.61,31.01-6.91c0.32-0.07,0.58-0.35,0.9-0.43c4.11-0.94,8.25-1.78,12.33-2.81c2.77-0.7,5.81-1.13,8.15-2.6
		c6.7-4.21,13.13-8.86,19.62-13.41c1.89-1.33,3.99-2.63,5.25-4.46c0.64-0.93-0.27-4.32-0.64-4.35c-3-0.22-6.16-0.35-9.05,0.36
		c-4.03,0.98-7.82,3.66-11.82,3.91c-8.79,0.54-17.77-0.92-26.45,0.17c-9.92,1.25-20.01,3.36-29.23,7.07
		c-5.67,2.28-10.84,3.56-16.72,3.25c-1.38-0.07-3.62,0.07-4.05,0.87c-2.69,5.02-7.35,4.27-11.74,4.62
		c-2.14,0.17-5.03,0.01-6.22,1.28c-4.6,4.91-10.38,3.46-15.87,3.92c-2.35,0.2-4.73,0.7-6.97,1.44c-3.16,1.04-6.11,2.99-9.32,3.54
		c-9.03,1.53-17.17,6.82-26.67,6.28c-0.55-0.03-1.1,0.77-1.71,0.96c-3.56,1.11-7.1,2.33-10.72,3.18c-2.85,0.67-6.88-0.2-8.52,1.46
		c-3.55,3.57-7.51,3.65-11.84,4c-2.59,0.21-5.12,1.19-7.66,1.89c-3.75,1.03-7.42,2.44-11.22,3.12c-9.01,1.62-17.22,6.62-26.69,6.29
		c-0.43-0.01-0.85,0.54-1.32,0.67c-4.05,1.17-8.07,2.47-12.18,3.4c-2.48,0.56-6.35-0.47-7.42,0.91c-3.76,4.82-8.69,4.09-13.59,4.41
		c-2.43,0.16-6.14-0.1-7.02,1.28c-3.01,4.71-7.36,3.58-11.51,4.02c-2.93,0.31-6.8,0.13-8.48,1.88c-3.04,3.14-6.31,3.15-9.95,3.25
		c-9.44,0.25-17.41,7.11-27.16,6.11c-0.53-0.05-1.1,0.75-1.72,0.94c-3.54,1.13-7.06,2.34-10.66,3.25c-2.99,0.75-6.14,0.89-9.1,1.73
		c-3.19,0.9-6.17,2.59-9.37,3.41c-9.06,2.3-18.18,4.33-27.28,6.49c-0.47,0.11-0.85,0.57-1.31,0.7c-4.06,1.15-8.12,2.29-12.19,3.37
		c-3.15,0.83-6.35,1.5-9.49,2.38c-2.97,0.83-5.84,2.09-8.85,2.72c-3.23,0.68-6.71,0.38-9.83,1.34
		C427.93,367.91,423.76,370.04,419.49,371.84z M708.43,415.86c8.5,0.63,8.47,0.57,16.47-3.29c1.58-0.76,3.58-1.29,5.29-1.09
		c15.2,1.78,28.92-7.83,44.15-5.61c0.59,0.09,1.37-0.22,1.88-0.58c6.89-4.9,14.8-4.26,22.62-4.35c2.94-0.03,6.62,0.29,8.66-1.26
		c5.62-4.27,11.78-4.11,18.12-3.86c5.02,0.2,9.88,0.54,14.12-3.29c1.38-1.24,4.05-1.34,6.15-1.44c4.49-0.21,9,0.06,13.49-0.15
		c2.1-0.1,4.73-0.21,6.16-1.44c4.94-4.21,10.73-3.91,16.55-4.2c3.95-0.2,8.51,0.2,11.68-1.62c6.24-3.58,12.71-3.89,19.31-3.42
		c6.94,0.5,12.53-2.76,18.44-5.29c2.03-0.87,2.98-2.5,0.65-4.11c-7.46-5.13-14.88-10.32-22.58-15.07c-1.4-0.87-4.59-0.52-5.96,0.55
		c-4.61,3.6-9.81,3.62-15.17,3.85c-3.77,0.17-8.12-0.03-11.13,1.76c-4.95,2.94-9.99,3.08-15.3,3.42c-3.75,0.24-7.45,1.34-11.18,1.99
		c-5.67,0.99-11.35,1.93-17.02,2.88c-3.42,0.57-7.56,0.09-10.13,1.88c-5.73,4-11.9,3.46-18.14,3.7c-4.12,0.16-8.42-0.92-11.62,3.4
		c-0.98,1.32-3.98,1.43-6.08,1.57c-4.65,0.31-9.32,0.24-13.98,0.44c-1.08,0.04-2.56,0.15-3.16,0.84c-3.8,4.35-8.83,3.91-13.84,4.14
		c-5.67,0.26-11.84-1.88-16.57,3.73c-1.07,1.27-4.05,1.1-6.18,1.26c-4.31,0.33-8.65,0.32-12.96,0.69c-1.38,0.12-2.69,1.02-4.04,1.53
		c-2.72,1.02-5.39,2.54-8.2,2.88c-4.77,0.58-9.65,0.33-14.47,0.63c-1.39,0.09-2.75,0.84-4.1,1.34c-3,1.11-5.9,2.81-8.99,3.27
		c-4.25,0.63-8.67,0.1-12.96,0.57c-1.51,0.17-2.87,1.81-4.29,2.78c1.02,1.09,1.85,2.57,3.1,3.21c5.47,2.79,11.01,5.48,16.65,7.92
		c2.66,1.15,5.64,2.41,8.4,2.25C697.69,417.97,703.05,416.72,708.43,415.86z M916.91,443.03c0.72,2.75-0.36,3.81-4.66,3.08
		c-2.72-0.46-5.56-1.14-8.21-0.76c-4.33,0.61-8.64,1.76-12.8,3.16c-2.13,0.72-4.75,2.07-5.67,3.89c-1.81,3.57,2.79,18.59,6.46,19.98
		c6.37,2.42,11.87,7.35,19.42,6.74c5.3-0.43,10.79-0.81,15.96,0.12c9.14,1.64,16.11-3.95,23.84-6.49
		c6.14-2.01,11.35-6.87,16.93-10.53c1.8-1.18,3.48-2.54,5.23-3.81c11.14-8.05,21.74-16.44,20.98-32.26
		c-0.07-1.48,0.21-2.99,0.39-4.48c0.74-6.35-2.58-11.47-8.08-14.41c-4.56-2.43-8.72-5.69-12.77-8.93c-2.56-2.05-4.83-2.27-7.11-0.17
		c-9.9,9.1-19.63,18.38-29.59,27.41C930.9,431.31,924.27,436.72,916.91,443.03z M851.12,406.3c-12.5,0.04-12.5,0.04-12.21,11.47
		c0.02,0.67-0.23,1.42,0.01,1.98c1.17,2.74,1.84,6.06,3.82,8.03c8.86,8.86,21.07,10.05,32.36,13.22c2.83,0.79,6.27,1.71,8.8,0.8
		c9.73-3.48,20.66-2.58,29.66-8.8c7.28-5.04,15.62-8.63,22.55-14.07c8.83-6.94,16.78-15.04,24.91-22.84
		c0.87-0.83,1.18-3.57,0.49-4.5c-8.63-11.7-21.38-14.25-33.66-7.19c-1.79,1.03-4.08,1.45-6.17,1.6c-3.81,0.27-7.68-0.13-11.48,0.25
		c-3.38,0.34-6.72,1.23-10.02,2.12c-2.98,0.8-5.95,2.94-8.78,2.71c-9.94-0.82-17.83,3.11-24.83,9.43
		C861.76,404.85,856.73,407.98,851.12,406.3z M1201.19,291.63c0.03,0.15,0.06,0.31,0.09,0.46c3.74-0.65,8.17-0.26,11.05-2.19
		c4.72-3.16,9.55-3.27,14.71-3.57c3.41-0.2,6.82-1.05,10.14-1.93c3.02-0.8,5.91-2.1,8.9-3.06c4.46-1.44,6.99-4.33,8.52-8.88
		c2.55-7.58,5.48-15.08,8.94-22.28c2.15-4.49,2.56-7.35-1.48-10.41c-4.42-3.35-9.29-6.12-13.93-9.19
		c-5.34-3.53-10.22-8.41-16.08-10.35c-7.01-2.32-12.72-6.44-18.93-9.87c-3.97-2.19-7.92-2.01-8.64,1.63
		c-1.65,8.38-7.47,13.49-13.3,18.73c-4.39,3.94-4.79,7.62-1.62,12.76c1.21,1.96,3.05,4.08,3.07,6.13
		c0.06,11.63,0.08,23.29-0.76,34.88c-0.44,6.08-0.41,7.08,5.82,7.14C1198.86,291.64,1200.03,291.63,1201.19,291.63z M369.37,511.14
		c7.72-1.6,15.03-3.09,22.32-4.64c17.67-3.77,35.33-7.61,53.02-11.32c7.3-1.53,14.74-2.49,21.96-4.31
		c6.68-1.69,13.91-3.03,19.51-6.67c5.2-3.38,8.73-9.47,12.69-14.6c2.27-2.95,0.21-6.81-3.41-6.65c-7.97,0.34-15.94,0.77-23.89,1.45
		c-2.23,0.19-4.38,1.42-6.57,2.15c-2.76,0.92-5.47,2.29-8.3,2.61c-4.28,0.48-8.66,0.07-12.98,0.31c-2.61,0.14-5.82-0.01-7.66,1.4
		c-4.36,3.34-9.1,3.62-14.15,3.74c-3.8,0.09-7.76,0.1-11.34,1.17c-7.76,2.32-15.38,4.87-23.67,4.53c-1.54-0.06-3.64,1.16-4.63,2.44
		c-5.48,7.11-10.79,14.36-15.93,21.73c-0.79,1.13-0.9,3.3-0.38,4.61C366.38,510.09,368.26,510.52,369.37,511.14z M644.45,425.2
		c0-0.56-0.01-1.13-0.01-1.69c-0.89-0.68-1.68-1.67-2.68-1.99c-8.7-2.81-17.41-5.57-26.17-8.15c-1.09-0.32-2.51,0.42-3.76,0.72
		c-4.41,1.06-8.79,2.31-13.24,3.17c-3.22,0.63-7.22-0.27-9.69,1.34c-7.06,4.6-14.8,4.37-22.56,4.87c-2.45,0.16-4.92,0.62-7.28,1.28
		c-3.87,1.07-7.6,2.69-11.5,3.56c-3.55,0.79-7.59,0.09-10.82,1.46c-7.16,3.04-14.49,3.38-22.01,3.27
		c-5.53-0.08-9.56,2.75-13.39,7.38c1.87,0.83,3.5,1.24,4.75,2.16c2.04,1.51,4.47,3.02,5.6,5.14c1.94,3.6,3.46,5.03,6.94,1.64
		c1.19-1.16,3.29-1.68,5.06-1.93c13.22-1.88,26.45-3.73,39.7-5.35c5.59-0.69,11.66,1.02,16.19-4.06c0.64-0.71,2.17-0.72,3.31-0.87
		c8.99-1.22,18.17-0.13,26.88-4.69c4.38-2.29,10.52-0.95,15.71-2.02C631.89,429.11,638.13,426.98,644.45,425.2z M480.78,457.18
		c-1.24-1.61-1.6-2.61-2.2-2.77c-7.48-2.04-14.92-4.4-22.53-5.76c-4.49-0.8-9.27-0.05-13.92,0.13c-3.3,0.13-7.6-0.77-9.69,0.94
		c-7.05,5.77-15.19,3.82-22.94,4.71c-1.26,0.14-2.96-0.06-3.68,0.67c-3.97,4.03-8.93,3.85-13.97,4c-3.47,0.11-7.99-0.44-10.15,1.46
		c-4.7,4.13-9.84,3.21-15.03,3.68c-3.6,0.33-7.97,0.07-10.55,2.01c-3.93,2.95-7.88,2.88-12.15,3.14
		c-5.63,0.34-11.63-0.97-16.26,4.08c-0.97,1.06-3.45,0.8-5.25,0.99c-2.15,0.22-4.36,0.03-6.46,0.45c-3.14,0.63-4.13,3.75-1.83,5.95
		c1.39,1.32,3.33,2.79,5.09,2.88c8.03,0.44,16.18,1.95,23.76-2.73c2.24-1.38,5.35-1.56,8.1-1.89c5.77-0.69,12.14,0.23,17.22-1.95
		c7.28-3.13,14.5-3.03,21.95-3.42c3.56-0.18,7.12-1.17,10.61-2.07c3.13-0.81,6.11-2.52,9.27-2.88c4.61-0.52,9.32-0.01,13.97-0.28
		c2.04-0.12,4.03-1.06,6.03-1.67c3.72-1.14,7.35-2.69,11.15-3.37c6.17-1.11,12.46-1.51,18.66-2.48c4.53-0.71,8.98-1.91,13.48-2.79
		C475.6,457.8,477.76,457.6,480.78,457.18z M822.56,342.07c0.28,0.33,0.56,0.65,0.84,0.98c0.19,0.97,0.18,2.05,0.61,2.91
		c2.03,3.98,3.91,8.07,6.35,11.79c3.33,5.08,8.02,6.26,12.76,4.82c4.99-1.51,10.23-2.24,15.37-3.25c3.73-0.74,7.47-1.38,11.21-2.08
		c5.48-1.03,10.94-2.13,16.44-3.06c2.12-0.36,4.4-0.02,6.42-0.62c1.46-0.43,3.55-1.79,3.67-2.91c0.18-1.67-0.64-4.25-1.92-5.11
		c-3.71-2.49-7.67-4.92-11.89-6.28c-9.97-3.21-15.86-11.25-22.31-18.39c-4.23-4.69-6.73-5.71-10.09-0.42
		c-5.21,8.2-11.49,14.33-21.52,16.19C826.25,337.04,824.52,340.18,822.56,342.07z M1176.11,228.34c0.13,0.51,0.26,1.02,0.4,1.54
		c3.33-0.66,7.07-0.59,9.86-2.19c2.87-1.65,5.34-4.62,7.04-7.56c2.16-3.74,3.51-7.98,4.86-12.12c0.27-0.84-0.94-3.09-1.6-3.15
		c-4.92-0.41-11.94-2.55-14.4-0.15c-5.57,5.44-11.52,3.94-17.56,4.5c-1.41,0.13-3.45,0.33-4.05,1.25c-2.42,3.71-6.05,3.83-9.7,3.79
		c-5.57-0.05-10.92,0.1-15.55,4c-1.22,1.03-3.44,1.04-5.23,1.19c-2.81,0.22-5.76-0.28-8.44,0.37c-1.8,0.43-4.06,2.03-4.66,3.64
		c-1.03,2.77,1.14,4.2,3.83,4.46c4.78,0.47,9.56,1.03,14.36,1.28c6.61,0.34,13.22-0.19,19.52,3.06c2.14,1.11,5.51,0.39,8.17-0.18
		C1167.39,231.12,1171.72,229.61,1176.11,228.34z M968.92,263.13c-1.09,5.06,1.49,6.91,6.04,7.71c3.98,0.7,7.78,2.36,11.74,3.18
		c1.77,0.37,4.08,0.26,5.58-0.61c3.54-2.07,6.64-4.87,10.1-7.11c6.76-4.38,13.69-8.5,20.42-12.92c1.6-1.05,3.04-2.73,3.85-4.45
		c0.35-0.74-1.15-3.39-1.67-3.35c-3.92,0.28-8.49-0.06-11.56,1.86c-4.28,2.68-8.45,3.49-13.18,3.44c-1.8-0.02-4-0.12-5.35,0.8
		c-6,4.11-12.68,4.53-19.59,4.49C970.8,256.15,967.78,257.92,968.92,263.13z M1140.16,345.75c0.09,0.73,0.18,1.46,0.27,2.19
		c2.16,0.45,4.33,0.86,6.48,1.37c2.39,0.57,4.77,1.2,7.14,1.86c3.45,0.96,6.84,2.21,10.34,2.89c3.89,0.76,8.16,0.28,11.78,1.64
		c7.73,2.91,13.09-0.72,19.16-4.62c4.53-2.9,6.28-7.4,9.27-11.17c0.99-1.25,1.36-2.99,2.01-4.51c-1.49-0.46-3.13-1.58-4.46-1.28
		c-7.52,1.67-15,3.54-22.39,5.71c-1.11,0.33-1.63,2.58-2.48,3.91c-0.97,1.49-2,2.94-3.01,4.41c-0.9-1.51-2.21-2.92-2.61-4.55
		c-1.08-4.35-3.77-6.33-7-3.66c-5.8,4.81-12.3,4.03-18.86,4.26C1143.9,344.27,1142.04,345.21,1140.16,345.75z M1437.26,593.48
		c0.34,3.98,2.42,4.78,5.47,4.85c4.09,0.09,8.94-0.77,12.12,1.08c11.3,6.57,23.6,2.35,35.55,4.39c-0.98-2.12-2.49-4.29-3.85-4.21
		c-6.01,0.38-11-2.23-16.4-4.09c-4.21-1.45-9.14-0.88-13.75-1.12C1450.17,594.05,1443.93,593.79,1437.26,593.48z M675.78,737.66
		c-0.38-0.08-0.76-0.16-1.14-0.24c-0.88-5.36-1.43-10.8-2.82-16.02c-0.5-1.87-3.75-4.81-4.5-4.47c-2.23,0.99-5.68,3.81-5.37,5.14
		c1.46,6.2,3.86,12.22,6.38,18.1c0.41,0.95,3.31,1.51,4.75,1.11C674.22,740.98,674.89,738.94,675.78,737.66z M837.48,704.24
		c-1.52-6.46-2.62-11.66-4-16.78c-0.82-3.02-2.78-5.2-6.24-4.04c-3.25,1.08-3.11,3.86-2.51,6.66c0.99,4.7,1.95,9.41,2.87,14.12
		c0.54,2.78,1.53,5.87,4.82,4.93C834.53,708.53,836.02,705.75,837.48,704.24z M671.25,773.57c1.54,4.33,2.68,8.68,4.67,12.6
		c0.99,1.96,3.54,3.12,5.39,4.65c1.03-2.36,3.02-4.77,2.88-7.06c-0.3-4.73-1.64-9.41-2.73-14.06c-0.83-3.54-4.67-4.68-7.25-1.98
		C672.85,769.15,672.32,771.37,671.25,773.57z M824.82,654.19c-1.82-6.34-3.26-12.12-5.24-17.7c-0.44-1.25-2.78-2.47-4.24-2.48
		c-1.03-0.01-3.11,2.24-2.95,3.18c1.08,6.45,2.42,12.88,4.22,19.15c0.32,1.11,3.42,2.35,4.81,1.97
		C822.83,657.92,823.73,655.62,824.82,654.19z M663.75,686.95c-2.27-5.82-4.18-11.49-6.77-16.82c-0.68-1.41-3.44-2.21-5.35-2.42
		c-0.72-0.08-2.69,2.57-2.42,3.5c1.8,6.2,3.84,12.36,6.33,18.31c0.49,1.18,3.39,2.12,4.94,1.84
		C661.65,691.15,662.45,688.82,663.75,686.95z M844.42,744.59c0.33-0.09,0.66-0.19,0.99-0.28c-1.03-3.23-1.67-6.68-3.27-9.6
		c-0.66-1.21-3.45-1.87-5.14-1.67c-1.08,0.13-2.78,2.35-2.71,3.54c0.34,5.38,0.77,10.86,2.16,16.03c0.44,1.64,3.96,2.44,6.07,3.63
		c0.85-1.91,2.1-3.74,2.44-5.73C845.29,748.61,844.64,746.56,844.42,744.59z M796.46,594.32c1.46,3.82,3.12,9.05,5.53,13.91
		c0.65,1.31,3.69,2.22,5.39,1.92c1.04-0.18,2.4-3.11,2.23-4.65c-0.42-3.59-1.24-7.28-2.74-10.53c-1.08-2.34-3.2-4.74-5.47-5.84
		C798.71,587.84,796.65,589.57,796.46,594.32z M649.24,638.82c-2.51-4.79-4.37-9.25-7.1-13.09c-1.07-1.5-4.09-1.61-6.23-2.35
		c-0.41,2.26-1.63,4.77-1.04,6.73c1.13,3.77,3.03,7.4,5.14,10.76c0.95,1.51,3.53,3.41,4.69,3.03
		C646.4,643.34,647.5,640.91,649.24,638.82z M632.55,596.77c-2.91-4.47-5.61-9.12-8.91-13.28c-0.76-0.96-3.83-0.78-5.42-0.12
		c-1.03,0.42-2.23,3.2-1.77,4c2.71,4.65,5.42,9.47,9.06,13.36C627.97,603.36,631.37,601.2,632.55,596.77z M181.74,602.23
		c3.09,4.77,5.93,9.56,9.27,13.97c0.67,0.88,3.74,0.94,4.87,0.16c1.12-0.77,2.09-3.55,1.53-4.63c-2.34-4.52-5.1-8.86-8.11-12.98
		c-0.69-0.95-3.18-1.41-4.39-0.94C183.73,598.27,183.11,600.21,181.74,602.23z M19.79,635.6c3.23,4.47,6.28,9.07,9.82,13.25
		c0.76,0.89,3.48,0.72,4.96,0.15c0.76-0.29,1.49-2.87,1.02-3.8c-2.32-4.57-4.84-9.08-7.76-13.28c-0.74-1.07-3.35-1.58-4.77-1.19
		C21.96,631.05,21.34,633.16,19.79,635.6z M778.27,553.82c2.65,4.34,4.64,8.59,7.61,11.98c1.24,1.42,4.57,1.02,6.94,1.45
		c0.02-2.29,0.74-4.89-0.11-6.79c-1.47-3.28-3.75-6.26-6.05-9.08c-0.98-1.2-3.19-2.6-4.26-2.23
		C780.92,549.67,779.98,551.77,778.27,553.82z M219.74,649.02c-0.15-3.81-9.67-13.57-12.52-13.46c-3.36,0.13-4.7,2.48-3.21,5.06
		c2.28,3.97,5.2,7.65,8.29,11.04c0.85,0.93,3.5,0.93,4.96,0.39C218.49,651.58,219.2,649.72,219.74,649.02z M1104.35,179.71
		c-0.08-0.45-0.15-0.89-0.23-1.34c-5.96-1.85-12.09-1.83-18.08-0.25c-1.8,0.48-4.63,3.78-4.34,4.28c1.48,2.6,3.52,6.02,7.17,4.65
		C1094.2,185.05,1099.21,182.2,1104.35,179.71z M602.57,546.61c-3.85,0-5.82,2.71-4.22,5.43c2.08,3.52,4.58,6.88,7.43,9.8
		c0.96,0.98,4.07,1.11,5.2,0.27c0.97-0.71,1.2-3.69,0.53-5.08c-1.41-2.93-3.47-5.6-5.55-8.14
		C605,547.72,603.35,547.11,602.57,546.61z M771.02,530.72c1.17-1.72,3.51-3.97,3.1-4.73c-2.2-4.06-4.91-7.91-7.9-11.44
		c-0.58-0.69-3.68-0.13-4.78,0.82c-0.79,0.69-0.75,3.28-0.1,4.49c1.65,3.04,3.77,5.84,5.89,8.59
		C767.85,529.28,769.12,529.62,771.02,530.72z M1001.95,417.54c-0.87,1.34-2.45,2.66-2.3,3.74c0.48,3.46,1.61,6.83,2.48,10.23
		c3.09-1.1,6.2-2.17,9.28-3.31c0.6-0.22,1.27-0.6,1.63-1.1c0.64-0.88,1.73-2.25,1.44-2.81c-0.48-0.94-1.84-1.51-2.92-2.04
		c-2.11-1.04-4.29-1.93-6.42-2.93C1004.26,418.92,1003.45,418.39,1001.95,417.54z M298.6,607.08c0.85,1.4,1.3,3.12,2.17,3.37
		c1.22,0.35,3.47,0.1,4.03-0.74c2.07-3.09,3.9-6.42,5.23-9.89c0.55-1.44-0.39-3.45-0.66-5.21c-1.96,0.51-4.86,0.39-5.7,1.64
		C301.52,599.49,300.27,603.33,298.6,607.08z M592.99,526.53c-3.48-3.51-6.61-7.51-10.56-10.36c-2.38-1.71-5.57,1.69-3.94,4.4
		c2.15,3.59,5.02,6.94,8.23,9.63C589.02,532.14,592.03,530.26,592.99,526.53z M469.25,560.38c-0.55,0.18-1.2,0.32-1.79,0.6
		c-3.27,1.56-6.55,10.46-5.06,13.69c1.18,2.56,4.2,2.83,5.94,0.2c1.82-2.75,3.43-5.72,4.57-8.8
		C473.99,563.13,472.84,560.88,469.25,560.38z M45.45,669.2c-0.97,2.28-2.84,4.8-2.26,5.64c2.48,3.61,5.55,6.85,8.72,9.9
		c0.67,0.64,2.94,0.3,3.96-0.37c0.6-0.39,0.66-2.58,0.15-3.51c-1.67-3.03-3.57-5.96-5.67-8.7C49.54,671.11,47.94,670.66,45.45,669.2
		z M299.72,635.06c-1.19-1.84-1.82-3.85-2.7-3.97c-1.56-0.21-3.93,0.21-4.79,1.3c-1.93,2.43-3.36,5.34-4.52,8.24
		c-0.43,1.08,0.07,3.5,0.85,3.88c1.2,0.59,3.67,0.56,4.43-0.28C295.48,641.5,297.43,638.28,299.72,635.06z M324.44,565.02
		c-1.2-1.95-1.71-3.45-2.76-4.23c-0.64-0.47-2.68-0.23-3.11,0.39c-2.17,3.07-4.22,6.28-5.83,9.66c-0.43,0.89,0.51,3.36,1.41,3.74
		c1.2,0.52,3.64,0.27,4.38-0.62C320.8,571.24,322.5,568.06,324.44,565.02z M742.86,483.24c-0.49,1.05-2.26,3.34-1.77,4.03
		c2.14,3.02,4.56,6.14,7.6,8.14c2.72,1.79,5.66-0.59,5.19-3.5C753.42,489.05,747.13,483.41,742.86,483.24z M461.04,601.8
		c-1.51-2.36-2.1-4.35-3.23-4.72c-1.14-0.38-3.41,0.44-4.12,1.47c-1.75,2.53-3.07,5.41-4.15,8.31c-0.36,0.97,0.16,3.03,0.92,3.47
		c1.04,0.6,3.32,0.72,3.98,0.02C456.86,607.75,458.83,604.73,461.04,601.8z M485.91,531.46c-0.81-1.65-1.12-3.46-2.11-3.99
		c-0.97-0.52-3.2-0.21-3.89,0.59c-2.01,2.33-3.81,4.96-5.07,7.75c-0.49,1.09,0.28,3.82,1.18,4.21c1.29,0.57,3.87,0.28,4.75-0.69
		C482.82,537.1,484.18,534.23,485.91,531.46z M77.6,712.28c0.17-4.47-5.96-11.07-9.05-10.57c-1.21,0.2-3.2,2.99-3.04,3.18
		c2.44,3.1,5.01,6.16,7.98,8.73C74.12,714.16,76.49,712.67,77.6,712.28z M730.73,466.22c0.04-3.81-5.26-8.99-8.25-8.59
		c-1.33,0.18-2.46,1.94-3.68,2.99c2.75,2.55,5.38,5.28,8.38,7.49C727.71,468.49,729.83,466.72,730.73,466.22z M339.23,533.35
		c-1.77-0.72-3.13-1.81-3.84-1.48c-2.54,1.16-5.28,2.41-7.11,4.39c-1.13,1.23-1,3.87-0.86,5.85c0.03,0.42,3.21,1.4,3.72,0.9
		C333.63,540.54,335.72,537.65,339.23,533.35z M232.51,667.52c-0.69,0.13-1.37,0.27-2.06,0.4c-0.74,1.36-2.03,2.7-2.11,4.1
		c-0.19,3.34,4.4,7.54,7.65,6.96c1.14-0.2,3.02-2.63,2.82-2.94C236.92,673.07,234.66,670.33,232.51,667.52z M275.06,671.97
		c0.47,0.52,1.31,2.3,2.59,2.73c2.49,0.83,6.76-3.83,6.94-7.71c0.05-1.1-1.33-3.03-2.36-3.26
		C279.32,663.05,275.61,666.99,275.06,671.97z M435.14,636.92c2.01,2.14,2.82,3.77,3.99,4.1c2.72,0.76,6.92-3.51,6.85-7.19
		c-0.03-1.23-1.82-2.43-2.8-3.64C440.74,632.23,438.29,634.28,435.14,636.92z M92.18,725.62c-2.4,2.24-4.69,3.39-4.71,4.57
		c-0.07,4.53,3.94,5.16,7.21,5.89c0.96,0.21,2.33-1.4,3.51-2.18C96.43,731.47,94.66,729.03,92.18,725.62z M565.31,503.59
		c1.81-2.94,3.18-4.2,3.33-5.6c0.27-2.55-4.21-5.92-7.18-5.4c-1.04,0.18-2.76,2.31-2.62,2.53
		C560.49,497.64,562.45,499.97,565.31,503.59z M541.37,481.34c1.87-2.15,2.81-3.24,3.76-4.33c-2.29-1.76-4.51-3.64-6.96-5.13
		c-0.27-0.16-2.88,2.65-2.73,2.84C537.03,476.85,538.95,478.74,541.37,481.34z M975.16,217.96c-2.48-4.88-8.81-6.1-11.58-3.67
		c-0.57,0.5,0.04,3.5,0.2,3.51C967.56,218.01,971.36,217.96,975.16,217.96z M499.2,502.35c-1.74-1.38-3.21-2.83-3.41-2.67
		c-2.14,1.69-4.19,3.55-5.94,5.64c-0.21,0.25,1.59,2.16,2.46,3.31C494.38,506.74,496.46,504.85,499.2,502.35z M700.78,436.96
		c-1.91,2.06-2.9,3.13-3.88,4.19c1.98,1.74,3.86,3.64,6.05,5.07c0.39,0.26,2.05-1.41,3.13-2.2
		C704.5,441.94,702.94,439.85,700.78,436.96z M432.96,661.46c-2.18-1.37-3.73-2.68-4-2.46c-2,1.67-3.75,3.64-5.57,5.52
		c1.04,0.79,2.61,2.47,3.02,2.23C428.47,665.5,430.22,663.76,432.96,661.46z M1053.77,195c-0.35-0.44-0.69-0.88-1.04-1.32
		c-3.45,0-6.9,0-10.35,0c-0.2,0.57-0.41,1.13-0.61,1.7c2.07,0.93,4.15,2.62,6.19,2.57C1049.92,197.91,1051.83,196.06,1053.77,195z
		 M114.44,745.89c-1.52,1.85-3.13,3.55-3.01,3.68c1.42,1.57,3.02,3.04,4.8,4.16c0.31,0.2,2.58-1.87,2.49-2.02
		C117.65,749.93,116.3,748.31,114.44,745.89z M1069.8,182.7c-1.23,2.39-2.4,3.64-2.36,4.85c0.05,1.53,1.09,3.03,1.7,4.54
		c1.37-1.37,3.32-2.55,3.9-4.2C1073.36,186.94,1071.46,185.22,1069.8,182.7z M504.73,478.63c-0.32,0.72-0.65,1.44-0.97,2.15
		c1.07,0.34,2.56,1.29,3.11,0.9c1.56-1.1,2.87-2.66,3.95-4.26c0.22-0.32-1.03-1.63-1.6-2.48
		C507.73,476.17,506.23,477.4,504.73,478.63z M275.95,720.17c1.39-1.63,2.9-3.12,2.77-3.28c-1.02-1.25-2.23-2.5-3.65-3.17
		c-0.45-0.21-2.61,1.81-2.49,2.03C273.3,717.14,274.44,718.3,275.95,720.17z"/>
	<path d="M1026.29,378.32c-1.87,3.54-3.31,6.9-5.31,9.88c-3.18,4.72-6.64,9.28-10.24,13.7c-0.81,0.99-2.65,1.14-4.01,1.67
		c-0.02-1.52-0.63-3.42,0.05-4.5c1.91-3.03,4.61-5.55,6.52-8.58c2.77-4.38,5.03-9.08,7.73-13.52c0.63-1.03,2.11-1.55,3.2-2.3
		C1024.9,375.88,1025.59,377.09,1026.29,378.32z"/>
	<path d="M1077.04,258.26c-4.74-4.14-4.98-7.59-1.53-11.35C1078.93,250.12,1077.34,253.7,1077.04,258.26z"/>
	<path d="M1229.36,258.28c-2.43,0.93-3.35,1.64-3.83,1.42c-7.64-3.68-16.68-4.58-22.6-11.71c-2.42-2.91-5.49-5.27-8-8.11
		c-0.76-0.86-0.64-2.51-0.92-3.79c1.25,0.35,2.8,0.35,3.71,1.12c6.75,5.71,14.06,10.27,22.46,13.35
		C1223.41,251.74,1225.81,255.19,1229.36,258.28z"/>
</g>
</svg>
