<?xml version="1.0" encoding="utf-8"?>
<!-- Generator: Adobe Illustrator 27.1.1, SVG Export Plug-In . SVG Version: 6.00 Build 0)  -->
<svg version="1.1" id="Layer_1" xmlns="http://www.w3.org/2000/svg" xmlns:xlink="http://www.w3.org/1999/xlink" x="0px" y="0px"
	 viewBox="0 0 533.86 911.93" style="enable-background:new 0 0 533.86 911.93;" xml:space="preserve">
<path d="M499.36,495.75c0,91.55-0.01,183.1,0.03,274.65c0,3.32,0.49,6.64,0.67,9.96c0.08,1.55,0.01,3.12-0.08,4.67
	c-0.13,2.17-0.64,4.37-0.46,6.51c0.49,5.69-1.74,10.38-5.15,14.56c-3.64,4.45-7.89,8.28-13.03,11c-4.86,2.57-9.66,5.26-14.58,7.68
	c-2.49,1.23-5.22,1.98-7.83,2.95c-3.1,1.16-6.17,2.39-9.3,3.47c-2.74,0.95-5.52,1.77-8.3,2.59c-2.48,0.73-4.97,1.43-7.47,2.08
	c-3.01,0.78-6.01,1.61-9.05,2.22c-4.88,0.98-9.79,1.77-14.68,2.68c-0.92,0.17-1.82,0.45-2.71,0.71c-0.7,0.21-1.36,0.59-2.07,0.7
	c-6.15,0.93-12.31,1.83-18.47,2.72c-1.24,0.18-2.54,0.12-3.71,0.48c-4.13,1.28-8.36,1.67-12.65,1.72c-1.55,0.02-3.09,0.41-4.64,0.59
	c-4.65,0.53-9.3,1.06-13.95,1.54c-2.17,0.23-4.4,0.15-6.53,0.56c-6.07,1.17-12.2,1.41-18.35,1.6c-5.93,0.19-11.85,0.75-17.78,1.01
	c-9.16,0.4-18.32,0.89-27.49,0.95c-15.42,0.09-30.85-0.07-46.27-0.26c-4.68-0.06-9.36-0.57-14.04-0.86
	c-4.78-0.29-9.56-0.71-14.35-0.82c-6.78-0.15-13.54-0.31-20.22-1.69c-1.72-0.35-3.52-0.43-5.29-0.45
	c-5.33-0.07-10.56-1.04-15.82-1.58c-7.35-0.76-14.6-2.1-21.94-2.86c-2.26-0.23-4.49-0.79-6.74-1.21c-0.41-0.08-0.79-0.29-1.2-0.36
	c-5.31-0.91-10.62-1.82-15.94-2.71c-0.51-0.09-1.05-0.02-1.55-0.15c-4.62-1.14-9.24-2.31-13.85-3.46c-1.01-0.25-2.03-0.43-3.04-0.68
	c-1.7-0.43-3.39-0.87-5.09-1.33c-0.4-0.11-0.76-0.34-1.16-0.45c-3.61-0.93-7.25-1.72-10.82-2.79c-3.06-0.92-6.04-2.15-9.04-3.28
	c-2.42-0.91-4.79-1.94-7.22-2.82c-7.36-2.66-14.25-6.26-20.63-10.76c-4.25-3.01-8.22-6.43-11.01-10.95
	c-1.91-3.09-3.6-6.22-3.54-10.08c0.05-3-0.39-6.01-0.58-9.01c-0.07-1.14-0.13-2.29-0.06-3.43c0.23-3.73,0.76-7.46,0.76-11.19
	c0.04-179.56,0.03-359.11,0.05-538.67c0-5.52,0.13-11.06,0.51-16.56c0.41-5.92,0.69-11.92,1.95-17.68c1.2-5.47,1.2-11.19,3.34-16.47
	c0.38-0.94,0.31-2.05,0.54-3.07c0.36-1.61,0.79-3.21,1.2-4.82c0.31-1.2,0.61-2.41,0.96-3.6c0.4-1.39,0.83-2.76,1.26-4.14
	c0.28-0.89,0.57-1.77,0.85-2.65c0.47-1.47,0.92-2.94,1.41-4.4c0.16-0.49,0.49-0.94,0.59-1.44c0.79-3.88,2.45-7.43,4-11.03
	c1.79-4.16,3.28-8.46,5.18-12.57c1.69-3.64,3.74-7.11,5.67-10.64c2.14-3.89,4.16-7.87,6.53-11.62c3.54-5.61,7.1-11.24,11.1-16.51
	c5.15-6.79,10.65-13.33,16.18-19.82c6.3-7.4,13.7-13.68,21.07-19.99c7.76-6.64,15.99-12.6,24.6-18.09
	c7.53-4.79,15.24-9.23,23.35-12.96c3.94-1.82,7.8-3.83,11.77-5.56c2.56-1.11,5.28-1.84,7.9-2.8c3.01-1.1,5.98-2.28,8.98-3.38
	c0.87-0.32,1.79-0.49,2.69-0.75c1.29-0.38,2.57-0.77,3.85-1.18c0.39-0.13,0.74-0.41,1.14-0.5c4.04-0.94,8.13-1.69,12.11-2.82
	c4.82-1.37,9.74-2.09,14.68-2.79c3.49-0.5,6.98-1.11,10.49-1.4c3.95-0.32,7.91-0.38,11.67-1.88c0.84-0.33,1.84-0.36,2.76-0.36
	c9.8-0.02,19.59-0.04,29.39,0.02c1.31,0.01,2.62,0.52,3.94,0.72c3.18,0.5,6.35,1.19,9.55,1.38c4.07,0.24,8.11,0.35,12.04,1.62
	c1.27,0.41,2.68,0.37,4.01,0.61c2.34,0.44,4.67,0.93,7,1.42c0.41,0.08,0.79,0.27,1.2,0.36c4.15,0.9,8.34,1.65,12.45,2.74
	c3.49,0.92,6.88,2.21,10.3,3.37c2.64,0.9,5.27,1.82,7.88,2.82c3.38,1.29,6.76,2.57,10.07,4.02c5.21,2.27,10.44,4.53,15.52,7.08
	c4.35,2.18,8.56,4.65,12.71,7.19c4.69,2.87,9.3,5.89,13.85,8.98c7.5,5.1,14.28,11.12,21.2,16.95c8.41,7.09,15.6,15.32,22.72,23.63
	c4.81,5.61,9.32,11.44,13.32,17.67c3.25,5.06,6.74,9.97,9.77,15.16c2.8,4.8,5.14,9.87,7.62,14.85c1.88,3.78,3.77,7.55,5.48,11.41
	c1.13,2.54,1.94,5.23,2.9,7.84c1.1,2.99,2.22,5.98,3.34,8.97c0.11,0.29,0.33,0.54,0.41,0.84c0.93,3.49,1.84,6.99,2.77,10.48
	c0.24,0.9,0.51,1.8,0.81,2.68c0.17,0.49,0.51,0.93,0.62,1.43c0.93,4.15,1.86,8.3,2.72,12.47c0.52,2.54,0.94,5.1,1.33,7.67
	c0.34,2.26,0.61,4.53,0.87,6.81c0.35,3.1,0.76,6.2,0.98,9.32c0.43,6.03,0.99,12.06,1.05,18.09c0.15,14.39,0.05,28.78,0.05,43.17
	C499.36,346.43,499.36,421.09,499.36,495.75z M44.55,732.35c0.36,0.01,0.72,0.02,1.09,0.03c0.34-1.05,0.63-2.12,1.04-3.14
	c0.34-0.84,0.64-1.86,1.29-2.4c1.92-1.57,3.9-3.14,6.05-4.35c4.2-2.37,8.44-4.73,12.85-6.66c4.52-1.98,9.28-3.43,13.92-5.13
	c0.68-0.25,1.29-0.68,1.96-0.95c0.86-0.34,1.74-0.66,2.64-0.9c3.28-0.89,6.57-1.74,9.85-2.61c0.3-0.08,0.55-0.3,0.85-0.39
	c3.84-1.15,7.63-2.65,11.56-3.29c2.81-0.46,5.48-1.04,8.08-2.13c2.3-0.97,2.45-1.35,2.07-3.77c-0.27-1.73-0.36-3.5-0.35-5.25
	c0.01-3.6-0.29-7.18-0.03-10.83c0.18-2.44-0.33-5.05-0.22-7.65c0.2-4.75-0.59-9.51-0.06-14.29c0.1-0.91-0.2-1.86-0.3-2.79
	c-0.11-1.14-0.57-2.41-0.23-3.4c1.27-3.72-1.67-7.31-0.17-11c0.17-0.42-0.3-1.19-0.61-1.71c-0.93-1.59-1.01-3.2-0.05-4.74
	c1.06-1.71,0.97-3.32-0.04-4.99c-0.81-1.33-0.57-2.45,0.51-3.65c1.4-1.58,1.4-2.24,0.02-3.75c-0.94-1.03-1.27-2.07-1.22-3.38
	c0.06-1.67,0.01-3.34,0.07-5c0.11-3.44,1.13-4.61,4.57-4.41c3.2,0.18,6.45,0.55,9.53,1.39c2.6,0.71,4.96,0.6,7.29-0.4
	c2.28-0.98,4.41-0.82,6.65,0.04c1.04,0.4,2.42,0.98,3.26,0.61c2.72-1.21,5.27-0.56,7.93-0.03c1.19,0.24,2.48,0.02,3.72-0.05
	c1.03-0.06,2.07-0.33,3.1-0.28c3.5,0.17,7-1.12,10.5,0.04c0.45,0.15,1.03-0.08,1.54-0.16c2.83-0.39,5.65-0.8,8.48-1.19
	c1.84-0.25,3.77-0.95,5.51-0.63c3.78,0.7,7.48-0.03,11.21-0.02c2.49,0.01,5.01-0.05,7.29-1.38c0.5-0.29,1.2-0.27,1.82-0.32
	c4.87-0.36,9.74-0.71,14.61-1.05c0.93-0.06,1.89-0.19,2.8-0.05c1.92,0.3,3.58,0.12,5.35-0.95c1.25-0.76,2.97-0.95,4.49-0.98
	c2.29-0.05,4.52,0.16,6.63-1.19c0.79-0.5,2.02-0.47,3.04-0.41c3.18,0.18,6.15-0.57,9.15-1.5c2.86-0.89,5.79-1.68,8.75-2.06
	c2.9-0.38,5.81-0.46,8.46-1.91c0.43-0.23,1.04-0.36,1.51-0.27c3.49,0.66,6.7-0.61,9.66-1.94c5.31-2.39,11.37-2.21,16.46-5.2
	c0.68-0.4,1.62-0.33,2.43-0.55c0.9-0.24,1.8-0.51,2.67-0.85c3.95-1.55,7.82-3.31,11.84-4.66c3.67-1.23,7.14-2.66,10.23-5.08
	c1.06-0.83,2.66-1.12,4.06-1.34c1.38-0.21,2.66-0.35,3.58-1.56c0.3-0.39,0.77-0.79,1.23-0.91c3.16-0.84,5.89-2.42,8.58-4.28
	c4.35-3,9.07-5.46,13.4-8.48c3.82-2.67,7.33-5.79,10.97-8.71c0.08-0.07,0.17-0.12,0.24-0.19c1.78-1.63,1.61-2.91-0.36-4.21
	c-1.27-0.84-2.37-1.93-3.52-2.94c-0.47-0.41-0.81-0.96-1.3-1.34c-2.67-2.1-5.32-4.22-8.06-6.23c-3.6-2.64-6.96-5.93-10.99-7.55
	c-4.23-1.71-6.81-5.89-11.44-6.68c-0.53-0.09-0.99-0.74-1.42-1.19c-3.08-3.2-7.18-4.81-10.88-7.05c-2.92-1.77-5.83-3.57-8.75-5.34
	c-1.68-1.02-3.29-2.22-5.08-3.01c-3.59-1.58-7.32-2.8-10.52-5.2c-1.82-1.37-3.77-2.62-5.81-3.62c-6.36-3.13-11.95-7.49-17.94-11.21
	c-4.56-2.83-8.53-6.63-13.16-9.33c-3.34-1.95-5.21-5.21-8.21-7.35c-1.33-0.95-2.5-2.13-3.87-3c-1.75-1.12-3.47-2.06-4.35-4.23
	c-0.59-1.45-2.06-2.56-3.18-3.77c-2.32-2.51-4.66-5-7.02-7.48c-2.5-2.61-3.87-6.23-7.23-8.09c-0.4-0.22-0.78-0.79-0.87-1.25
	c-0.67-3.65-3.62-6.01-5.16-9.17c-2.69-5.53-6.65-10.59-6.05-17.26c0.03-0.3-0.14-0.61-0.14-0.92c-0.07-4.68-0.16-9.35-0.18-14.03
	c0-0.76,0.06-1.75,1.35-1.72c0.17,0.23,0.49,0.45,0.51,0.71c0.14,1.82,0.89,3.07,2.71,3.79c0.76,0.3,1.33,1.27,1.82,2.04
	c2.42,3.85,4.78,7.75,7.19,11.61c0.21,0.34,0.53,0.71,0.88,0.86c2.67,1.13,3.68,3.54,4.7,5.96c0.36,0.85,0.76,1.76,1.36,2.43
	c2.16,2.4,4.41,4.7,6.63,7.04c1.72,1.81,3.36,3.7,5.2,5.39c3.51,3.24,7.08,6.42,10.73,9.49c1.33,1.12,3.18,0.61,3.91-0.95
	c0.34-0.72,0.4-1.61,0.4-2.42c0-2.92-0.03-5.84-0.16-8.76c-0.18-3.94,0.53-7.91-0.5-11.81c1.62-3.94-1.02-8.06,0.51-12.01
	c-2.06-3.36-0.9-6.99-0.85-10.52c0.02-1.14-0.17-2.32,0.04-3.42c0.43-2.31,0.66-4.52-0.65-6.66c-0.3-0.49-0.34-1.21-0.34-1.82
	c-0.03-2.48,0.02-4.96,0.01-7.44c-0.01-4.38,0.03-8.75-0.1-13.13c-0.11-3.68,0.06-7.25-1.71-10.89c-1.45-2.98-3.29-5.29-5.81-7.07
	c-1.38-0.97-2.63-1.89-3.66-3.25c-1.39-1.84-4.12-2.41-5.52-0.96c-3.01,3.12-6.96,5.35-8.99,9.45c-0.52,1.05-1.74,1.75-2.58,2.65
	c-1.98,2.11-4.27,4.02-5.81,6.41c-2.75,4.27-5.02,8.84-7.53,13.25c-0.46,0.8-1.01,1.7-1.77,2.13c-1.81,1.05-2.13,2.59-2.16,4.49
	c-0.03,1.68,0.1,3.44-0.82,5.04c-0.48-2.32-1.17-4.55-0.61-6.97c0.34-1.48,0.33-3.04,0.39-4.57c0.03-0.93-0.44-2.01-0.11-2.77
	c1.32-3.02,1.03-6.11,0.79-9.22c-0.13-1.65-0.52-3.28-0.57-4.93c-0.09-3.27-0.03-6.54-0.03-9.98c0.81,0.29,1.54,0.54,2.05,0.72
	c1.24-1.91,2.48-3.53,3.42-5.33c2.06-3.95,4.31-7.69,7.75-10.68c3.73-3.25,3.96-6.67,1.02-10.65c-2.34-3.16-4.99-6.03-7.09-9.44
	c-3.1-5.02-5.97-9.93-6.01-16.02c-0.01-1.1-0.24-2.12-1.42-2.53c-1.56-0.55-1.92-1.81-1.98-3.22c-0.27-5.93-0.53-11.86-0.74-17.8
	c-0.04-1.2,0.01-2.48,1.31-3.37c2.91,2.01,3.92,5.15,5.32,7.98c0.96,1.95,1.5,4.12,2.56,6c1.26,2.23,3.13,4.12,4.29,6.39
	c1.05,2.04,2.44,3.56,4.28,4.83c0.64,0.44,1.36,1.13,1.52,1.83c0.71,2.96,2.48,5.23,4.44,7.41c0.99,1.11,2.03,2.18,3.32,3.57
	c1.47-2.33,1.61-4.11,0.24-5.89c-0.7-0.9-1.17-1.77-0.35-2.8c1.39-1.72,0.89-3.41,0.24-5.29c-0.45-1.29-0.6-2.88-0.28-4.2
	c0.44-1.81,0.63-3.4-0.26-5.12c-0.34-0.65-0.35-1.69-0.07-2.39c0.65-1.66,0.54-3.24,0.17-4.9c-0.2-0.9-0.44-1.94-0.19-2.77
	c0.83-2.73,0.56-5.33-0.25-7.99c-0.27-0.87-0.21-1.86-0.18-2.79c0.11-2.79,0.33-5.57,0.4-8.36c0.07-2.7,0.04-5.4-0.01-8.1
	c-0.01-0.93-0.22-1.85-0.29-2.78c-0.14-1.64-0.32-3.29-0.34-4.94c-0.04-3.02,0.14-6.04,0.02-9.06c-0.08-2.25-1.31-2.79-3.01-1.32
	c-1.56,1.34-2.98,2.86-4.32,4.42c-1.89,2.21-3.7,4.5-5.46,6.82c-1.93,2.55-4.19,4.82-4.84,8.25c-0.33,1.72-1.47,3.66-2.84,4.73
	c-2.12,1.64-3.4,3.54-4.02,6.06c-0.04,0.18-0.45,0.28-1.14,0.68c-0.1-1.84-0.19-3.35-0.25-4.85c-0.13-3.22,0.05-6.48-0.44-9.64
	c-0.77-4.92-1.55-9.71,2.11-13.91c0.2-0.23,0.34-0.54,0.4-0.84c0.89-4.16,3.41-7.52,5.5-11.08c1.1-1.86,2.57-3.49,3.85-5.24
	c0.49-0.67,0.92-1.38,1.4-2.05c0.72-1.01,1.38-2.07,2.19-3.01c2.99-3.45,6.02-6.85,9.05-10.26c0.27-0.31,0.56-0.63,0.91-0.83
	c2.06-1.17,4.19-2.21,6.19-3.48c3.21-2.04,5.72-5.1,9.39-6.48c1.79-2.81,4.96-3.7,7.58-5.29c3.34-2.02,6.95-3.59,10.37-5.48
	c2.96-1.64,5.53-4.05,9.17-4.26c0.58-0.03,1.14-0.48,1.7-0.77c2.39-1.22,4.56-2.88,7.4-3.16c0.93-0.09,1.74-1.09,2.66-1.56
	c1.56-0.81,3.13-1.59,4.74-2.28c1.41-0.61,2.98-0.92,4.31-1.65c2.63-1.45,5.08-3.24,8.35-2.98c0.74,0.06,1.51-0.62,2.29-0.88
	c3.41-1.13,6.96-1.86,10.09-3.74c0.4-0.24,1.05-0.05,1.53-0.2c2.28-0.71,4.69-1.2,6.76-2.31c1.74-0.94,3.4-1.41,5.31-1.44
	c1.95-0.03,3.85,0.03,5.57-1.47c1.35-1.18,2.82-0.42,3.26,1.35c0.17,0.69,0.17,1.45,0.15,2.17c-0.12,3.93-0.37,7.86-0.38,11.79
	c-0.02,5.84,0.12,11.67,0.22,17.51c0.01,0.82-0.12,1.88,0.32,2.42c1.44,1.77,1.41,3.56,0.71,5.55c-0.2,0.56-0.14,1.25-0.06,1.86
	c0.35,2.76-0.89,5.6,0.43,8.31c-1.35,3.28,0.09,6.58-0.09,9.86c-0.06,1.13-0.87,2.49-0.47,3.34c1.46,3.07,1.05,6.07,0.5,9.19
	c-0.3,1.71-0.25,3.49-0.29,5.24c-0.1,4.11-0.17,8.23-0.23,12.34c0,0.3,0.16,0.6,0.2,0.91c0.4,2.56,0.93,5.1,1.14,7.68
	c0.28,3.31,0.42,6.63,0.43,9.95c0.02,6.66-0.14,13.32-0.12,19.98c0,1.17,0.19,2.54,0.82,3.47c0.89,1.32,0.83,2.18-0.24,3.25
	c-1.25,1.25-0.94,2.58-0.06,3.97c1.9,3,0.92,5.36-2.44,6.27c-2.6,0.71-5.15,1.57-7.72,2.37c-2.66,0.83-5.35,1.59-7.98,2.51
	c-3.32,1.17-6.6,2.47-9.9,3.72c-3.49,1.33-7.01,2.58-10.45,4.02c-2.29,0.96-4.4,2.31-7.06,2.2c-0.99-0.04-2.07,0.36-3,0.8
	c-4.97,2.35-9.91,4.77-14.85,7.18c-2.99,1.46-5.86,3.23-8.98,4.32c-2.77,0.96-4.97,2.57-7.08,4.41c-2.2,1.92-1.91,2.92,0.8,4.24
	c1.84,0.89,3.48,2.19,5.26,3.22c1.69,0.98,3.37,2.08,5.2,2.69c1.27,0.42,2.21,0.91,2.99,2c1.22,1.72,2.68,3.16,4.9,3.63
	c0.66,0.14,1.18,0.83,1.83,1.13c3.64,1.73,6.28,5.21,10.51,5.93c0.56,0.09,1.11,0.57,1.56,0.99c3.7,3.47,8.34,5.41,12.79,7.53
	c6.77,3.23,13.31,6.78,19.42,11.14c2.87,2.05,5.98,3.77,8.97,5.66c3.06,1.94,6.1,3.91,9.14,5.87c0.17,0.11,0.3,0.29,0.46,0.42
	c1.72,1.32,3.44,2.64,5.17,3.93c0.58,0.43,1.32,0.68,1.82,1.19c3.34,3.4,7.89,5.4,10.72,9.38c0.33,0.47,1.07,0.63,1.57,0.99
	c0.84,0.61,1.65,1.25,2.45,1.9c1.76,1.43,3.53,2.86,5.27,4.34c0.77,0.66,1.52,1.36,2.16,2.14c0.91,1.1,1.64,2.34,2.58,3.41
	c1.72,1.94,3.53,3.82,5.34,5.69c2.87,2.98,4.79,6.85,8.49,9.07c0.25,0.15,0.52,0.44,0.59,0.71c0.78,3.02,2.95,5.22,4.45,7.81
	c3.02,5.19,5.72,10.56,8.51,15.89c0.33,0.62,0.44,1.4,0.49,2.11c0.25,4.15,0.55,8.29,0.63,12.44c0.05,2.48-0.23,4.98-0.47,7.46
	c-0.06,0.6-0.57,1.15-1.21,2.38c-1.09-2.51-1.84-4.4-2.73-6.22c-0.39-0.8-0.94-1.89-1.64-2.09c-2.28-0.68-3.09-2.26-3.43-4.36
	c-0.08-0.49-0.37-0.97-0.65-1.4c-1.63-2.54-3.27-5.07-4.93-7.59c-0.28-0.43-0.56-1.02-0.98-1.19c-3.01-1.18-4.13-4.14-5.6-6.49
	c-2.27-3.62-5.24-6.41-8.28-9.25c-1.2-1.12-2.25-2.41-3.42-3.57c-1.18-1.16-2.3-2.44-3.67-3.3c-1.44-0.9-2.42-0.15-2.39,1.53
	c0.04,1.96,0.14,3.92,0.14,5.88c-0.01,8.53-0.04,17.06-0.07,25.6c-0.01,1.67-0.18,3.35-0.01,5c0.13,1.29,0.67,2.53,1.01,3.8
	c0.31,1.17,1.05,2.45,0.8,3.51c-0.52,2.23-1.28,4.28-0.03,6.57c0.34,0.63-0.37,1.77-0.46,2.69c-0.11,1.2-0.27,2.45-0.09,3.63
	c0.67,4.41,0.34,8.85,0.39,13.27c0.01,0.82-0.38,1.64-0.35,2.46c0.2,4.58,0.39,9.16,0.77,13.72c0.1,1.16,0.59,2.48,1.32,3.37
	c2.83,3.44,5.82,6.76,8.78,10.1c2.35,2.64,3.28,2.53,5.13-0.34c0.61-0.95,1.46-1.74,2.22-2.59c0.55-0.62,1.33-1.11,1.67-1.82
	c2.26-4.8,6.26-8.57,7.96-13.71c0.32-0.95,1.12-1.75,1.68-2.62c0.39-0.61,0.83-1.21,1.12-1.87c1.61-3.69,3.12-7.42,4.8-11.08
	c0.93-2.02,2.13-3.92,3.28-5.99c1.67,1.14,1.43,2.64,1.4,4.07c-0.09,5.41-0.21,10.83-0.26,16.24c-0.04,3.97-0.25,7.86-2.04,11.55
	c-1.26,2.61-1.96,5.51-3.35,8.04c-2.7,4.9-5.72,9.63-8.58,14.44c-1,1.68-0.82,2.38,0.72,3.76c0.61,0.55,1.3,1.07,1.72,1.75
	c1.99,3.26,3.94,6.54,5.82,9.86s3.81,6.45,3.72,10.69c-0.06,2.63,1.68,5.41,2.99,7.92c0.9,1.72,1.94,6.94,0.7,8.29
	c-1.19,1.3-1.46,2.61-1.5,4.21c-0.02,0.61-0.5,1.2-0.96,2.19c-0.7-0.88-1.13-1.41-1.54-1.95c-0.44-0.56-0.76-1.43-1.33-1.64
	c-1.82-0.69-2.43-2.11-2.89-3.79c-0.22-0.79-0.65-1.53-1.09-2.23c-2.12-3.3-4.14-6.69-6.5-9.83c-1.22-1.62-3.07-2.76-5.19-4.6
	c0.16,1.48,0.21,2.15,0.31,2.82c0.13,0.91,0.45,1.82,0.42,2.73c-0.2,5.92-0.58,11.84-0.66,17.76c-0.04,3.07,1.24,6.15-0.04,9.23
	c-0.11,0.26,0,0.62,0.03,0.93c0.35,3.41,0.76,6.81,1.03,10.22c0.1,1.22,0.01,2.51-0.27,3.71c-0.34,1.48-0.47,2.85,0.31,4.23
	c0.73,1.29,0.71,2.61-0.09,3.86c-0.76,1.17-0.83,2.32-0.06,3.51c1.01,1.53,0.83,3.11,0.38,4.8c-0.25,0.94-0.24,2.1,0.08,3.01
	c0.61,1.7,1.15,3.3,0.58,5.16c-0.16,0.51,0.25,1.59,0.68,1.78c0.48,0.22,1.56-0.05,1.9-0.48c1.33-1.71,2.61-3.49,3.64-5.39
	c1.73-3.19,3.25-6.49,4.88-9.74c0.69-1.38,1.6-2.68,2.1-4.13c1.16-3.39,3.15-6.12,5.87-8.49c1.36,1.25,1.03,2.64,0.77,3.92
	c-0.47,2.29-0.75,4.51,0.37,6.71c0.22,0.44,0.28,1.03,0.23,1.53c-0.43,4.96-0.88,9.93-1.39,14.88c-0.06,0.57-0.61,1.06-0.85,1.63
	c-0.98,2.27-1.95,4.54-2.86,6.84c-0.38,0.96-0.4,2.09-0.91,2.96c-1.86,3.2-3.82,6.34-5.79,9.47c-1.6,2.52-2.99,5.21-5.4,7.13
	c-0.39,0.31-0.78,0.78-0.89,1.24c-0.32,1.4-1.22,2.3-2.17,3.31c-1.98,2.11-3.85,4.35-5.53,6.7c-1.41,1.97-2.88,3.8-4.9,5.18
	c-0.7,0.48-1.26,1.16-2.15,2c0.92,0.44,1.35,0.76,1.82,0.84c4.19,0.74,8.21,2.34,12.58,2.2c1.41-0.05,2.83,0.6,4.25,0.89
	c5.26,1.08,10.53,2.14,15.79,3.23c4.35,0.89,8.7,1.8,13.04,2.72c0.3,0.06,0.55,0.3,0.85,0.39c3.85,1.13,7.7,2.26,11.55,3.37
	c3.36,0.96,6.76,1.83,10.1,2.86c2.17,0.66,4.29,1.47,6.4,2.31c2.77,1.12,5.5,2.34,8.25,3.52c2.26,0.97,4.55,1.89,6.78,2.93
	c1.58,0.74,3.13,1.56,4.6,2.49c2.79,1.77,5.46,3.74,8.29,5.44c1.29,0.77,1.99,1.69,2.27,3.13c0.22,1.15,0.2,2.5,1.76,3.28
	c0.23-0.57,0.54-1.01,0.58-1.47c0.27-3.21,0.68-6.42,0.68-9.63c0.03-161.53-0.01-323.06,0.1-484.59c0.01-12.97-0.98-25.8-2.63-38.62
	c-0.15-1.13-0.5-2.23-0.81-3.33c-1.33-4.69-1.39-9.67-3.22-14.25c-0.04-0.09-0.01-0.21-0.04-0.31c-0.92-3.71-1.8-7.42-2.79-11.11
	c-0.48-1.79-1.11-3.54-1.73-5.29c-0.97-2.72-1.95-5.44-3.02-8.13c-0.99-2.49-2.12-4.93-3.16-7.4c-1.68-3.98-3.17-8.05-5.05-11.94
	c-1.69-3.51-3.75-6.85-5.71-10.23c-2.6-4.48-5.1-9.02-7.93-13.36c-4.99-7.66-10.48-14.95-16.35-22
	c-7.56-9.07-15.58-17.62-24.67-25.18c-6.31-5.26-12.64-10.47-19.39-15.19c-6.82-4.77-13.91-9.1-21.16-13.13
	c-6.05-3.36-12.45-6.08-18.71-9.04c-1.87-0.88-3.78-1.68-5.73-2.38c-2.82-1.01-5.72-1.82-8.53-2.86c-4.18-1.55-8.31-3.21-12.73-3.98
	c-0.61-0.11-1.18-0.41-1.78-0.58c-1.69-0.47-3.39-0.92-5.09-1.36c-1.31-0.34-2.62-0.67-3.93-0.97c-1.82-0.41-3.64-0.82-5.47-1.19
	c-1.83-0.37-3.68-0.66-5.51-1.03c-1.43-0.29-2.82-0.81-4.26-0.99c-4.85-0.61-9.71-1.32-14.58-1.61c-6.96-0.4-13.95-0.64-20.92-0.61
	c-6.24,0.03-12.49,0.44-18.72,0.85c-3.42,0.23-6.82,0.8-10.23,1.25c-1.95,0.26-3.9,0.57-5.84,0.9c-2.35,0.4-4.71,0.8-7.05,1.3
	c-4.06,0.87-8.1,1.82-12.14,2.75c-0.3,0.07-0.57,0.27-0.86,0.36c-1.29,0.39-2.58,0.76-3.87,1.13c-1.19,0.35-2.4,0.65-3.58,1.04
	c-3.25,1.07-6.48,2.17-9.72,3.28c-2.64,0.91-5.31,1.76-7.89,2.81c-2.59,1.05-5.09,2.3-7.62,3.49c-5.14,2.42-10.39,4.64-15.38,7.35
	c-5.19,2.81-10.15,6.07-15.17,9.19c-3,1.87-6.05,3.69-8.84,5.84c-5.44,4.19-10.68,8.63-16.05,12.9
	c-11.67,9.27-21.24,20.53-30.5,32.07c-3.05,3.8-5.62,7.98-8.54,11.89c-5.47,7.33-9.58,15.48-14.24,23.3
	c-0.94,1.58-1.68,3.29-2.43,4.99c-1,2.26-1.91,4.55-2.86,6.83c-1.3,3.14-2.63,6.26-3.89,9.42c-0.95,2.4-1.82,4.83-2.69,7.26
	c-0.56,1.55-1.06,3.11-1.59,4.67c-0.23,0.69-0.46,1.38-0.67,2.07c-0.49,1.57-0.97,3.15-1.44,4.72c-0.27,0.89-0.51,1.8-0.75,2.7
	c-0.48,1.79-0.97,3.57-1.43,5.36c-0.23,0.91-0.23,1.91-0.62,2.73c-1.1,2.32-1.44,4.75-1.61,7.27c-0.1,1.43-0.62,2.84-0.96,4.25
	c-0.29,1.21-0.69,2.41-0.86,3.64c-0.66,4.74-1.26,9.49-1.85,14.25c-0.22,1.76-0.42,3.53-0.45,5.29c-0.11,6.46-0.21,12.93-0.21,19.39
	c-0.01,160.69-0.01,321.39-0.01,482.08c0,2.19-0.15,4.39,0.01,6.57C43.75,728.15,44.22,730.25,44.55,732.35z M45.43,734.76
	c-1.75,6.44-2.3,12.62-1.66,18.87c0.13,1.25,0.76,2.77,1.68,3.57c3.14,2.71,6.29,5.53,9.85,7.6c5.27,3.07,10.84,5.64,16.39,8.21
	c2.61,1.21,5.44,1.91,8.17,2.87c0.87,0.31,1.7,0.74,2.56,1.08s1.72,0.68,2.6,0.96c1.56,0.51,3.12,0.99,4.69,1.47
	c0.79,0.24,1.59,0.45,2.39,0.68c1.78,0.51,3.55,1.04,5.33,1.53c0.9,0.25,1.8,0.48,2.71,0.67c4.55,0.96,9.1,1.91,13.65,2.86
	c0.1,0.02,0.19,0.08,0.29,0.1c5.36,1.17,10.7,2.4,16.07,3.49c3.15,0.64,6.34,1.08,9.51,1.59c1.44,0.23,2.88,0.48,4.32,0.6
	c7.98,0.64,15.83,2.29,23.82,2.98c4.74,0.41,9.45,1.45,14.26,1.45c2.08,0,4.2,0.02,6.23,0.41c9.48,1.83,19.08,1.62,28.66,1.97
	c3.12,0.12,6.24,0.42,9.36,0.57c8.95,0.42,17.9,1.06,26.85,1.16c13.44,0.14,26.89,0.11,40.33-0.26c12.7-0.35,25.39-1.21,38.08-1.88
	c1.87-0.1,3.73-0.38,5.6-0.55c6.01-0.53,12.03-1.02,18.04-1.56c1.97-0.18,3.92-0.47,5.89-0.7c3.82-0.46,7.64-0.9,11.45-1.4
	c6.7-0.87,13.39-1.77,20.08-2.67c0.51-0.07,0.99-0.34,1.5-0.43c2.35-0.42,4.71-0.79,7.06-1.21c5.1-0.91,10.19-1.83,15.29-2.76
	c0.3-0.05,0.57-0.26,0.87-0.34c4.51-1.12,9.03-2.23,13.54-3.33c0.2-0.05,0.42,0,0.62-0.05c3.7-0.93,7.4-1.86,11.08-2.83
	c0.49-0.13,0.88-0.56,1.36-0.75c0.67-0.27,1.37-0.47,2.06-0.68c3.15-0.95,6.38-1.67,9.42-2.89c4.31-1.72,8.44-3.9,12.72-5.68
	c6.39-2.66,12.01-6.54,17.45-10.73c2.21-1.7,3.27-3.91,3.34-6.73c0.13-5.02-0.08-9.98-1.24-14.89c-0.34-1.44-1.01-2.12-2.53-2.2
	c-3.25-0.16-6.04-1.88-8.5-3.63c-4.47-3.19-9.53-5.03-14.4-7.31c-3.07-1.44-6.29-2.58-9.48-3.75c-2.71-1-5.45-1.96-8.23-2.75
	c-3.56-1.01-7.18-1.84-10.77-2.76c-0.3-0.08-0.57-0.27-0.87-0.35c-4.18-1.14-8.37-2.28-12.56-3.41c-0.2-0.05-0.42,0-0.62-0.04
	c-5.5-1.03-10.99-2.09-16.49-3.11c-6.11-1.14-12.22-2.31-18.35-3.34c-3.99-0.67-8.05-0.99-12.03-1.7c-3.68-0.65-6.68,0.44-8.87,3.27
	c-1.14,1.47-2.48,2.27-4.01,3.2c-3.16,1.91-5.99,4.36-9.37,5.94c-1.11,0.52-2.06,1.36-3.13,1.97c-2.25,1.27-4.77,2.18-6.73,3.78
	c-2.03,1.65-4.12,2.83-6.65,3.16c-2.49,0.33-4.49,1.57-6.42,3.02c-0.58,0.44-1.07,1.08-1.72,1.33c-3.56,1.38-7.09,2.89-10.75,3.91
	c-1.91,0.53-3.84,0.77-5.47,2.03c-0.47,0.36-1.13,0.5-1.72,0.7c-1.56,0.53-3.15,0.96-4.68,1.56c-1.83,0.72-3.52,1.55-5.62,1.62
	c-1.8,0.06-3.68,0.79-5.32,1.63c-1.74,0.89-3.49,1.19-5.38,1.35c-1.41,0.12-3,0.3-4.15,1.02c-1.98,1.25-4,1.56-6.24,1.55
	c-1.31-0.01-2.68,0.2-3.91,0.61c-4.32,1.46-8.54,3.29-13.26,2.95c-1.7-0.12-3.24-0.04-4.58,1.38c-0.63,0.66-1.83,0.95-2.81,1.08
	c-1.54,0.21-3.12,0.06-4.68,0.2c-2.17,0.19-4.34,0.42-6.47,0.81c-1.72,0.31-3.37,1.07-5.09,1.32c-3.86,0.56-7.71,0.18-11.62,1.68
	c-3.33,1.28-7.41,1.21-11.08,0.89c-4.23-0.37-8.31,0.52-12.36,0.98c-5.49,0.63-10.99,0.57-16.47,1.1c-2.48,0.24-4.96-0.14-6.63,1.54
	c-1.69-0.52-3.01-1.21-4.36-1.28c-4.86-0.24-9.74-0.33-14.61-0.35c-1.07-0.01-2.41,0.15-3.16,0.79c-1.65,1.39-3.17,1.28-4.85,0.35
	c-2.78-1.55-5.53-1.31-8.25,0.14c-1.58,0.84-2.96,1.05-4.54-0.28c-0.84-0.71-2.27-1.01-3.44-1.01c-3.85-0.02-7.7,0.19-11.55,0.27
	c-1.45,0.03-2.93,0.03-4.36-0.17c-2.1-0.29-2.41-0.89-1.83-2.92c0.2-0.69,0.51-1.42,0.47-2.11c-0.14-2.62,0.03-5.16,1.52-7.14
	c-0.59-1.32-1.39-2.33-1.45-3.37c-0.22-3.63-0.4-7.3-0.19-10.93c0.29-5.07,0.95-10.13,1.43-15.19c0.2-2.12-1.34-4.41-3.1-4.29
	c-2.15,0.15-4.31,0.54-6.41,1.06c-4.01,0.99-7.98,2.15-11.96,3.24c-0.1,0.03-0.21,0-0.31,0.03c-1.67,0.48-3.34,0.96-5.01,1.45
	c-0.8,0.23-1.59,0.46-2.39,0.7c-3.16,0.94-6.35,1.83-9.49,2.84c-2.06,0.66-4.08,1.45-6.07,2.29c-2.66,1.12-5.33,2.27-7.91,3.56
	c-3.33,1.66-6.56,3.55-9.89,5.21C52.69,732.85,49.76,735.55,45.43,734.76z M262.76,843.17c14.27-0.43,28.54-0.8,42.8-1.31
	c8.43-0.3,16.87-0.69,25.28-1.31c8.82-0.65,17.63-1.64,26.44-2.48c0.41-0.04,0.83-0.11,1.23-0.21c7.5-1.89,15.37-1.2,22.83-3.39
	c0.98-0.29,2.08-0.11,3.11-0.27c5.64-0.89,11.27-1.82,16.91-2.74c0.2-0.03,0.4-0.13,0.6-0.18c5.06-1.16,10.12-2.31,15.18-3.46
	c0.2-0.05,0.42-0.03,0.62-0.08c4.15-0.93,8.33-1.73,12.43-2.83c3.6-0.96,7.11-2.25,10.66-3.4c5.13-1.66,10.36-3.05,15.34-5.07
	c6.13-2.48,12.19-5.18,17.83-8.74c4.26-2.7,8.16-5.79,11.29-9.74c1.54-1.94,3.34-3.93,3.41-6.52c0.2-7.19,0.23-14.39,0.2-21.58
	c-0.01-2.34-1.09-2.82-2.91-1.3c-3.74,3.13-7.62,6.05-12.04,8.17c-3.99,1.91-8.01,3.76-12.05,5.55c-2.54,1.13-5.14,2.12-7.74,3.12
	c-2.89,1.11-5.77,2.27-8.72,3.17c-3.35,1.02-6.78,1.78-10.18,2.66c-0.3,0.08-0.57,0.27-0.86,0.36c-1.68,0.5-3.36,1-5.05,1.47
	c-1.2,0.34-2.4,0.64-3.6,0.96c-1.4,0.37-2.79,0.81-4.2,1.1c-4.36,0.91-8.73,1.77-13.1,2.66c-0.3,0.06-0.58,0.24-0.88,0.31
	c-2.33,0.48-4.66,0.95-7,1.41c-1.32,0.26-2.66,0.48-3.98,0.71c-2.86,0.5-5.72,1.01-8.59,1.49c-1.13,0.19-2.27,0.3-3.4,0.48
	c-7.91,1.22-15.82,2.45-23.73,3.66c-0.82,0.12-1.67,0.05-2.5,0.13c-3.11,0.31-6.21,0.65-9.32,0.96c-4.04,0.41-8.07,0.85-12.12,1.18
	c-4.67,0.38-9.35,0.64-14.03,0.97c-4.99,0.35-9.97,0.96-14.96,1.05c-16.05,0.28-32.11,0.69-48.15,0.44
	c-17.39-0.26-34.81,0.42-52.16-1.62c-6.2-0.73-12.56-0.28-18.69-1.31c-9.15-1.55-18.53-1.16-27.57-3.52
	c-1.09-0.29-2.29-0.14-3.42-0.3c-6.68-0.97-13.37-1.95-20.04-2.97c-0.81-0.12-1.59-0.51-2.39-0.72c-0.8-0.22-1.62-0.4-2.44-0.55
	c-5.1-0.89-10.22-1.69-15.31-2.66c-2.95-0.56-5.85-1.34-8.77-2.07c-0.8-0.2-1.56-0.59-2.35-0.83c-1.09-0.34-2.2-0.61-3.29-0.92
	c-1.78-0.51-3.56-1.02-5.35-1.53c-0.8-0.23-1.6-0.43-2.4-0.65c-3.38-0.93-6.81-1.73-10.14-2.82c-2.94-0.96-5.77-2.25-8.65-3.38
	c-4.31-1.69-8.79-3.05-12.91-5.12c-5.71-2.86-11.54-5.63-16.23-10.18c-0.59-0.57-1.3-1.06-2.02-1.47c-0.94-0.53-1.62-0.14-1.91,0.85
	c-0.14,0.49-0.18,1.03-0.18,1.54c0.04,6.78,0.06,13.55,0.16,20.33c0.02,1.01,0.2,2.12,0.66,3.01c2.74,5.32,6.97,9.37,11.91,12.54
	c4.52,2.9,9.34,5.36,14.14,7.79c2.48,1.26,5.2,2.05,7.82,3.02c2.72,1,5.45,1.99,8.2,2.94c3.23,1.11,6.45,2.31,9.74,3.22
	c3.79,1.06,7.66,1.84,11.48,2.77c0.7,0.17,1.36,0.53,2.06,0.72c1.3,0.36,2.61,0.68,3.92,0.98c1.92,0.44,3.85,0.85,5.77,1.28
	c1.42,0.31,2.83,0.65,4.25,0.94c2.13,0.44,4.28,0.83,6.41,1.26c1.32,0.27,2.63,0.64,3.96,0.85c6.57,1,13.15,1.95,19.73,2.93
	c0.1,0.02,0.2,0.06,0.3,0.07c3.39,0.47,6.78,0.96,10.18,1.41c1.34,0.18,2.73,0.11,4.04,0.42c5.92,1.41,11.95,1.72,17.99,1.97
	c1.56,0.06,3.1,0.38,4.66,0.52c5.18,0.47,10.36,0.99,15.55,1.35c3.43,0.24,6.89,0.06,10.31,0.41
	C232.11,842.63,247.42,843.01,262.76,843.17z M358.98,436.05c0.05,0,0.1,0,0.15,0c0-1.77-0.07-3.55,0.02-5.32
	c0.12-2.31-0.67-4.21-2.04-6.05c-3.18-4.29-7.1-7.79-11.22-11.11c-0.4-0.32-0.89-0.53-1.35-0.76c-3.82-1.88-7.62-3.78-10.63-6.91
	c-0.63-0.66-1.49-1.1-2.27-1.61c-1.29-0.83-2.61-1.59-3.89-2.43c-1.21-0.79-2.36-1.68-3.58-2.47c-2.27-1.47-4.52-2.98-6.86-4.31
	c-1.42-0.81-3.01-1.32-4.52-1.96c-0.94-0.4-1.96-0.66-2.82-1.19c-2.82-1.74-5.51-3.68-8.37-5.36c-5.46-3.21-11.03-6.22-16.48-9.43
	c-4.56-2.68-8.97-5.63-13.55-8.28c-3.03-1.76-4.3-1.07-4.85,2.38c-0.15,0.96,0.21,2,0.35,3.01c0.13,1,0.63,2.12,0.34,2.98
	c-0.63,1.88-0.43,3.66-0.22,5.54c0.17,1.52,0.03,3.11-0.2,4.63c-0.19,1.28-0.38,2.46,0.51,3.56c0.95,1.17,0.89,2.46,0.53,3.85
	c-0.25,0.99-0.31,2.04-0.35,3.06c-0.06,1.65-0.02,3.31-0.05,4.97c-0.03,1.66-0.2,3.33-0.13,4.99c0.25,5.69,0.59,11.38,0.88,17.06
	c0.17,3.32,0.43,6.64,0.42,9.96c-0.02,6.34-0.26,12.68-0.28,19.02c0,1.06,0.53,2.19,1.04,3.18c2.69,5.32,7.35,8.73,12.16,11.83
	c5.31,3.42,10.86,6.47,16.33,9.64c2.97,1.72,5.85,3.66,9,4.95c3.38,1.38,6.61,2.91,9.51,5.13c0.66,0.5,1.34,1.1,2.11,1.32
	c3.3,0.93,5.72,3.23,8.4,5.14c0.92,0.66,1.92,1.22,2.9,1.8c1.5,0.89,3.03,1.73,4.52,2.63c0.88,0.54,1.67,1.23,2.57,1.75
	c5.78,3.31,11.19,7.16,16.46,11.22c1.28,0.99,2.86,1.67,4.4,2.24c1.14,0.42,2.09-0.16,2.22-1.47c0.24-2.48,0.54-4.97,0.54-7.46
	c0-4.25-0.24-8.5-0.35-12.75c-0.06-2.19-0.17-4.38-0.07-6.56c0.3-6.44,0.77-12.88,1.01-19.33c0.05-1.37-0.4-2.86-1-4.12
	c-0.52-1.09-0.72-1.88,0.16-2.79c1.07-1.12,0.9-2.29-0.07-3.34c-1.35-1.46-1.42-3.16-1.19-4.98c0.12-0.93,0.23-1.87,0.2-2.8
	C359.26,444.76,359.11,440.41,358.98,436.05z M133.08,696.77c2.92-0.35,5.16-0.68,7.42-0.89c6.51-0.62,12.82-2.67,19.42-2.66
	c0.1,0,0.2-0.04,0.3-0.07c4.01-1.35,8.17-1.53,12.35-1.64c1.87-0.05,3.72-0.37,5.59-0.57c4.96-0.53,9.92-1.1,14.89-1.57
	c3.21-0.31,6.44-0.49,9.65-0.73c5.92-0.45,11.83-0.99,17.75-1.32c4.26-0.24,8.54-0.15,12.81-0.28c6.56-0.2,13.11-0.56,19.67-0.66
	c9.16-0.15,18.33-0.11,27.49-0.19c2.37-0.02,2.92-0.63,2.94-3c0.01-1.98-0.16-3.96-0.03-5.93c0.1-1.62,0.08-3.09-1.06-4.4
	c-0.96-1.1-0.96-2.3,0.06-3.37c1.49-1.57,1.46-3.13,0.11-4.73c-1-1.19-1.13-2.48-0.24-3.73c1.06-1.49,0.96-2.9,0.02-4.36
	c-0.91-1.41-0.76-2.91-0.67-4.51c0.24-4.35,0.32-8.71,0.33-13.07c0.01-3.63-0.29-7.27-0.2-10.89c0.07-2.86-0.84-4.71-3.69-5.25
	c-3.15-0.6-6.37-1.01-9.47,0.63c-1.55,0.82-3.25,1.46-4.96,1.82c-3.64,0.75-7.37,1.1-10.79,2.74c-0.63,0.3-1.42,0.3-2.14,0.4
	c-2.67,0.37-5.35,0.72-8.02,1.07c-1.42,0.19-2.84,0.42-4.27,0.56c-0.82,0.08-1.68-0.13-2.49,0c-3.8,0.58-7.58,1.28-11.37,1.85
	c-1.63,0.25-3.31,0.22-4.94,0.46c-2.35,0.33-4.81,0.48-7,1.3c-1.53,0.57-2.87,0.97-4.48,0.67c-0.91-0.17-1.87-0.11-2.8-0.06
	c-5.19,0.29-10.38,0.61-15.56,0.93c-0.83,0.05-1.84-0.15-2.45,0.25c-3.04,1.98-6.22,0.99-9.39,0.74c-1.11-0.09-2.25,0.06-3.37,0.16
	c-3.38,0.31-6.75,0.68-10.13,0.93c-0.69,0.05-1.46-0.2-2.09-0.52c-1.34-0.68-2.51-0.34-3.88,0c-1.53,0.38-3.38,0.53-4.81,0.01
	c-1.88-0.68-3.32-0.55-5.01,0.35c-0.91,0.49-2.36,0.83-3.2,0.45c-3.37-1.53-6.59-0.48-9.8,0.23c-2.59,0.58-3.53,2.04-3.63,4.75
	c-0.09,2.57-0.79,5.16,0.27,7.72c0.22,0.52-0.03,1.23-0.03,1.85c-0.01,1.44-0.02,2.89-0.02,4.33c0,1.87,0,3.74,0.03,5.61
	c0.04,3.42,0.08,6.85,0.15,10.27c0.04,1.76,0.17,3.51,0.22,5.27C132.73,683.94,132.89,690.14,133.08,696.77z M243.78,310.57
	c0.12,0.01,0.25,0.01,0.37,0.02c0,1.35-0.16,2.73,0.04,4.05c0.34,2.29,1.28,2.66,3.45,1.72c4.46-1.94,8.01-5.29,12.14-7.73
	c2.56-1.51,5.28-2.77,7.93-4.13c0.92-0.47,1.89-0.82,2.78-1.34c2.06-1.21,3.97-2.71,6.13-3.68c3.76-1.69,7.64-3.1,11.51-4.55
	c1.25-0.47,2.6-0.66,3.88-1.06c0.77-0.24,1.51-0.58,2.22-0.96c0.63-0.33,1.16-0.89,1.81-1.16c4.59-1.9,9.2-3.76,13.81-5.62
	c0.67-0.27,1.4-0.8,2.03-0.71c4.13,0.6,7.13-3.51,11.29-2.66c0.17,0.03,0.38-0.14,0.57-0.23c1.37-0.71,2.73-1.41,4.1-2.12
	c1.25-0.65,1.73-1.64,1.58-3.08c-0.39-3.76,0.67-7.58-0.56-11.31c-0.12-0.37,0.04-0.82,0.06-1.24c0.15-4.16,0.42-8.32,0.4-12.48
	c-0.02-5.71-0.19-11.43-0.42-17.14c-0.12-3.01-0.5-6.01-0.74-9.01c-0.06-0.72-0.08-1.45-0.05-2.18c0.17-3.42,0.38-6.83,0.54-10.25
	c0.02-0.51-0.03-1.07-0.23-1.53c-1.02-2.3-0.91-4.53-0.38-7c0.3-1.41-0.91-3.08-1.08-4.67c-0.18-1.71,1.51-3.2,0.73-5.12
	c-0.81-2-0.7-4.01,0.02-6.09c0.75-2.16-0.05-3.12-2.38-3.14c-2.22-0.02-4.33,0.43-6.26,1.63c-0.87,0.54-1.8,1.23-2.77,1.35
	c-4.08,0.49-7.59,2.68-11.52,3.6c-1.89,0.45-3.71,1.21-5.56,1.86c-0.98,0.35-1.94,0.74-2.89,1.15c-2.77,1.19-5.55,2.36-8.3,3.59
	c-5.97,2.67-11.96,5.29-17.87,8.09c-2.7,1.28-5.23,2.91-7.83,4.41c-2.06,1.19-4.07,2.45-6.14,3.63c-0.62,0.36-1.43,0.42-2,0.83
	c-2.58,1.86-4.98,4.01-7.69,5.64c-2.55,1.53-3.35,3.86-3.89,6.42c-0.28,1.31-0.35,2.69-0.32,4.04c0.12,6.74,0.28,13.49,0.46,20.23
	c0.09,3.63,0.37,7.26,0.34,10.88c-0.04,3.95-0.34,7.89-0.54,11.84c-0.07,1.29,0.06,2.47,1.13,3.41c1.2,1.06,1.35,2.4,0.42,3.63
	c-0.95,1.25-1.05,2.3-0.27,3.7c0.39,0.71,0.52,1.95,0.16,2.63c-0.92,1.74-0.8,3.33-0.21,5.1c0.32,0.95,0.23,2.05,0.27,3.08
	c0.08,1.86,0.13,3.72,0.17,5.58c0.02,1.04,0.05,2.08-0.01,3.11C244.1,307.28,243.93,308.92,243.78,310.57z M381.58,567.24
	c-1.06,0.98-1.99,1.72-2.79,2.58c-3.27,3.5-6.58,6.93-10.64,9.58c-1.6,1.05-2.89,2.67-4.07,4.23c-0.86,1.14-1.67,2.07-3.13,2.34
	c-2.47,0.46-4.36,1.86-5.95,3.76c-0.52,0.62-1.18,1.17-1.89,1.57c-2.12,1.2-4.31,2.3-6.44,3.48c-0.44,0.24-0.83,0.65-1.12,1.07
	c-1.26,1.8-3.11,2.7-5.06,3.5c-4.33,1.77-8.64,3.59-12.94,5.42c-2.18,0.93-4.57,1.6-6.41,3c-2.45,1.85-5.17,2.5-8,3.19
	c-1.7,0.41-3.33,1.14-4.96,1.81c-2.01,0.84-3.9,2.06-5.98,2.6c-3.62,0.94-5.15,4.01-7.32,6.46c-0.19,0.21-0.28,0.58-0.28,0.88
	c-0.02,3.44-0.39,6.93,0.12,10.29c0.31,2.05,1.77,3.9,0.2,5.99c-0.09,0.12-0.04,0.44,0.05,0.6c1.23,2.17,1.04,4.38,0.27,6.65
	c-0.16,0.46-0.16,1.12,0.06,1.53c1.95,3.71-0.75,7.84,1.05,11.58c0.22,0.45-0.2,1.2-0.3,1.82c-0.12,0.72-0.32,1.44-0.3,2.15
	c0.2,6.54,0.44,13.07,0.68,19.6c0.01,0.42,0.03,0.83,0.07,1.25c0.22,2.64,0.51,2.93,3.26,3c2.19,0.06,4.38,0.04,6.57,0.05
	c8.76,0.04,17.48,0.47,26.19,1.67c5.13,0.7,10.39,0.37,15.6,0.46c0.71,0.01,1.48-0.12,2.12-0.4c5.08-2.24,8.83-6.49,13.66-9.13
	c0.6-0.33,0.9-1.15,1.44-1.63c2.02-1.79,4.06-3.56,6.13-5.3c1.02-0.85,2.08-1.66,3.18-2.41c2.41-1.64,3.53-4.3,5.3-6.44
	c4.29-5.18,5.46-11.2,4.56-17.52c-0.48-3.32,0.18-6.53-0.2-9.82c-0.35-3.06,0.37-6.22,0.36-9.34c-0.01-1.49-0.45-3.05-1.01-4.45
	c-0.56-1.41-1.2-2.81-0.38-4.17c0.92-1.53,0.67-2.86,0.19-4.45c-0.4-1.35-0.26-2.88-0.3-4.33c-0.02-1.04,0.14-2.08,0.1-3.12
	c-0.14-3.83-0.36-7.66-0.48-11.49c-0.03-1.03,0.2-2.07,0.28-3.11c0.07-0.93,0.16-1.87,0.14-2.8c-0.1-4.78-0.22-9.55-0.37-14.33
	c-0.06-2.07-0.15-4.13-0.32-6.19C382.48,568.48,382.06,568.07,381.58,567.24z M243.94,697.33c0,0.06,0,0.13,0.01,0.19
	c-3.75,0-7.5-0.05-11.25,0.01c-6.67,0.11-13.34,0.25-20.01,0.45c-3.02,0.09-6.03,0.34-9.04,0.57c-6.85,0.51-13.71,1.04-20.56,1.59
	c-1.66,0.13-3.31,0.38-4.97,0.56c-4.86,0.54-9.73,1.02-14.58,1.62c-6.29,0.78-12.58,1.61-18.85,2.54c-2.98,0.44-5.9,1.21-8.87,1.73
	c-1.29,0.23-2.16,0.68-2.17,2.14c-0.01,2.45-1.22,4.9,0.09,7.37c0.21,0.39,0.14,1.1-0.07,1.52c-1.53,3-0.47,5.93,0.23,8.85
	c0.61,2.55,2.22,3.89,4.91,4.02c1.88,0.09,3.66-0.01,5.15,1.59c0.49,0.52,1.79,0.51,2.67,0.41c2.47-0.29,4.91-0.97,7.37,0
	c3.04-1.7,6.27-0.94,9.46-0.76c1.23,0.07,2.48-0.2,3.72-0.34c4.01-0.47,8.11,0.33,12.08-0.84c0.38-0.11,0.87-0.14,1.24-0.01
	c2.34,0.85,4.61,0.38,7.01,0.1c4.71-0.56,9.5-0.36,14.23-0.81c2.77-0.27,5.49-0.89,8.29-0.43c0.38,0.06,0.8-0.2,1.21-0.26
	c5.4-0.82,10.79-1.85,16.22-2.4c4.94-0.5,9.98-0.22,14.68-2.26c0.45-0.2,1.03-0.14,1.54-0.17c2.39-0.13,4.78-0.18,7.16-0.42
	c0.99-0.1,2.12-0.37,2.86-0.97c1.43-1.16,2.97-1.42,4.68-1.26c2.33,0.21,4.55,0.07,6.61-1.27c0.74-0.48,1.77-0.51,2.67-0.76
	c1.08-0.3,2.15-0.62,3.22-0.94c0.88-0.26,1.75-0.7,2.65-0.76c3.08-0.21,5.51-1.78,7.83-3.59c1.96-1.54,2.72-3.57,2.51-6.07
	c-0.21-2.38-0.27-4.78-0.33-7.18c-0.09-3.88-0.68-4.52-4.63-4.45C267.28,696.83,255.61,697.09,243.94,697.33z M327.51,699.14
	c-1.46-1.34-3.09-1.07-4.6-1.11c-7.59-0.23-15.19-0.39-22.79-0.57c-0.62-0.01-1.31-0.16-1.85,0.06c-0.61,0.24-1.53,0.8-1.56,1.26
	c-0.2,3.21-0.28,6.43-0.19,9.63c0.02,0.53,1.25,1.58,1.59,1.46c2.19-0.81,4.33-0.02,6.47-0.09c0.9-0.03,1.75-0.92,2.65-1.37
	c0.98-0.48,1.95-1.02,2.99-1.33c1.68-0.5,3.48-0.64,5.1-1.26c3-1.15,5.91-2.54,8.85-3.84C325.49,701.41,326.95,701.01,327.51,699.14
	z M177.66,747.45c0,0.09,0,0.17,0,0.26c1.46-0.09,2.92-0.09,4.36-0.3c0.65-0.1,1.69-0.53,1.77-0.96c0.25-1.39,0.46-2.93,0.07-4.24
	c-0.38-1.31-1.92-1.45-3.2-1.39c-1.03,0.05-2.06,0.39-3.09,0.39c-3.31,0-6.62-0.12-9.93-0.15c-0.72-0.01-1.46,0.11-2.15,0.32
	c-1.13,0.35-1.64,1.15-1.53,2.38c0.22,2.42,1.34,3.62,3.75,3.67C171.03,747.5,174.35,747.45,177.66,747.45z M162.55,620.55
	c-0.54,2.27-0.93,3.91-1.33,5.58c1.77,1.4,1.86,1.33,4.06,0.54c1.43-0.52,2.97-1.02,4.46-1c2.99,0.05,5.98,0.53,8.97,0.7
	c2.1,0.12,2.94-0.86,2.94-3.1c0-2.54-0.8-3.48-2.89-3.46c-2.98,0.03-5.97-0.03-8.95,0.09C167.33,620.02,164.86,620.34,162.55,620.55
	z M147.57,745.18c-0.14-1.93,0.08-3.63-1.69-3.85c-1.47-0.18-3.33-0.17-4.48,0.58c-1.88,1.24-3.11,1.26-4.97-0.07
	c-3.03-2.18-6.3-1.1-7.61,2.13c-0.48,1.18-0.99,2.4-0.03,3.53c0.98,1.15,2.25,0.88,3.45,0.39c1.66-0.67,3.22-0.54,4.82,0.24
	c2.7,1.31,5.36,1.17,8.14,0C146.91,747.4,147.73,746.41,147.57,745.18z M209.42,738.96c-1.76,0-3.53-0.1-5.28,0.03
	c-1.82,0.14-2.72,1.44-2.67,3.52c0.05,2,0.89,3.03,2.73,3.05c2.89,0.02,5.79-0.03,8.68-0.16c0.79-0.03,1.68-0.27,2.33-0.7
	c1.25-0.84,2.51-1.25,4.05-1.29c1.79-0.05,2.35-1.13,1.93-3.07c-0.48-2.22-1.92-3.49-3.33-2.56
	C215.16,739.55,212.26,738.87,209.42,738.96z M240.48,613.52c-0.48,0.03-1.62,0.09-2.76,0.19c-0.41,0.03-0.88,0.03-1.22,0.23
	c-0.59,0.35-1.37,0.73-1.59,1.28c-0.56,1.41,1.68,4.79,3.19,4.96c4.33,0.49,8.44-0.57,12.49-1.9c0.48-0.16,0.96-0.43,1.35-0.76
	c1.78-1.52,1.39-5.26-0.71-5.69c-1.34-0.27-3.14-0.31-4.16,0.39C245.17,613.51,243.22,613.57,240.48,613.52z M136.7,620.28
	c0-0.08-0.01-0.17-0.01-0.25c-2.6,0.16-5.2,0.26-7.79,0.51c-2.32,0.22-3.15,0.96-3.3,2.61c-0.2,2.2,0.7,3.4,3.06,3.94
	c0.91,0.21,1.86,0.36,2.78,0.33c3.32-0.12,6.64-0.29,9.96-0.53c0.67-0.05,1.52-0.32,1.93-0.79c1.27-1.46-0.33-5.55-2.26-5.78
	C139.64,620.14,138.16,620.28,136.7,620.28z M206.35,624.07c4.16,0.41,7.23-1.08,10.38-2.08c1.6-0.51,2.17-3.03,1.29-4.56
	c-0.69-1.2-1.65-1.33-3.45-0.23c-1.9,1.16-3.93,1-6.03,1c-2.36,0-4.75,0.16-7.08,0.57c-1.6,0.28-2.39,2.42-1.95,4.39
	c0.33,1.44,1.12,1.8,3.21,1.47C204.16,624.4,205.59,624.19,206.35,624.07z M246.67,739.87c3.16,1.27,5.22-0.32,7.32-1.66
	c1.39-0.89,1.76-2.36,1.48-3.84c-0.11-0.61-1.03-1.54-1.54-1.52c-2.35,0.1-4.71,0.41-7.03,0.79c-1.94,0.32-3.85,0.89-5.78,1.27
	c-2.44,0.47-3.15,1.27-3.14,3.74c0,1.85,0.85,2.66,2.72,2.49c0.61-0.05,1.19-0.34,1.8-0.46C243.99,740.37,245.5,740.1,246.67,739.87
	z M283.48,608.06c-0.01-3.48-0.51-3.87-3.81-3.04c-1.51,0.38-3.06,0.66-4.52,1.18c-1.85,0.65-3.7,1.39-5.44,2.29
	c-1.45,0.75-1.68,2.26-1.03,4.09c0.53,1.49,1.57,1.84,2.95,1.48c1.79-0.47,3.55-1.01,5.33-1.5c0.99-0.27,1.97-0.61,2.98-0.72
	C283.13,611.52,283.49,611.18,283.48,608.06z M330.03,290.81c-1.1,0.34-1.99,0.85-2.86,0.84c-3.94-0.07-7.48,1.52-11.17,2.46
	c-1.71,0.44-2.21,1.21-2.09,2.9c0.16,2.14,1.31,3.23,3.58,2.69c3.41-0.81,6.74-1.96,10.08-3.06
	C330.88,295.55,331.18,294.79,330.03,290.81z M315.47,179.34c2.91-1.13,6.71-2.5,10.42-4.09c1.86-0.8,2.06-1.59,1.47-3.19
	c-0.71-1.93-1.52-2.36-3.55-1.9c-0.91,0.2-1.85,0.31-2.74,0.57c-2.08,0.61-4.17,1.19-6.19,1.97c-1.54,0.59-2.45,1.9-2.87,3.49
	C311.46,178.29,312.38,179.43,315.47,179.34z M275.06,734.86c0.78-0.21,2.28-0.25,3.27-0.98c1.34-0.98,2.7-1.39,4.26-1.59
	c1.12-0.14,2.26-0.42,3.29-0.88c0.56-0.25,1.19-0.93,1.31-1.51c0.27-1.37-2.18-4-3.6-4c-3.39,0-6.5,1.16-9.48,2.59
	c-1.85,0.89-1.98,3.04-2.66,4.71c-0.12,0.29,0.49,1.13,0.93,1.33C273,734.82,273.79,734.73,275.06,734.86z M289.63,310.92
	c0.29-0.07,1.06-0.1,1.67-0.43c2.09-1.13,4.15-2.33,6.17-3.58c0.59-0.37,1.09-0.95,1.51-1.52c0.77-1.04,1.31-2.17,0.28-3.39
	c-1.04-1.24-2.21-1.23-3.61-0.55c-2.41,1.17-4.86,2.28-7.35,3.27c-2.06,0.82-2.79,1.75-2.47,3.65
	C286.12,310.05,287.19,310.86,289.63,310.92z M314.23,719.47c0.11-2.47-0.54-2.99-2.93-2.33c-0.8,0.22-1.68,0.38-2.32,0.85
	c-1.65,1.22-3.5,1.65-5.46,1.99c-2.19,0.38-2.84,1.46-2.49,3.49c0.37,2.14,1.52,3.02,3.75,2.59c1.2-0.23,2.34-0.77,3.49-1.22
	c0.86-0.33,1.68-0.81,2.56-1.09C313.71,722.87,314.1,722.41,314.23,719.47z M283.37,188.51c0.13,0.3,0.29,1.49,0.9,1.79
	c0.58,0.29,1.68-0.21,2.45-0.57c2.67-1.25,5.27-2.63,7.94-3.87c1.68-0.78,2.53-4.53,1.13-5.73c-0.37-0.32-1.16-0.35-1.69-0.22
	c-0.57,0.14-1.03,0.67-1.58,0.96c-1.8,0.95-3.53,2.2-5.45,2.74C284.05,184.48,283.5,184.83,283.37,188.51z M298.39,603.27
	c0,1.62,0.75,2.4,2.4,1.84c3.21-1.09,6.32-2.51,9.46-3.8c0.28-0.12,0.53-0.33,0.75-0.55c0.94-0.95,1.05-2.48,0.33-3.75
	c-0.68-1.2-1.72-1.04-2.72-0.67c-1.05,0.38-2.04,0.96-3.08,1.39c-1.12,0.47-2.23,1.07-3.4,1.25
	C299.33,599.43,298.38,600.4,298.39,603.27z M325.38,595.77c2.07-0.85,4.22-1.54,6.18-2.59c1.72-0.92,3.29-2.15,4.82-3.38
	c1.15-0.93,0.67-2.05-0.1-3.02c-0.76-0.96-1.8-1.85-2.86-0.78c-1.45,1.47-3.24,1.63-5.03,2.1
	C324.74,589.08,323.41,592.67,325.38,595.77z M316.09,380.58c-0.12-0.38-0.12-1.64-0.7-2.04c-2.63-1.8-5.41-3.41-8.2-4.97
	c-0.78-0.44-1.63-0.11-2.05,0.82c-0.62,1.36,0.19,4.54,1.49,5.39c2.17,1.41,4.37,2.76,6.6,4.07c1.48,0.87,2.36,0.46,2.7-1.16
	C316.03,382.17,316.02,381.64,316.09,380.58z M309.53,495.87c-0.51,0.38-1.47,0.78-1.8,1.47c-0.27,0.57,0.09,1.57,0.44,2.24
	c0.32,0.6,0.96,1.11,1.57,1.48c2.13,1.28,4.28,2.55,6.5,3.66c0.45,0.23,1.5,0,1.83-0.39c1.59-1.86,1.18-3.9-0.91-5.3
	c-0.34-0.23-0.73-0.45-0.97-0.77C314.57,496.17,312.11,496.48,309.53,495.87z M332.66,507.79c-0.39,0.56-1.2,1.2-1.26,1.91
	c-0.16,1.81,0.33,3.55,1.95,4.67c1.71,1.18,3.47,2.28,5.21,3.42c0.82,0.54,1.82,1.05,2.52,0.17c0.51-0.64,0.75-1.71,0.68-2.55
	c-0.06-0.75-0.54-1.65-1.13-2.14c-2.14-1.78-4.39-3.42-6.62-5.09C333.78,508,333.42,508,332.66,507.79z M295.25,488.36
	c-0.23-0.5-0.4-1.38-0.92-1.92c-2.19-2.26-4.8-3.95-7.81-4.89c-1.91-0.6-2.98,0.42-2.67,2.44c0.3,1.93,1.63,3.18,3.28,3.86
	c1.84,0.76,3.52,1.62,4.99,3.01c1.13,1.07,2.04,0.74,2.63-0.67C294.94,489.72,295.02,489.2,295.25,488.36z M328.43,713.66
	c-0.18,1.72,0.69,2.82,1.98,2.13c3.08-1.64,6.06-3.53,8.88-5.59c1.05-0.77,0.76-2.38-0.07-3.43c-0.87-1.1-1.85-0.35-2.77,0.14
	c-1.65,0.88-3.23,1.97-4.98,2.53C329.26,710.14,328.68,711.7,328.43,713.66z M290.89,370.71c0.39-0.71,0.68-1.05,0.76-1.42
	c0.52-2.62-0.66-4.48-3.74-6.1c-1.27-0.67-2.52-1.41-3.71-2.22c-1.7-1.15-2.7-0.77-2.87,1.29c-0.06,0.79-0.02,1.81,0.43,2.37
	C284.13,367.6,287.6,368.88,290.89,370.71z M270.99,193.9c-0.35-0.61-0.6-1.51-1.18-1.88c-0.37-0.24-1.3,0.22-1.88,0.53
	c-1.44,0.79-2.84,1.65-4.23,2.54c-1.04,0.67-2.25,1.24-2.99,2.17c-0.54,0.68-0.7,1.93-0.52,2.82c0.22,1.11,1.34,1.06,2.32,0.92
	c3.28-0.45,5.75-2.2,7.6-4.86C270.51,195.57,270.64,194.82,270.99,193.9z M271.81,478.07c1.7-3.04,1.31-5.35-1.07-7.16
	c-1.4-1.07-2.78-2.17-4.23-3.17c-0.52-0.36-1.23-0.45-2.39-0.86c0.33,2.78-0.32,5.28,1.76,7.03
	C267.65,475.42,269.69,476.61,271.81,478.07z M338.29,394.59c-0.29-0.55-0.63-2.05-1.56-2.79c-1.7-1.33-3.74-2.24-5.67-3.25
	c-1.07-0.56-2.03-0.09-2.12,0.99c-0.09,1.15-0.06,2.76,0.64,3.44c1.68,1.64,3.72,2.95,5.73,4.22
	C337.06,398.31,338.36,397.43,338.29,394.59z M248.96,205.6c-0.2-0.32-0.48-1.32-1.06-1.54c-0.59-0.23-1.5,0.23-2.22,0.52
	c-0.34,0.14-0.61,0.56-0.81,0.92c-0.91,1.63-1.87,3.16-3.54,4.22c-1.15,0.73-1.3,2.09-0.91,3.37c0.28,0.92,0.92,1.44,1.89,0.89
	c1.34-0.76,2.77-1.45,3.92-2.45C247.84,210.14,248.76,208.28,248.96,205.6z M265.28,322.03c0.48-0.22,1.36-0.52,2.11-1.01
	c1.47-0.94,2.86-2.02,4.32-2.99c1.14-0.75,2-1.56,1.16-3.02c-0.76-1.33-2.16-1.57-3.75-0.71c-0.81,0.44-1.58,1.03-2.44,1.25
	c-2.48,0.63-2.96,2.7-3.44,4.69C262.97,321.34,263.74,321.94,265.28,322.03z M269.92,357.93c-0.01-4.33-0.98-7.46-4.38-9.51
	c-1.02-0.62-1.9-1.38-3.05-0.43c-1.11,0.92-1.33,2.8-0.3,3.95C264.25,354.24,266.65,356.14,269.92,357.93z M348.25,580.84
	c0.04,1.84,0.78,2.29,2.35,1.55c3.32-1.55,5.98-3.62,6.07-7.7c0.01-0.55-0.1-1.35-0.45-1.59c-0.39-0.26-1.2-0.16-1.7,0.07
	c-0.52,0.25-0.87,0.85-1.33,1.26c-1.04,0.94-1.99,2.05-3.18,2.75C348.49,578.1,348.4,579.46,348.25,580.84z M355.92,410.59
	c0.24-0.12,1.15-0.28,1.39-0.76c0.31-0.64,0.42-1.83,0.03-2.26c-1.43-1.58-2.98-3.1-4.7-4.34c-1.51-1.08-3.03-0.13-2.96,1.58
	C349.77,406.93,353.35,410.52,355.92,410.59z M370.36,689.74c0.8-0.31,1.6-0.38,1.99-0.82c1.31-1.45,2.57-2.97,3.69-4.57
	c0.95-1.36,0.58-2.76-0.83-4.26C370.53,682.71,369.48,684.63,370.36,689.74z M359.73,531.97c0.7-3.93-1.6-5.76-3.47-7.75
	c-1.2-1.27-2.55-1.46-3.21-0.57c-0.86,1.16-0.61,2.37,0.29,3.39c1.02,1.15,2.08,2.3,3.27,3.27
	C357.42,530.98,358.5,531.33,359.73,531.97z M368.83,568.33c0.17-0.05,0.59-0.05,0.74-0.25c1.45-1.85,3.13-3.59,4.2-5.65
	c0.78-1.51-0.73-3.05-2.03-2.28c-2.27,1.35-4.04,3.28-4.64,5.96C366.83,567.3,367.67,568.29,368.83,568.33z M230.81,218.31
	c-1.96,1.19-3.55,2.78-4.79,4.63c-0.39,0.58-0.21,1.8,0.13,2.53c0.18,0.4,1.3,0.68,1.88,0.54
	C230.84,225.36,232.34,221.28,230.81,218.31z M249,455.22c-1.15,0.12-1.83,0.81-1.36,1.67c0.98,1.8,2.16,3.52,3.43,5.13
	c0.62,0.78,1.84,0.92,2.45,0.02c0.44-0.65,0.73-1.99,0.37-2.48c-1.08-1.47-2.51-2.7-3.85-3.97
	C249.79,455.34,249.29,455.32,249,455.22z M370.68,536.6c-1.71,3.59-1.26,4.93,1.71,6.24c0.57,0.25,1.08,0.72,1.66,0.82
	c0.62,0.11,1.29-0.11,1.94-0.19c-0.08-0.68,0.09-1.6-0.29-2.01C374.19,539.83,372.51,538.35,370.68,536.6z M233.37,339.3
	c-2.22,0.03-4.76,3.67-3.96,5.73c0.44,1.14,1.46,1.38,2.22,0.63c1.24-1.21,2.39-2.58,3.25-4.07
	C235.59,340.4,234.7,339.28,233.37,339.3z M368.38,416.45c-1.17,3.84,0.41,6.32,4.03,6.55c0.95,0.06,1.57-0.73,1.17-1.62
	c-0.24-0.54-0.66-1.05-1.1-1.45C371.2,418.79,369.87,417.71,368.38,416.45z M385.46,673.33c0.32,0.13,0.64,0.26,0.96,0.38
	c0.95-1.16,2.02-2.23,2.79-3.5c0.35-0.59,0.24-1.58,0.04-2.31c-0.08-0.28-1.34-0.6-1.43-0.47c-0.8,1.18-1.55,2.41-2.12,3.71
	C385.41,671.78,385.53,672.59,385.46,673.33z M386.39,438.14c0.7-2.53-0.39-3.73-1.4-4.79c-0.42-0.43-1.43-0.29-2.17-0.41
	c-0.02,0.75-0.36,1.78,0,2.21C383.7,436.19,384.91,436.94,386.39,438.14z M234.1,441.03c-0.57,2.58,0.5,3.63,1.59,4.53
	c0.45,0.37,1.25,0.31,1.89,0.44c0.03-0.77,0.39-1.81,0.02-2.24C236.79,442.81,235.62,442.16,234.1,441.03z M221.97,311.24
	c0.75-2.26-0.1-4.38-2.19-6.06C218.74,306.84,218.74,306.84,221.97,311.24z M224.27,431.76c1.7-2.11,1.65-2.76-0.15-4.63
	C222.74,429.11,222.74,429.44,224.27,431.76z M234.92,322.84c-1.09-0.85-1.82-1.42-2.55-1.99c-0.36,0.53-0.98,1.04-1.01,1.58
	c-0.05,1.03,0.27,2.22,1.59,2.14C233.52,324.52,234.04,323.65,234.92,322.84z M212.48,293.59c-0.11,1.58-0.92,3.29,0.98,4.52
	C214.76,295.7,214.65,294.97,212.48,293.59z M221.84,357.58c-0.72-0.76-1.09-1.44-1.64-1.66c-0.82-0.33-1.83,0.86-1.66,2.09
	c0.07,0.53,0.77,0.98,1.18,1.46C220.36,358.9,220.99,358.34,221.84,357.58z M396.71,568.85c0.6,1.25,0.93,2.17,1.47,2.94
	c0.2,0.29,1.01,0.44,1.34,0.27c0.34-0.18,0.66-0.86,0.6-1.26C399.9,569.39,399.03,568.64,396.71,568.85z M353.23,704.28
	c0.63-1.03,1.17-1.71,1.42-2.48c0.06-0.2-0.78-0.98-1.24-1.01c-1.15-0.09-1.73,0.72-1.57,1.8
	C351.91,703.06,352.52,703.45,353.23,704.28z M215.52,413.49c-1.15,0.84-1.35,1.88-0.48,3.05c0.14,0.19,0.93,0.21,1.06,0.04
	C216.95,415.48,217.13,414.38,215.52,413.49z M396.73,656.64c2.13,0.03,2.48-0.39,2.22-2.88
	C397.55,654.31,396.79,655.16,396.73,656.64z M394.73,536.97c1.16-0.7,1.34-1.5,0.67-2.39c-0.15-0.19-0.87-0.25-1.04-0.08
	C393.57,535.3,393.69,536.11,394.73,536.97z M407.46,583.76c-0.38,0.44-0.75,0.7-0.71,0.87c0.08,0.34,0.38,0.62,0.58,0.93
	c0.21-0.2,0.58-0.4,0.58-0.6C407.92,584.63,407.68,584.3,407.46,583.76z M403.35,465.13c0.3-0.69,0.6-1.05,0.52-1.3
	c-0.08-0.25-0.51-0.43-0.82-0.52c-0.07-0.02-0.43,0.45-0.4,0.66C402.69,464.26,402.97,464.52,403.35,465.13z M217.59,234.55
	c-0.24,0.37-0.44,0.57-0.49,0.81c-0.03,0.13,0.18,0.31,0.28,0.47c0.21-0.15,0.54-0.25,0.6-0.45
	C218.03,235.21,217.79,234.95,217.59,234.55z"/>
<path d="M266.43,911.84c-13.66,0-27.31,0.03-40.97-0.04c-1.62-0.01-3.23-0.55-4.85-0.84c-1.23-0.22-2.45-0.55-3.68-0.62
	c-4.58-0.27-9.16-0.37-13.74-0.7c-4.77-0.35-9.53-0.9-14.3-1.36c-0.1-0.01-0.21-0.04-0.31-0.05c-9.31-0.98-18.63-1.95-27.94-2.92
	c-0.31-0.03-0.63-0.01-0.94-0.06c-6.97-1.17-13.94-2.35-20.91-3.52c-1.44-0.24-2.88-0.43-4.31-0.69c-2.35-0.43-4.69-0.89-7.03-1.34
	c-0.3-0.06-0.59-0.23-0.89-0.29c-4.79-0.91-9.57-1.81-14.36-2.71c-0.2-0.04-0.42-0.01-0.62-0.06c-4.41-1.15-8.81-2.3-13.22-3.45
	c-1-0.26-2.01-0.48-3.02-0.74c-1.6-0.42-3.2-0.84-4.8-1.27c-1.1-0.3-2.2-0.61-3.29-0.93c-1.38-0.41-2.76-0.83-4.14-1.27
	c-0.39-0.13-0.75-0.38-1.15-0.49c-3.29-0.92-6.62-1.69-9.86-2.75c-2.94-0.96-5.77-2.24-8.66-3.35c-2.41-0.93-4.89-1.72-7.25-2.76
	c-5.87-2.58-11.76-5.13-17.5-7.98c-4.17-2.07-8.17-4.51-12.15-6.95c-7.06-4.32-13.35-9.61-18.63-15.97
	c-2.29-2.76-3.98-5.97-5.47-9.33c-2.87-6.47-2.63-13.11-2.13-19.86c0.09-1.25,0.14-2.5,0.3-3.73c0.14-1.02,0.27-2.08,0.66-3.01
	c1.09-2.56,2.34-5.05,3.49-7.59c3.64-8.04,9.33-14.45,16.11-19.93c1.44-1.16,3.19-1.96,4.82-2.87c1.54-0.85,3.62-0.67,4.36,0.3
	c0.66,0.85,0.55,2.94-0.31,4.16c-0.48,0.67-1.14,1.21-1.68,1.85c-3.01,3.55-6.2,6.97-8.95,10.72c-2.18,2.98-3.93,6.29-5.64,9.58
	c-1.37,2.64-2.47,5.43-3.5,8.23c-0.49,1.33-0.64,2.82-0.78,4.25c-0.69,7.35,2.36,13.37,7.02,18.66
	c5.11,5.81,10.91,10.94,17.52,14.96c5.66,3.45,11.62,6.42,17.54,9.44c4.06,2.07,8.22,3.94,12.41,5.72c2.75,1.16,5.65,1.98,8.48,2.98
	c3.02,1.06,6.03,2.16,9.06,3.23c0.98,0.34,1.97,0.63,2.96,0.95c1.38,0.44,2.74,0.92,4.13,1.33c1.09,0.33,2.19,0.6,3.3,0.87
	c1,0.25,2.02,0.44,3.02,0.71c1.79,0.48,3.58,1,5.36,1.5c1,0.28,2,0.56,3,0.82c1.7,0.44,3.4,0.89,5.11,1.3
	c4.63,1.1,9.27,2.18,13.9,3.27c0.4,0.1,0.77,0.34,1.18,0.42c5,0.93,10,1.83,15,2.75c2.14,0.39,4.28,0.81,6.42,1.22
	c0.41,0.08,0.79,0.28,1.2,0.34c6.37,0.92,12.74,1.84,19.12,2.73c3.09,0.43,6.19,0.79,9.28,1.22c1.55,0.22,3.08,0.72,4.62,0.74
	c11.27,0.14,22.32,2.76,33.63,2.69c6.85-0.04,13.7,1.23,20.57,1.49c9.37,0.35,18.76,0.43,28.14,0.4c13.76-0.05,27.51-0.27,41.27-0.5
	c2.91-0.05,5.81-0.56,8.72-0.76c5.41-0.36,10.82-0.58,16.22-0.97c4.04-0.3,8.08-0.78,12.11-1.19c2.8-0.28,5.59-0.6,8.39-0.85
	c1.24-0.11,2.54,0.1,3.74-0.14c8.06-1.62,16.29-2.04,24.39-3.41c6.23-1.05,12.48-2.12,18.74-3.05c1.94-0.29,3.86-0.76,5.79-1.17
	c0.41-0.09,0.78-0.31,1.19-0.38c4.88-0.94,9.77-1.85,14.66-2.78c0.92-0.17,1.84-0.34,2.75-0.55c2.31-0.54,4.63-1.09,6.93-1.68
	c1-0.26,1.98-0.61,2.98-0.91c1.29-0.38,2.59-0.73,3.88-1.1c1.59-0.45,3.17-0.9,4.76-1.37c0.4-0.12,0.76-0.35,1.16-0.45
	c3.4-0.9,6.83-1.67,10.19-2.69c3.07-0.93,6.05-2.12,9.07-3.2c2.92-1.05,5.84-2.08,8.74-3.16c2.23-0.83,4.5-1.58,6.65-2.59
	c8.36-3.93,16.76-7.8,24.59-12.75c7.63-4.81,14.46-10.64,20.09-17.65c4.83-6.01,6.42-13.16,4.92-20.82
	c-0.27-1.4-1.53-2.67-1.57-4.02c-0.1-3.07-1.74-5.56-2.91-8.09c-2.43-5.27-5.92-9.94-10.1-14.05c-1.24-1.22-2.16-2.75-3.26-4.11
	c-0.57-0.7-1.13-1.45-1.85-1.95c-0.91-0.63-1.41-1.45-0.9-2.35c0.33-0.59,1.24-1.16,1.93-1.21c4.2-0.32,7.82,1.33,10.82,4.07
	c4.08,3.73,7.61,7.95,10.16,12.92c1.17,2.29,2.79,4.45,3.48,6.87c0.96,3.36,3.16,6.32,3.09,10c-0.02,0.91,0.14,1.96,0.59,2.72
	c1.95,3.32,1.09,6.91,1.16,10.4c0.01,0.67-0.41,1.36-0.66,2.04c-0.26,0.68-0.7,1.33-0.8,2.02c-1.23,8.81-6.38,15.3-12.36,21.38
	c-5.09,5.16-10.93,9.28-17.17,12.87c-4.76,2.74-9.52,5.5-14.43,7.95c-3.88,1.94-7.96,3.47-11.98,5.1
	c-4.89,1.97-9.77,3.95-14.74,5.72c-3.21,1.14-6.55,1.91-9.82,2.87c-0.89,0.26-1.76,0.61-2.64,0.91c-1.08,0.36-2.15,0.72-3.24,1.05
	c-1.49,0.44-2.99,0.84-4.48,1.28c-0.3,0.09-0.57,0.28-0.87,0.35c-4.13,0.96-8.27,1.9-12.41,2.85c-0.91,0.21-1.82,0.43-2.71,0.69
	c-0.5,0.15-0.94,0.48-1.44,0.59c-4.87,1.01-9.76,2-14.64,2.98c-0.4,0.08-0.84,0.01-1.25,0.09c-5.1,0.99-10.19,1.99-15.28,3.01
	c-0.71,0.14-1.4,0.46-2.11,0.56c-6.79,0.96-13.59,1.89-20.39,2.81c-0.62,0.08-1.25,0.03-1.87,0.11c-9.19,1.11-18.38,2.28-27.58,3.32
	c-3.83,0.43-7.68,0.65-11.53,0.88c-4.37,0.26-8.75,0.34-13.11,0.65c-1.63,0.12-3.23,0.68-4.86,0.99c-1.21,0.23-2.44,0.52-3.66,0.52
	c-13.76,0.04-27.52,0.02-41.28,0.02C266.43,911.83,266.43,911.83,266.43,911.84z"/>
<path d="M408.16,484.59c0.21,0.94,0.42,1.88,0.69,3.09c-1.84-0.77-1.84-0.77-1.43-2.92C407.66,484.7,407.91,484.64,408.16,484.59z"
	/>
<path d="M409.47,600.77c1.61,0.88,1.19,1.84,0.9,3.05C408.72,603.13,408.97,602.15,409.47,600.77z"/>
</svg>
