<?xml version="1.0" encoding="utf-8"?>
<!-- Generator: Adobe Illustrator 27.1.1, SVG Export Plug-In . SVG Version: 6.00 Build 0)  -->
<svg version="1.1" id="Layer_1" xmlns="http://www.w3.org/2000/svg" xmlns:xlink="http://www.w3.org/1999/xlink" x="0px" y="0px"
	 viewBox="0 0 668.13 854.84" style="enable-background:new 0 0 668.13 854.84;" xml:space="preserve">
<path d="M214.98,375.95c-2.23-1.74-3.8-3.11-5.5-4.28c-3.58-2.45-7.22-4.81-10.87-7.16c-1.44-0.93-2.95-1.76-4.47-2.57
	c-2.21-1.17-4.73-1.94-6.64-3.47c-4.31-3.44-9.67-4.76-14.23-7.6c-5.92-3.7-12.53-6.24-17.93-10.79c-0.3-0.25-0.65-0.46-1-0.64
	c-5.32-2.69-9.98-6.36-14.89-9.66c-5.84-3.92-10.67-9.03-16.41-12.88c-6.86-4.61-11.06-11.53-16.79-17.08
	c-7.51-7.27-11.87-16.61-16.29-25.85c-0.75-1.56-1.05-3.66-0.73-5.35c0.56-2.96,0.21-5.76-0.24-8.63c-0.2-1.31-0.03-2.69-0.03-4.03
	c0.32-0.1,0.64-0.21,0.97-0.31c3.37,4.59,6.89,9.09,10.09,13.81c4.24,6.25,9.36,11.7,14.58,17.1c1.09,1.13,2.06,2.38,3.07,3.59
	c1.29,1.54,2.68,2.86,4.79,2.66c0-4.97,0.1-9.77-0.03-14.56c-0.12-4.32-0.46-8.64-0.79-12.96c-0.2-2.62-0.66-5.22-0.82-7.84
	c-0.42-6.96-0.73-13.92-1.13-20.88c-0.07-1.17-0.31-2.34-0.51-3.5c-0.11-0.65-0.62-1.41-0.41-1.89c1.65-3.81,0-7.58-0.02-11.35
	c-0.02-3.53-1.26-6.73-3.55-9.47c-1.95-2.32-3.86-4.69-5.84-6.99c-1.52-1.77-2.98-1.82-4.12,0.17c-3.4,5.93-6.86,11.86-9.84,18.01
	c-2.64,5.43-4.67,11.16-7,16.75c-0.14,0.34-0.47,0.59-1.13,1.4c-0.41-1.48-0.91-2.52-0.97-3.59c-0.27-5.67-0.52-11.34-0.59-17.01
	c-0.04-3.19,0.64-6.25,2.14-9.17c0.89-1.73,1.02-3.84,1.87-5.6c1.76-3.67,3.59-7.35,5.76-10.79c1.27-2.02,1.25-3.44-0.06-5.35
	c-2.54-3.68-4.88-7.51-7.27-11.3c-3.08-4.87-4.4-10.05-2.4-16.02c-1.11,0.23-1.94,0.4-3.16,0.66c-1.44-4.41,0.6-8.65,0.16-12.98
	c2.2,2.75,5.51,4.44,6.39,8.08c0.12,0.49,0.5,0.93,0.8,1.36c2.19,3.12,4.35,6.26,6.6,9.33c0.57,0.77,1.43,1.32,2.94,2.67
	c0.04-3.4,0.21-5.84,0.08-8.26c-0.31-5.4-0.84-10.78-1.15-16.18c-0.32-5.67-0.51-11.34-0.71-17.01c-0.19-5.39-0.18-10.8-0.58-16.18
	c-0.17-2.27-1.16-4.48-1.8-6.78c-2.55,0.46-3.12,2.42-3.89,3.95c-1.71,3.39-3.51,6.81-4.63,10.42c-1.27,4.06-3.27,7.6-5.81,10.96
	c-0.1-7.08-2.03-14.08-0.79-21.14c0.49-2.82,1.4-5.59,2.34-8.31c2.37-6.86,4.89-13.63,9.47-19.46c3-3.82,5.58-7.98,8.44-11.93
	c0.84-1.16,1.99-2.1,3-3.14c4.95-5.09,9.81-10.27,14.9-15.21c2.05-1.99,4.57-3.53,6.97-5.13c4.59-3.06,9.15-6.2,13.9-8.99
	c8.29-4.87,17.07-8.76,26.07-12.12c5.76-2.15,11.75-3.72,17.35-6.21c4.29-1.91,8.89-2.44,13.21-4.02c0.62-0.23,1.25-0.51,1.9-0.55
	c7.64-0.58,14.63-4.06,22.22-4.94c3.9-0.45,7.68-1.81,11.56-2.53c3.61-0.67,7.27-1.12,10.92-1.52c6.41-0.7,12.82-1.34,19.25-1.88
	c5.78-0.49,11.57-0.88,17.36-1.22c4.19-0.25,8.42,0.21,12.55-1.02c0.84-0.25,1.85-0.17,2.74,0.01c2.14,0.44,4.12,0.45,6.08-0.83
	c1.53-1,3.17-0.91,4.85,0.08c3.08,1.82,6.3,1.18,9.5,0.24c1.49-0.43,2.99-1,4.51-1.07c3.15-0.15,3.68,0.58,3.54,3.66
	c-0.18,4.22-0.51,8.45-0.34,12.67c0.18,4.72,0.15,9.42,0.06,14.14c-0.14,7.2-0.29,14.55,0.93,21.59c1.62,9.32,0.83,18.64,1.57,27.92
	c0.67,8.39,1.43,16.78,2.06,25.18c0.18,2.35-0.03,4.74,0.02,7.1c0.1,4.48,0.37,8.95,0.38,13.43c0.01,4.27-1.45,5.09-5.65,4.49
	c-3.93-0.57-8.04-1.94-11.89,0.59c-0.31,0.21-0.76,0.29-1.14,0.28c-3.66-0.13-7.22-1.07-11.03-0.49c-1.68,0.26-3.56-0.4-5.57,0.28
	c-2.31,0.78-4.95,0.97-7.41,0.83c-5.05-0.28-9.98,1.38-14.89,1.17c-8.42-0.37-16.38,2.43-24.7,2.67c-4.54,0.13-9.04,1.65-13.57,2.52
	c-1.16,0.22-2.34,0.35-3.52,0.49c-0.65,0.07-1.46-0.17-1.95,0.13c-4.69,2.88-10.25,1.89-15.25,3.51
	c-7.24,2.35-14.72,3.95-21.93,6.37c-6.71,2.25-13.21,5.16-19.8,7.77c-1.83,0.72-3.72,1.32-5.5,2.16c-5.2,2.45-10.46,4.8-15.49,7.55
	c-3.65,2-6.97,4.61-10.46,6.91c-2.4,1.59-4.91,3.02-7.24,4.7c-1.48,1.06-2.7,2.47-4.09,3.66c-1.69,1.44-3.48,2.77-5.17,4.22
	c-0.98,0.84-2.11,1.7-2.65,2.81c-0.32,0.67,0.04,2.21,0.63,2.69c3.87,3.15,7.78,6.27,11.89,9.09c6.2,4.25,12.52,8.33,18.89,12.31
	c6.58,4.11,13.3,8,19.96,11.98c0.57,0.34,1.16,0.63,1.75,0.93c3.28,1.65,6.66,3.13,9.83,4.98c6.26,3.65,12.47,7.4,18.59,11.29
	c4.56,2.9,8.99,6,13.37,9.16c1.79,1.29,3.23,3.05,4.96,4.43c1.95,1.56,4.04,2.93,6.07,4.38c0.43,0.31,0.99,0.53,1.25,0.95
	c4.24,6.59,10.89,11.06,15.31,17.52c4.26,6.22,8.26,12.58,11.26,19.51c1.26,2.91,0.82,3.94-1.8,6.04c1.11,1.87,2.59,3.56,3.16,5.52
	c0.69,2.38-0.09,4.85-0.8,7.67c-2.82-2.2-4.99-4.17-6.47-6.9c-2.19-4.03-4.87-7.71-7.54-11.44c-3.27-4.58-7.51-8.13-10.85-12.46
	c-3.17-4.1-7.7-6.35-11.16-9.94c-0.56-0.59-1.55-0.77-2.89-1.39c-0.3,1.65-0.75,2.88-0.7,4.09c0.24,5.67,0.62,11.33,0.93,16.99
	c0.19,3.54,0.34,7.08,0.53,10.62c0.35,6.18,0.74,12.36,1.07,18.54c0.1,1.84,0,3.7,0.11,5.54c0.41,6.59,0.61,13.2,1.41,19.74
	c0.52,4.25,2.33,8.09,6.49,10.31c1.14,0.61,2.14,1.51,3.1,2.39c2.42,2.23,3.04,2.19,5.69,0.07c5.99-4.81,9.9-11.26,13.84-17.64
	c2.88-4.67,5.28-9.64,7.93-14.55c1.94,2.86,2.29,6.68,0.65,9.06c-0.94,1.36-1.28,2.49-0.33,3.95c2.62,4.05,2.07,8.33,0.59,12.55
	c-2.04,5.79-5.29,10.89-9.07,15.71c-1.19,1.52-1.99,3.4-2.7,5.21c-0.28,0.72-0.08,1.86,0.33,2.57c0.92,1.59,1.95,3.17,3.21,4.51
	c4.4,4.7,7.97,10.06,9.98,16.04c1.29,3.84,3.29,7.69,2.92,12.08c-0.15,1.79,0.56,3.64,0.73,5.48c0.2,2.22,0.33,4.46,0.27,6.69
	c-0.01,0.59-0.76,1.58-1.25,1.63c-0.55,0.06-1.45-0.59-1.76-1.17c-1.44-2.67-2.62-5.49-4.1-8.13c-1.22-2.18-2.67-4.23-4.1-6.28
	c-2.48-3.57-5-7.11-7.57-10.62c-0.96-1.31-2.11-2.48-3.49-4.08c-0.57,1.15-1.14,1.74-1.06,2.23c0.98,5.85-0.16,11.85,1.44,17.69
	c0.64,2.33,0.29,4.94,0.37,7.42c0.2,6.46,0.32,12.91,0.62,19.37c0.14,3.15,0.68,6.27,0.89,9.42c0.18,2.88,0.15,5.77,0.22,8.66
	c0.02,0.79-0.07,1.62,0.16,2.35c0.38,1.25,1.32,1.61,2.48,0.99c0.44-0.24,0.85-0.66,1.11-1.09c3.49-5.87,8.9-10.52,10.91-17.34
	c0.25-0.86,0.92-1.59,1.39-2.38c1.38-2.33,2.76-4.67,4.37-7.39c0.06,2.65,0.06,5.18,0.2,7.7c0.12,2.09,0.23,4.21,0.66,6.25
	c0.84,4.01,0.72,7.82-1.16,11.58c-0.99,1.99-1.55,4.19-2.34,6.28c-3.32,8.87-9.96,15.42-15.84,22.49c-1.31,1.58-3.25,2.64-4.89,3.95
	c-0.91,0.73-1.81,1.47-2.7,2.22c-1.1,0.92-2.17,1.88-3.29,2.78c-0.41,0.32-1.05,0.4-1.37,0.77c-4.94,5.76-12.46,7.76-18.15,12.5
	c-2.63,2.2-6.3,3.14-9.44,4.76c-2.44,1.26-4.69,2.92-7.21,3.98c-5.77,2.45-11.67,4.62-17.49,6.96c-4.03,1.62-8.01,3.38-12.03,5.01
	c-1.09,0.44-2.26,0.66-3.38,1.02c-1.96,0.62-3.91,1.27-6.3,2.06c-0.18-0.28-0.99-0.96-1.07-1.72c-0.35-3.37-0.5-6.77-0.69-10.16
	c-0.04-0.65,0.3-1.38,0.09-1.95c-1.55-4.36-0.74-8.88-1-13.33c-0.49-8.42-1.14-16.83-1.56-25.25c-0.31-6.23-1.41-12.37-0.56-18.72
	c0.51-3.78-0.4-7.87-1.24-11.69c-1.2-5.46-1.61-10.95-1.81-16.5c-0.22-6.05-0.86-12.1-1-18.15c-0.07-2.72,0.62-5.4-0.44-8.15
	c-0.55-1.42,0.82-2.37,2.1-2.92c3.4-1.46,6.8-2.91,10.22-4.33c7.53-3.14,14.96-6.54,22.63-9.3c7.09-2.56,13.28-6.82,20.16-9.74
	c2.88-1.22,5.56-2.98,8.22-4.67C212.2,378.77,213.23,377.54,214.98,375.95z M189.22,115.93c-0.14,0.03-0.28,0.06-0.42,0.09
	c0,0.92,0,1.85,0,2.77c0.01,3.38,0.73,4.08,4.09,4.45c2.98,0.33,5.75-0.04,8.39-1.54c1.02-0.58,2.16-1.02,3.3-1.27
	c5.91-1.29,11.83-2.55,17.77-3.7c4.53-0.88,9.08-1.64,13.63-2.37c7.52-1.21,15.03-2.49,22.58-3.47c7.02-0.91,14.08-1.66,21.14-2.1
	c3.1-0.19,6.17-1.54,9.38-0.35c0.75,0.28,1.79-0.25,2.7-0.34c1.04-0.1,2.1-0.26,3.12-0.15c4.13,0.48,8.18-0.97,12.33-0.42
	c0.95,0.13,2.03-0.48,3.02-0.85c2.19-0.82,3.42-2.25,3.28-4.79c-0.18-3.28-0.11-6.58-0.21-9.87c-0.15-4.61-0.05-9.25-0.66-13.8
	c-0.42-3.12-0.93-6.17-0.96-9.37c-0.09-12.1-1.53-24.15-1.7-36.26c-0.02-1.55-0.35-3.28-1.13-4.57c-0.82-1.35-2.25-3.05-3.6-3.24
	c-4.53-0.63-9.15-1-13.71-0.84c-5.22,0.18-10.42,1.09-15.63,1.58c-3.38,0.32-6.78,0.37-10.15,0.7c-4.06,0.4-8.09,0.98-12.14,1.44
	c-4.45,0.51-8.91,0.92-13.35,1.46c-1.95,0.24-3.87,0.72-5.81,1.04c-6.63,1.1-13.46,1.52-19.83,3.46
	c-5.39,1.65-11.01,2.24-16.29,4.18c-2.09,0.76-4.22,1.45-6.39,1.93c-4.72,1.04-7.82,4.8-7.61,9.59c0.25,5.67,0.51,11.34,0.89,17.01
	c0.37,5.38,1.09,10.73,1.31,16.12c0.18,4.46-0.42,8.94,1.11,13.3c0.27,0.78-0.18,1.8-0.18,2.71c0.02,3.41-0.09,6.84,0.2,10.23
	C187.9,111.13,188.69,113.52,189.22,115.93z M207.6,348.17c1.8-1.59,2.11-3.13,1.89-4.96c-0.25-2.08-0.25-4.19-0.47-6.28
	c-0.38-3.6,0.75-7.45-1.86-10.69c-0.29-0.36-0.27-1.01-0.28-1.53c-0.07-4.99-0.06-9.98-0.19-14.97c-0.14-5.54,0.07-11.14-0.71-16.59
	c-0.93-6.55-1.01-13.11-1.31-19.66c-0.16-3.43-1.19-6.22-3.43-8.57c-1.72-1.8-3.62-3.57-5.75-4.82
	c-6.24-3.66-12.64-7.04-18.97-10.54c-4.5-2.49-9.03-4.93-13.49-7.51c-6.6-3.82-13.19-7.64-19.69-11.63
	c-4.6-2.82-8.99-5.99-13.56-8.86c-2.14-1.34-3.25-0.7-3.26,1.8c-0.02,4.76-0.25,9.56,0.28,14.26c0.91,8.03,1.16,16.03,0.75,24.08
	c-0.05,1.04,0.07,2.1,0.21,3.14c0.46,3.51,0.94,7.02,1.46,10.51c0.37,2.44,1.06,4.85,1.2,7.3c0.2,3.4,0.07,6.83-0.02,10.24
	c-0.12,4.62,1.05,8.64,4.91,11.52c3.36,2.5,6.72,5.01,10.15,7.41c1.62,1.13,3.56,1.82,5.08,3.05c7.95,6.41,17.26,10.56,25.97,15.69
	c7.56,4.46,15.54,8.22,22.96,12.97C202.04,345.17,204.74,346.55,207.6,348.17z M107.2,175.64c1.19-1.07,2.09-1.63,2.65-2.43
	c5.65-8.1,13.55-13.87,21.01-20.03c4.04-3.33,8.72-5.91,13.24-8.61c3.73-2.22,7.66-4.08,11.49-6.12c1.51-0.8,2.93-1.8,4.49-2.47
	c3.73-1.59,7.54-3,11.28-4.56c4.75-1.98,7.38-6.44,6.86-11.6c-0.71-6.89-1.56-13.77-2.17-20.67c-0.35-4.05-0.28-8.14-0.5-12.2
	c-0.51-9.6-1.09-19.2-1.61-28.8c-0.14-2.5-0.1-5.01-0.28-7.51c-0.1-1.34-0.46-2.82-2.21-2.76c-1.96,0.07-4.07,0.04-5.82,0.76
	c-4.99,2.05-9.93,4.28-14.72,6.76c-5.49,2.84-10.94,5.8-16.15,9.11c-5.65,3.59-11.28,7.31-16.4,11.59
	c-4.33,3.62-8.16,7.92-11.77,12.28c-2.87,3.46-4.85,7.47-4.57,12.33c0.65,11.17,1.25,22.34,1.58,33.52
	c0.21,7.2,1.42,14.3,1.09,21.58c-0.26,5.85,1.01,11.76,1.63,17.64C106.38,173.93,106.69,174.39,107.2,175.64z M164.39,504.13
	c-0.07,0.98-0.12,1.38-0.12,1.78c0.04,2.98,0.71,3.59,3.59,2.81c1.62-0.44,3.07-1.51,4.69-1.98c7.63-2.2,14.72-5.68,21.88-9.01
	c1.67-0.77,3.43-1.34,5.06-2.18c2.68-1.37,5.29-2.88,7.92-4.34c1.5-0.83,3.01-1.64,4.46-2.55c3.34-2.09,6.75-4.1,9.96-6.38
	c3.52-2.5,6.88-5.23,10.21-7.98c0.63-0.52,1.03-1.6,1.12-2.47c0.3-2.74,0.57-5.51,0.54-8.26c-0.04-3.56-0.38-7.12-0.59-10.67
	c-0.37-6.4-0.72-12.81-1.12-19.21c-0.22-3.54-0.65-7.07-0.78-10.62c-0.3-8.14-0.44-16.3-0.73-24.44c-0.06-1.57-0.39-3.15-0.81-4.68
	c-0.37-1.36-1.45-2.01-2.75-1.27c-2.17,1.25-4.47,2.42-6.28,4.1c-3.25,3.02-7.07,4.98-10.96,6.93c-1.62,0.81-3.1,1.93-4.63,2.93
	c-0.76,0.5-1.43,1.19-2.24,1.58c-7.22,3.54-14.46,7.04-21.72,10.52c-0.94,0.45-1.99,0.69-2.98,1.04c-2.6,0.91-5.37,1.52-7.73,2.86
	c-1.76,1-3.34,1.81-5.39,2.07c-3.87,0.5-5.42,2.16-5.05,6.09c0.9,9.58,0.02,19.21,1.51,28.81c1.05,6.73,0.46,13.71,0.75,20.57
	c0.18,4.31-0.03,8.81,1.17,12.86C164.56,497.01,163.04,500.94,164.39,504.13z M273.91,16.42c2.1,0,4.46,0.05,6.82-0.02
	c1.44-0.04,2.65-0.61,2.75-2.25c0.09-1.54-0.82-2.46-2.29-2.76c-4.07-0.84-8.11-0.52-12.12,0.45c-1.44,0.35-2.4,1.22-2.09,2.84
	c0.32,1.68,1.46,2.45,3.16,2.28C271.3,16.84,272.46,16.63,273.91,16.42z M273.93,123.47c4.81,0.57,9.04,0.02,13.19-1.33
	c1.77-0.58,2.05-1.9,1.74-3.45c-0.34-1.69-1.51-1.83-3.01-1.58c-1.92,0.32-3.88,0.48-5.83,0.6c-1.44,0.09-2.89-0.04-4.33,0.04
	c-2.14,0.12-2.81,0.88-2.57,3.02C273.22,121.65,273.63,122.49,273.93,123.47z M250.56,125.86c0.06,0.23,0.12,0.46,0.19,0.69
	c1.95-0.59,4-0.97,5.83-1.83c1.52-0.71,1.53-2.37,1.05-3.81c-0.5-1.49-1.78-1.18-2.98-1.02c-1.68,0.22-3.41,0.18-5.06,0.51
	c-1.91,0.38-3.83,0.89-5.63,1.64c-1.51,0.62-2.07,2.64-1.4,4.02c0.7,1.45,1.86,1.04,3.04,0.77
	C247.23,126.44,248.9,126.17,250.56,125.86z M309.94,122.07c0.02,0.11,0.05,0.22,0.07,0.33c2.42-0.51,4.89-0.87,7.24-1.6
	c0.81-0.25,1.79-1.37,1.86-2.17c0.07-0.82-0.69-1.98-1.44-2.52c-0.77-0.56-1.97-0.8-2.95-0.73c-3,0.19-5.98,0.58-8.97,0.9
	c-1.71,0.18-2.23,1.16-1.79,2.75c0.45,1.66,1.33,2.85,3.22,2.92C308.1,121.98,309.02,122.03,309.94,122.07z M302.44,9.02
	c-0.9,0.19-1.7,0.26-2.43,0.52c-1.87,0.69-2.62,2.56-1.85,4.52c0.73,1.86,2,1.5,3.56,1.09c1.31-0.35,2.78-0.2,4.16-0.09
	c1.16,0.09,2.3,0.63,3.46,0.63c2.14,0.01,3.99-1.98,3.97-4.09c-0.01-1.38-0.77-2.61-2.11-2.19
	C308.14,10.37,305.25,10.05,302.44,9.02z M252.8,16.78c-1.3-1.24-2.21-2.81-3.02-2.76c-4.05,0.26-8.11,0.81-12.11,1.54
	c-1.57,0.29-1.73,1.87-1.29,3.25c0.46,1.45,1.51,2.01,3.08,1.76c2.32-0.37,4.65-0.64,6.98-0.91c1.05-0.12,2.23,0.14,3.13-0.26
	C250.61,18.95,251.42,17.95,252.8,16.78z M223.07,124.74c-2.26,0.66-5.06,1.33-7.76,2.32c-1.65,0.6-2.3,2.75-1.63,4.37
	c0.75,1.81,2.17,1.51,3.67,1.14c2.29-0.56,4.6-1.01,6.9-1.52c2.12-0.47,3.48-1.81,3.38-3.29
	C227.5,126.02,225.84,124.77,223.07,124.74z M211.52,26.41c3.1-1.02,6.26-1.91,9.25-3.18c0.69-0.3,1.19-1.98,1.1-2.96
	c-0.13-1.41-1.48-1.72-2.76-1.54c-2.35,0.33-4.69,0.67-7.02,1.11c-0.76,0.14-1.5,0.51-2.18,0.91c-1.29,0.74-2.58,1.61-2.09,3.39
	C208.32,25.9,209.88,25.93,211.52,26.41z M187.38,135.78c-0.08,2.9,0.95,4.5,2.36,4.03c3.19-1.06,6.3-2.41,9.39-3.75
	c1.57-0.68,1.42-2.01,0.85-3.34s-1.62-1.61-2.91-1.24c-2.51,0.73-5.07,1.33-7.5,2.29C188.56,134.18,187.84,135.34,187.38,135.78z
	 M161.91,417.41c3.18-1.25,6.11-2.36,9-3.57c0.42-0.18,0.76-0.74,0.97-1.2c0.79-1.67-0.85-4.41-2.5-3.9
	c-3.11,0.95-6.16,2.23-9.06,3.71c-0.64,0.32-0.95,2.12-0.72,3.07C159.78,416.25,161.03,416.73,161.91,417.41z M177.55,517.87
	c-0.05-1.92-0.61-3.19-2.06-2.72c-3.2,1.04-6.34,2.32-9.37,3.78c-0.61,0.29-1.07,1.92-0.83,2.69c0.23,0.73,1.55,1.71,2.25,1.61
	c2.81-0.4,5.8-0.59,8.02-2.7C176.46,519.67,177.08,518.52,177.55,517.87z M184.16,33.54c2.78-1.13,5.14-1.94,7.36-3.03
	c2.33-1.14,3.19-3.24,2.22-4.69c-0.83-1.24-2.97-1.35-5.04-0.24c-0.34,0.18-0.64,0.46-0.99,0.64c-1.38,0.7-2.74,1.48-4.17,2.04
	c-1.26,0.49-2.28,1.15-1.65,2.54C182.35,31.82,183.35,32.6,184.16,33.54z M195.47,401.34c0.06-2.21-1.17-3.49-2.71-2.83
	c-2.61,1.13-5.08,2.65-7.46,4.23c-0.6,0.4-0.84,1.63-0.89,2.5c-0.11,1.87,1.21,2.69,2.83,1.79c2.3-1.28,4.56-2.62,6.77-4.05
	C194.71,402.52,195.16,401.7,195.47,401.34z M167.73,33.49c-2.32,0.87-4.42,1.58-6.46,2.43c-2.78,1.15-3.36,2.74-2.23,6.06
	c2.67-0.96,5.39-1.81,8-2.93C169.81,37.86,169.96,36.38,167.73,33.49z M174.59,139.98c-3.04-0.16-5.34,1.87-7.96,2.92
	c-1.85,0.74-2.24,1.93-1.39,3.36c0.88,1.49,2.1,1.88,3.67,1.02c1.26-0.69,2.53-1.38,3.84-1.96
	C175.45,144.14,175.7,143.53,174.59,139.98z M169.91,237.59c1.73-3.49,1.64-4.17-0.83-5.81c-1.19-0.79-2.49-1.42-3.76-2.08
	c-1.2-0.62-2.53-1.21-3.43,0.32c-0.83,1.42-0.55,2.89,0.91,3.75C165.11,235.13,167.53,236.32,169.91,237.59z M201,504.31
	c-2.68,1.1-4.9,2.07-7.15,2.94c-3.21,1.25-3.66,2.69-1.79,5.96C197.74,511.83,200.84,509.02,201,504.31z M169.22,334.79
	c-1.45,2.52-0.99,4.16,0.41,5.35c1.59,1.35,3.4,2.47,5.21,3.52c0.56,0.33,1.7,0.39,2.13,0.03c0.47-0.39,0.65-1.44,0.54-2.13
	c-0.14-0.86-0.49-1.98-1.14-2.43C174.16,337.61,171.79,336.33,169.22,334.79z M145.13,158.08c2.19-0.89,4.23-1.46,5.97-2.53
	c1.12-0.69,2.09-1.97,2.62-3.2c0.68-1.57-0.35-2.78-1.95-2.27c-2.08,0.66-4.12,1.62-5.96,2.79
	C144.05,154.01,143.77,155.78,145.13,158.08z M189.71,345.79c-1.12,3.48-1.25,4.55-0.08,5.34c2.21,1.5,4.4,3.19,7.29,3.55
	c1.34-2.17,0.96-3.99-0.88-5.27C194.16,348.09,192.04,347.1,189.71,345.79z M183.35,239.97c-1.2,2.82-1.05,4.04,0.66,5.44
	c1,0.82,2.09,1.61,3.26,2.14c0.96,0.44,2.11,0.49,3.17,0.72c0.04-1.35,0.26-2.73,0.05-4.03c-0.1-0.59-1-1.17-1.66-1.53
	C187.12,241.77,185.35,240.96,183.35,239.97z M156.72,331.82c1.36-2.04,0.72-3.55-0.89-4.84c-1.23-0.99-2.51-1.9-3.78-2.83
	c-0.99-0.72-2.11-1.48-3.12-0.24c-0.95,1.17-0.76,2.65,0.32,3.58C151.42,329.33,153.61,331.25,156.72,331.82z M145.89,43.19
	c-1.47,0.8-2.64,1.3-3.66,2.03c-1.27,0.91-2.6,1.85-3.52,3.06c-0.47,0.63-0.09,1.9-0.09,2.88c0.84,0,1.76,0.22,2.5-0.05
	c1.09-0.4,2.04-1.16,3.06-1.76C146.84,47.79,146.94,47.52,145.89,43.19z M143.35,216.88c-1.66,1.99-1.55,3.65-0.23,4.96
	c1.28,1.27,2.86,2.27,4.42,3.2c1.03,0.61,2.52,0.89,3.05-0.47c0.34-0.88,0.1-2.59-0.55-3.13C148,219.74,145.64,218.4,143.35,216.88z
	 M212.64,388.02c-3.23,0.13-4.74,2.97-6.92,4.63c-0.98,0.74,0.31,2.64,1.77,2.71C210.99,395.54,213.74,391.75,212.64,388.02z
	 M212.22,501.6c3.45,0.01,5.75-1.65,7.42-4.06c0.84-1.21,0.62-2.76-0.81-3.73C214.33,495.48,212.04,498.05,212.22,501.6z
	 M207.62,356.56c-1.2,4.41,1.04,8.02,4.62,8.44c0.63,0.07,1.71-0.4,1.92-0.9c0.29-0.69,0.3-2.01-0.16-2.43
	C212.13,359.95,210.05,358.46,207.62,356.56z M201.51,252.29c-0.23,0.5-0.55,0.85-0.53,1.18c0.18,2.38,3.86,6.27,6.14,6.34
	c0.54,0.02,1.57-0.79,1.57-1.22c0.01-0.98-0.19-2.28-0.83-2.87C206.09,254.07,204.15,252.5,201.51,252.29z M139.58,317.91
	c0.08-2.32-4.75-5.98-6.76-4.99c-0.49,0.24-0.93,1.84-0.65,2.14c1.45,1.62,3.01,3.23,4.79,4.46
	C138.3,320.45,139.52,319.53,139.58,317.91z M229.98,490.79c2.54-1.02,5.42-4,5.64-5.84c0.07-0.56-0.17-1.41-0.58-1.72
	c-0.41-0.31-1.28-0.32-1.81-0.11C230.43,484.25,229.1,487.29,229.98,490.79z M127.32,55.72c-2.82,0.75-5.33,2.89-5.71,4.93
	c-0.12,0.68,0.14,1.51,0.47,2.15c0.13,0.25,0.98,0.31,1.41,0.18C126.32,62.11,127.99,59.04,127.32,55.72z M129.78,169.05
	c1.42-2.61,5.82-3.17,4.44-7.71c-3.01-0.27-4.48,1.53-5.59,3.68C127.96,166.32,127.7,167.76,129.78,169.05z M127.19,206.41
	c-0.93,3.79,0.74,6.28,4.42,6.98C132.55,210.28,131.55,208.63,127.19,206.41z M114.34,181.34c2.89-0.55,3.7-2.73,4.64-4.69
	c0.2-0.42-0.08-1.39-0.47-1.7c-0.38-0.31-1.27-0.34-1.78-0.13C114.71,175.68,113.7,178.38,114.34,181.34z M218.19,264.28
	c-0.25,0.33-0.83,0.76-0.92,1.28c-0.3,1.74,2.45,5.14,4.14,5.06c0.54-0.03,1.36-0.78,1.49-1.33
	C223.17,268.12,219.64,264.27,218.19,264.28z M111.79,68.64c-2.12,1.29-3.5,2.7-3.51,4.86c0,0.64,0.87,1.29,1.34,1.94
	c0.95-1,2.04-1.9,2.8-3.03C113.25,71.18,113.53,69.79,111.79,68.64z M123.43,308.26c0.49-5.01-0.82-6.22-5.1-5.56
	C118.48,305.81,121.51,306,123.43,308.26z M240.97,364.33c-1.44,2.23-2.47,3.69-3.3,5.26c-0.17,0.32,0.33,1.2,0.75,1.56
	c0.23,0.2,1.02-0.02,1.39-0.28C241.54,369.69,241.98,367.96,240.97,364.33z M248.64,473.33c-0.88-0.87-1.3-1.64-1.87-1.78
	c-1.34-0.33-2.88,1.28-2.8,3.06c0.03,0.68,0.84,1.33,1.3,2C246.31,475.59,247.36,474.57,248.64,473.33z M112.99,196.75
	c0.44,2.69,1.9,3.99,4.01,4.93C117.9,197.77,117.21,196.86,112.99,196.75z M110.11,293.38c0.54-1.55-0.09-2.66-1.73-3.11
	c-0.39-0.11-1.39,0.53-1.41,0.87c-0.11,1.74,0.78,2.69,2.61,2.55C109.7,293.68,109.8,293.57,110.11,293.38z M99.63,82.71
	c-1.84,0.75-2.61,1.88-2.06,3.64c0.09,0.28,0.99,0.63,1.25,0.48C100.37,85.94,100.87,84.67,99.63,82.71z M89.47,100.47
	c1.52-1.29,1.81-2.07,0.55-3.26c-0.4,0.54-0.81,0.87-0.9,1.28C89.03,98.9,89.26,99.39,89.47,100.47z M242.84,294.38
	c0.45-0.11,0.9-0.22,1.36-0.33c-0.28-0.69-0.55-1.39-0.86-2.06c-0.01-0.03-0.63,0.13-0.63,0.2
	C242.71,292.91,242.78,293.64,242.84,294.38z M248.69,353.85c-0.46,0.63-0.85,1.07-1.09,1.58c-0.05,0.11,0.45,0.48,0.7,0.72
	c0.41-0.42,0.86-0.81,1.2-1.28C249.55,354.79,249.1,354.36,248.69,353.85z M248.78,398.46c0.11,0.84,0.09,1.45,0.3,1.95
	c0.16,0.38,0.62,0.63,1.22,1.18C250.9,399.88,250.77,398.95,248.78,398.46z M232.88,281.16c0.32-0.16,0.63-0.32,0.95-0.49
	c-0.37-0.62-0.7-1.26-1.13-1.83c-0.05-0.07-0.6,0.24-0.92,0.38C232.14,279.87,232.51,280.52,232.88,281.16z M240.34,386.04
	c-0.54-0.48-0.84-0.84-1.23-1.03c-0.1-0.05-0.67,0.46-0.65,0.7c0.02,0.29,0.37,0.67,0.67,0.78
	C239.35,386.57,239.71,386.29,240.34,386.04z"/>
<path d="M273.13,565.86c0,0.88-0.02,1.77,0,2.65c0.05,1.58,0.44,3.21,0.14,4.72c-1.55,7.69,1.02,14.94,2.31,22.29
	c0.46,2.59,2.14,5.12,3.75,7.33c2.16,2.97,4.84,5.55,7.21,8.37c1.95,2.32,3.75,4.77,5.67,7.12c8.93,10.94,17.88,21.86,26.82,32.79
	c0.17,0.2,0.39,0.37,0.53,0.58c2.74,4.02,6.01,5.63,10.68,2.86c1.66-0.98,3.69-1.4,5.61-1.82c0.74-0.16,1.84,0.17,2.39,0.69
	c0.34,0.32,0.19,1.58-0.18,2.12c-0.65,0.96-1.52,1.86-2.49,2.48c-1.99,1.26-4.16,2.24-6.16,3.48c-1.11,0.69-2.33,1.48-2.98,2.55
	c-5.05,8.18-10.83,15.89-15.12,24.56c-3.15,6.36-7.01,12.34-11.65,17.76c-1.06,1.24-2.54,0.91-2.96-0.7
	c-0.19-0.73-0.18-1.59,0.01-2.32c0.75-2.92,1.59-5.82,2.43-8.72c0.37-1.27,0.35-2.59-0.93-3.1c-3.88-1.52-7.58-3.89-11.95-3.57
	c-4.06,0.29-8.1,0.88-12.14,1.42c-4.57,0.61-9.11,1.43-13.68,1.94c-6.28,0.71-12.6,1.09-18.88,1.84
	c-6.52,0.78-12.89-0.19-19.32-0.96c-6.65-0.8-13.29-2.15-20.05-1c-0.87,0.15-1.82-0.29-2.73-0.27c-1.09,0.02-2.18,0.25-3.51,0.42
	c1.75,3.84,3.64,7.05,4.69,10.52c1.87,6.18,6.56,10.43,9.85,15.63c1.58,2.49,4.25,3.11,6.9,3.23c10.15,0.47,20.32,0.64,30.46,1.23
	c3.24,0.19,6.45,1.18,9.61,2.05c0.73,0.2,1.73,1.53,1.62,2.17c-0.14,0.79-1.2,1.75-2.05,1.99c-1.36,0.39-2.87,0.31-4.32,0.32
	c-9.91,0.1-19.81,0.16-29.72,0.28c-1.84,0.02-3.7,0.14-5.52,0.4c-1.93,0.28-2.78,1.57-2.09,3.4c1.84,4.94,3.78,9.85,5.81,14.72
	c0.38,0.9,1.22,1.77,2.08,2.28c6.43,3.86,12.95,7.57,19.36,11.46c1.66,1.01,3.09,2.43,4.55,3.74c1.91,1.7,2.8,1.87,4.91,0.74
	c3.11-1.67,6.15-3.49,9.35-4.94c3.34-1.51,6.77-2.92,10.28-3.94c9.5-2.74,19.06-5.29,28.62-7.82c2.03-0.54,4.15-0.9,6.24-0.97
	c7.52-0.25,15.04-0.43,22.56-0.44c2.07,0,4.22,0.41,6.19,1.07c6.49,2.17,12.94,4.48,19.35,6.87c3,1.12,5.71,1.16,8.78-0.09
	c6.21-2.54,12.57-4.73,18.91-6.94c8.34-2.9,16.67-5.82,25.09-8.46c6.54-2.05,13.2-3.73,19.84-5.43c1.35-0.35,2.94-0.31,4.3,0.02
	c4.1,1,8.15,2.19,12.2,3.4c1.07,0.32,2.03,1.01,3.52,1.78c-0.99,0.96-1.48,1.85-2.19,2.07c-4.1,1.28-8.29,1.82-12.42,0.16
	c-2.59-1.04-5.07-0.93-7.73-0.22c-2.4,0.64-4.97,0.65-7.41,1.21c-3.8,0.88-7.74,1.3-11.04,3.84c-1.05,0.81-2.78,0.68-4.13,1.16
	c-3.82,1.36-7.64,2.74-11.41,4.24c-4.14,1.64-8.34,3.2-12.32,5.19c-6.88,3.44-14.21,4.52-21.73,4.71c-1.79,0.04-3.61-0.64-5.4-1.09
	c-4.84-1.21-9.66-2.49-14.5-3.69c-3.7-0.91-7.41-1.75-11.12-2.61c-0.26-0.06-0.56,0-0.78-0.12c-4.87-2.63-9.97-1.64-15.08-1.05
	c-2.62,0.3-5.27,0.27-7.91,0.36c-3.3,0.11-6.44,0.43-9.56,1.99c-3.01,1.5-6.5,1.99-9.7,3.15c-3.06,1.1-6.01,2.51-9.03,3.73
	c-2.78,1.13-5.58,2.23-8.39,3.26c-1.97,0.72-4.01,1.26-5.99,1.98c-2.4,0.88-3.17,2.19-2.41,4.57c0.43,1.34,1.29,2.58,2.13,3.73
	c1.24,1.7,2.69,3.24,3.96,4.92c0.46,0.6,0.98,1.41,0.93,2.09c-0.07,0.97-0.39,2.25-1.08,2.74c-0.59,0.42-2.09,0.24-2.76-0.25
	c-4.95-3.71-9.75-7.63-14.69-11.35c-3.56-2.68-7.26-5.18-10.91-7.74c-1.18-0.83-2.4-1.61-3.62-2.38c-4-2.53-7.9-5.26-12.06-7.49
	c-2.85-1.53-4.2-3.92-5.22-6.65c-1.56-4.19-2.62-8.6-4.49-12.63c-4.23-9.08-8.71-18.04-13.31-26.93c-4.59-8.9-9.42-17.67-14.2-26.47
	c-1.58-2.9-1.29-5.92-0.71-8.9c2.32-11.89,0.39-23.4-3.23-34.69c-0.62-1.95-2.54-3.7-4.26-5.02c-2.26-1.75-4.85-3.14-7.43-4.41
	c-2.98-1.47-4.55-0.47-4.64,2.84c-0.1,3.69-0.1,7.39-0.01,11.09c0.12,5.49-1.96,10.33-4.45,15c-0.62,1.17-1.93,2.19-3.16,2.76
	c-2.05,0.94-2.75,2.39-2.48,4.43c0.3,2.22,0.76,4.42,1.12,6.64c1.1,6.76,1.95,13.57,3.34,20.27c0.98,4.76,2.59,9.4,4.06,14.06
	c3.18,10.07,6.36,20.15,9.72,30.16c2.09,6.25,4.54,12.38,6.78,18.58c0.89,2.48,1.33,5.17,2.5,7.49c3.02,5.99,6.05,12.02,9.59,17.7
	c5.99,9.61,12.34,19.01,18.65,28.42c1.16,1.73,2.72,3.26,4.33,4.58c3.81,3.13,7.46,5.94,13.04,6.28c9.05,0.55,18,2.63,27.04,3.69
	c9.42,1.11,18.9,1.77,28.35,2.62c5.52,0.5,11.04,1.05,16.56,1.48c6.71,0.52,13.43,0.8,20.13,1.43c6.43,0.61,12.86,1.37,19.24,2.35
	c9.38,1.45,18.73,3.14,28.08,4.76c5.84,1.01,11.65,2.22,17.51,3.09c5.34,0.8,10.74,1.18,16.1,1.89c4.97,0.66,9.9,1.58,14.87,2.24
	c4.7,0.62,9.42,1.07,14.14,1.57c5,0.53,9.63-1.36,14.37-2.4c5.92-1.3,11.8-2.81,17.64-4.45c3.53-0.99,7.01-2.25,10.4-3.67
	c4.7-1.98,9.3-4.22,13.94-6.35c0.6-0.28,1.21-0.53,1.81-0.81c5.8-2.79,11.65-5.48,17.38-8.39c6.78-3.45,13.44-7.13,20.19-10.64
	c3.86-2.01,7.93-3.63,11.66-5.85c5.57-3.33,11.5-5.64,17.66-7.53c1.37-0.42,2.57-1.35,3.91-1.88c5.83-2.31,11.72-4.49,17.52-6.87
	c2.91-1.19,5.73-2.61,8.5-4.09c7.76-4.14,15.66-8.06,23.16-12.64c7.03-4.28,14.61-7.63,21.12-12.82c6.17-4.91,12.7-9.38,18.88-14.28
	c6.08-4.82,11.93-9.93,17.88-14.91c1.48-1.24,2.99-1.31,4.3-0.22c1.32,1.11,1.78,3.21,0.59,4.64c-2.52,3.03-5,6.19-7.98,8.73
	c-6.11,5.23-12.48,10.16-18.83,15.1c-6.03,4.69-11.89,9.62-18.55,13.41c-4.12,2.34-8.4,4.39-12.54,6.7
	c-5.79,3.24-11.5,6.62-17.28,9.89c-2.97,1.69-6.02,3.25-9.01,4.9c-6.11,3.38-12.52,6.1-19.08,8.47c-5.15,1.86-10.37,3.57-15.41,5.69
	c-5.56,2.34-11.02,4.92-16.39,7.66c-8.1,4.13-16.02,8.61-24.12,12.73c-4.92,2.5-10.06,4.57-15.08,6.88
	c-6.45,2.98-12.9,5.94-19.3,9.03c-6.44,3.1-13.18,5.25-20.07,7.09c-8.33,2.22-16.8,3.19-25.36,3.74c-1.27,0.08-2.49,0.75-3.76,0.88
	c-2.57,0.25-5.47,1.12-7.67,0.26c-3.05-1.18-6.09-1.54-9.19-1.98c-0.91-0.13-1.84-0.22-2.74-0.41c-5.93-1.24-11.86-2.48-17.78-3.77
	c-12.52-2.72-25.35-3.25-37.96-5.34c-8.84-1.46-17.78-2.43-26.7-3.35c-8.13-0.84-16.29-1.32-24.44-1.97
	c-8.29-0.66-16.65-0.84-24.84-2.15c-9.01-1.45-18.06-1.86-27.09-2.73c-8.12-0.78-16.21-1.9-24.32-2.83
	c-2.86-0.32-5.19-1.38-7.33-3.45c-2.83-2.73-6.1-5.01-9.11-7.56c-4.41-3.74-6.93-8.94-10.21-13.54c-2.37-3.32-4.47-6.83-6.69-10.25
	c-3.51-5.42-6.85-10.97-10.59-16.22c-2.74-3.85-5.99-7.34-9.05-10.96c-1.7-2.01-3.4-4.05-5.28-5.89c-1.59-1.55-3.44-2.84-5.18-4.24
	c-6.07-4.88-11.93-10.03-18.27-14.52c-4.35-3.08-9.31-5.33-14.09-7.76c-4.34-2.21-8.79-4.19-13.23-6.21
	c-3.94-1.8-7.93-3.49-11.88-5.27c-2.27-1.03-4.47-2.2-6.74-3.22c-3.96-1.77-8.01-3.36-11.92-5.23c-4.48-2.15-8.78-4.68-13.3-6.74
	c-3.44-1.57-7.13-2.61-10.67-3.97c-6.85-2.61-14.37-3.37-20.69-7.5c-3.85-2.52-7.71-5.09-11.77-7.23c-3.08-1.62-6.43-2.78-9.77-3.83
	c-7.07-2.22-11.91-7.05-15.74-13.08c-0.49-0.77-0.56-2.13-0.26-3.03c1.09-3.25,2.31-6.46,3.7-9.6c1.17-2.66,2.27-3.22,5.3-2.75
	c1.52,0.23,2.41-0.35,3.5-1.23c3.66-2.98,7.31-5.99,11.21-8.63c3.47-2.35,7.38-1.78,11.05-0.29c4.41,1.79,8.8,3.47,13.58,4.09
	c2.03,0.26,3.94,1.37,5.93,2.02c3.88,1.28,7.75,2.65,11.69,3.74c9.77,2.71,19.56,5.33,29.37,7.88c4.08,1.06,8.25,1.77,12.34,2.81
	c1.37,0.35,2.57,1.35,3.92,1.85c2.61,0.96,4.33-0.23,3.9-3c-1.27-8.2-1.59-16.56-3.88-24.6c-1.66-5.83-2.93-11.78-4.86-17.52
	c-1.34-3.95-3.65-7.57-5.3-11.43c-3.57-8.35-8.24-16.2-11.04-24.91c-1.45-4.51-3.66-8.78-5.17-13.28c-1.84-5.49-3.72-10.99-4-16.89
	c-0.1-2.22,0.37-3.85,2.14-5.16c0.84-0.62,1.6-1.37,2.38-2.07c3.97-3.56,7.07-3.72,11.92-1.49c2.56,1.17,5.54,1.45,8.35,2.03
	c1.94,0.4,3.98,0.4,5.85,0.98c2.74,0.84,5.86,1.45,7.96,3.2c4.93,4.1,10,8.21,13.2,14.02c3.31,6.01,6.87,11.89,9.92,18.03
	c1.37,2.77,1.92,6.01,2.55,9.09c1.22,5.94,2.18,11.94,3.37,17.89c0.49,2.46,1.79,4.2,4.54,4.89c1.83,0.46,3.51,1.7,5.15,2.74
	c2.75,1.75,4.41,1.01,4.82-2.26c0.02-0.13-0.05-0.28,0-0.39c2.65-6.07,1.67-12.74,3.12-18.98c2.1-9.01,5.34-17.67,9.12-26.11
	c1.55-3.46,4.36-4.57,7.84-2.97c2.33,1.07,4.58,1.68,7.16,1.74c1.44,0.03,3.09,0.83,4.24,1.78c2.64,2.17,4.98,4.7,7.54,6.98
	c3.24,2.87,5.25,6.12,4.73,10.73c-0.2,1.76,0.38,3.66,0.82,5.44c0.68,2.78,0.55,5.39-0.34,8.16c-1.33,4.13-2.01,8.47-3.39,12.57
	c-1.26,3.77-2.44,7.5-2.89,11.48c-0.22,1.93-0.9,3.86-1.7,5.65c-2.44,5.51-4.89,11.04-7.61,16.41c-3.13,6.18-4.91,12.49-3.6,19.46
	c0.36,1.94,0.54,3.92,0.66,5.9c0.12,1.85,1.02,2.93,2.76,3.39c0.13,0.03,0.26,0.07,0.39,0.09c6.77,0.99,13.52,2.1,20.31,2.94
	c5.1,0.63,10.24,1.17,15.37,1.33c8.44,0.26,16.9,0.5,25.33,0.12c4.42-0.2,8.8-1.65,13.16-2.67c4.22-0.99,8.39-2.2,12.59-3.25
	c1.01-0.25,2.09-0.34,3.14-0.37c3.04-0.07,6.11-0.34,9.11-0.03c6.52,0.66,11.78-1.92,16.6-5.87c0.41-0.33,0.74-0.76,1.16-1.08
	c4.58-3.51,4.35-3.42,2.48-8.91c-2.65-7.8-7.81-13.97-12.62-20.37c-4.11-5.48-8.71-10.6-12.76-16.12
	c-3.03-4.12-5.53-8.63-8.27-12.97c-0.84-1.34-1.61-2.73-2.53-4.01c-3.28-4.58-5.22-9.73-6.52-15.16c-0.21-0.89-0.46-1.78-0.76-2.65
	c-1.45-4.19-1.89-8.44-1.43-12.88c0.65-6.3,1.06-12.63,1.47-18.95c0.08-1.29-0.2-2.63-0.43-3.92c-0.75-4.12-0.21-7.87,2.76-11.08
	c1.52-1.64,2.81-3.48,4.27-5.17c1.17-1.37,2.76-1.59,4.36-1.06c2.61,0.88,5.25,1.78,7.72,2.98c1.37,0.67,2.44,1.96,3.65,2.97
	c1.39,1.16,2.8,2.31,4.19,3.48c0.6,0.5,1.31,0.94,1.75,1.57c3.99,5.62,9.06,10.19,13.88,15.06c7.27,7.35,15.94,12.98,23.34,20.14
	c1.76,1.7,4.16,2.78,6.32,4.03c7.85,4.54,15.7,9.09,23.6,13.54c6.06,3.41,12.44,6.12,18.95,8.61c6.85,2.62,13.9,4.91,19.65,9.94
	c5.92,5.18,12.17,9.99,18.37,14.83c4.07,3.18,6.25,7.77,9.1,11.84c2.18,3.12,3.9,6.57,6.11,9.67c1.04,1.46,2.58,2.7,4.14,3.62
	c6,3.56,12.1,6.94,18.15,10.4c3.31,1.89,6.46,4.18,9.94,5.65c7.99,3.38,16.14,6.39,24.25,9.51c0.71,0.27,1.58,0.44,2.32,0.31
	c6.49-1.13,12.99-2.23,19.43-3.6c2.01-0.43,3.86-1.65,5.77-2.55c6.15-2.9,12.26-5.87,18.44-8.72c2.99-1.38,6.16-2.37,9.1-3.83
	c5.53-2.76,10.97-5.73,16.42-8.65c3.13-1.68,6.14-3.58,9.34-5.09c1.74-0.82,3.75-1.17,5.68-1.48c1.58-0.25,2.83,0.53,3.41,2.11
	c0.54,1.48,0.42,2.92-0.75,4.04c-0.75,0.73-1.66,1.3-2.56,1.85c-4.14,2.56-8.3,5.08-12.44,7.63c-3.79,2.34-7.42,4.97-11.37,6.98
	c-2.85,1.44-6.11,2.06-9.19,3.04c-0.5,0.16-1.01,0.27-1.48,0.5c-5.89,2.9-12.12,4.84-18.42,6.6c-1.75,0.49-3.43,1.22-5.15,1.83
	c-3.93,1.4-7.85,2.84-11.8,4.19c-2.24,0.76-3.13,2.18-2.8,4.53c0.26,1.82,0.19,3.69,0.49,5.51c0.28,1.69,1.11,3.41-0.89,4.58
	c-1.7,0.98-4.58,0.19-6.01-1.56c-0.75-0.91-1.48-1.84-2.27-2.73c-3.64-4.08-8.08-6.96-13.1-9.14c-4.78-2.07-9.38-4.57-14.07-6.84
	c-7.04-3.41-14.15-6.65-21.11-10.21c-5.8-2.96-11.45-6.24-17.11-9.47c-0.98-0.56-1.81-1.55-2.47-2.5c-2.24-3.23-4.61-6.34-6.58-9.81
	c-1.9-3.35-5-6.02-7.63-8.94c-1.15-1.27-2.51-2.34-3.66-3.61c-6.42-7.05-13.26-13.65-21.59-18.39c-3.85-2.19-8.17-3.58-12.3-5.29
	c-2.78-1.15-5.63-2.13-8.38-3.36c-4.29-1.92-8.55-3.91-12.75-6.01c-4.99-2.5-10.11-4.83-14.81-7.81c-4.39-2.8-8.65-5.88-12.36-9.67
	c-3.58-3.66-7.53-6.97-11.42-10.32c-2.48-2.14-5.4-1.51-7.8-0.1c-4.38,2.58-8.94,2.87-13.74,2.11c-0.77-0.12-1.61-0.24-2.27-0.62
	c-6.89-3.99-13.33-8.53-18.27-14.91c-0.68-0.88-1.38-1.74-2.08-2.61C273.81,565.56,273.47,565.71,273.13,565.86z M160.84,743.32
	c0.2-1.6,0.49-2.27,0.32-2.79c-1.9-5.73-3.89-11.44-5.82-17.17c-0.75-2.24-1.55-4.48-2.09-6.77c-1.21-5.25-1.86-10.64-4.57-15.48
	c-0.87-1.56-1.07-3.52-1.45-5.32c-0.45-2.18-0.69-4.42-1.16-6.6c-0.74-3.45-2.22-6.79-1.03-10.47c0.26-0.79-0.2-1.81-0.28-2.72
	c-0.14-1.57-0.39-3.16-0.35-4.73c0.15-6.7,0.38-13.4,0.6-20.1c0.03-0.92,0.1-1.84,0.15-2.76c0.32-5.8,0.63-11.6,0.95-17.4
	c0.12-2.21-0.41-4.07-2.09-5.73c-0.95-0.94-1.5-2.44-1.88-3.78c-2.07-7.35-4.1-14.72-6.01-22.12c-0.91-3.55-3.17-6.74-2.87-10.63
	c0.04-0.58-0.48-1.2-0.74-1.81c-2.88-6.69-6.46-12.91-11.43-18.36c-4.03-4.43-8.34-7.57-14.72-6.39c-2.13,0.39-2.57,0.76-1.96,2.79
	c2.63,8.66,5.32,17.3,7.94,25.97c0.85,2.82,1.33,5.59-0.39,8.39c-1.02,1.67-1.74,3.58-2.28,5.47c-0.34,1.2-0.47,2.7-0.05,3.82
	c1.76,4.65,3.79,9.2,5.69,13.8c0.6,1.46,1.68,3,1.57,4.43c-0.33,4.14,1.63,7.69,2.41,11.52c0.52,2.54,1.83,4.93,2.25,7.48
	c0.51,3.1,0.27,6.31,0.66,9.43c0.71,5.62,1.3,11.3,2.59,16.8c1.34,5.7,1.48,11.83,5.15,16.84c0.22,0.3,0.15,0.78,0.32,1.14
	c2.92,6.29,4.81,13.05,8.86,18.81c0.98,1.39,1.58,3.05,2.44,4.53c1.51,2.61,3.06,5.2,4.66,7.77c0.77,1.23,1.76,2.32,2.51,3.55
	c2.99,4.96,5.89,9.97,8.92,14.91C158.35,740.78,159.4,741.68,160.84,743.32z M144.35,736.23c0.22-0.25,0.44-0.49,0.66-0.74
	c-0.88-1.36-1.6-2.86-2.66-4.07c-4.21-4.78-7.58-10.09-10.16-15.89c-4.22-9.5-7.91-19.24-12.92-28.4
	c-2.41-4.41-5.95-6.86-10.64-8.02c-1.89-0.46-3.78-0.91-5.66-1.41c-3.43-0.91-6.8-2.06-10.28-2.69c-2.35-0.43-4.72-0.38-6.39-2.5
	c-0.25-0.32-1-0.2-1.49-0.38c-1.33-0.47-2.66-0.94-3.96-1.49c-2.4-1.01-4.72-2.26-7.19-3.08c-3.33-1.11-6.91-1.55-10.1-2.93
	c-4.44-1.92-8.71-4.1-13.67-4.37c-0.89-0.05-1.76-0.53-2.65-0.76c-2.16-0.56-4.34-1.1-6.51-1.64c-2.15-0.53-4.29-1.25-6.48-1.54
	c-3.47-0.46-7.08-1.42-10.34,0.73c-0.88,0.58-2.06,1.85-1.93,2.59c0.19,1.07,1.31,2.16,2.3,2.85c1.15,0.8,2.72,1,3.89,1.79
	c4.91,3.29,9.74,6.7,14.59,10.08c6.37,4.44,8.3,9.67,6.4,17.26c-0.03,0.13-0.08,0.25-0.11,0.38c-0.47,2.36,0.26,3.35,2.62,3.92
	c1.65,0.39,3.25,0.96,4.87,1.48c3.36,1.08,6.74,2.13,10.08,3.29c2.45,0.85,4.89,1.76,7.26,2.81c3.18,1.4,5.93,3.73,9.5,4.34
	c0.74,0.12,1.41,0.66,2.1,1.02c5.55,2.87,11.03,5.89,16.67,8.57c3.53,1.68,7.64,2.33,10.89,4.4c3.39,2.16,7.25,2.55,10.74,4.19
	c5.95,2.79,12.13,5.08,17.6,8.83C142.27,735.46,143.35,735.78,144.35,736.23z M187.58,644.07c1.06-1.99,1.78-3.21,2.38-4.47
	c1.52-3.21,3.17-6.38,4.42-9.69c1.48-3.92,2.71-7.95,3.81-12c0.72-2.66,0.98-5.43,1.52-8.14c0.69-3.49,1.6-6.94,1.07-10.58
	c-0.31-2.07-0.32-4.2-0.32-6.31c0-5.18-3-8.81-6.27-12.28c-0.6-0.63-1.58-0.95-2.44-1.27c-3.46-1.28-4.83-0.52-5.61,3.12
	c-0.55,2.57-0.86,5.21-1.52,7.75c-1.55,5.98-3.22,11.93-4.9,17.87c-1.29,4.56-3.18,8.94-7.92,10.7c-3.53,1.31-3.97,4.21-4.27,6.92
	c-0.31,2.79,2.8,3.04,4.61,4.15c0.44,0.27,1,0.33,1.5,0.49c5.65,1.85,10.09,5.06,12.31,10.83
	C186.2,641.88,186.67,642.5,187.58,644.07z"/>
<path d="M255.07,322.68c-0.07,0.73-0.14,1.46-0.21,2.2c-0.24-0.02-0.48-0.05-0.72-0.07c0.05-0.73,0.1-1.47,0.15-2.2
	C254.55,322.63,254.81,322.65,255.07,322.68z"/>
</svg>
