<?xml version="1.0" encoding="utf-8"?>
<!-- Generator: Adobe Illustrator 27.1.1, SVG Export Plug-In . SVG Version: 6.00 Build 0)  -->
<svg version="1.1" id="Layer_1" xmlns="http://www.w3.org/2000/svg" xmlns:xlink="http://www.w3.org/1999/xlink" x="0px" y="0px"
	 viewBox="0 0 733.53 888.05" style="enable-background:new 0 0 733.53 888.05;" xml:space="preserve">
<g>
	<path d="M420.51,494.46c8.3,6.89,12.81,15.62,15.37,25.55c1.14,4.45,0.92,8.86-0.07,13.3c-0.83,3.73-2.81,6.09-6.79,6.44
		c-5.77,0.5-11.54,1.01-17.71,1.55c-0.32,2.59-0.67,5.52-1.03,8.44c-1.11,9.01-2.71,18-3.2,27.05c-0.65,11.89,2.35,23.44,4.74,35
		c2.49,12.07,5.51,24.05,7.55,36.19c1.71,10.15,2.54,20.47,3.42,30.74c0.66,7.73,2.64,14.73,7.07,21.3
		c21.38,31.75,42.44,63.72,63.83,95.46c3.22,4.78,7.62,8.78,11.52,13.11c6.17,6.86,12.61,13.49,18.49,20.59
		c6.71,8.09,11.42,17.49,15.85,26.97c4.42,9.47,8.57,19.07,12.82,28.62c0.43,0.96,0.71,1.98,1.15,3.24
		c-3.68,0.29-5.59-1.02-7.04-4.24c-5.51-12.25-11.25-24.41-17.09-36.5c-4.71-9.75-11.53-18-18.84-25.93
		c-6.34-6.88-13.83-12.68-19.2-20.47c-4.39-6.37-8.93-12.64-13.23-19.08c-17.09-25.64-33.94-51.44-51.24-76.94
		c-5.63-8.3-8.44-17.26-9.11-27c-1.33-19.26-4.71-38.16-8.87-56.98c-2.4-10.85-4.7-21.75-6.2-32.75c-1.19-8.72-0.97-17.64,0.9-26.34
		c3.67-17.06,2.78-34.29,2.27-51.52c-0.02-0.64-0.2-1.27-0.38-2.36c-5.15,4.52-9.95,8.82-14.03,13.84
		c-10.95,13.49-21.82,27.05-32.78,40.54c-6.87,8.45-14.34,16.33-23.28,22.65c-8.48,5.99-15.55,13.51-22.91,20.74
		c-13.66,13.45-28.54,25.48-43.82,37.02c-2.36,1.78-4.98,2.07-7.71,1.02c-2.26-0.87-4.47-1.88-7.09-3
		c0.07,8.41-4.51,14.48-10.12,19.59c-10.86,9.89-17.65,22.24-22.84,35.66c-5.28,13.67-10.38,27.41-15.58,41.11
		c-7.99,21.05-15.92,42.13-24.02,63.14c-6.74,17.47-12.83,35.17-18.36,53.06c-0.31,1.01-0.71,2-1.14,3.19
		c-1.47-0.48-2.72-0.89-4.35-1.43c0.52-1.98,0.95-3.78,1.48-5.56c6.16-20.69,13.52-40.93,21.58-60.97
		c10.12-25.18,19.25-50.76,28.92-76.12c3.72-9.76,7.58-19.47,11.7-29.07c1.81-4.22,4.35-8.13,6.68-12.1
		c1.87-3.19,4.22-5.96,7.47-7.91c1.14-0.68,2.24-1.62,3.03-2.69c3.06-4.14,6.21-8.24,8.9-12.62c2.66-4.34,1.14-9.85-2.84-13.08
		c-1.64-1.33-3.11-2.98-4.27-4.75c-2.65-4.06-6.23-7.14-9.87-10.2c-3.01-2.53-6.08-4.99-8.97-7.64c-4.6-4.2-9.1-8.52-13.61-12.82
		c-3.77-3.6-8.2-5.73-13.39-6.26c-1.36-0.14-2.41-0.69-2.52-2.15c-0.11-1.6,0.92-2.53,2.33-2.91c0.74-0.2,1.62-0.17,2.36,0.03
		c1.69,0.46,3.37,1.03,5,1.68c6.12,2.45,11.57,6.06,16.47,10.37c7.23,6.36,14.32,12.9,21.24,19.59c3.11,3,5.59,6.64,8.51,9.85
		c1.52,1.67,3.25,3.25,5.15,4.45c2.52,1.58,5.31,2.72,7.96,4.08c2.29,1.18,4.17,0.91,6.34-0.71c15.15-11.29,29.71-23.26,42.99-36.72
		c6.88-6.97,14.01-13.63,21.92-19.41c9.74-7.11,17.69-16,25.25-25.29c11.3-13.9,22.61-27.8,34.02-41.62
		c1.97-2.39,4.5-4.31,6.67-6.54c0.96-0.98,1.69-2.19,3.06-4c-3.19-0.21-5.43-0.49-7.68-0.49c-28.51-0.11-57.03-0.14-85.54-0.31
		c-9.5-0.06-19.01-0.22-28.49-0.76c-7.98-0.45-15.43-2.85-21.85-7.93c-7.14-5.65-10.44-13.48-11.97-22.05
		c-2.06-11.48-3.64-23.04-5.39-34.58c-1.06-6.96-1.82-13.98-3.16-20.88c-0.58-2.97-2.14-5.79-3.52-8.55
		c-0.9-1.8-2.43-2.52-4.72-2.23c-2.21,0.28-4.65,0.07-6.78-0.59c-2.93-0.91-3.11-3.32-0.52-5.09c2.06-1.42,4.34-2.24,6.91-1.33
		c1.13,0.4,2.31,0.68,3.9,1.15c0.56-1.24,1.37-2.37,1.56-3.6c0.46-2.94,0.87-5.93,0.88-8.9c0.08-18.2,0.05-36.41,0.04-54.61
		c0-0.92-0.15-1.83-0.23-2.74c-5.32,0.39-8.14-1.23-9.32-5.26c-1.12-3.8,1.07-6.27,4.89-5.46c1.32,0.28,2.61,0.71,4.37,1.2
		c0.59-1.31,1.44-2.55,1.71-3.92c1.4-7.03,2.92-14.05,3.88-21.14c0.71-5.23,0.89-10.56,0.81-15.84c-0.05-3.61-0.37-7.42-1.59-10.77
		c-2.78-7.63-6.07-15.08-9.4-22.49c-2.4-5.34-6.54-8.12-12.66-7.53c-2.26,0.22-4.55,0.04-6.97,0.04c0.91,2.46,2.08,4.46,2.31,6.56
		c0.24,2.23-0.39,4.56-0.67,6.84c-0.8,6.58-1.42,13.2-2.49,19.73c-0.55,3.34-1.67,6.77-6.26,6.92c-1.1,6.33-4.09,11.81-6.83,17.39
		c-4.02,8.21-6.8,16.85-8.6,25.78c-2.48,12.27-6.5,24.05-10.5,35.88c-5.78,17.08-11.07,34.34-14.39,52.09
		c-1.27,6.76-1.41,13.73-1.97,20.61c-0.59,7.3-0.78,14.65-1.66,21.92c-1.51,12.51-3.31,24.99-5.22,37.45
		c-0.63,4.12-1.97,8.13-3.05,12.18c-0.94,3.53-1.95,7.05-2.97,10.56c-0.34,1.16-0.81,2.29-1.18,3.44c-0.88,2.7-1.93,5.36-2.56,8.12
		c-0.56,2.46-1.61,4.44-3.2,6.43c-2,2.5-4,5.32-4.87,8.32c-1.85,6.39-5.09,11.95-8.62,17.44c-6.17,9.59-12.42,19.16-16.92,29.68
		c-4.64,10.85-8.92,21.85-13.52,32.72c-8.51,20.11-16.67,40.38-25.91,60.15c-5.26,11.26-12.21,21.76-18.72,32.4
		c-10.48,17.13-21.24,34.09-31.88,51.12c-5.03,8.05-10.04,16.12-15.07,24.17c-0.56,0.9-1.24,1.74-2.11,2.94
		c-1.12-1.19-2.09-2.23-3.32-3.54c3.12-5.03,6.17-9.96,9.23-14.89c16.96-27.35,34.01-54.64,50.84-82.06
		c8.05-13.11,13.8-27.38,19.73-41.53c9.07-21.66,17.96-43.39,26.92-65.09c3.86-9.35,9.16-17.87,14.88-26.15
		c5.2-7.53,9.32-15.57,12.74-24.05c2.23-5.53,4.96-10.86,7.47-16.28c0.23-0.49,0.52-0.96,0.65-1.47c2.41-9.17,5.28-18.26,7.05-27.55
		c1.79-9.43,2.56-19.06,3.65-28.61c0.66-5.79,1.14-11.6,1.6-17.41c0.54-6.9,0.75-13.83,1.5-20.7c0.66-6.05,1.42-12.14,2.88-18.04
		c4.88-19.76,10.81-39.2,17.43-58.46c3.21-9.33,5.23-19.07,7.7-28.65c2.07-8.05,4.71-15.88,8.74-23.17
		c3.69-6.68,5.78-13.62,5.2-21.41c-0.45-6.08-0.18-12.22-0.06-18.33c0.09-4.5,0.36-9.02,4.46-12.11c0.51-0.38,0.77-1.1,1.13-1.68
		c2.13-3.37,5.09-5.14,9.17-4.91c2.03,0.11,4.07-0.01,6.11,0.04c5.53,0.14,9.94,2.38,13.05,7.04c1.04,1.56,2.13,3.1,3.95,4.58
		c0.07-1.26,0.21-2.51,0.19-3.77c-0.39-21.32-0.82-42.64-1.19-63.97c-0.28-16.03-0.49-32.06-0.69-48.08
		c-0.32-26.22-0.62-52.43-0.87-78.65c-0.04-4.48,0-8.98,0.32-13.44c0.95-13.07,7.4-23.04,17.86-30.54
		c4.79-3.43,10.48-4.37,16.19-4.94c16.89-1.68,33.85-2.35,50.81-2.3c41.41,0.11,82.82,0.47,124.23,0.76
		c3.53,0.02,7.06,0.17,10.57,0.51c15.16,1.46,29.38,14.33,31.99,29.34c1.02,5.85,1.51,11.86,1.58,17.8
		c0.52,44.01,0.89,88.03,1.28,132.04c0.11,12.22,0.19,24.45,0.19,36.68c0,2.53,0.43,4.29,3.16,5.31c3.69,1.39,5.58,4.67,6.74,8.24
		c0.96,2.96,1.72,6,2.27,9.05c0.77,4.28,0.08,8.34-2.33,12.09c-2.52,3.9-5.09,7.71-9.59,9.76c0,6.47,0,12.81,0,19.39
		c3.08,0.37,5.99,0.84,8.92,1.04c1.95,0.14,3.51,0.86,4.36,2.51c0.89,1.72,2.16,2.07,3.93,2.25c14.46,1.43,24.26,14.74,25.65,24.53
		c0.98,6.92-0.72,13.88-4.9,19.68c-1.48,2.05-4.21,3.35-6.6,4.54c-3.37,1.68-6.96,2.94-10.86,4.55c0.89,0.94,1.53,1.71,2.26,2.38
		c6.28,5.76,8.41,12.86,7.74,21.29c-0.49,6.2-0.06,12.47-0.05,18.71c0,1.49,0.04,2.98-0.05,4.46c-0.21,3.34-2,5.66-5.08,6.73
		c-6.47,2.25-13.11,3.68-19.95,1.96c-2.29-0.58-4.44-1.74-6.98-2.76c0,2.79,0,5.26,0,7.75c3.88,0.44,7.51,0.7,11.08,1.32
		c2.11,0.37,4.17,1.18,6.15,2.02c2.73,1.15,4.78,3.05,5.74,5.97c0.84,2.57,1.74,5.12,2.63,7.67c0.22,0.63,0.39,1.32,0.77,1.84
		c5.32,7.39,4.79,15.65,3.13,23.84c-1.26,6.22-5.58,9.77-11.98,10.49c-2.55,0.29-5.12,0.44-8.33,0.71
		c6.51,12.87,14.67,24.54,20.69,37.54c3.34-0.81,6.03,0.3,8.66,1.83c11.85,6.91,23.59,13.96,34.16,22.78
		c0.94,0.78,1.96,1.52,2.69,2.48c3.98,5.26,9.5,8.06,15.45,10.55c14.15,5.93,27.85,12.84,41.01,20.77c1.89,1.14,3.66,2.09,6.05,1.06
		c0.94-0.4,2.41,0.09,3.52,0.51c4.18,1.58,8.44,3.02,12.42,5.01c7.76,3.88,15.58,7.73,22.97,12.26
		c10.17,6.24,17.71,15.07,23.04,25.78c3.21,6.45,4.26,13.47,5.05,20.44c2.01,17.79,3.8,35.62,5.37,53.45
		c1.08,12.3,1.71,24.64,2.45,36.97c0.97,16.12,1.93,32.24,2.7,48.37c0.25,5.14,0.03,10.32-0.23,15.48
		c-0.81,16.03,0.79,31.65,6.29,46.88c6.73,18.62,12.97,37.42,19.55,56.1c1.53,4.34,3.57,8.49,5.38,12.72
		c-3.74,2.02-4.66,1.89-6.12-1.81c-4.03-10.22-8.07-20.44-11.72-30.81c-4.95-14.08-9.67-28.24-14.23-42.45
		c-3.82-11.89-4.21-24.23-4.08-36.62c0.12-11.14,0.26-22.28-0.11-33.41c-0.33-9.75-1.43-19.48-2.06-29.22
		c-0.62-9.48-0.97-18.98-1.63-28.46c-0.83-11.91-1.71-23.82-2.82-35.71c-0.88-9.44-2-18.86-3.28-28.26
		c-0.93-6.83-1.68-13.74-4.55-20.16c-4.92-11-12.77-19.41-22.79-25.9c-0.5-0.32-1.12-0.46-2.15-0.06c2.04,1.9,4.08,3.8,6.11,5.7
		c2.08,1.94,4.32,3.73,6.17,5.87c2.2,2.54,3.28,5.69,2.87,9.06c-0.14,1.17-0.97,2.61-1.94,3.23c-1.44,0.93-2.99,0.01-3.88-1.27
		c-1.78-2.56-3.58-5.14-4.96-7.92c-2.43-4.91-6.01-8.45-10.69-11.31c-21.2-12.93-42.15-26.3-64.71-36.84
		c-1.55-0.73-3.14-1.37-5.54-2.41c1.61,3.82,3.71,6.05,6.14,7.89c8.1,6.15,16.31,12.17,24.46,18.25c2.82,2.11,5.86,4.01,8.31,6.49
		c1.72,1.75,2.81,4.25,3.76,6.59c0.32,0.79-0.39,2.43-1.14,3.09c-0.52,0.46-2.21,0.27-2.9-0.25c-9.46-7.28-20.23-12.8-28.78-21.28
		c-3.08-3.05-5.8-6.44-8.75-9.62c-6.18-6.66-12.3-13.38-18.64-19.89c-3.87-3.98-7.92-7.84-12.22-11.34
		c-8.44-6.88-17.81-12.4-27.28-17.73c-0.95-0.53-2.1-0.71-4.13-1.38c0.74,2.34,1.04,3.74,1.6,5.02c2.62,5.97,5.33,11.9,7.97,17.85
		c0.71,1.61,1.39,3.25,1.94,4.92c0.48,1.47-0.05,2.94-1.39,3.43c-0.93,0.34-2.39-0.02-3.3-0.58c-0.98-0.6-1.67-1.75-2.36-2.75
		c-4.02-5.78-6.22-12.3-7.92-19.07c-0.88-3.53-1.79-7.17-3.46-10.36c-5.28-10.09-10.95-19.99-16.43-29.98
		c-10.57-19.28-21.12-38.58-31.68-57.88c-1.8-3.28-3.6-6.57-5.69-10.4c-2.56,4.5-6.39,5.24-10.4,5.33
		c-13.84,0.31-22.18-6.31-24.74-19.62c-0.25-1.32-0.54-2.63-1.5-4.19c-0.65,1.37-1.43,2.69-1.93,4.11
		c-1.97,5.53-2.28,11.18-0.56,16.81c2.54,8.3,5.27,16.53,7.83,24.82c3.52,11.4,6.59,22.97,10.53,34.22
		c6.14,17.54,12.76,34.92,19.36,52.3c3.47,9.13,7.33,18.11,11.03,27.16c0.45,1.09,1.02,2.14,1.63,3.42
		c1.64-0.99,2.92-2.04,4.39-2.57c0.98-0.35,2.5-0.33,3.29,0.23c1.27,0.91,0.88,2.31,0.07,3.62c-5.31,8.53-4.44,6.42-1.02,14.76
		c3.55,8.67,6.99,17.38,10.75,25.95c3.75,8.55,5.83,17.48,6.99,26.68c1.03,8.2,2.03,16.41,2.91,24.63c0.26,2.41,0.33,4.9,0.04,7.3
		c-0.36,2.94-0.9,3.34-3.89,3.68c-1.85,0.21-3.74,0.04-4.94,0.04c-2.14,1.79-3.84,3.21-5.82,4.87c-0.46-0.71-0.77-1.01-0.87-1.38
		c-5.71-20.92-11.44-41.84-17.07-62.79c-1.05-3.92-2.51-8-2.3-11.92c0.33-6.18-1.99-12.02-1.47-18.13c0.08-0.91-0.13-1.9-0.43-2.77
		c-2.69-7.82-5.55-15.59-8.13-23.45c-4.5-13.65-11.9-25.24-23.47-33.97c-1.4-1.06-2.87-2.03-4.38-2.93
		C423.72,492.91,422.06,492.95,420.51,494.46z M406.71,344.4c-2.17-0.19-2.79-1.97-3.45-3.56c-3.45-8.26-9.24-15.03-14.19-22.34
		c-0.92-1.36-2.3-2.41-4.13-4.29c0.09,6.34-0.41,11.65,0.4,16.75c0.85,5.33,0.08,10.58,0.48,15.85c0.4,5.34,0.15,10.72,0.35,16.08
		c0.2,5.23,0.6,10.45,0.98,16.64c2.23-2.03,3.99-3.16,5.1-4.75c3.23-4.6,6.21-9.39,9.29-14.09c0.52-0.79,0.89-1.9,1.63-2.28
		c2-1.02,2.28-2.9,2.84-4.69c0.3-0.96,0.58-1.93,0.87-2.89c0.62,4.36,0.25,8.76,1.2,12.85c1.61,6.93-1.53,12.42-4.43,17.99
		c-1.84,3.54-4.04,7-6.62,10.03c-3.76,4.41-7.95,8.45-12.08,12.53c-1.02,1-3.01,1.22-3.69,2.33c-2.02,3.29-5.93,3.85-8.5,6.5
		c-2.41,2.49-6.13,3.73-9.31,5.45c-2.36,1.27-4.74,2.5-7.17,3.64c-3.65,1.71-7.41,3.2-11.01,4.99c-6.02,3-12.33,5.24-18.66,7.44
		c-4.7,1.63-9.42,3.22-14.15,4.79c-3.44,1.14-6.94,1.96-10.8,1.73c-0.06-1.13-0.27-1.94-0.12-2.69c0.63-3.14-0.08-6.28,0.02-9.43
		c0.22-6.97-0.53-13.96-0.83-20.95c-0.2-4.54-0.25-9.08-0.46-13.61c-0.14-3.06-0.89-6.16-0.57-9.17c0.73-6.98,0.98-13.89-0.11-20.85
		c-0.44-2.77-0.46-5.62-0.59-8.44c-0.25-5.26-0.85-10.55-0.51-15.77c0.21-3.18-1.2-6.31,0.03-9.49c0.29-0.77-0.15-1.84-0.32-2.76
		c-0.63-3.32-0.25-3.87,3.08-4.89c4.65-1.41,9.3-2.81,13.91-4.36c3.93-1.32,7.83-2.78,11.69-4.29c3.35-1.31,6.6-2.82,10.01-4.03
		c4.41-1.56,8.59-3.82,12.82-5.88c4.88-2.39,10.07-4.26,14.33-8.34c-1.63-1.12-3.01-2.09-4.4-3.04c-3.74-2.54-7.36-5.28-11.26-7.55
		c-6.75-3.93-13.71-7.48-20.5-11.33c-6.32-3.59-12.46-7.48-18.79-11.04c-10.32-5.82-19.89-12.64-28.84-20.39
		c-2.43-2.1-5.23-3.76-7.77-5.73c-0.82-0.64-1.37-1.62-2.03-2.46c-0.75-0.96-1.4-1.99-2.23-2.88c-4.11-4.4-8.25-8.77-12.95-13.75
		c-0.09,3.71-0.29,6.77-0.21,9.83c0.25,9.5,0.69,19,0.89,28.5c0.3,14.12,0.4,28.25,0.69,42.37c0.39,19.41,1.02,38.82,1.27,58.24
		c0.14,10.86-0.51,21.73-0.44,32.59c0.11,19.56,0.39,39.11,0.82,58.66c0.13,5.81,0.86,11.63,1.6,17.41
		c0.58,4.53,2.85,8.2,7.05,10.33c2.05,1.04,4.17,2.17,6.38,2.58c5.72,1.06,11.48,2.16,17.26,2.47c8.12,0.43,16.28,0.24,24.43,0.18
		c36.11-0.23,72.22-0.5,108.33-0.79c5.52-0.04,11.04-0.22,17.08-0.35c-0.81-2.34-1.52-4.21-2.12-6.12
		c-3.84-12.3-7.59-24.62-11.49-36.9c-3.57-11.25-7.43-22.41-10.9-33.69c-3.07-9.99-2.09-19.59,3.87-28.41
		c2.78-4.11,6.55-7.08,11.51-7.68c7.42-0.89,14.59-0.85,19.17,6.88c4.77,8.04,9.93,15.86,14.91,23.78c0.8,1.27,1.55,2.56,2.32,3.84
		c0.73-2.35,0.74-4.36,0.73-6.36c-0.27-44.83-0.48-89.66-0.84-134.48c-0.33-41.29-0.74-82.58-1.28-123.87
		c-0.27-20.51-0.88-41.01-1.36-61.51c-0.02-0.76-0.29-1.51-0.32-1.68c-3.14-0.4-5.86-0.78-8.6-1.07c-0.64-0.07-1.31,0.19-1.96,0.28
		c-0.93,0.14-1.98,0.62-2.76,0.34c-2.54-0.92-4.99-0.38-7.54-0.17c-6.08,0.52-12.2,0.69-18.3,1.03c-1.39,0.08-2.77,0.41-4.16,0.44
		c-1.59,0.04-3.21-0.36-4.77-0.16c-5.44,0.72-10.83,1.91-16.38,1.65c-0.79-0.04-1.6,0.22-2.39,0.36c-4.63,0.83-9.26,1.71-13.9,2.47
		c-3.91,0.64-7.86,1.01-11.75,1.72c-3.56,0.65-7.06,1.62-10.59,2.42c-4.82,1.08-9.64,2.18-14.48,3.17
		c-3.55,0.72-6.62,3.13-10.44,2.95c-0.49-0.02-0.99,0.4-1.5,0.59c-3.77,1.42-7.57,2.78-11.32,4.27c-3.74,1.48-7.47,2.99-11.12,4.68
		c-3.61,1.67-7.12,3.54-10.65,5.38c-2.61,1.36-5.22,2.73-7.76,4.22c-2.17,1.27-4.33,2.59-6.33,4.1c-4.08,3.07-8.06,6.27-12.06,9.45
		c-0.27,0.22-0.33,0.7-0.64,1.41c1.31,0.85,2.88,1.47,3.88,2.59c3.44,3.86,7.8,6.48,12,9.31c3.2,2.16,6.41,4.29,9.6,6.45
		c2.88,1.95,5.6,4.21,8.66,5.81c5.24,2.75,10.52,5.38,15.4,8.78c1.2,0.83,2.67,1.29,4.03,1.87c0.99,0.43,2.1,0.65,3.01,1.21
		c8.46,5.26,17.03,10.38,25.28,15.95c4.15,2.8,8.56,5.32,12.06,9.09c1.78,1.91,4.14,3.27,6.15,4.97c1.19,1,2.24,2.16,3.33,3.28
		c0.93,0.96,1.78,2.01,2.75,2.94c1.46,1.41,3.47,2.48,4.41,4.17c2.43,4.38,6.17,7.69,9.01,11.76c5.12,7.36,8.3,15.26,8.25,23.93
		c-0.03,5.46,0.34,10.7,1.42,15.98c0.19,0.92,0.23,1.89,0.22,2.84c-0.05,5.39-0.19,10.79-0.19,16.18c0,3.09-0.31,5.89-1.61,8.92
		c-2.33,5.41-5.25,10.24-9.17,14.57c-3.32,3.67-3.31,4.98-0.31,9.07c2.19,2.99,4.37,6,6.64,8.92c3.43,4.41,2.85,10.48,6.27,14.88
		c0.07,0.09,0.05,0.26,0.06,0.4c0.3,4.17,0.69,8.33,0.86,12.51c0.06,1.57-0.37,3.16-0.58,4.74L406.71,344.4z M463.97,547.57
		c2.93-1,2.37-2.65,1.68-4.39c-7.36-18.4-14.74-36.78-22.01-55.21c-0.84-2.13-2.03-2.89-4.23-2.86
		c-16.83,0.23-33.66,0.38-50.49,0.55c-29.46,0.3-58.91,0.71-88.37,0.8c-7.43,0.02-14.89-0.77-22.29-1.58
		c-5.69-0.63-11.15-2.37-15.91-5.74c-5.16-3.65-7.42-8.95-7.76-15.04c-0.77-13.83-1.81-27.66-1.94-41.49
		c-0.23-23.9,0.49-47.82,0.19-71.72c-0.42-33.68-1.37-67.35-2.15-101.03c-0.34-14.93-0.89-29.85-1.21-44.78
		c-0.56-26.21-0.99-52.42-1.52-78.62c-0.25-12.36-0.66-24.71-0.93-37.06c-0.22-10.17-0.47-20.35-0.48-30.52
		c-0.01-7.05-0.22-14.2,1.98-21c3.77-11.65,11-19.67,23.95-20.6c9.88-0.71,19.78-1.13,29.68-1.34c20.76-0.45,41.53-0.76,62.3-0.99
		c22.81-0.26,45.61-0.43,68.42-0.51c7.51-0.02,14.9,1.13,21.94,3.85c4.48,1.73,8.54,4.07,11.24,8.33c2.24,3.53,2.37,7.47,2.58,11.37
		c0.79,14.76,1.47,29.52,1.67,44.3c0.41,30.01,1.11,60.02,1.53,90.03c0.43,30.42,0.75,60.85,0.98,91.27
		c0.34,46.32,0.55,92.64,0.82,138.96c0.06,11.06,0.06,11.06,5.52,20.7c0.53,0.94,1.16,1.83,1.75,2.74c0.77-1.67,0.77-3.01,0.77-4.35
		c0-10.73-0.06-21.46,0.02-32.2c0.02-2.53-0.51-4.71-1.87-6.89c-2.29-3.7-4.46-7.6-4.17-12.13c0.56-8.9,2.7-17.14,10.87-22.4
		c-4.04-3.42-4.08-3.75-1.06-7.8c-1.15-3.25-2.58-6.36-3.35-9.64c-1.9-8.07-3.16-16.25-2.79-24.6c0.06-1.34,0.11-2.77-0.27-4.02
		c-0.48-1.57-0.28-2.81,0.4-4.26c0.68-1.44,0.87-3.11,1.25-4.68c0.55-2.24,1.12-4.47,1.59-6.73c0.38-1.83,0.9-3.69,0.9-5.54
		c0.04-13.31-0.07-26.62-0.08-39.93c-0.04-30.97,0.12-61.94-0.12-92.91c-0.26-33.55-0.86-67.09-1.38-100.63
		c-0.07-4.33-0.31-8.68-0.78-12.99c-1.76-16.14-15.86-27.21-28.79-28.26c-2.97-0.24-5.96-0.08-8.95-0.12
		c-25.11-0.29-50.22-0.6-75.33-0.85c-7.87-0.08-15.74,0.01-23.61,0.01c-14.39,0-28.78-0.09-43.17,0.02
		c-5.28,0.04-10.57,0.48-15.84,0.87c-6.74,0.5-13.5,0.93-20.21,1.78c-4.15,0.53-8.18,1.81-11.62,4.45
		c-9.65,7.41-14.94,17.17-14.86,29.35c0.24,35.31,0.64,70.62,1.16,105.93c0.53,36.53,1.23,73.06,1.97,109.58
		c0.05,2.65,0.57,5.43,1.52,7.9c2.81,7.29,3.47,14.74,2.56,22.41c-0.21,1.74-0.21,3.51-0.41,5.26c-0.68,5.92-1.4,11.84-2.1,17.76
		c-0.81,6.86-5.28,13.15-3.17,20.46c0.01,17.52,0.17,35.05-0.06,52.56c-0.09,6.95,0.04,14.09-3.23,19.87
		c1.68,3.78,3.52,6.99,4.54,10.45c1.07,3.61,1.4,7.45,1.96,11.2c1.5,10.17,2.9,20.36,4.43,30.52c0.91,6.02,1.79,12.06,3.04,18.01
		c1.75,8.3,5.81,15.08,13.5,19.4c6.09,3.42,12.66,4.75,19.49,4.92c8.27,0.2,16.56,0.16,24.83,0.21c30.27,0.17,60.54,0.34,90.82,0.46
		c2.76,0.01,5.12,0.57,6.43,3.3c2.37-2.75,4.51-5.36,6.79-7.84c5.43-5.89,11.75-7.24,17.39-3.09c9.01,6.63,17.12,14.16,22.25,24.46
		c4.14,8.31,6.79,17.14,9.6,25.92C462.47,543.27,463.23,545.39,463.97,547.57z M358.04,270.75c0.47-1.13,1.03-1.85,1.03-2.57
		c0.01-3.01-0.1-6.02-0.25-9.02c-0.18-3.47-0.6-6.93-0.68-10.39c-0.16-7.81-0.06-15.62-0.28-23.42c-0.21-7.38-1.23-14.77-0.9-22.12
		c0.21-4.72-1.42-7.92-4.85-10.34c-5.03-3.55-10.2-6.94-15.56-9.98c-7.27-4.13-14.96-7.52-22.1-11.83
		c-8.85-5.34-17.27-11.39-26.02-16.91c-1.57-0.99-3.02-3.28-5.52-2.14c0,8.91-0.33,17.68,0.12,26.41c0.28,5.51-1.5,11.02,0.19,16.48
		c-1.52,3.63,2.21,6.92,0.66,10.55c1.67,3.75,0.86,7.71,0.4,11.43c-0.73,5.96,2.09,10.16,6.17,13.29
		c5.66,4.35,11.89,7.97,17.96,11.75c7.06,4.39,14.18,8.7,21.36,12.89c6.52,3.81,13.15,7.41,19.73,11.1
		C352.29,267.48,355.06,269.06,358.04,270.75z M311.25,417.49c2.29-0.32,4.15-0.09,5.44-0.85c4.08-2.41,8.69-3.3,13.06-4.74
		c8.76-2.88,16.95-6.97,25.22-10.89c6.22-2.95,12.03-6.75,18.06-10.12c4.94-2.76,7.41-7.05,7.1-12.57
		c-0.24-4.35-0.64-8.67-0.62-13.04c0.03-5.19-0.44-10.39-0.74-15.58c-0.18-3.2-0.59-6.4-0.64-9.6c-0.06-3.58,0.26-7.17,0.26-10.75
		c0-3.76-0.13-7.52-0.29-11.27c-0.09-2.22-0.33-4.43-0.55-7.16c-1.81,0.77-3.09,1.16-4.21,1.83c-3.63,2.17-7.08,4.67-10.81,6.63
		c-6.5,3.41-12.72,7.36-19.73,9.78c-4.42,1.52-8.63,3.65-12.97,5.4c-5.57,2.24-11.25,4.16-17.06,5.69c-2.92,0.77-3.44,1.56-3.4,4.52
		c0.07,4.24,0.23,8.48,0.37,12.72c0.16,4.99,0.38,9.98,0.51,14.97c0.15,6.21,0.19,12.42,0.36,18.63c0.07,2.41,0.37,4.82,0.53,7.24
		c0.19,2.78,0.49,5.57,0.49,8.36C311.64,410.12,311.4,413.54,311.25,417.49z M333.26,20.26c-5.32,0.23-9.77,0.49-14.22,0.62
		c-13.41,0.37-26.82,0.67-40.23,1.08c-1.41,0.04-2.98,0.36-4.17,1.07c-1.71,1.02-3.27,2.4-4.67,3.84c-3.89,4-7.45,8.24-7.3,14.32
		c0.06,2.53,0.33,5.06,0.36,7.58c0.03,3.29-0.2,6.59-0.12,9.88c0.08,3.22,0.51,6.43,0.59,9.65c0.08,3.09-0.58,6.26-0.05,9.25
		c1.02,5.79,0.48,11.59,0.76,17.38c0.24,4.85,0.29,9.71,0.43,14.58c0.68-0.05,1.04,0.04,1.18-0.1c4.85-4.67,9.68-9.36,14.52-14.04
		c0.38-0.37,0.82-0.94,1.25-0.97c3.83-0.24,5.33-4.16,8.63-5.38c2.25-0.84,3.95-3.1,6.18-4.09c8.95-3.97,17.4-9.09,26.91-11.83
		c2.17-0.63,4.21-1.72,6.29-2.65c0.61-0.27,1.16-0.68,1.72-1.04c4.01-2.59,4.7-6.49,3.87-10.72c-1.15-5.86-0.32-11.76-0.69-17.64
		c-0.2-3.17-0.06-6.36-0.25-9.53C334.04,27.94,333.63,24.37,333.26,20.26z M464.31,51.17c-0.4-5.9-0.81-11.43-1.13-16.96
		c-0.28-4.99-3.4-7.77-7.49-9.8c-6.29-3.13-13.05-4.71-19.99-4.71c-25.24,0.02-50.47,0.3-75.7,0.5c-4.48,0.03-8.96,0.09-13.43,0.24
		c-2.44,0.08-3.09,0.9-2.12,2.98c0.72,1.53,0.76,2.76,0.05,4.21c-0.27,0.56-0.36,1.42-0.13,1.98c1.24,3.06-0.78,6.49,1.14,9.46
		c0.18,0.27-0.03,0.79-0.05,1.2c-0.12,3.31-0.62,6.66-0.26,9.91c0.4,3.6,0.97,7.1,0.3,10.74c-0.14,0.74,1.16,2.45,1.92,2.53
		c2.79,0.28,5.66,0.33,8.43-0.04c2.63-0.36,5.2-1.32,7.76-2.1c9.83-3.01,20.12-3.35,30.17-5.04c6.86-1.15,13.85-1.53,20.78-2.2
		c2.41-0.23,4.84-0.29,7.26-0.5c4.11-0.35,8.23-1.16,12.33-1.02c3.12,0.1,6.28-1.72,9.35,0.11c0.18,0.11,0.57,0.03,0.79-0.09
		c3.44-1.83,7.46,1.52,10.81-1.21c0.12-0.1,0.53,0.07,0.76,0.2C458.57,53.08,461.11,51.72,464.31,51.17z M364.95,204.15
		c-0.19,0.93-0.52,1.72-0.49,2.51c0.22,6.83,0.49,13.67,0.77,20.5c0.18,4.5,0.38,9.01,0.62,13.51c0.2,3.61,0.59,7.22,0.69,10.83
		c0.14,4.99,0.08,9.99,0.15,14.99c0.03,2.4-0.35,4.98,0.38,7.17c1.22,3.64,2.41,7.59,6.74,9.08c0.56,0.19,0.93,0.95,1.38,1.45
		c2.53,2.82,3.45,3.05,6.35,0.46c2.69-2.41,4.97-5.28,7.5-7.88c3.97-4.08,7.18-8.67,9.66-13.79c0.59-1.21,1.06-2.66,2.02-3.47
		c2.26-1.89,2.83-4.35,2.5-6.93c-0.43-3.33-1.31-6.62-2.11-9.89c-0.18-0.72-0.81-1.36-1.31-1.98c-0.98-1.24-2.01-2.44-3.01-3.67
		c-2.8-3.43-3.62-8.31-7.87-10.69c-0.42-0.23-0.75-0.83-0.9-1.32c-1.07-3.57-3.84-5.85-6.34-8.31c-3.64-3.57-7.24-7.2-11.04-10.59
		C369.25,204.87,367.72,203.14,364.95,204.15z M493.12,342.33c0.88-0.48,1.51-0.61,1.77-1c1.69-2.59,4.36-3.44,7.07-4.42
		c5.49-1.96,10.92-4.07,16.33-6.23c2.43-0.97,4.56-2.41,5.62-5c3.05-7.46,4.32-14.76-0.79-22.02c-4.85-6.88-10.84-11.7-19.58-12.12
		c-1.13-0.05-2.45,0.14-3.4,0.71c-4.41,2.64-8.68,5.53-13.09,8.16c-1.54,0.91-2.33,1.8-2.44,3.73c-0.55,9.45,0.66,18.67,3.22,27.73
		C488.89,335.66,491.08,338.88,493.12,342.33z M264.39,133.48c-2.9,4.12-5.3,7.85-8.04,11.33c-1.97,2.51-2.69,5.15-2.61,8.27
		c0.33,12.74,0.55,25.49,0.77,38.23c0.06,3.63,2.59,6.04,4.3,8.81c1.1,1.78,2.84,3.15,4.25,4.74c1.79,2.01,3.35,4.28,5.37,6.02
		c1.55,1.33,3.03,2.49,3.97,4.42c0.94,1.92,2.89,2.48,4.61,2.57c0.16-2.3,0.45-4.22,0.41-6.13c-0.17-7.09-0.58-14.17-0.64-21.26
		c-0.05-6.19-1.76-12.34-0.51-18.56c0.1-0.51-0.07-1.07-0.13-1.61c-0.38-3.01-1.53-6.18-0.93-8.98c0.62-2.9,0.13-5.59,0.24-8.36
		c0.16-4.15-0.28-7.96-3.5-11.1C269.38,139.37,267.12,136.54,264.39,133.48z M512.49,353.5c-1.32-4.35-3.76-7.49-7.61-9.34
		c-3.34-1.6-3.92-1.46-6.59,1.23c-2.61,2.64-4.42,6.22-8.42,7.26c-3.03,0.78-4.89,2.96-5.96,5.67c-1.23,3.14-2.36,6.37-2.97,9.67
		c-0.37,2.02-0.09,4.38,0.6,6.33c1.83,5.17,4.75,9.81,8.89,13.43c1.75,1.53,4.12,2.85,6.38,3.21c5.01,0.81,9.96-0.24,14.77-1.83
		c1.75-0.58,2.71-1.78,2.75-3.6c0.19-8.23-1.74-15.69-7.96-21.56c-1.77-1.67-3.58-3.32-5.25-5.09c-3.78-4.02-1.25-7.36,2.97-8.18
		c2.03-0.4,4.04-0.25,5.79,1.13C510.69,352.48,511.61,352.96,512.49,353.5z M489.86,406.3c0.27,2.08,1.5,2.29,2.97,2.39
		c1.6,0.11,3.34,0.17,4.73,0.84c1.02,0.49,2.1,1.88,2.23,2.98c0.2,1.66-1.27,2.68-2.85,2.86c-1.3,0.15-2.71,0.03-3.99-0.29
		c-1.8-0.46-2.92,0.04-3.48,1.76c-0.84,2.56-1.79,5.11-2.42,7.73c-1.65,6.87-0.67,13.13,3.15,19.38c2.35,3.83,4.99,5.3,9.07,5.2
		c0.95-0.02,1.92,0.11,2.84-0.04c5.5-0.91,8.64-2.23,9.93-7.95c1.02-4.54,0.65-9.15-0.15-13.71c-0.5-2.85-1.91-4.98-4.73-6.1
		c-1.24-0.5-2.4-1.26-3.52-2.02c-1.47-1-3.06-2.17-2.63-4.18c0.52-2.4,2.59-1.81,4.31-1.71c0.09,0.01,0.19-0.15,0.29-0.23
		C503.95,408.17,498.51,405.77,489.86,406.3z M256.14,44.26c-3.19,1.94-3.93,4.39-3.9,7.37c0.15,14.38,0.27,28.77,0.35,43.15
		c0.02,4.58,2.41,7.61,5.96,10.18C257.88,84.76,257.91,64.78,256.14,44.26z M471.56,577.64c-0.34,0.14-0.68,0.28-1.02,0.42
		c3.57,12.7,7.14,25.4,10.71,38.09c0.31,0.01,0.61,0.03,0.92,0.04c0.89-1.78,1.61-3.66,2.69-5.32c2.94-4.51,2.73-9.19,1.1-14.03
		C483.26,588.82,477.35,583.28,471.56,577.64z M490.33,612.74c-4.07,4.17-3.27,10.71-9.15,12.92c1.57,5.33,3.08,10.47,4.54,15.45
		c2.57,0.21,4.68,0.39,7.16,0.6C493.74,631.98,491.55,622.7,490.33,612.74z M489.13,227.11c-0.54,9.33-0.81,18.52-0.02,27.83
		c3.36-3.5,7.09-7.05,6.65-11.99C495.24,237.22,494.8,231.05,489.13,227.11z M480.21,578.3c-2.61-6.96-5.1-13.96-8.63-20.47
		c-1.65,1.4-2.97,2.51-4.56,3.86c0.26,1.38,0.43,2.98,0.88,4.5c0.37,1.23,0.8,2.67,1.69,3.46
		C473.02,572.65,476.65,575.44,480.21,578.3z M442.45,60.17c-2.61,0.26-5.14,0.59-7.68,0.73c-2.59,0.14-5.2,0.08-8.15,0.11
		c0.2,2.1,0.34,3.62,0.51,5.41c5.43-0.38,10.4-0.73,15.32-1.08C442.45,63.34,442.45,61.9,442.45,60.17z M411.76,62.28
		c-2.66,0.18-4.82,0.21-6.93,0.52c-1.99,0.29-3.95,0.8-5.88,1.37c-1.7,0.5-2.63,2.34-1.96,3.75c0.71,1.49,1.91,1.07,3.14,0.68
		c1.27-0.4,2.67-1.06,3.88-0.85c2.93,0.51,5.5-0.35,8.23-1.2C412.08,65.05,411.93,63.75,411.76,62.28z M382.12,66.77
		c-3.57-2.04-6.21,0.33-9.09,0.67c-3.76,0.44-4.29,1.63-2.82,6.08c4.28-1.45,8.97-1.36,13.41-3.2
		C382.96,68.76,382.49,67.66,382.12,66.77z M344.16,79.11c4.62-0.15,8.56-2.03,12.84-3.79c-0.51-1.47-0.97-2.81-1.52-4.4
		c-3.96,1.08-7.67,2.1-11.32,3.1C344.16,75.83,344.16,77.28,344.16,79.11z M308.93,332.63c4.86,0.03,8.84-1.71,13.17-3.43
		c-0.64-1.69-1.14-3.01-1.72-4.53c-4.04,1.38-7.82,2.66-11.63,3.96C308.82,330.1,308.87,331.17,308.93,332.63z M324.19,422.18
		c-3.64,1.24-6.97,2.28-10.23,3.5c-2.7,1.01-2.82,1.72-1.11,5.01c2.29-0.51,4.7-0.86,6.98-1.6
		C323.44,427.93,323.97,426.99,324.19,422.18z M343.3,316.45c-3.66-0.61-5.75,2.32-8.61,3.21c-0.55,0.17-0.97,1.25-1.16,1.98
		c-0.18,0.67-0.24,1.71,0.15,2.1c0.42,0.43,1.54,0.61,2.12,0.36c2.91-1.25,5.75-2.69,8.77-4.13
		C344.05,318.53,343.66,317.44,343.3,316.45z M320.98,82.06c0.71,1.67,1.26,2.97,1.77,4.17c3.22-1.16,6.21-2.24,9.2-3.31
		c0.12-1.6,0.23-3.09,0.38-5.03C328.36,79.35,324.89,80.62,320.98,82.06z M318.94,256.49c0.49,2.48,0.25,4.82,1.26,5.63
		c2.41,1.95,5.2,3.67,9.06,4.08c-0.5-1.95-0.88-3.45-1.17-4.63C325.06,259.89,322.4,258.41,318.94,256.49z M346.66,417.88
		c0.08-1.44,0.16-2.83,0.25-4.41c-3.64,1.52-6.9,2.88-10.16,4.25c0.08,1.52,0.16,2.99,0.26,4.76
		C340.3,420.91,343.27,419.49,346.66,417.88z M324.49,168.14c0.4-1.15,0.79-2.24,1.34-3.83c-2.95-1.61-5.81-3.16-8.75-4.76
		c-1.37,4.03-1.46,4.16,1.17,5.74C320.16,166.43,322.31,167.16,324.49,168.14z M344.37,179.92c0-2.39,0-3.83,0-5.26
		c-2.7-1.46-5.23-2.83-7.92-4.29c-0.69,1.86-1.56,3.56,0.38,4.88C339.02,176.75,341.34,178.06,344.37,179.92z M302.56,95.03
		c1.77-0.83,3.51-1.73,5.32-2.48c3.24-1.35,3.54-1.93,2.61-6.04c-2.27,1.15-4.59,2.13-6.7,3.43
		C301.13,91.57,301.2,91.68,302.56,95.03z M339.98,267.69c-0.37,0.19-0.74,0.37-1.11,0.56c0.33,1.46,0.17,3.49,1.08,4.28
		c2.04,1.77,4.61,2.93,7.48,4.65c0.18-1.88,0.3-3.14,0.42-4.41C345.07,270.98,342.52,269.34,339.98,267.69z M464.3,60.16
		c-1.58,0-2.92,0-4.25,0c-1.05,0-2.09,0-3.15,0c0.2,5.49,1.75,6.46,8.01,5.06C464.73,63.68,464.54,62.12,464.3,60.16z
		 M308.47,254.84c0.34-0.14,0.68-0.27,1.01-0.41c-0.24-1.35-0.02-3.23-0.82-3.94c-2.01-1.77-4.49-3-6.98-4.57
		c-0.53,2.48-0.77,4.41,1.38,5.71C304.86,252.71,306.67,253.77,308.47,254.84z M365.9,404.47c-7.84,2.17-9.57,3.94-7.79,8.11
		C360.81,410,366.59,410.58,365.9,404.47z M305.91,157.83c0.83-6.37-4.16-6.7-6.99-9.22c-1.41,2.1-1.64,3.75,0.43,5.1
		C301.35,155.01,303.38,156.25,305.91,157.83z M364.23,283.52c-2.75-1.52-4.4-3.89-7.26-4.65c0.2,5.32,0.97,6.34,5.92,7.82
		C363.28,285.77,363.67,284.83,364.23,283.52z M354.35,181.51c-0.67,4.77,0.96,6.79,6.79,8.72c-0.39-1.76-0.76-3.41-1.13-5.06
		C358.18,183.99,356.38,182.83,354.35,181.51z M362.22,307.06c-3.21,0.12-5.24,2.36-7.53,4.01c-0.35,0.25-0.5,1.37-0.24,1.74
		c0.37,0.54,1.22,1.1,1.83,1.05C359.89,313.6,361.69,311.52,362.22,307.06z M292.23,96.69c-6.62,2.9-6.99,3.43-6.19,8.74
		c2.08-1.69,4.05-3.3,6.19-5.04C292.23,99.41,292.23,98.23,292.23,96.69z M285.79,235.62c0,1.28-0.36,3.19,0.06,3.38
		c2.2,0.99,2.83,4.62,6.1,3.73C292.46,239.04,291.74,238.18,285.79,235.62z M381.63,394.41c-6.79,2.69-7.91,4.36-5.76,8.61
		C377.91,400.28,381.29,398.83,381.63,394.41z M288.88,145.45c-0.15-1.12,0.05-2.73-0.48-3.01c-1.78-0.97-2.22-3.72-4.75-3.69
		C283.33,142.97,284.36,144.33,288.88,145.45z M275.9,108.59c-4.43,3.19-4.85,4.12-3.54,7.36
		C277.28,112.22,277.62,111.56,275.9,108.59z M392.54,383.91c-4.18,2.58-4.48,3.32-2.9,7.19
		C390.76,388.72,394.73,387.94,392.54,383.91z M374.87,199.12c-1.76-1.96-1.88-5.22-5.3-5.71c-0.45,1.91,0.12,3.94,1.5,5.3
		C372.07,199.71,373.19,200.34,374.87,199.12z M274.04,134.46c0.74-5.81,0.27-4.18-4.4-5.69
		C269.6,131.89,273.23,132.05,274.04,134.46z M385.59,293.02c3.94-1.17,4.57-2.35,3.34-6.37
		C387.42,288.65,384.69,289.81,385.59,293.02z M273.06,225.53c-1.11,4.28,3.89,3.81,4.48,6.46c-0.09-1.38-0.19-2.76-0.29-4.2
		C276.02,227.12,274.87,226.51,273.06,225.53z M265.18,219.34c0.83-2.67-1.01-3.36-2.62-4.58
		C261.65,217.57,263.56,218.21,265.18,219.34z M386.18,211.3c-0.67-2.73-2.03-4.07-3.81-5.43
		C382.27,208.5,382.27,208.5,386.18,211.3z M396.69,320.06c0.34-0.18,0.68-0.35,1.02-0.53c-0.87-1.32-0.17-3.33-2.69-3.97
		C395.57,317.06,396.13,318.56,396.69,320.06z M387.08,304c-1.27,2.41-1.25,2.46,1.9,4.69C388.22,306.8,387.73,305.6,387.08,304z
		 M403.39,330.57c0.91-2.88,0.91-2.88-0.92-5.06C402.8,327.32,403.1,328.95,403.39,330.57z M400.75,233.57
		c0.39-2.28,0.39-2.28-0.79-4.02C398.72,231.29,399.8,232.44,400.75,233.57z M396.34,280.7c1.18-1.71,2.44-2.47,1.6-4.1
		C396.15,277.75,396.15,277.75,396.34,280.7z M393.29,218.17c-1.02,2.77-1.02,2.77,1.39,4.38
		C394.13,220.81,393.71,219.49,393.29,218.17z M402.57,267.36c0.34,0.04,0.68,0.07,1.02,0.11c0.1-0.6,0.26-1.21,0.27-1.81
		c0.01-0.4-0.2-0.81-0.32-1.21c-0.24,0.03-0.47,0.05-0.71,0.08C402.75,265.47,402.66,266.42,402.57,267.36z M253.31,125.37
		c1.45-2.17,1.45-2.17,0-3.33C253.31,123.12,253.31,124.05,253.31,125.37z M254.2,137.07c1.07-1.4,1.07-1.4,0.13-2.6
		C254.29,135.4,254.25,136.04,254.2,137.07z M401.01,375.59c-0.33-0.16-0.66-0.31-0.99-0.47c-0.3,0.78-0.6,1.55-0.89,2.33
		c0.28,0.12,0.57,0.24,0.85,0.35C400.32,377.07,400.66,376.33,401.01,375.59z"/>
	<path d="M406.68,344.48c0.33,0.95,0.66,1.89,1.09,3.12c-1.96-0.78-0.88-2.17-1.06-3.19C406.71,344.4,406.68,344.48,406.68,344.48z"
		/>
</g>
</svg>
