<?xml version="1.0" encoding="utf-8"?>
<!-- Generator: Adobe Illustrator 27.1.1, SVG Export Plug-In . SVG Version: 6.00 Build 0)  -->
<svg version="1.1" id="Layer_1" xmlns="http://www.w3.org/2000/svg" xmlns:xlink="http://www.w3.org/1999/xlink" x="0px" y="0px"
	 viewBox="0 0 1335.34 688.32" style="enable-background:new 0 0 1335.34 688.32;" xml:space="preserve">
<g>
	<path d="M528.14,457.08c9.41-1.99,14.62,2.65,19.87,6.89c5.69,4.59,7.43,10.88,7.11,17.97c-0.27,6.05-0.84,12.01-1.72,18.04
		c-1.01,6.94,0.02,14.1,4.03,21.31c4.55,8.17,5.89,18.31,2.5,28.04c-0.4,1.15-0.5,2.39-0.82,3.57c-0.51,1.87-1.01,3.75-1.67,5.56
		c-1.47,4.04-2.31,8.55-4.72,11.95c-4.12,5.82-8.83,11.39-14.09,16.18c-4.19,3.82-9.56,6.35-14.46,9.37
		c-0.81,0.5-1.87,0.62-2.84,0.81c-2.45,0.48-5.41,0.17-7.29,1.46c-8.03,5.54-17.54,5.2-26.42,7.39c-6.03,1.48-11.85,4.11-17.95,4.99
		c-13.56,1.96-27.13,4.13-40.99,3.1c-6.06-0.45-12.24,0.14-18.31,0.75c-5.17,0.52-8.93,5.79-8.32,10.88
		c2.07,17.21,4.25,34.41,6.15,51.64c0.21,1.94-0.56,4.52-1.82,5.99c-3.77,4.4-8.52,6.72-14.5,4.49c-4.93-1.83-7.64-5.46-8.26-10.59
		c-2.08-17.47-4.3-34.93-6.04-52.44c-0.68-6.86-2.87-12.39-9.37-15.26c-2.4-1.06-5.29-0.98-7.92-1.61
		c-6.09-1.46-12.17-2.94-18.21-4.6c-3.07-0.84-6.08-1.97-9.03-3.18c-6.02-2.48-11.93-5.21-17.96-7.67
		c-14.96-6.11-27.3-16.08-38.89-26.95c-2.73-2.56-5.5-5.66-6.53-10.04c-1.9-8.13,5.77-14.58,13.57-13.9
		c4.69,0.41,7.39,3.12,10.54,5.68c8.19,6.68,16.25,13.54,24.72,19.84c3.16,2.35,7.34,3.3,11.04,4.94c2.22,0.98,4.34,2.23,6.62,3.05
		c4.37,1.57,8.79,3.05,13.26,4.34c4.92,1.42,9.92,2.59,14.89,3.86c0.6,0.15,1.39,0.04,1.79,0.39c3.87,3.41,8.39,2.4,12.86,2.08
		c1.2-0.09,2.73-0.05,3.6,0.61c3.38,2.55,7.01,1.9,10.78,1.56c2.25-0.2,4.59,0.49,6.89,0.75c3.18,0.36,6.38,1.1,9.53,0.95
		c11.22-0.54,22.43-1.32,33.63-2.16c13.83-1.04,27.57-2.58,40.97-6.47c3.79-1.1,7.88-1.12,11.8-1.78c2.07-0.35,4.13-0.9,6.13-1.55
		c4.92-1.61,9.99-2.94,14.65-5.13c3.25-1.53,6.46-3.83,8.75-6.57c7.08-8.48,12.47-17.59,9.71-29.58c-1.01-4.38-2.45-8.37-4.05-12.53
		c-2.97-7.71-4.21-16.06-2.56-24.56c0.72-3.71,0.9-7.63,0.66-11.41c-0.26-4.04-6.81-8.56-11.27-8.02c-2.93,0.35-5.61,0.59-8.12-1.5
		c-0.85-0.71-2.38-0.58-3.57-0.92c-1.97-0.56-3.93-1.16-5.88-1.79c-0.7-0.23-1.33-0.75-2.04-0.9
		c-13.88-2.98-24.94-10.71-34.37-20.86c-4.03-4.33-8.47-8.94-10.47-14.27c-1.92-5.09-5.15-10.03-3.77-16.68
		c1.03-4.96,2.2-9.5,5.05-13.45c5.8-8.05,14.13-11.78,23.8-12.95c9.79-1.18,19.57-2.4,29.34-3.7c1.32-0.18,2.56-0.94,3.86-1.37
		c4.1-1.37,8.15-2.9,12.32-4c3.51-0.93,8.58-6.42,7.97-9.95c-2.11-12.24-4.04-24.56-7.05-36.59c-1.59-6.35,3.12-17.83,11.2-18.44
		c2.33-0.17,4.71-1.82,6.74-3.25c5.04-3.55,10.16-7.06,14.75-11.15c3.78-3.36,7.22-7.26,10.13-11.4c2.66-3.78-0.24-12.86-3.88-15.74
		c-5.73-4.53-12.33-6.75-19.07-9.3c-7.26-2.74-13.77-7.6-20.38-11.89c-9.35-6.06-17.25-13.85-24.36-22.34
		c-3.94-4.71-7.15-10.05-10.45-15.25c-3.07-4.84-5.97-9.8-8.64-14.87c-1.19-2.26-2.06-4.87-2.28-7.4
		c-0.48-5.55-2.62-10.41-4.47-15.56c-2.74-7.62-3.46-15.98-4.78-24.07c-0.73-4.48-1.33-8.89-4.46-12.47
		c-0.31-0.36-0.59-0.9-0.6-1.35c-0.11-7.73-4.47-14.09-6.95-21.02c-2.28-6.37-5.61-12.37-8.68-18.43c-2.1-4.15-4.27-8.32-6.92-12.13
		c-3.02-4.35-6.26-8.67-10.03-12.37c-8.07-7.94-16.17-15.93-24.96-23.04c-7.57-6.13-15.6-11.82-24.91-15.39
		c-6.02-2.31-11.7-5.5-17.73-7.79c-4.37-1.66-9.06-2.48-13.6-3.7c-1.78-0.48-3.56-0.98-5.32-1.52c-1.19-0.37-2.32-1.1-3.52-1.22
		c-5.81-0.55-11.65-0.86-17.46-1.44c-4.77-0.48-9.51-1.58-14.28-1.77c-5.2-0.21-10.42,0.41-15.63,0.5
		c-3.35,0.06-6.84,0.36-10.04-0.38c-8.57-2-16.92,0.12-25.33,0.79c-8.09,0.65-16.12,1.94-24.18,2.91c-7.56,0.91-14.9,2.18-22.04,5.4
		c-4.97,2.25-10.93,2.28-16.42,3.44c-1.92,0.4-3.8,1.11-5.63,1.83c-3.41,1.34-6.7,3.01-10.16,4.16c-7.84,2.61-15.68,5.1-22.79,9.5
		c-3.53,2.18-7.44,3.73-11.07,5.76c-5.56,3.11-11.07,6.3-16.51,9.61c-5.86,3.56-11.82,7.01-17.34,11.04
		c-4.27,3.12-7.96,7.05-11.86,10.68c-5.94,5.55-11.86,11.12-17.73,16.74c-1.34,1.29-2.48,2.79-3.59,4.29
		c-6.03,8.16-13.83,14.92-18.38,24.3c-2.31,4.76-6.15,8.76-9.01,13.28c-1.33,2.1-1.84,4.7-2.93,6.97c-0.9,1.87-2.38,3.49-3.15,5.4
		c-3.1,7.67-6.02,15.41-9.02,23.12c-1.64,4.23-3.36,8.42-4.91,12.68c-0.5,1.37-0.45,2.93-0.8,4.37c-0.43,1.76-1.19,3.46-1.5,5.24
		c-0.47,2.63-0.6,5.32-1.02,7.96c-0.49,3.11-1.1,6.2-1.71,9.3c-0.14,0.72-0.77,1.46-0.65,2.08c1.78,9.03-2.73,17.74-1.05,26.91
		c1.25,6.81,0.49,13.97,1.3,20.89c1.05,9.01,2.76,17.94,4.2,26.91c0.16,0.98,0.39,1.95,0.6,2.93c1.5,7.13,1.24,14.65,5.57,21.13
		c1.38,2.07,1.37,5.03,2.24,7.49c0.75,2.13,1.92,4.1,2.79,6.19c0.94,2.25,2.15,4.49,2.53,6.84c0.51,3.17,0.91,6.18,3.86,8.12
		c0.4,0.26,0.97,0.73,0.96,1.1c-0.07,5.58,4.44,8.91,6.62,13.38c1.72,3.54,4.19,6.74,6.43,10.01c3.89,5.68,7.75,11.38,11.84,16.92
		c4.33,5.87,9.23,11.34,13.28,17.39c4.1,6.13,7.4,12.78,11.15,19.14c2.56,4.34,5.4,8.52,7.88,12.9c1.08,1.91,1.19,4.44,2.47,6.14
		c2.73,3.64,3.55,8.36,5.8,11.72c3.72,5.54,4.57,11.34,5.64,17.38c0.13,0.72,0.58,1.37,0.86,2.06c1.56,3.87,3.3,7.68,4.63,11.63
		c1.92,5.72,4.11,11.44,5.17,17.34c2.13,11.9,3.71,23.9,5.25,35.9c0.93,7.29,1.74,14.64,1.92,21.97c0.19,7.8,0.72,15.89-1.03,23.36
		c-1.52,6.5-0.84,12.69-1.35,18.99c-0.41,5.02-1.41,10.41-2.81,15.2c-1.88,6.44-3.13,13-4.92,19.43
		c-1.84,6.62-3.15,13.54-6.14,19.61c-1.95,3.97-5.6,7.93-11.15,8.11c-6.47,0.21-14.52-7.83-13.51-13.84
		c0.43-2.58,1.79-4.99,2.66-7.51c1.72-4.97,3.38-9.95,5.08-14.92c0.16-0.46,0.62-0.85,0.69-1.31c0.82-5.65,1.61-11.31,2.38-16.98
		c0.1-0.73-0.32-1.68,0.01-2.21c3.77-6.2,1.06-13.54,3.57-19.94c0.18-0.46,0.3-0.97,0.32-1.46c0.41-8.8,1.53-17.64,1.01-26.38
		c-0.78-13.06-2.73-26.04-4.19-39.06c-0.38-3.35-0.51-6.76-1.27-10.02c-0.95-4.08-2.52-8.01-3.68-12.05
		c-1.11-3.82-2.06-7.69-3.04-11.55c-0.25-0.96-0.17-2.03-0.55-2.93c-2.67-6.48-5.43-12.92-8.11-19.4c-0.75-1.82-1.19-3.77-2.03-5.55
		c-2.97-6.29-6.04-12.52-9.09-18.77c-0.38-0.77-1.14-1.47-1.23-2.25c-0.33-2.92-1.35-5.29-4.26-6.49c-0.32-0.13-0.7-0.47-0.77-0.78
		c-1.26-5.81-5.88-9.54-8.89-14.25c-3.64-5.72-7.85-11.09-11.79-16.62c-2.43-3.43-4.79-6.91-7.22-10.34
		c-4.74-6.72-9.5-13.42-14.24-20.14c-0.28-0.4-0.53-0.84-0.75-1.28c-3.21-6.35-7.23-12.44-9.38-19.12
		c-2.12-6.59-7.4-11.9-7.47-19.22c-0.01-0.7-0.28-1.57-0.75-2.08c-5.47-5.96-4.37-13.78-5.98-20.83c-0.96-4.2-1.85-8.44-3.25-12.5
		c-4.78-13.79-6.24-27.79-4.52-42.33c0.67-5.7-0.27-11.63-0.88-17.41c-0.41-3.9-0.9-7.6,1.34-11.19c0.65-1.04,0.66-2.66,0.52-3.97
		c-0.45-4.4-0.22-8.5,1.55-12.78c1.62-3.93,1.94-8.4,2.71-12.66c0.93-5.16,1.34-10.45,2.68-15.5c1.1-4.17,3.3-8.03,4.87-12.09
		c1.54-3.98,2.86-8.05,4.36-12.05c1.29-3.44,2.4-7.01,4.12-10.23c4.96-9.3,9.89-18.64,15.43-27.59c4.13-6.67,8.99-12.93,13.89-19.09
		c5.87-7.38,11.89-14.67,18.29-21.59c4.71-5.09,9.95-9.73,15.27-14.2c6.21-5.22,12.6-10.24,19.19-14.95
		c5.21-3.72,11.03-6.58,16.22-10.32c3.45-2.49,6.91-4.29,10.99-5.74c4.94-1.75,9.1-5.58,13.76-8.22c3.76-2.13,7.68-4.07,11.69-5.66
		c5.61-2.22,11.28-4.36,17.09-5.94c5.04-1.37,10.02-2.33,14.45-5.59c2.08-1.53,5.54-1.12,8.33-1.81c3.46-0.85,7.12-1.41,10.25-2.99
		c6.43-3.25,13.4-3.9,20.27-4.8c16.21-2.13,32.49-3.82,48.74-5.62c1.84-0.2,3.86-0.45,5.57,0.07c7.03,2.17,14.09,1.22,21.18,0.79
		c2.41-0.15,4.88,0.42,7.31,0.77c1.84,0.27,3.68,1.08,5.49,1c4.75-0.23,9.43-0.67,13.92,1.61c1.01,0.51,2.46,0.12,3.7,0.25
		c3.63,0.39,7.3,0.64,10.89,1.31c5.04,0.93,10.03,2.18,15.04,3.31c0.6,0.14,1.36,0.18,1.75,0.56c2.68,2.61,5.93,2.39,9.36,2.62
		c2.76,0.18,5.45,1.96,8.09,3.21c9.59,4.55,19.32,8.86,28.67,13.86c6.53,3.5,12.75,7.68,18.68,12.13c4.55,3.42,8.18,8.03,12.64,11.6
		c8.16,6.54,13.95,15.09,20.01,23.3c3.18,4.31,7.31,8.09,8.67,14.04c0.96,4.2,4.85,7.73,7.44,11.55c0.28,0.41,0.81,0.72,0.91,1.15
		c0.98,4.29,4.21,7.82,5.35,11.56c2.18,7.18,7.64,13.17,7.45,21.21c-0.06,2.44,1.58,4.91,2.35,7.39c1.28,4.13,2.65,8.23,3.69,12.42
		c1.85,7.48,3.47,15.02,5.21,22.52c0.73,3.15,1.69,6.25,2.25,9.42c0.69,3.97,1.9,7.53,4.16,11.03c2.95,4.54,4.71,9.84,7.33,14.62
		c1.53,2.79,3.59,5.34,5.71,7.73c2.86,3.23,5.77,6.47,9.07,9.21c5.17,4.29,10.4,8.63,16.13,12.09c6.01,3.63,12.67,6.19,18.98,9.33
		c7.08,3.52,14.96,5.91,20.26,12.14c3.23,3.8,5.73,8.26,8.28,12.59c1.05,1.78,1.61,3.94,1.97,6.01c0.43,2.47,0.42,5.02,0.58,7.54
		c0.02,0.36-0.17,0.73-0.18,1.1c-0.1,13.66-7.76,23.22-16.89,32.29c-5.63,5.59-12.32,9.38-18.9,13.46
		c-4.49,2.78-6.77,9.1-5.31,15.04c2.81,11.48,5.69,22.94,8.27,34.47c1.28,5.72-4.58,16.22-11.85,17.73
		c-4.84,1.01-10.03,1.03-13.64,5.24c-0.28,0.33-0.91,0.4-1.39,0.52c-15.36,3.84-30.16,10.1-46.35,10.43
		c-2.01,0.04-4.39,1.67-5.9,3.25c-4.65,4.85-4.12,10.53,1.1,14.82c3.47,2.85,6.81,5.97,10.64,8.25c3.71,2.21,7.89,3.76,12.02,5.13
		c4.17,1.38,8.51,2.24,12.8,3.23C522.52,455.96,526.14,456.66,528.14,457.08z"/>
	<path d="M1188.53,401.82c-2.22-4.91-4.21-9.52-6.4-14.03c-1.14-2.35-2.72-4.48-3.99-6.76c-1.35-2.42-2.6-4.89-3.83-7.37
		c-0.2-0.4,0.11-1.08-0.11-1.46c-2.46-4.25-5.02-8.44-7.46-12.69c-2.4-4.18-4.62-8.48-7.09-12.63c-1.74-2.93-3.92-5.59-5.58-8.56
		c-1.85-3.31-5.2-5.42-6.01-9.76c-0.61-3.25-3.72-6.04-5.79-8.99c-2.72-3.88-5.45-7.75-8.28-11.54c-4.54-6.1-9.19-12.12-13.74-18.21
		c-1.04-1.39-1.8-3-2.87-4.37c-1.24-1.6-2.69-3.03-4.04-4.55c-0.58-0.65-1.31-1.22-1.67-1.97c-3-6.25-7.83-10.98-12.6-15.86
		c-3.83-3.92-6.84-8.63-10.58-12.65c-3.34-3.6-7.18-6.75-10.8-10.08c-0.36-0.33-0.9-0.54-1.14-0.94
		c-4.75-8.07-13.17-12.45-19.38-19.1c-3.74-4.02-9.27-6.35-13.85-9.62c-1.48-1.06-2.31-3.04-3.82-4.03
		c-5.9-3.88-11.94-7.54-17.95-11.26c-3.19-1.97-6.42-3.88-9.63-5.83c-0.53-0.32-0.98-0.82-1.54-1.04
		c-5.53-2.23-11.07-4.43-16.62-6.62c-2.12-0.84-3.28-0.22-3.57,2.18c-0.42,3.48-1.11,6.93-1.6,10.41
		c-0.93,6.59-1.86,13.18-2.68,19.78c-0.58,4.61-1.25,9.23-1.43,13.86c-0.39,10.02-0.45,20.05-0.73,30.07
		c-0.31,11.03-0.56,22.07-1.12,33.09c-0.55,10.6-1.44,21.19-2.23,31.78c-0.32,4.29-0.48,8.62-1.26,12.83
		c-0.62,3.35-2.09,6.53-3.18,9.79c-0.16,0.47-0.53,0.99-0.44,1.41c1.55,7.11-4.03,12.42-4.82,19.06c-0.5,4.26-3.59,8.15-4.94,12.39
		c-3.4,10.65-9.81,19.49-16.78,27.91c-2.11,2.55-5.42,4.19-8.34,5.99c-2.67,1.65-5.67,2.76-8.34,4.43c-3.37,2.11-6.5,4.59-9.81,6.79
		c-3.68,2.44-7.44,4.76-11.17,7.12c-2.71,1.72-5.36,3.57-8.17,5.11c-5.01,2.75-10.12,5.31-15.19,7.94c-0.44,0.23-0.9,0.61-1.33,0.6
		c-7.43-0.23-14.87-0.39-22.3-0.83c-3.99-0.23-7.95-1.1-11.94-1.34c-1.21-0.07-3.11,0.67-3.63,1.62c-1.53,2.81-2.54,5.91-3.74,8.91
		c-0.37,0.92-0.59,1.92-1.09,2.75c-2.73,4.5-5.41,9.03-8.35,13.38c-1.15,1.7-2.84,3.09-4.47,4.38c-1.86,1.47-5.24,1.69-3.9,5.5
		c0.09,0.25-1.23,1.07-1.96,1.53c-5.73,3.64-11.44,7.31-17.23,10.86c-2.6,1.6-5.35,2.94-8.73,4.78
		c11.59-15.77,21.12-31.86,27.65-49.57c-0.25-0.28-0.49-0.56-0.74-0.85c-25.91,14.97-51.83,29.94-77.74,44.91
		c0.06,0.48,0.11,0.96,0.17,1.44c3.14,0.89,6.23,2.1,9.43,2.6c5.96,0.94,11.99,1.43,17.97,2.17c3.79,0.47,7.54,1.33,11.34,1.51
		c2.17,0.11,4.4-0.77,6.59-1.25c1.15-0.25,2.28-0.61,3.41-0.92c0.3,0.4,0.6,0.79,0.91,1.19c-0.61,0.21-1.28,0.32-1.82,0.63
		c-7.72,4.48-15.38,9.07-23.17,13.44c-1.51,0.85-3.45,1.18-5.23,1.29c-6.15,0.38-12.39,1.28-18.45,0.65
		c-7.75-0.81-15.42-2.71-23.03-4.51c-5.38-1.28-10.5-3.11-15.3-6.31c-4.09-2.73-9.29-3.75-13.88-5.77
		c-1.99-0.88-3.67-2.43-5.54-3.61c-5.48-3.44-11.1-6.68-16.44-10.32c-3.93-2.69-7.46-5.96-11.25-8.86
		c-5.64-4.31-11.47-8.39-17-12.84c-3.02-2.43-5.58-5.42-8.35-8.16c-3.77-3.74-7.55-7.47-11.3-11.23
		c-3.93-3.94-7.93-7.83-11.69-11.92c-2.46-2.67-2-3.56,1.25-5.16c2.01-0.99,3.74-2.53,5.67-3.72c0.79-0.49,1.76-0.68,2.65-1
		c1.28-0.46,2.66-0.74,3.83-1.4c4.82-2.72,9.63-5.48,14.36-8.37c6.52-3.99,12.93-8.17,19.46-12.15c3.01-1.84,6.25-3.3,9.28-5.1
		c2.7-1.6,5.14-3.67,7.91-5.11c3.46-1.8,7.24-2.97,10.71-4.76c4.67-2.4,9.5-4.7,13.68-7.82c8.9-6.64,18.66-11.69,28.37-16.91
		c4.12-2.22,7.75-5.34,11.62-8.02c0.5-0.35,1.08-0.58,1.63-0.85c2.13-1.04,4.43-1.82,6.35-3.16c2.56-1.79,4.42-2.58,7.02,0.27
		c4.65,5.1,9.62,9.92,14.72,14.58c4.05,3.7,8.58,6.89,12.74,10.48c4.22,3.64,8.03,7.79,12.44,11.19c7.8,6.02,15.88,11.68,23.9,17.4
		c3.75,2.68,7.65,5.16,12.11,8.15c0.42-3.59,0.93-6.66,1.1-9.75c0.7-12.8,1.43-25.6,1.86-38.41c0.31-9.34,0-18.71,0.28-28.05
		c0.24-8.2,0.8-16.4,1.43-24.59c0.62-8.13,1.14-16.3,2.39-24.35c1.22-7.82,3.35-15.49,5.01-23.25c0.28-1.31,0.15-2.71,0.25-4.07
		c0.08-1.09-0.01-2.27,0.37-3.25c2.85-7.4,5.77-14.77,8.72-22.13c2.08-5.17,3.84-10.52,6.47-15.41c2.41-4.48,5.77-8.45,8.74-12.62
		c1.48-2.06,2.65-4.65,4.64-5.98c4.72-3.16,9.93-5.58,14.79-8.55c3.6-2.2,6.89-4.9,10.45-7.17c7.19-4.6,14.42-9.15,21.74-13.56
		c4.45-2.68,8.97-5.3,13.68-7.47c2.7-1.25,5.8-1.91,8.78-2.2c9.53-0.92,19.06-2.54,28.7-0.79c0.95,0.17,2.63-0.74,3.17-1.64
		c3.15-5.22,6.59-10.37,8.89-15.97c2.62-6.38,8.94-8.61,13-13.29c2.76-3.19,5.86-6.1,9.11-9.45c0.93,1.25,1.37,1.85,2.16,2.92
		c4.96-3.9,9.88-7.76,14.8-11.63c0.15,0.16,0.31,0.32,0.46,0.48c-2.59,2.68-5.28,5.27-7.74,8.06c-1.95,2.21-5.16,3.89-3.86,7.77
		c0.08,0.24-0.28,0.65-0.47,0.97c-2.56,4.35-5.2,8.64-7.65,13.05c-1.9,3.42-3.56,6.97-5.32,10.47c0.29,0.25,0.58,0.5,0.87,0.75
		c24.32-14.17,48.63-28.34,73.37-42.76c-1.35-3.56-4.66-2.85-6.77-2.82c-8.36,0.1-16.85,1.82-25.01,0.77
		c-5.02-0.65-9.18,1.67-14.99,1.28c3.74-2.07,6.48-3.59,9.29-5.15c0.28,0.31,1.03,1.35,1.16,1.28c2.12-1.21,4.86-2.09,6.1-3.95
		c3.34-5.04,8.77-5.72,13.59-8c5.36-2.53,11-1.44,16.43-2.54c6-1.22,12.5-0.24,18.76,0.18c4.68,0.31,9.37,0.98,13.96,1.96
		c5.58,1.19,11.05,2.91,16.58,4.35c3.36,0.87,6.82,1.43,10.11,2.5c3.15,1.03,6.16,2.5,9.2,3.86c5.25,2.35,10.59,4.55,15.69,7.21
		c4.74,2.48,9.23,5.44,13.78,8.26c3.12,1.94,6.33,3.79,9.19,6.06c6.96,5.53,13.74,11.29,20.6,16.95c3.01,2.48,6.13,4.85,9.02,7.46
		c3,2.7,5.83,5.58,8.65,8.48c4.98,5.13,10.47,9.73,14.57,15.76c2.48,3.64,6.02,6.55,9.04,9.84c0.82,0.9,1.38,2.04,2.19,2.96
		c1.58,1.78,3.24,3.49,4.88,5.22c1.11,1.16,2.34,2.22,3.33,3.48c3.54,4.54,7.08,9.09,10.47,13.74c3.16,4.34,6.11,8.84,9.19,13.25
		c3.29,4.72,6.72,9.34,9.88,14.13c4.36,6.6,8.67,13.24,12.76,20.01c3.91,6.47,7.52,13.13,11.26,19.7
		c3.77,6.64,6.93,13.76,11.49,19.8c4.04,5.35,4.51,12.12,8.54,17.3c2.17,2.8,3.93,5.92,5.93,8.86c1.59,2.32,0.49,3.46-1.74,3.98
		c-8.38,1.95-15.48,6.31-22.44,11.2c-2.83,1.99-6.7,2.42-9.84,4.06c-3.89,2.02-7.45,4.64-11.26,6.83c-2.22,1.27-4.71,2.07-6.96,3.31
		c-4.92,2.71-9.81,5.46-14.6,8.37c-4.11,2.49-8.02,5.3-12.11,7.82c-1.97,1.22-4.18,2.03-6.22,3.15c-7.29,3.99-14.65,7.88-21.8,12.11
		c-3.46,2.05-6.51,4.8-9.79,7.16c-1.07,0.77-2.28,1.36-3.47,1.95c-1.82,0.91-3.68,1.74-5.51,2.65c-0.31,0.16-0.47,0.62-0.79,0.78
		C1201.93,395.02,1195.84,398.11,1188.53,401.82z M1275.83,274.66c-0.06,0-0.12-0.01-0.18-0.01c-0.82-1.46-1.7-2.89-2.45-4.39
		c-0.49-1-0.59-2.23-1.21-3.11c-2.86-4.08-5.95-8-8.76-12.12c-3.87-5.68-7.54-11.49-11.33-17.22c-3.24-4.89-6.48-9.77-9.82-14.6
		c-1.67-2.42-3.51-4.73-5.35-7.03c-2.91-3.64-5.82-7.28-8.87-10.81c-1.5-1.74-3.43-3.11-4.92-4.87c-2.05-2.42-3.74-5.14-5.79-7.56
		c-2.56-3.02-5.37-5.84-8.02-8.78c-4.43-4.93-10.45-5.8-15.98-2.34c-4.29,2.69-8.63,5.3-12.95,7.94c-4.09,2.5-8.15,5.07-12.3,7.47
		c-3.23,1.87-7.18,2.61-9.4,6.07c-0.16,0.25-0.69,0.23-1.02,0.39c-4.24,2.03-8.5,4.03-12.71,6.13c-0.47,0.24-0.6,1.09-1.04,1.49
		c-0.91,0.81-1.83,1.71-2.91,2.21c-3.16,1.45-6.46,2.58-9.57,4.11c-1.88,0.92-3.45,2.44-5.26,3.54c-3.32,2.02-6.52,4.47-10.12,5.69
		c-2.58,0.87-3.55,2.33-2.91,4.18c1.58,4.54,3.05,9.28,7.36,12.28c1.31,0.91,2.58,1.98,3.61,3.19c5.37,6.38,10.72,12.77,15.94,19.27
		c2.48,3.09,4.66,6.42,6.96,9.65c3.27,4.6,6.56,9.19,9.78,13.84c3.75,5.43,7.48,10.87,11.12,16.37c2.52,3.8,4.8,7.76,7.33,11.56
		c3.2,4.81,7.15,9.23,9.64,14.38c1.96,4.05,6.28,6.92,6.14,12c-0.01,0.19,0.24,0.47,0.44,0.59c4.87,2.79,2.96,10.32,8.74,12.53
		c0.29,0.11,0.27,1.15,0.33,1.76c0.45,4.65,3.74,7.46,6.96,10.12c0.92,0.76,3.15,0.72,4.38,0.16c4.51-2.05,8.89-4.4,13.23-6.79
		c4.01-2.21,7.96-4.55,11.85-6.96c2.95-1.82,5.67-4.03,8.69-5.73c7.09-4.01,14.41-7.62,21.42-11.78c6.3-3.74,12.3-8,18.45-12
		c0.49-0.32,1.15-0.47,1.75-0.54c4.61-0.52,7.31-3.56,9.5-7.22c0.48-0.8,1.08-1.96,0.82-2.68c-1.33-3.78-2.87-7.49-4.42-11.19
		c-0.8-1.91-1.71-3.77-2.72-5.58c-0.64-1.15-1.54-2.17-2.33-3.24c-0.72-0.98-1.99-1.91-2.08-2.94c-0.36-3.97-3.46-6.25-5.24-9.33
		C1279.02,280.04,1277.41,277.36,1275.83,274.66z M862.95,378.9c0.2,0.77,0.24,3.18,0.99,3.43c1.44,0.47,3.5,0.11,4.91-0.64
		c3.23-1.73,6.23-3.9,9.32-5.89c4.02-2.59,7.94-5.38,12.1-7.73c4.95-2.8,10.17-5.12,15.16-7.86c2.82-1.55,5.32-3.68,8.12-5.28
		c7.65-4.37,15.39-8.58,23.09-12.87c4.18-2.33,8.41-4.58,12.51-7.05c1.46-0.88,3.13-2.1,3.73-3.57c1.61-3.93,3.3-8,3.85-12.16
		c0.85-6.43,0.97-12.98,1.07-19.48c0.2-14.13,0.04-28.26,0.34-42.38c0.17-8.1,0.82-16.2,1.5-24.28c0.56-6.68,1.53-13.33,2.18-20.01
		c0.08-0.82-0.46-2.06-1.12-2.47c-0.5-0.31-1.68,0.28-2.46,0.66c-1.1,0.54-2.08,1.33-3.18,1.89c-4.42,2.25-8.91,4.38-13.31,6.69
		c-9.81,5.16-19.6,10.38-29.36,15.64c-3.19,1.71-6.28,3.6-9.4,5.43c-0.31,0.18-0.48,0.58-0.77,0.81c-3.76,2.98-7.3,6.33-11.37,8.83
		c-4.79,2.95-10.08,5.07-15.05,7.74c-1.35,0.73-2.51,2.02-3.43,3.29c-3.58,4.97-3.75,10.98-4.81,16.7c-0.25,1.33-0.73,2.65-0.8,3.99
		c-0.36,6.47-0.55,12.96-0.92,19.43c-0.29,5.01-0.91,10-1.1,15.01c-0.15,3.66,0.31,7.35,0.2,11.02c-0.11,3.89-0.71,7.77-0.84,11.66
		c-0.11,3.31,0.35,6.64,0.23,9.95C863.96,358.98,863.44,368.55,862.95,378.9z M1188.81,167c-1.18-2.37-2.02-4.23-3.01-6
		c-0.66-1.18-1.34-2.49-2.35-3.33c-4.1-3.39-8.37-6.58-12.51-9.92c-4.74-3.81-9.17-8.06-14.17-11.48
		c-6.88-4.7-14.11-8.92-21.32-13.11c-4.33-2.52-8.69-5.48-13.44-6.69c-8.23-2.1-15.46-7.31-24.37-7.3c-4.06,0-8.03-0.7-11.85,1.4
		c-6.86,3.77-13.86,7.29-20.7,11.08c-5.8,3.21-11.47,6.65-17.18,10.03c-2.99,1.77-6.01,3.49-8.89,5.42
		c-3.91,2.62-7.69,5.43-11.54,8.14c-0.2,0.14-0.44,0.29-0.67,0.33c-5.91,0.89-10.28,4.76-15.11,7.76c-0.63,0.39-1.18,0.9-1.83,1.24
		c-3.13,1.63-6.28,3.23-9.92,5.09c1.24,0.88,1.84,1.57,2.58,1.79c8.87,2.72,17.77,5.35,26.65,8.05c0.69,0.21,1.33,0.65,1.96,1.04
		c3.81,2.31,7.52,4.79,11.43,6.9c2.79,1.51,6.09,2.16,8.74,3.86c4.03,2.59,7.71,5.74,11.51,8.68c4.09,3.17,8.18,6.34,12.23,9.57
		c5.25,4.19,10.67,8.19,15.61,12.72c5.27,4.82,11.23,6.04,17.48,2.38c5.02-2.94,9.73-6.43,14.78-9.32
		c6.79-3.88,13.86-7.27,20.64-11.15c6.91-3.95,13.63-8.26,20.44-12.39c3.27-1.99,6.52-4.03,9.87-5.88c4-2.21,8.13-4.18,12.12-6.41
		C1187.17,168.81,1188.1,167.63,1188.81,167z M826.6,433.4c-3.96-2.72-6.83-5.8-10.29-6.77c-4.08-1.14-6.98-3.67-10.31-5.73
		c-3.35-2.07-6.62-4.26-9.91-6.41c-4.05-2.65-8.28-5.08-12.08-8.05c-3.34-2.61-6.06-5.99-9.29-8.75c-4.57-3.9-9.43-7.44-14.01-11.32
		c-2.82-2.39-5.32-5.14-7.99-7.7c-1.35-1.3-3.02-2.35-4.08-3.84c-2.26-3.16-6.43-5.41-8.52-4.21c-5.06,2.88-10.16,5.71-15.17,8.66
		c-6.51,3.83-12.89,7.88-19.44,11.64c-6.98,4-14.16,7.67-21.14,11.69c-3.62,2.08-6.99,4.6-10.49,6.9c-3.14,2.07-6.28,4.14-9.48,6.12
		c-0.56,0.34-1.42,0.15-2.11,0.32c-0.82,0.2-1.67,0.4-2.4,0.8c-2.34,1.28-4.65,2.62-6.93,4.01c-1.09,0.67-2.08,1.5-3.79,2.76
		c3.47,2.76,6.54,4.91,9.25,7.44c2.5,2.34,4.37,5.35,6.92,7.62c5.83,5.18,11.82,10.18,17.9,15.06c4.03,3.23,8.33,6.12,12.5,9.19
		c4.62,3.41,9.07,7.07,13.86,10.22c4.77,3.13,9.77,5.95,14.85,8.53c4.64,2.35,9.42,4.88,14.86,1.93c3.31-1.79,6.73-3.38,10.02-5.2
		c4.31-2.39,8.59-4.85,12.81-7.41c3.54-2.15,6.91-4.58,10.47-6.7c1.54-0.92,3.5-1.13,5.03-2.06c4.18-2.57,8.23-5.36,12.33-8.05
		c0.31-0.2,0.68-0.31,1.02-0.47c3.69-1.76,7.45-3.38,11.04-5.32c5.08-2.74,10.08-5.65,15.04-8.61
		C820.13,437.81,823.07,435.72,826.6,433.4z M856.32,416.92c1.1,1.12,2.07,2.92,3.48,3.39c5.39,1.79,10.88,3.31,16.41,4.62
		c4.52,1.08,9.11,1.99,13.72,2.48c4.13,0.44,8.34,0.17,12.51,0.26c1.12,0.02,2.4-0.13,3.32,0.35c3.77,1.96,7.18,0.6,10.08-1.46
		c4.04-2.87,7.69-6.31,11.43-9.59c0.58-0.51,0.79-1.47,1.09-2.25c0.81-2.1,1.39-4.31,2.4-6.31c1.11-2.21,2.9-4.11,3.85-6.38
		c1.52-3.61,4.61-6.45,4.5-10.96c-0.04-1.82,2.71-3.53,3.45-5.56c4.03-11.01,7.68-22.15,9.41-33.79c0.21-1.41-0.11-3.39-1-4.28
		c-0.61-0.61-2.89-0.18-4.02,0.48c-8.7,5.03-17.35,10.17-25.93,15.41c-3.96,2.41-7.61,5.33-11.63,7.62
		c-6.66,3.79-13.55,7.19-20.26,10.9c-4.99,2.76-9.91,5.67-14.76,8.67c-4.55,2.82-10.17,4.69-12.56,9.8
		C859.47,405.31,858.27,410.84,856.32,416.92z M874.45,248.04c1.95-1.52,3.48-3.09,5.33-4.09c3.68-1.99,7.63-3.48,11.27-5.52
		c3.98-2.23,7.63-5.04,11.6-7.28c6.82-3.85,13.77-7.44,20.66-11.16c0.31-0.17,0.63-0.48,0.76-0.8c0.88-2.17,2.52-2.71,4.75-2.8
		c1.25-0.05,2.56-0.94,3.68-1.69c4.7-3.15,9.77-5.79,14.44-8.79c6.38-4.1,15.62-5.3,17.81-14.94c1.05-4.61,3.55-8.88,5.29-13.35
		c0.27-0.7,0.04-1.6,0.04-2.56c-5.89-0.76-11.49-1.86-17.13-2.11c-6.98-0.31-14,0.01-20.99,0.21c-3.81,0.11-7.84,1.42-11.37,0.57
		c-4.2-1.01-7.57,0.34-10.37,2.29c-4.33,3.01-8.46,6.66-11.72,10.79c-3.16,4-5.26,8.87-7.57,13.49c-2.58,5.13-4.98,10.35-7.27,15.62
		c-2.17,5-4.19,10.07-6.08,15.19c-0.76,2.05-0.38,4.78-1.61,6.33C873.34,240.71,873.58,243.98,874.45,248.04z M1189.65,364.43
		c-1.68,2.17-5.51,2.87-4.46,6.75c1.49,5.54,5.16,9.79,9.02,13.81c0.54,0.56,2.26,0.61,3.06,0.19c3.07-1.62,3.28-4.22,0.72-8.23
		C1195.41,372.91,1192.69,368.97,1189.65,364.43z M1299.5,278.01c-3.88-6.5-7.48-12.51-11.04-18.48c-6.87,3.23-6.76,3.55-2.79,8.68
		c2.12,2.74,3.15,6.31,4.91,9.36c0.94,1.63,2.21,3.2,3.71,4.26c0.38,0.27,2.22-1.5,3.37-2.35
		C1298.26,279.04,1298.82,278.56,1299.5,278.01z M1180.77,347.14c-0.42-0.91-0.66-2.71-1.57-3.15c-4.81-2.38-5.22-7.6-7.4-11.49
		c-2.46-4.41-2.62-5.07-6.68-2.04c-0.83,0.62-1.61,1.31-2.38,1.94c4.07,6.34,7.89,12.3,11.55,18
		C1176.49,349.29,1178.29,348.38,1180.77,347.14z M1302.8,299.26c0.94,1.57,1.4,3.02,2.39,3.82c2.5,2.02,3.33,4.44,3.77,7.63
		c0.65,4.74,2.52,5.76,7.12,5.1c1.11-0.16,2.89-0.93,2.99-1.61c0.16-1.09-0.72-2.41-1.38-3.51c-0.92-1.54-2.84-2.92-2.93-4.46
		c-0.28-4.7-2.75-7.69-6.36-10.35C1306.61,296.95,1304.92,297.97,1302.8,299.26z M1265,224.06c-5.08,2.35-5.95,3.64-4.38,6.11
		c2.64,4.16,5.22,8.36,8.02,12.4c0.75,1.08,2.42,2.53,3.3,2.31c1.52-0.38,3.15-1.69,3.94-3.07c0.37-0.64-1.08-2.37-1.78-3.56
		c-0.44-0.74-1.08-1.36-1.54-2.09C1270.06,232.2,1267.6,228.22,1265,224.06z M1158.06,310.04c-4.07-5.19-7.89-10.39-12.18-15.17
		c-0.64-0.72-3.49,0.54-5.32,0.89c0.29,1.26,0.27,2.74,0.96,3.72c1.11,1.58,2.98,2.65,4.03,4.26c2.25,3.45,4.18,7.12,6.28,10.76
		C1154.15,312.83,1155.73,311.7,1158.06,310.04z M1120.53,262.1c-1.27,0.92-2.89,1.71-3.88,2.99c-0.4,0.51,0.31,2.31,0.97,3.15
		c2.79,3.55,5.69,7.02,8.71,10.38c0.72,0.81,2.89,1.62,2.99,1.48c1.14-1.68,3.14-3.84,2.76-5.3c-1.36-5.14-6.03-8-9.52-11.66
		C1122.16,262.72,1121.49,262.58,1120.53,262.1z M1252.8,208.96c0.1-0.43,0.2-0.86,0.3-1.29c-5.55-3.79-6.46-11.71-13.64-14.25
		c-1.37,0.88-2.8,1.81-4.52,2.91c3.91,5.21,7.63,10.17,11.45,15.25C1248.8,210.61,1250.8,209.79,1252.8,208.96z M1104.73,251.34
		c1.53-1.61,2.94-3.09,4.59-4.83c-3.47-3.74-6.76-7.42-10.22-10.93c-0.56-0.57-2-0.86-2.74-0.56c-1.66,0.68-3.14,1.81-5.22,3.07
		c2.17,2.3,4.18,4.59,6.36,6.71C1099.68,246.94,1102.02,248.92,1104.73,251.34z M771.34,372.17c-3.2-2.91-6.25-5.56-9.15-8.37
		c-4.29-4.17-4.25-4.22-9.03,0.05c3.07,3.26,6.29,6.38,9.14,9.8c2.93,3.5,5.4,3.37,7.96-0.23
		C770.47,373.13,770.74,372.87,771.34,372.17z M653.06,441.97c-4.24-3.96-8.1-7.56-11.96-11.15c-2.24-2.08-4.28-1.45-6.03,0.6
		c-1.79,2.09,0.24,2.97,1.45,4.14c0.8,0.77,1.41,1.73,2.1,2.6C643,443.71,645.64,444.49,653.06,441.97z M1228.88,179.4
		c-1.51-2.45-2.32-4.69-3.88-6.11c-2.95-2.7-6.33-4.94-10.27-7.93c-0.97,1.17-2.28,2.74-3.89,4.67c3.86,3.85,7.5,7.49,10.85,10.84
		C1224.24,180.35,1226.11,179.97,1228.88,179.4z M1198.48,156.87c1.74-1.64,3.24-3.05,4.74-4.46c-3.22-3-6.34-5.97-9.57-8.82
		c-0.5-0.44-1.64-0.58-2.28-0.33c-1.69,0.66-3.27,1.62-5.35,2.69C1190.09,149.53,1194.26,153.18,1198.48,156.87z M797.31,394.18
		c-3.33-2.6-6.32-5.49-9.84-7.44c-1.57-0.87-5.03-0.64-6.16,0.52c-2.17,2.24,0.74,3.52,2.3,4.73c2.44,1.9,4.88,3.83,7.51,5.43
		c0.82,0.5,2.44,0.3,3.39-0.19C795.52,396.72,796.16,395.49,797.31,394.18z M1085.64,222.49c-3.29-2.71-5.96-4.86-8.56-7.08
		c-1.49-1.27-2.94-3.81-4.28-3.73c-1.59,0.1-3.06,2.39-4.56,3.75c-0.14,0.13-0.12,0.44-0.19,0.76c1.85,1.34,3.85,2.56,5.57,4.1
		c1.73,1.54,3.19,3.4,4.66,4.99C1080.64,224.38,1082.73,223.59,1085.64,222.49z M854.91,325.2c-7.73,3.94-7.94,3.68-5.72,19.31
		c2.22-2.34,5.09-3.98,5.48-6.08C855.46,334.19,854.91,329.7,854.91,325.2z M678.98,463.44c-1.7-0.99-3.32-1.79-4.77-2.84
		c-1.46-1.06-2.9-2.24-4.08-3.6c-2.02-2.33-3.86-3.91-6.53-0.77c-0.48,0.56-1.72,0.48-3.34,0.87c1.35,1.2,2.18,2.05,3.11,2.75
		c1.91,1.41,4.05,2.56,5.8,4.14C672.31,466.82,674.67,466.88,678.98,463.44z M973.67,257.08c-6.29,2.1-6.68,2.45-6.6,8.07
		c0.04,2.61,0.68,5.22,1.15,8.57c1.85-1.28,4.93-2.29,5.21-3.81C974.15,265.9,973.67,261.67,973.67,257.08z M1043.55,196.61
		c2.63,1.89,5.24,3.45,7.46,5.44c3.1,2.78,5.98,2.81,8.79-0.9c-2.03-1.76-3.97-3.61-6.08-5.23
		C1049.45,192.62,1047.54,192.73,1043.55,196.61z M966.57,304.56c0.73,0.27,1.45,0.54,2.18,0.81c1.51-1.94,3.85-3.69,4.34-5.86
		c0.74-3.31,0.19-6.92,0.19-11.12c-1.98,0.95-5.07,1.53-5.33,2.73C966.98,295.49,966.96,300.06,966.57,304.56z M854.89,357.69
		c-5.68,1.23-6.46,2.13-6.45,6.79c0,1.73-0.22,3.47-0.13,5.2c0.06,1.26,0.46,2.51,0.71,3.76c1.65-1.1,4.41-1.95,4.75-3.36
		C854.68,366.2,854.57,362.09,854.89,357.69z M703.44,481.11c-3.77-2.4-7.12-4.91-10.81-6.75c-2.58-1.28-4.59,0.15-5.66,3.08
		C692.47,478.89,695.94,487.07,703.44,481.11z M1178.62,132.56c-2.9-4.44-7.97-5.43-11.68-8.29c-1.56,1.19-2.96,2.26-4.32,3.29
		c3.55,2.7,6.75,5.14,9.76,7.43C1174.36,134.21,1176.22,133.49,1178.62,132.56z M856.21,295.12c-2.44,1.94-5.14,3.01-5.59,4.68
		c-0.96,3.63-0.77,7.56-1.08,11.79c3.21-1.11,6.13-1.41,6.34-5.02c0.14-2.39,0.24-4.78,0.32-7.17
		C856.24,298.28,856.21,297.15,856.21,295.12z M975.33,228.28c-0.29-0.38-0.58-0.75-0.87-1.13c-1.67,0.95-4.5,1.63-4.81,2.91
		c-0.97,4.02-0.99,8.26-1.43,12.88C977.01,240.16,973.63,233.18,975.33,228.28z M822.35,411.85c-4.33-2.49-7.91-4.69-11.65-6.56
		c-0.54-0.27-2.2,0.81-2.72,1.65c-0.36,0.57,0.05,2.12,0.64,2.7C812.1,413.07,815.99,415.27,822.35,411.85z M1137.98,113.07
		c0.08,0.34,0.16,0.67,0.24,1.01c4.92,1.1,9.36,8.26,14.82,0.87c-2.77-1.59-5.62-3.24-8.5-4.84c-0.25-0.14-0.74,0.03-1.06,0.19
		C1141.65,111.19,1139.82,112.14,1137.98,113.07z M971.35,317.66c-2.14,1.56-5.08,2.58-5.74,4.42c-1.2,3.34-1.04,7.17-1.46,10.94
		C971.29,330.4,971.16,324.36,971.35,317.66z M1035.34,184.27c-2.65-1.23-5.27-2.19-7.62-3.58c-3.32-1.97-5.09,1.34-7.84,2.08
		c1.12,1.01,2.33,1.58,3.58,2.01c1.27,0.43,2.79,0.42,3.83,1.14C1030.48,188.11,1031.74,188.01,1035.34,184.27z M853.06,386.31
		c-6.08,2.95-7.79,5.46-7.35,10.66c0.07,0.86,1.24,2.38,1.7,2.3c1.42-0.22,3.69-0.82,3.92-1.71
		C852.24,394.08,852.49,390.43,853.06,386.31z M725.72,493.68c-2.83-1.71-5.03-3.71-7.58-4.41c-2.61-0.72-5.6-0.24-7.57,3.14
		c1.49,0.62,2.64,1.26,3.88,1.59c1.65,0.43,3.77,0.09,4.97,1.01C722.16,497.11,723.61,495.39,725.72,493.68z M859.53,269.52
		c-5.92,1.43-7.99,6.06-6.2,13.21c1.35-0.68,3.37-1.04,3.66-1.96C858.1,277.29,858.66,273.63,859.53,269.52z M977.55,200.55
		c-6.88,7.29-7.18,8.03-5.3,12.82C976.42,211.04,978.59,205.82,977.55,200.55z M997.42,173.77c2.94,0.84,5.5,1.81,8.15,2.22
		c1.07,0.16,2.45-0.76,3.44-1.52c0.35-0.27,0.27-1.78-0.15-2.25C1006.21,169.24,999.76,169.99,997.42,173.77z M1129.2,104.55
		c-8.78-3.37-10.23-3.55-12.83,0.46C1122.49,108.48,1123.62,108.46,1129.2,104.55z M960.29,352.52c0.69,1.14,1.22,2.2,1.96,3.1
		c0.15,0.19,1.38-0.07,1.57-0.41c1.24-2.26,2.5-4.54,3.38-6.95c0.28-0.75-0.42-2.07-1.04-2.83c-0.23-0.28-1.93,0.03-2.25,0.53
		C962.59,347.97,961.55,350.17,960.29,352.52z M745.89,501.06c-4.4-3.77-7.54-3.58-11.85,1.35
		C738.29,501.46,742.22,506.57,745.89,501.06z M864.97,431.8c-4.21-0.83-7.76-3.08-11.5-0.17
		C856.69,435.61,859.63,435.72,864.97,431.8z M981.03,178.06c-5.09,2.22-2.38,7.78-5.52,10.28
		C981.58,187.57,981.94,183.61,981.03,178.06z M856.97,257.2c3.74-1.09,5.38-3.09,5.33-7.13c-0.01-0.87-0.61-1.73-0.94-2.59
		c-0.88,0.72-2.23,1.27-2.55,2.19C857.95,252.15,857.53,254.78,856.97,257.2z M1095.71,98.22c-0.02,0.47-0.03,0.95-0.05,1.42
		c3.38-0.15,6.75-0.3,10.86-0.49C1103.69,95.77,1098.46,95.76,1095.71,98.22z M869.5,226.1c-0.41-0.22-0.82-0.45-1.22-0.67
		c-1.42,2.55-2.83,5.1-4.25,7.65c0.4,0.22,0.8,0.44,1.2,0.66C868.86,232.4,868.75,229.02,869.5,226.1z M960.93,369.06
		c-4.62,1.77-5.8,4.13-4.69,9.36C957.93,375.05,959.23,372.45,960.93,369.06z M834.1,459.38c-0.51-0.5-1.02-0.99-1.53-1.49
		c-1.87,2.08-3.74,4.17-5.61,6.25c0.25,0.23,0.5,0.46,0.75,0.69C829.84,463.02,831.97,461.2,834.1,459.38z M945.99,394.72
		c0.48,0.45,0.95,0.9,1.43,1.35c1.71-1.82,3.42-3.65,5.13-5.47c-0.39-0.38-0.77-0.76-1.16-1.15
		C949.59,391.2,947.79,392.96,945.99,394.72z M835.39,445.42c0.24,0.26,0.48,0.53,0.72,0.79c1.41-1.35,2.89-2.65,4.16-4.12
		c0.2-0.23-0.54-1.27-0.85-1.94c-0.55,0.29-1.31,0.44-1.61,0.9C836.91,442.44,836.18,443.95,835.39,445.42z M818.54,479.09
		c0.22,0.39,0.45,0.78,0.67,1.17c3.14-0.79,4.82-3.26,5.92-6.41C822.94,475.6,820.74,477.35,818.54,479.09z M876.57,437.38
		c2.23-0.17,4.12-0.31,6.84-0.52C879.91,433.52,878.95,433.67,876.57,437.38z M936.53,410.66c0.4,0.47,0.8,0.95,1.2,1.42
		c1.57-1.34,3.14-2.68,4.65-4.08c0.03-0.02-0.92-1.17-0.94-1.16C939.78,408.08,938.16,409.37,936.53,410.66z M1076.38,97.55
		c2.62-1.63,5.73,0.56,7.17-3.29C1080.75,94.57,1078.01,93.06,1076.38,97.55z M883.93,197.03c3.05-2.6,5.27-4.49,7.48-6.38
		C889.06,192.47,884.65,191.79,883.93,197.03z"/>
</g>
</svg>
