<?xml version="1.0" encoding="utf-8"?>
<!-- Generator: Adobe Illustrator 27.1.1, SVG Export Plug-In . SVG Version: 6.00 Build 0)  -->
<svg version="1.1" id="Layer_1" xmlns="http://www.w3.org/2000/svg" xmlns:xlink="http://www.w3.org/1999/xlink" x="0px" y="0px"
	 viewBox="0 0 707.57 908.92" style="enable-background:new 0 0 707.57 908.92;" xml:space="preserve">
<path d="M341.05,582.9c0.41-0.99,0.45-1.4,0.62-1.46c5.92-2.15,9.41-7.58,14.56-10.78c2.88-1.79,5.01-4.69,7.62-6.64
	c5.91-4.43,9.78-10.58,14.88-15.64c0.68-0.67,1.48-1.29,1.92-2.11c0.48-0.89,1.06-2.19,0.73-2.92c-0.28-0.63-1.77-0.95-2.74-1.01
	c-6.25-0.36-12.44,0.38-18.66,1.05c-6.49,0.7-13.05,0.78-19.57,1.27c-7.69,0.58-15.39,0.76-23.04,2.18
	c-4.88,0.91-10.03,0.58-15.05,0.55c-3.41-0.02-5.97,1.15-8.15,3.78c-2.17,2.61-4.78,4.85-7.05,7.39c-2.44,2.73-2.1,3.56,0.53,5.92
	c5.11,4.6,10.87,8.21,16.89,11.39c3.47,1.84,7.31,2.96,10.9,4.59c2.21,1,4.4,2.15,6.35,3.58c1.63,1.19,1.14,2.64-0.83,3.18
	c-0.39,0.11-0.81,0.16-1.21,0.17c-5.58,0.2-11.16,0.51-16.74,0.54c-3.84,0.03-7.44-0.66-10.76-3.11c-2.46-1.82-5.64-2.65-8.44-4.03
	c-3.05-1.51-6.1-3.03-9.01-4.77c-1.79-1.07-3.11-1.07-4.78,0.25c-3.74,2.96-7.72,5.6-11.43,8.59c-3.7,2.98-7.85,4.3-12.5,4.17
	c-2.29-0.06-4.29-0.05-5.32,2.64c-0.29,0.75-1.72,1.45-2.66,1.51c-2.98,0.19-5.9-0.3-8.69-1.75c0.11-2.23,1.29-3.8,2.72-4.99
	c2.5-2.08,5.27-3.83,7.84-5.83c3.1-2.41,6.13-4.92,9.15-7.43c0.25-0.21,0.24-0.73,0.5-1.66c-1.28-0.17-2.4-0.48-3.5-0.44
	c-7.21,0.24-14.38,0.33-21.57,1.6c-6.13,1.08-12.47,0.96-18.73,1.25c-5.3,0.25-10.62,0.14-15.9,0.58c-2.23,0.18-4.42,1.24-6.53,2.15
	c-0.69,0.3-1.35,1.33-1.44,2.09c-0.05,0.47,0.93,1.24,1.59,1.57c6.41,3.24,12.88,6.36,19.26,9.64c1.2,0.61,2.11,1.79,3.6,3.1
	c-1.49,0.71-2.27,1.17-3.1,1.45c-1.02,0.35-2.28,0.27-3.11,0.85c-4.68,3.2-9.78,2.09-14.59,1.06c-3.51-0.75-6.65-3.07-10.09-4.31
	c-12.57-4.53-22.59-12.95-32.62-21.31c-2.68-2.24-4.52-5.5-7.23-7.7c-6.37-5.15-10.61-11.93-15.12-18.54
	c-2.46-3.6-5.1-7.08-7.4-10.78c-2.37-3.81-4.86-7.65-6.52-11.78c-4.16-10.34-9.82-20.05-12.68-30.94c-1.3-4.94-4.05-9.56-4.95-14.54
	c-1-5.49-4.5-10.25-4.18-16.03c0.04-0.76-0.34-1.62-0.73-2.32c-2.04-3.7-2.3-7.78-2.75-11.86c-0.2-1.84-0.89-3.63-1.43-5.42
	c-0.35-1.17-1.02-2.27-1.21-3.45c-1.18-7.39-2.26-14.79-3.38-22.19c-0.12-0.81-0.15-1.67-0.47-2.4c-2.18-5.02-1.94-10.39-2.41-15.66
	c-0.45-5-0.52-10.03-2.23-14.89c-0.74-2.11-0.52-4.57-0.66-6.87c-0.67-11-0.67-22.09-2.23-32.97c-0.83-5.8,0.2-11.69-1.54-17.37
	c-0.38-1.23-0.07-2.71,0.1-4.04c0.69-5.19,0.58-10.32-0.7-15.42c-1.14-4.51,0.16-6.21,4.85-5.9c6.56,0.42,13.06,0.41,19.57-0.65
	c1.43-0.23,2.97,0.27,4.46,0.25c4.87-0.06,9.75-0.16,14.62-0.33c2.71-0.1,5.43-0.19,8.1-0.59c9.85-1.49,19.79-1.69,29.71-2.33
	c8.54-0.55,17.06-1.46,25.59-2.13c3.66-0.29,7.34-0.41,11.02-0.49c5.45-0.13,10.91-0.2,16.36-0.21c5.41-0.01,6.23,1.04,5.51,6.29
	c-0.41,2.97-0.73,5.96-0.76,8.95c-0.01,1.56,0.45,3.25,1.14,4.68c1.03,2.12,1.37,4.11,0.22,6.23c-1.05,1.94-0.98,3.89-0.16,5.91
	c0.35,0.86,0.78,1.99,0.5,2.75c-1.28,3.58-0.01,6.98,0.3,10.47c0.48,5.42,0.59,10.88,0.86,16.32c0.06,1.23-0.06,2.5,0.24,3.67
	c0.84,3.34,2.63,6.58,0.49,10.07c-0.17,0.27,0,0.81,0.12,1.19c3.68,11.68,3.36,23.94,5.24,35.87c0.72,4.55,1.94,9.01,2.93,13.52
	s2.02,9.02,2.97,13.54c2.21,10.5,3.85,21.15,8.04,31.14c0.21,0.5,0.46,1.02,0.51,1.55c0.68,8.21,4.8,15.21,7.85,22.59
	c0.52,1.26,1.14,2.55,1.28,3.87c0.48,4.68,3.04,8.38,5.4,12.2c0.5,0.81,1.29,1.59,1.39,2.45c0.43,4,2.59,6.97,4.91,10.09
	c2.32,3.13,3.55,7.07,5.79,10.28c3.48,4.97,5.73,10.84,10.72,14.77c1.11,0.87,1.65,2.45,2.47,3.7c1.94,2.95,4.54,3.02,6.44,0.09
	c4.73-7.32,9.58-14.57,14.02-22.06c2.96-4.99,5.26-10.36,7.94-15.52c1.56-3.01,3.2-6,4.95-8.9c2.74-4.53,3.95-9.8,7.07-14.18
	c1.2-1.69,1.5-4.03,2.18-6.09c0.3-0.9,0.31-1.96,0.79-2.72c3.82-5.97,7.09-12.19,9.93-18.71c2.21-5.08,5.56-9.67,8.47-14.43
	c3.4-5.58,6.64-11.27,10.36-16.62c3.17-4.55,6.85-8.75,10.43-13c2.98-3.53,6.04-6.99,9.25-10.3c6.67-6.9,14.06-12.89,22.67-17.26
	c0.72-0.37,1.43-0.82,2.03-1.36c1.9-1.7,4.1-2.15,6.48-1.52c2.33,0.61,4.46,0.38,6.79-0.33c2-0.61,4.3-0.52,6.43-0.32
	c1.66,0.15,2.27,1.67,1.28,3.05c-0.93,1.3-2.14,2.49-3.44,3.43c-2.53,1.84-5.58,3.1-7.74,5.26c-6.44,6.44-14.53,11.15-19.73,18.87
	c-0.6,0.89-1.49,1.58-2.28,2.33c-0.39,0.38-1.03,0.61-1.23,1.05c-1.76,3.9-4.94,6.69-7.46,10c-2.28,2.99-0.79,5.65,2.97,5.75
	c2.31,0.07,4.63-0.11,6.93-0.35c12.04-1.26,24.06-2.77,36.2-2.93c6.79-0.09,13.59-0.54,20.36-1.16c4.72-0.43,9.48-1.09,14.06-2.25
	c3.95-1,7.65-2.91,9.89-6.71c0.83-1.41,1.73-2.77,2.6-4.16c1.92-3.07,2.11-5.17-0.37-7.8c-3.45-3.65-7.29-6.93-11.06-10.26
	c-5.03-4.44-10.67-7.97-16.58-11.13c-1.85-0.99-3.38-2.58-5.26-4.05c2.15-2.54,4.59-2.69,6.88-1.84c2.61,0.97,4.9,0.67,7.52,0.02
	c4.82-1.2,9.43-0.97,14.15,1.68c5.86,3.28,11.29,7.05,16.63,11.05c3.42,2.56,5.64,2.54,8.68-0.58c5.58-5.72,12.02-10.19,18.91-14.12
	c2.79-1.59,5.54-2.17,8.36,0.01c0.53,0.41,1.4,0.4,2.95,0.79c-1.1-1.63-1.72-2.54-2.37-3.52c0.51-0.35,0.82-0.73,1.17-0.77
	c4.87-0.51,9.75-0.98,14.63-1.43c0.54-0.05,1.15-0.1,1.61,0.1c0.69,0.31,1.64,0.75,1.81,1.33c0.16,0.54-0.37,1.57-0.9,1.99
	c-1.28,1-2.68,1.91-4.15,2.61c-6.24,2.94-11.53,7.17-16.52,11.85c-2.38,2.23-5.11,4.08-7.55,6.25c-1.15,1.03-3.06,2.15-2.27,3.95
	c0.89,2.01,2.83,0.82,4.35,0.52c8.57-1.69,17.26-1.98,25.96-2.25c2.69-0.09,5.37-0.63,8.05-0.99c1.08-0.14,2.14-0.44,3.22-0.49
	c8.97-0.39,17.95-0.74,26.92-1.1c1.39-0.06,3.12-0.12,3.29-1.72c0.11-1.13-0.58-2.87-1.49-3.48c-5.73-3.89-10.34-9.34-16.97-11.96
	c-1.61-0.64-3.11-1.72-4.44-2.86c-0.85-0.72-2-2.22-1.74-2.84c0.43-1.06,1.76-2.09,2.92-2.44c2.33-0.7,4.79-1.04,7.22-1.34
	c3.97-0.49,7.8-0.49,11.41,1.91c1.88,1.24,4.38,1.49,6.43,2.53c6.47,3.28,12.38,7.35,17.54,12.51c2.99,2.98,6.26,5.68,9.25,8.67
	c1.2,1.2,1.99,2.81,2.93,4.26c0.59,0.9,0.93,2.04,1.69,2.74c2.66,2.42,4.49,5.38,6.25,8.48c4.1,7.19,8.6,14.16,12.63,21.4
	c1.7,3.05,2.61,6.54,3.88,9.82c0.25,0.64,0.33,1.42,0.76,1.89c5.09,5.58,5.48,13.15,8.44,19.61c2.74,5.97,4.46,12.22,6.27,18.47
	c0.26,0.9,0.86,1.69,1.24,2.55c0.7,1.6,1.42,3.21,2.02,4.85c0.69,1.9,1.38,3.82,1.85,5.79c0.36,1.53,0.38,3.13,0.61,5.17
	c-2.07,0.37-3.75,0.89-5.45,0.95c-7.36,0.26-14.72,0.39-22.08,0.58c-1.09,0.03-2.25-0.17-3.26,0.14
	c-9.14,2.76-18.63,1.87-27.93,2.89c-5.74,0.63-11.41,0.04-17.06,0.26c-4.27,0.17-8.97-0.5-13.02,2.14
	c-0.95,0.62-2.36,0.65-3.57,0.71c-6.4,0.34-12.8,0.59-19.19,0.89c-1.22,0.06-2.53-0.04-3.64,0.36c-5.78,2.05-11.81,1.65-17.75,1.96
	c-3.69,0.19-4.88-0.74-6.02-4.22c-0.93-2.85-1.82-5.72-2.49-8.64c-1.52-6.67-4.77-12.71-6.76-19.19c-2.43-7.95-6.59-15.17-9.5-22.94
	c-2.89-7.71-7.3-14.86-11.06-22.25c-0.18-0.36-0.44-0.69-0.67-1.03c-2.74-4-4.59-2.92-6.09,0.4c-1.51,3.35-3.36,6.54-5.06,9.81
	c-0.25,0.48-0.45,1.01-0.77,1.44c-5.9,7.8-8.88,17.1-13.18,25.71c-1.58,3.16-3.11,6.36-4.62,9.55c-0.52,1.1-0.88,2.29-1.41,3.39
	c-1.17,2.42-2.36,4.83-3.63,7.21c-2.83,5.27-5.75,10.49-8.55,15.78c-3.43,6.47-6.75,13-10.17,19.48c-0.5,0.94-1.32,1.72-2.02,2.54
	c-0.61,0.73-1.53,1.31-1.87,2.14c-2.67,6.57-8.26,11.09-11.83,17.07c-2.04,3.42-5.45,6.03-8.27,8.97c-3.1,3.24-6.14,6.55-9.39,9.65
	c-2.05,1.96-4.6,3.4-6.6,5.4c-5.34,5.34-12.9,6.98-18.73,11.47c-0.71,0.54-1.77,0.84-2.68,0.86c-4.77,0.14-9.54,0.21-14.3,0.17
	C343.22,583.82,342.25,583.27,341.05,582.9z M93.83,369.5c0.55,4.37,1.06,8.26,1.53,12.16c0.89,7.42,1.76,14.84,2.65,22.26
	c0.63,5.26,1.24,10.53,1.92,15.78c0.16,1.2,0.37,2.5,0.95,3.52c1.62,2.84,2.1,5.87,2.08,9.05c-0.02,2.49,0.31,4.82,1.75,7.01
	c0.62,0.93,0.58,2.33,0.75,3.53c0.3,2.15,0.31,4.37,0.84,6.46c1.04,4.07,1.96,8.24,3.65,12.05c2.64,5.95,5.89,7.45,10.75,6.92
	c3.65-0.4,7.31-0.79,10.98-1.05c9.76-0.68,19.52-1.32,29.28-1.92c6.11-0.38,12.22-0.65,18.33-1.01c1.35-0.08,2.78-0.1,4.02-0.57
	c3.41-1.3,6.91-1.35,10.46-1.19c3.84,0.18,5.39-1.27,5.76-5.17c0.4-4.22-1.06-7.99-2.39-11.89c-1.98-5.77-4.04-11.61-5.01-17.59
	c-1.26-7.78-1.4-15.73-3.32-23.44c-0.29-1.19-0.52-2.42-0.53-3.64c-0.01-2.93-0.61-5.64-2.18-8.18c-0.54-0.87-0.72-2.06-0.79-3.12
	c-0.77-11.53-1.48-23.06-2.21-34.6c-0.03-0.54-0.21-1.07-0.24-1.61c-0.28-4.58-1.79-9.07-0.83-13.75c0.21-1-0.26-2.14-0.38-3.21
	c-0.11-1.08-0.52-2.28-0.19-3.21c1.14-3.16-0.67-5.81-1.08-8.7c-0.41-2.91-0.06-5.93-0.07-8.9c0-0.39-0.19-0.79-0.32-1.18
	c-1.11-3.21-2.63-4.39-6.02-4.47c-1.63-0.04-3.27,0.11-4.9,0.25c-9.08,0.8-18.27,0.05-27.27,1.91c-0.26,0.05-0.54-0.01-0.82,0.01
	c-7.89,0.38-15.77,0.76-23.66,1.16c-0.54,0.03-1.08,0.18-1.62,0.21c-5.13,0.29-10.11,1.78-15.37,1.33
	c-4.49-0.38-8.15,3.55-8.39,8.16c-0.04,0.68,0.01,1.37-0.1,2.04c-1.44,8.15-0.04,16.24,0.58,24.33c0.23,2.97,1.15,5.9,1.33,8.87
	C94.01,362.03,93.83,365.99,93.83,369.5z M378.71,532.67c7.95,0.93,12.95-1.79,16.36-7.08c4.32-6.71,8.21-13.71,12.3-20.57
	c3.82-6.41,7.19-13.06,10.29-19.85c3.27-7.18,6.51-14.37,9.94-21.47c3.32-6.85,6.89-13.57,10.3-20.37c0.48-0.96,0.85-2.02,1.05-3.08
	c0.55-2.94-0.66-4.06-3.56-3.69c-4.55,0.59-9.1,1.33-13.67,1.47c-20,0.61-39.96,1.73-59.91,3.28c-5.76,0.45-9.68,2.85-12.39,7.25
	c-3.78,6.12-7,12.59-10.34,18.97c-4.35,8.31-6.73,17.56-12.04,25.43c-0.37,0.55-0.5,1.26-0.79,1.88c-2.69,5.6-5.13,11.34-8.14,16.75
	c-4.1,7.36-8.65,14.46-12.98,21.69c-1.64,2.74-0.74,4.3,2.55,4.51c0.95,0.06,1.91-0.04,2.86-0.01c12.92,0.35,25.79-1.88,38.73-0.56
	c0.53,0.05,1.1,0,1.63-0.1c5.7-1.07,11.38-2.28,17.1-3.21C372,533.25,376.06,532.96,378.71,532.67z M128.07,480.97
	c0,0.09,0.01,0.18,0.01,0.27c-0.95,0-1.91,0.01-2.86,0s-1.92-0.12-2.86-0.03c-2.47,0.24-3.47,1.12-3.7,3.52
	c-0.25,2.69-0.7,5.47,1.67,7.66c0.45,0.42,0.8,1.21,0.8,1.83c0.01,4.73,2.8,8.55,4.56,12.54c2.68,6.05,5.19,12.2,8.68,17.97
	c4.07,6.73,7.27,14.02,12.29,20.18c4.73,5.8,9.29,11.79,14.59,17.02c3.95,3.9,9.03,6.67,14.98,6.55c2.29-0.04,4.56-0.62,6.85-0.76
	c8.27-0.52,16.56-0.1,24.83-1.44c3.84-0.62,7.85-0.36,11.66-1.61c1.14-0.37,2.41-0.48,3.62-0.51c8.71-0.21,17.43-0.37,26.14-0.57
	c1.74-0.04,3.84,0.32,4.71-1.63c0.99-2.21-0.94-3.42-2.25-4.78c-4.43-4.58-8.84-9.19-13.24-13.79c-0.28-0.29-0.6-0.64-0.68-1.01
	c-0.59-2.83-2.34-4.79-4.47-6.61c-0.88-0.75-1.29-2.05-1.96-3.08c-1.69-2.63-3.44-5.22-5.09-7.88c-0.92-1.48-1.8-3.01-2.52-4.59
	c-1.46-3.21-2.77-6.49-4.2-9.72c-2.15-4.84-4.37-9.65-6.52-14.49c-0.88-1.98-1.66-4-2.52-6c-1.06-2.48-2.33-4.88-3.19-7.42
	c-1.53-4.51-5.64-7.79-10.4-7.62c-2.56,0.09-5.1,0.69-7.64,1.08c-2.54,0.39-5.06,0.91-7.61,1.19c-2.3,0.25-4.64,0.11-6.93,0.39
	c-8.77,1.06-17.62,0.44-26.41,2.02C141.78,480.87,134.87,480.59,128.07,480.97z M512.83,409.33c-0.03-0.24-0.06-0.47-0.08-0.71
	c-6.93,0.41-13.85,0.81-20.77,1.26c-0.8,0.05-1.64,0.23-2.36,0.57c-1.84,0.89-2.43,2.72-1.39,4.45c1.4,2.32,2.76,4.7,4.46,6.78
	c5.67,6.96,8.34,15.56,12.86,23.15c1.63,2.75,2.25,6.08,3.57,9.04c1.7,3.8,3.85,7.41,5.42,11.26c2.9,7.11,5.53,14.33,8.24,21.52
	c0.28,0.75,0.4,1.58,0.51,2.38c0.8,5.93,1.59,6.64,7.5,6.61c0.95-0.01,1.91-0.06,2.86-0.1c5.57-0.25,11.15-0.52,16.72-0.77
	c6.8-0.31,13.69-0.06,20.39-1.09c5.14-0.8,10.25-1.2,15.4-1.5c1.22-0.07,2.44-0.24,3.66-0.33c6.9-0.52,13.8-1.06,20.7-1.52
	c2.39-0.16,3.27-0.76,3.1-3.24c-0.15-2.13-0.67-4.3-1.39-6.31c-1.84-5.12-3.88-10.17-5.85-15.24c-1.47-3.79-2.82-7.64-4.48-11.35
	c-2.39-5.33-4.93-10.6-7.56-15.82c-2.26-4.48-4.72-8.86-7.11-13.27c-0.78-1.44-1.89-2.74-2.42-4.25c-1.6-4.61-4.3-8.43-7.47-12.07
	c-1.74-2-3.55-3.4-6.15-3.49c-3.38-0.11-6.78-0.02-10.16-0.01c-10.06,0.03-20.07,0.89-30.07,1.97c-1.75,0.19-3.54,0.04-5.28,0.26
	C521.37,408.04,517.11,408.71,512.83,409.33z M191.41,349.06c-0.04,0-0.07,0.01-0.11,0.01c0,2.44-0.13,4.89,0.04,7.32
	c0.17,2.38,1.5,3.32,3.84,3.1c2.37-0.23,3.37-1.35,3.24-3.73c-0.2-3.65-0.4-7.31-0.69-10.95c-0.09-1.06-0.34-2.16-0.78-3.12
	c-0.73-1.57-2.12-1.99-3.76-1.61c-1.75,0.41-2.4,1.55-2.22,3.31C191.17,345.27,191.27,347.17,191.41,349.06z M88.21,396.24
	c-0.07,0-0.14,0-0.21,0c0-1.63,0.09-3.27-0.03-4.89c-0.09-1.2-0.27-2.46-0.75-3.55c-0.73-1.69-2.7-2.36-4.49-1.79
	c-1.52,0.48-2.17,1.56-2.03,3.11c0.41,4.33,0.83,8.65,1.29,12.97c0.19,1.77,0.9,3.18,2.95,3.28c1.83,0.09,3.09-1.16,3.24-3.41
	C88.31,400.06,88.21,398.14,88.21,396.24z M77.1,355.39c-0.09,0.03-0.19,0.06-0.28,0.08c0.7,3.44,1.29,6.91,2.18,10.3
	c0.21,0.81,1.54,1.96,2.2,1.86c1.01-0.14,2.13-1.06,2.75-1.97c0.45-0.65,0.21-1.81,0.17-2.74c-0.05-1.07-0.26-2.14-0.34-3.21
	c-0.26-3.22-0.47-6.43-0.74-9.65c-0.03-0.39-0.2-0.8-0.38-1.16c-0.67-1.32-1.66-2.2-3.24-1.93c-1.48,0.25-1.89,1.4-1.98,2.71
	C77.31,351.59,77.21,353.49,77.1,355.39z M197.06,312.94c-0.45-1.74-1.05-4.94-2.15-7.96c-0.89-2.45-4.14-2.57-5.5-0.3
	c-0.52,0.87-0.8,2.07-0.71,3.08c0.31,3.63,0.75,7.24,1.27,10.84c0.29,1.99,1.6,2.61,3.59,1.96
	C196.08,319.73,197.09,317.96,197.06,312.94z M75.1,323.09c-0.14,0.01-0.28,0.02-0.42,0.02c0.18,1.2,0.24,2.45,0.58,3.6
	c0.65,2.16,2.09,3.14,3.87,2.84c1.82-0.31,2.89-1.71,2.4-4.01c-0.59-2.76-0.37-5.35,0.26-8.05c0.52-2.24,0.04-4.48-1.97-5.84
	c-0.88-0.59-2.37-0.88-3.32-0.55c-0.69,0.24-1.28,1.7-1.33,2.65C74.99,316.85,75.1,319.97,75.1,323.09z M194.61,382.61
	c0.4,2.18,0.85,5.13,1.51,8.03c0.36,1.57,0.92,3.14,1.68,4.56c0.77,1.44,2.19,2.16,3.8,1.39c1.69-0.8,1.9-2.38,0.99-3.79
	c-1.66-2.58-1.59-5.4-1.67-8.25c-0.03-1.22-0.06-2.46-0.34-3.63c-0.37-1.62-1.45-2.6-3.23-2.48
	C195.65,378.54,194.68,379.79,194.61,382.61z M200.02,420.14c0.51,2.22,0.99,4.76,1.73,7.23c0.34,1.14,1.03,2.24,1.81,3.16
	c1.07,1.26,2.54,1.65,4.03,0.73c1.36-0.83,1.71-2.28,1.06-3.58c-1.53-3.03-1.85-6.2-1.87-9.51c-0.01-1.49-0.89-2.59-2.49-2.76
	c-1.64-0.17-2.98,0.45-3.66,2C200.3,418.13,200.26,418.98,200.02,420.14z M94.08,434.57c0.18-0.05,0.35-0.09,0.53-0.14
	c-0.9-3.24-1.63-6.54-2.77-9.69c-0.68-1.89-2.76-2.54-4.38-1.9c-1.56,0.61-2.11,2.01-1.09,4.1c1.24,2.52,1.66,5.09,1.71,7.85
	c0.02,1.28,0.4,2.79,1.17,3.76c0.61,0.78,2.09,1.32,3.09,1.2c0.66-0.08,1.37-1.44,1.68-2.36C94.3,436.54,94.08,435.52,94.08,434.57z
	 M216.7,460.47c-1.31-3.55-2.52-7.14-3.99-10.63c-0.6-1.41-2.23-1.81-3.5-1.09c-0.92,0.51-1.62,1.67-2.05,2.7
	c-0.27,0.65,0,1.63,0.27,2.37c1.02,2.8,2.1,5.58,3.25,8.34c0.59,1.4,1.75,2.09,3.29,1.75C215.71,463.53,216.34,462.26,216.7,460.47z
	 M515.01,492.8c-0.16-3.65-1.85-6.92-3.69-10.11c-0.75-1.3-2.04-1.87-3.51-1.26c-1.69,0.69-2,2.16-1.56,3.74
	c0.83,3.02,1.73,6.02,2.67,9c0.54,1.72,1.63,2.91,3.62,2.5C514.52,496.27,514.98,494.73,515.01,492.8z M619.59,476.36
	c1.48,3.47,2.85,6.99,4.52,10.37c0.38,0.76,1.72,1.32,2.69,1.46c1.65,0.24,3.09-1.13,2.72-2.72c-0.71-3.02-1.56-6.04-2.8-8.87
	c-0.52-1.2-2.05-2.16-3.33-2.78C621.31,472.8,619.97,473.86,619.59,476.36z M103.19,468.44c-1.2-2.98-2.17-6.09-3.68-8.9
	c-0.99-1.85-3.7-2.38-4.97-1.43c-1.81,1.34-1.26,3.11-0.59,4.77c0.96,2.37,2,4.71,3.03,7.06c0.62,1.4,1.69,2.1,3.24,1.8
	C101.93,471.4,102.75,470.3,103.19,468.44z M111.97,497.81c-0.35-1.24-0.52-2.04-0.8-2.79c-0.77-2.02-1.62-4.02-2.4-6.04
	c-0.54-1.4-1.29-2.42-3-2.06c-1.77,0.37-3.4,2.3-2.77,3.89c1.15,2.88,2.62,5.65,4.24,8.29c0.39,0.64,2.01,0.99,2.86,0.74
	C110.91,499.61,111.44,498.43,111.97,497.81z M497.38,452.32c-1.01,1.35-2.4,2.36-2.33,3.27c0.26,3.75,1.82,7.08,4.74,9.52
	c0.64,0.54,2.27,0.64,2.95,0.19c0.65-0.43,1.09-1.97,0.85-2.79c-0.73-2.46-1.68-4.89-2.88-7.16
	C500.14,454.28,498.83,453.6,497.38,452.32z M429.71,486.9c0.43-0.23,1.38-0.42,1.79-0.99c1.55-2.19,3.06-4.42,4.3-6.79
	c0.72-1.38,0.56-3.01-1.17-3.78c-1.52-0.68-3.15-0.38-3.97,1.02c-1.42,2.43-2.68,4.99-3.64,7.63
	C426.42,485.62,427.73,486.97,429.71,486.9z M225.95,489.76c-0.11-0.86-0.08-1.16-0.19-1.39c-1.3-2.84-2.5-5.74-3.99-8.49
	c-0.87-1.61-2.95-2.11-4.26-1.34c-1.71,1.01-1.37,2.51-0.66,3.93c1.11,2.19,2.17,4.43,3.57,6.42c0.69,0.98,2.03,1.76,3.22,2.05
	C224.32,491.11,225.29,490.12,225.95,489.76z M327.77,470.04c0.61-0.5,1.85-1.16,2.57-2.18c1.24-1.76,2.17-3.74,3.19-5.65
	c0.6-1.12,1.12-2.6-0.21-3.23c-1.01-0.48-2.82-0.47-3.68,0.15c-2.73,1.97-4.13,4.98-4.8,8.23
	C324.52,468.95,325.65,470.07,327.77,470.04z M321.37,486.17c-0.42-0.74-0.73-1.9-1.47-2.39c-0.56-0.37-2.18-0.18-2.47,0.29
	c-1.6,2.62-3.04,5.35-4.28,8.16c-0.26,0.6,0.3,2.11,0.88,2.4c0.81,0.41,2.06,0.26,2.99-0.04c0.68-0.22,1.38-0.96,1.69-1.64
	C319.65,490.87,320.4,488.7,321.37,486.17z M230.02,504.94c-0.61,0.57-1.55,1.05-1.83,1.78c-0.87,2.3,2.49,8.43,4.84,9.12
	c1.66,0.49,3.01-0.38,3.22-2.07c0.23-1.85-2.41-7.24-4.04-8.11C231.64,505.35,230.96,505.24,230.02,504.94z M615.05,457.7
	c2.4,0,3.85-1.44,3.11-2.93c-1.49-2.99-3.35-5.82-5.36-8.49c-0.43-0.57-2.41-0.57-3.26-0.09c-1.41,0.8-0.51,2.06,0.1,3.16
	c1.11,1.97,2.04,4.06,3.23,5.98C613.51,456.37,614.54,457.16,615.05,457.7z M447.88,451.95c-0.5-0.49-1.11-1.59-1.76-1.61
	c-1.07-0.04-2.57,0.29-3.18,1.04c-1.54,1.87-2.75,4.02-3.97,6.14c-0.71,1.23-1.06,2.67,0.45,3.59c1.37,0.84,2.77,0.29,3.62-0.86
	c1.61-2.16,3.02-4.47,4.48-6.74C447.72,453.19,447.71,452.73,447.88,451.95z M414.65,508.2c0.1,1.97,1.96,2.99,3.82,2.11
	c1.49-0.7,4.55-6.2,4.42-7.93c-0.12-1.55-1.33-2.34-2.87-1.86C418.04,501.14,414.54,506.14,414.65,508.2z M304,518.31
	c0.47-0.3,1.56-0.71,2.18-1.48c1.26-1.57,2.43-3.26,3.29-5.07c0.37-0.78,0.21-2.56-0.29-2.84c-0.85-0.47-2.7-0.59-3.18-0.03
	c-1.82,2.11-3.47,4.43-4.76,6.89C300.54,517.11,301.87,518.39,304,518.31z M599.2,421.17c-0.72,1-1.59,1.72-1.77,2.59
	c-0.5,2.33,3.11,7.51,5.37,7.99c1.81,0.39,3.33-0.75,2.78-2.32c-0.75-2.16-1.69-4.31-2.92-6.23
	C602.1,422.33,600.68,422,599.2,421.17z M117.61,514.64c-2.76-0.1-4.01,1.28-3.09,3.05c1.19,2.25,2.78,4.32,4.42,6.28
	c0.42,0.5,1.91,0.64,2.52,0.28c0.59-0.35,1.11-1.68,0.91-2.36c-0.58-1.93-1.35-3.86-2.41-5.57
	C119.4,515.41,118.09,514.96,117.61,514.64z M128.96,537.56c-2.07,0.05-3.48,1.43-2.52,2.53c1.83,2.12,3.85,4.17,6.12,5.78
	c1.59,1.12,3.26-0.29,3.08-2.24C135.37,540.73,131.81,537.49,128.96,537.56z M483.8,432.38c0.09,2.13,1.73,5.39,3.56,6.58
	c0.7,0.45,2.03,0.88,2.49,0.54c0.72-0.54,1.27-1.72,1.33-2.66c0.14-2.24-2.69-5.8-4.85-6.47
	C484.71,429.85,483.73,430.64,483.8,432.38z M345.58,438.92c-5.05-1.56-8.76,2.27-7.63,7.59C342,446.26,344.46,443.9,345.58,438.92z
	 M453.26,438.22c2.62,0.08,6.23-5.43,4.89-7.62c-0.32-0.52-1.37-0.92-2.02-0.85c-1.88,0.21-5.06,3.89-5.21,5.78
	C450.79,437.1,451.73,438.18,453.26,438.22z M249.2,536.06c0-2.61-4.95-7.67-6.85-7.42c-0.67,0.09-1.67,1.05-1.73,1.69
	c-0.19,2,4.29,6.76,6.28,6.7C247.76,537.02,248.6,536.33,249.2,536.06z M586.84,402.93c-1.23,0.05-1.95,0.68-1.83,2.03
	c0.19,2.08,3.72,5.36,5.9,5.52c1.74,0.13,2.8-1.2,2.28-2.87C592.69,406.02,588.61,402.98,586.84,402.93z M408.3,522.35
	c-0.29,0.08-1.03,0.06-1.28,0.39c-1.33,1.82-2.75,3.62-3.69,5.64c-0.54,1.17,0.94,2.2,2.4,1.66c2.28-0.83,3.92-2.44,4.69-4.76
	C410.93,523.71,410.05,522.47,408.3,522.35z M256.71,547.19c-1.67,0.06-2.61,1.25-2.11,2.66c0.61,1.7,4.08,4.1,5.79,3.95
	c1.19-0.11,2.15-0.59,2-2.01C262.19,550.01,258.56,547.12,256.71,547.19z M294.88,531.39c-1.93-0.01-5.38,2.89-5.27,4.38
	c0.05,0.69,0.9,1.72,1.56,1.88c2.4,0.59,5.27-2.25,4.84-4.71C295.89,532.3,295.17,531.77,294.88,531.39z M356.06,421.84
	c-0.35-0.29-0.86-1.05-1.49-1.16c-1.66-0.31-4.52,2.4-4.31,4.04c0.07,0.54,0.62,1.29,1.11,1.45
	C353.22,426.8,356.22,424.22,356.06,421.84z M143.84,556.36c-0.31,0.36-1.26,0.98-1.43,1.77c-0.3,1.44,1.64,3.21,3.39,3.34
	c1.41,0.11,2.37-0.47,2.41-2C148.26,557.93,146.51,556.5,143.84,556.36z M578.84,391.97c-0.05-2.07-1.74-3.5-3.41-3.52
	c-1.27-0.01-2.06,0.59-2.12,1.89c-0.06,1.49,1.55,2.94,3.33,2.74C577.5,392.99,578.29,392.26,578.84,391.97z M458.97,397.29
	c1.52,2.72,2.62,3.93,3.95,4.09c0.59,0.07,1.45-0.12,1.78-0.52s0.37-1.31,0.16-1.83C463.99,396.92,461.87,396.27,458.97,397.29z
	 M393.36,545.99c1.76,0.09,3.9-1.69,3.75-2.98c-0.08-0.63-1.05-1.56-1.69-1.62c-1.7-0.14-2.79,0.95-2.9,2.62
	C392.47,544.72,393.12,545.47,393.36,545.99z M279.9,553.99c3.08-0.52,3.58-1.16,3.62-4.61
	C280.29,549.44,279.62,550.28,279.9,553.99z M161.28,572.57c-1.05-0.73-1.64-1.46-2.25-1.47c-0.6-0.01-1.21,0.71-1.81,1.11
	c0.53,0.51,1.01,1.33,1.62,1.45C159.41,573.77,160.12,573.13,161.28,572.57z M175.31,582.99c-0.22-0.4-0.43-0.8-0.65-1.2
	c-0.76-0.26-1.52-0.71-2.27-0.71c-0.36,0-0.71,0.88-1.06,1.36c0.72,0.4,1.39,0.99,2.16,1.14
	C174.04,583.69,174.7,583.21,175.31,582.99z M383.34,558.69c-0.84-0.47-1.4-0.98-1.63-0.86c-0.61,0.32-1.07,0.91-1.6,1.39
	c0.37,0.31,0.84,0.94,1.08,0.86C381.83,559.86,382.38,559.35,383.34,558.69z M494.95,387.61c-0.11-0.46-0.22-0.93-0.34-1.39
	c-0.77,0.2-1.55,0.4-2.32,0.6c0.12,0.46,0.29,1.32,0.35,1.31C493.42,388.02,494.19,387.8,494.95,387.61z M366.93,409.04
	c0.53-0.64,1.04-0.99,1.05-1.36c0.01-0.32-0.58-0.96-0.83-0.93c-0.39,0.05-0.92,0.5-1.03,0.89
	C366.03,407.92,366.52,408.37,366.93,409.04z M448.74,387.54c-0.5-0.32-0.77-0.58-1.08-0.65c-0.17-0.04-0.42,0.24-0.63,0.38
	c0.19,0.29,0.34,0.73,0.6,0.81C447.86,388.15,448.22,387.81,448.74,387.54z"/>
<path d="M77.56,650.88c0.15-1.24,0.55-2.51,0.42-3.73c-0.67-6.5-1.53-12.97-2.2-19.47c-0.25-2.43-0.44-4.93-0.12-7.33
	c0.71-5.19,4.78-6.77,9.19-3.98c1.68,1.06,3.67,1.76,5.61,2.23c2.51,0.61,5.11,1.17,7.67,1.13c5.03-0.08,8.94,2.25,12.54,5.24
	c6.03,5.02,10.99,10.93,14.39,18.08c2.81,5.9,6.13,11.6,8.45,17.69c2.15,5.64,5.37,11.06,5.18,17.45c-0.02,0.77,0.47,1.54,0.66,2.33
	c0.64,2.62,1.28,5.23,1.87,7.87c1.29,5.85,2.63,11.75,6.48,16.51c5.64,6.97,10.84,14.27,17.62,20.35
	c5.25,4.7,9.65,10.36,14.35,15.66c0.98,1.1,1.63,2.5,2.4,3.79c3.14,5.27,7.15,9.6,12.87,12.12c0.74,0.33,1.48,0.73,2.26,0.92
	c6.99,1.72,13.99,3.45,21,5.09c5.29,1.24,10.62,2.27,15.89,3.58c6.32,1.58,12.58,3.38,18.88,5.02c1.44,0.38,2.94,0.49,4.41,0.77
	c1.19,0.23,2.57,0.24,3.51,0.87c3.57,2.4,7.55,1.97,11.48,1.97c1.36,0,3.12,0.05,3.32-1.61c0.13-1.12-0.53-2.7-1.37-3.49
	c-4.08-3.81-8.38-7.39-12.55-11.11c-11.16-9.99-23.24-18.99-33.13-30.35c-3.57-4.1-6.86-8.48-9.92-12.98
	c-4.44-6.53-8.65-13.21-12.77-19.95c-2.63-4.29-4.89-8.81-7.37-13.19c-3.68-6.5-7.47-12.94-11.06-19.49
	c-1.7-3.1-2.93-6.44-4.56-9.58c-2.38-4.59-4.8-9.14-8.3-13.08c-1.68-1.89-2.71-4.38-3.99-6.62c-1.49-2.6-3.08-5.15-4.34-7.86
	c-0.85-1.81-1.41-3.82-1.73-5.8c-0.95-5.87,1.89-8.38,7.16-5.53c2.41,1.3,4.92,1.38,7.53,0.53c1.55-0.51,3.16-1.16,4.75-1.18
	c2.4-0.02,5.27-0.29,7.11,0.86c6.32,3.94,13.19,7.24,18.04,13.23c1.03,1.27,2.12,2.49,3.15,3.76c5.35,6.66,12.68,11.14,18.78,16.97
	c5.89,5.63,12.26,10.73,17.22,17.34c5.13,6.82,9.86,13.86,14.41,21.08c2.15,3.42,5.76,6.13,9.17,8.5
	c7.93,5.5,16.1,10.66,24.27,15.81c2.63,1.66,5.57,2.81,8.34,4.27c1.43,0.76,2.85,1.57,4.15,2.53c2.43,1.81,3.69,2.15,5.81,0.3
	c9.51-8.31,20.8-13.95,31.18-20.96c8.1-5.47,16.82-10.01,25.08-15.27c3.88-2.47,7.32-5.64,10.94-8.51
	c8.59-6.79,15.6-15.19,23.24-22.94c4.47-4.53,8.15-9.84,12.26-14.74c2.36-2.82,4.73-5.65,7.35-8.22
	c5.73-5.63,11.32-11.47,17.54-16.52c4.82-3.91,10.27-7.22,15.86-9.94c8.81-4.29,17.89-8.05,27-11.68
	c11.07-4.4,22.78-6.44,34.51-8.13c3.33-0.48,6.85-0.42,10.19,0.02c9.44,1.25,18.96,2.03,28.14,4.87c6.24,1.93,12.54,3.58,18.41,6.65
	c3.34,1.75,7.14,2.61,10.71,3.93c7.78,2.88,15.45,6.09,23.33,8.64c7.37,2.38,14.93,4.14,22.45,6.03c3.95,0.99,7.95,1.93,11.99,2.44
	c4.16,0.53,8.4,0.77,12.59,0.66c4.9-0.13,9.78-0.79,14.66-1.21c2.52-0.22,3.74,0.72,3.86,2.98c0.12,2.1-0.74,3.09-3.22,3.19
	c-4.47,0.17-8.95,0.18-13.43,0.25c-0.82,0.01-1.64-0.09-2.45-0.01c-7.24,0.63-14.3,0.39-21.35-2.04c-4.15-1.43-8.84-0.9-13.13-2.61
	c-5.18-2.05-10.59-3.49-15.88-5.26c-6.58-2.2-13.19-4.34-19.68-6.77c-5.58-2.08-10.97-4.65-16.52-6.78
	c-9.68-3.72-19.55-6.73-29.98-7.6c-4.87-0.4-9.7-1.26-14.57-1.59c-2.83-0.2-5.73-0.02-8.54,0.42c-14.01,2.21-27.84,5.06-40.61,11.7
	c-3.59,1.87-7.51,3.08-11.25,4.67c-2.38,1.01-4.82,1.96-7,3.31c-4.47,2.77-9.42,4.67-13.24,8.63c-6.33,6.56-13.13,12.65-19.63,19.05
	c-1.73,1.71-2.96,3.91-4.6,5.73c-5.64,6.28-11.21,12.64-17.09,18.69c-7.02,7.22-14.15,14.36-21.6,21.13
	c-3.68,3.35-8.1,5.92-12.33,8.62c-9.51,6.09-19.1,12.03-28.65,18.06c-5.63,3.56-11.2,7.22-16.87,10.71
	c-7.12,4.39-12.26,10.73-17.2,17.25c-3.2,4.21-6.33,8.5-9.12,12.99c-1.93,3.09-3.33,6.53-4.8,9.88c-1.85,4.2-3.54,8.47-5.27,12.72
	c-0.24,0.59-0.39,1.22-0.56,1.77c1.57,1.32,2.48,0.24,3.26-0.65c3.61-4.15,7.92-7.46,12.52-10.39c4.93-3.14,10.13-5.88,14.98-9.14
	c4.3-2.9,9.51-3.15,13.99-5.43c1.83-0.93,3.68-0.3,5.47,0.62c4.44,2.3,8,5.69,11.27,9.32c3.07,3.41,6.32,6.72,8.1,11.17
	c1.18,2.94,3.48,3.46,6.42,1.64c4.74-2.94,9.31-6.17,13.97-9.26c5.68-3.76,11.37-7.5,17.05-11.24c2.05-1.35,4.05-2.76,6.14-4.03
	c8.03-4.87,16.27-9.42,24.09-14.6c7.26-4.81,14.06-10.3,21.1-15.44c3.95-2.89,7.9-5.72,13.03-6.37c1.95-0.25,3.73-1.73,5.69-2.09
	c6.69-1.25,13.4-2.35,20.14-3.29c3.09-0.43,6.26-0.53,9.39-0.42c1.98,0.07,4.01,0.6,5.85,1.36c0.72,0.29,1.4,1.83,1.27,2.68
	c-0.12,0.85-1.14,1.91-2,2.22c-1.23,0.44-2.67,0.35-4.02,0.36c-4.77,0.05-9.54-0.05-14.31,0.09c-2.16,0.06-4.36,0.36-6.46,0.87
	c-5.79,1.43-11.65,2.72-17.27,4.68c-3.4,1.18-6.76,3.06-9.53,5.37c-6.82,5.67-13.76,11.06-21.5,15.47
	c-8.25,4.71-16.31,9.78-24.34,14.87c-5.5,3.49-10.81,7.29-16.22,10.93c-9.13,6.15-18.24,12.34-27.42,18.41
	c-2.93,1.94-6.11,3.51-9.12,5.33c-6.28,3.81-12.5,7.72-18.81,11.48c-2.09,1.25-4.34,2.24-6.56,3.24c-7.42,3.34-14.87,6.63-22.3,9.95
	c-3.46,1.55-7.08,1.77-10.81,1.66c-5.1-0.14-8.41-2.99-10.6-7.16c-2.31-4.39-3.53-9.13-3.01-14.21c0.21-2,0.61-4.3-1.55-5.54
	c-2.08-1.2-3.87,0.3-5.72,1.11c-7.22,3.12-13.86,7.47-21.6,9.52c-4.27,1.14-8.28,3.26-12.42,4.9c-3.65,1.44-7.36,2.76-10.98,4.26
	c-4.38,1.82-8.62,4-13.07,5.61c-4.84,1.76-9.84,3.05-14.77,4.55c-1.29,0.39-2.58,0.8-3.83,1.29c-0.75,0.29-1.42,1.03-2.17,1.1
	c-4.96,0.46-9.29,2.92-13.97,4.26c-0.39,0.11-0.88,0.03-1.2,0.23c-4.57,2.91-8.59,0.66-12.62-1.32c-4.4-2.15-8.78-4.32-13.16-6.51
	c-6.86-3.42-13.28-7.55-19.13-12.49c-10.08-8.53-20.01-17.24-30.69-25.06c-9.07-6.65-15.46-15.47-20.7-25.43
	c-4.49-8.53-9.56-16.8-15.9-24.22c-4.5-5.28-8.47-11.02-12.97-16.3c-6.66-7.82-15.1-12.88-25.25-14.76
	c-1.8-0.33-3.84-0.15-5.62,0.35c-4.12,1.16-5.32,4.55-3.19,8.34c3.85,6.86,7.76,13.69,11.53,20.59c1.56,2.86,3.45,5.76,4.05,8.86
	c0.92,4.76,2.57,9.92-1.8,14.19c-1.58,1.55-1.52,3.44-0.31,5.23c1.44,2.14,2.95,4.24,4.45,6.35c3.8,5.32,7.38,10.73,9.65,16.95
	c1.25,3.43,3.01,6.69,4.76,9.91c4.21,7.77,8.4,15.64,14.23,22.3c6.43,7.34,13.01,14.54,21.5,19.84c7.13,4.44,13.58,9.95,20.46,14.81
	c4.99,3.52,10.18,6.75,15.29,10.1c1.25,0.82,2.61,1.51,3.76,2.44c5.81,4.7,11.25,9.94,17.45,14.05c5.01,3.32,10.14,6.97,16.43,7.87
	c0.4,0.06,0.84,0.09,1.19,0.28c7.4,3.91,15.41,2.74,23.26,2.71c6.4-0.02,12.8-0.39,19.2-0.61c0.95-0.03,1.94,0.05,2.85-0.15
	c13.72-3.05,27.67-2.09,41.54-2.51c9.38-0.28,18.74-0.9,28.12-1.32c2.72-0.12,5.47-0.34,8.16-0.02c9.4,1.11,18.75,1.28,28.1-0.41
	c0.67-0.12,1.35-0.2,2.03-0.2c2.57,0.01,4.36,1.36,4.42,3.28c0.06,1.93-1.71,3.25-4.38,3.23c-2.85-0.02-5.71-0.09-8.56-0.03
	c-0.85,0.02-1.69,0.38-3.57,0.83c2.33,1.51,3.73,2.85,5.39,3.44c7.43,2.63,14.93,5.07,22.43,7.5c1.54,0.5,3.19,0.65,4.78,1
	s3.17,0.73,4.74,1.14c1.96,0.5,3.88,1.26,5.86,1.51c2.99,0.38,5.75,1.21,8.6,2.22c5.21,1.83,10.69,3.16,16.16,3.84
	c2.75,0.34,6.08-0.61,8.55-2.02c5.06-2.89,9.92-6.23,14.49-9.86c5.01-3.97,9.67-8.38,14.34-12.75c3.8-3.56,7.94-6.57,12.42-9.22
	c7.03-4.16,13.85-8.66,20.78-12.98c5.31-3.32,10.67-6.54,15.94-9.91c3.21-2.05,6.21-4.43,9.44-6.43
	c6.36-3.95,12.81-7.74,19.23-11.59c12.26-7.35,24.52-14.71,36.78-22.06c9.21-5.52,18.43-11.04,27.65-16.57
	c6.53-3.91,13.14-7.69,19.55-11.78c6.77-4.33,13.2-9.19,20.03-13.42c6.93-4.29,14.02-8.35,21.3-12c4.07-2.04,8.73-2.86,13.02-4.52
	c4.68-1.81,9.43-3.59,13.79-6.03c6.88-3.84,14.15-6.31,21.82-7.78c9.62-1.84,19.25-3.64,28.84-5.64c2.63-0.55,5.16-1.68,7.67-2.68
	c2.9-1.16,4.61-0.95,5.3,0.85c0.76,1.99-0.47,3.85-3.27,4.72c-8.83,2.75-17.68,5.22-26.93,6.45c-9.56,1.27-19.13,2.99-27.97,7.26
	c-2.44,1.18-4.8,2.54-7.25,3.68c-3.69,1.71-7.39,3.39-11.17,4.89c-3.01,1.19-6.14,2.12-9.23,3.12c-8.54,2.77-15.68,8.08-23.13,12.81
	c-7.93,5.03-15.69,10.34-23.67,15.3c-9.01,5.61-18.19,10.95-27.29,16.42c-9.9,5.96-19.77,11.96-29.67,17.9
	c-2.44,1.46-4.98,2.75-7.43,4.2c-9.48,5.63-19,11.2-28.4,16.97c-5.08,3.12-9.88,6.72-14.93,9.91c-7.11,4.5-14.34,8.81-21.51,13.23
	c-3.82,2.35-7.64,4.7-11.41,7.12c-6.3,4.03-12.59,8.02-18.07,13.25c-5.41,5.16-11.02,10.19-17.01,14.64
	c-6.28,4.66-12.58,9.8-21.1,9.72c-2.01-0.02-4.02-0.46-6.02-0.79c-2.01-0.33-4-0.77-6-1.17c-1.86-0.38-3.72-0.78-5.59-1.18
	c-3.17-0.68-6.34-1.36-9.51-2.03c-1.2-0.25-2.43-0.37-3.6-0.72c-6.76-2.03-13.44-4.34-20.27-6.13c-8.59-2.25-16.6-6.06-24.96-8.87
	c-4.59-1.54-8.96-4.05-14.05-4.05c-1.17,0-2.31-0.77-3.5-1.04c-1.72-0.39-3.47-0.96-5.19-0.89c-6.39,0.23-12.78,0.7-19.17,1.05
	c-6.26,0.34-12.52,0.87-18.78,0.9c-11.88,0.06-23.66,1.07-35.43,2.61c-4.3,0.56-8.71,0.3-13.07,0.36
	c-5.59,0.07-11.18,0.1-16.77,0.12c-0.95,0-1.97,0.06-2.83-0.25c-4.09-1.44-8.1-3.1-12.2-4.5c-10.59-3.61-18.52-11.24-27.23-17.74
	c-7.53-5.62-15.3-10.92-22.93-16.4c-7.19-5.16-14.04-10.89-21.61-15.42c-6.79-4.06-12.33-9.36-18-14.63
	c-1.4-1.3-2.95-2.43-4.32-3.76c-0.87-0.84-1.68-1.81-2.27-2.85c-3.61-6.4-7.2-12.82-10.69-19.28c-2.07-3.82-4.4-7.59-5.81-11.66
	c-2.49-7.24-6.9-13.24-11.07-19.46c-3.26-4.85-6.31-9.85-9.46-14.78c-0.95-1.49-1.96-2.95-2.81-4.5c-1.18-2.13-2.27-4.3-3.33-6.5
	c-1.59-3.3-3.38-6.54-4.6-9.97c-2.82-7.96-5.41-16-7.94-24.05c-0.47-1.5-0.5-3.26-0.27-4.84c0.4-2.72,2.73-4.58,5.29-3.81
	c4.75,1.44,8.9-0.42,13.1-1.82c3.14-1.05,6.02-1.53,9.05,0.12c1.22,0.67,2.89,1.13,3.67-0.28c0.55-0.99,0.31-2.56,0.08-3.81
	c-0.49-2.65-1.2-5.26-1.81-7.89c-0.06-0.26-0.03-0.55-0.09-0.81c-1.55-6.31-3.09-12.62-4.65-18.93c-0.23-0.93-0.65-1.82-0.74-2.76
	c-0.8-8.01-2.69-15.8-4.48-23.63c-0.77-3.38-0.54-7.04-0.44-10.57c0.06-2.12,1.07-4.02,3.43-4.55c2.33-0.52,4.32,0.07,5.67,2.22
	c2.28,3.64,5.62,4.87,9.8,4.42c4.52-0.49,8.65,1.24,12.52,3.09c6.54,3.12,12.52,7.25,17.53,12.55c2.32,2.46,4.13,5.39,6.2,8.09
	c0.78,1.01,1.62,1.98,2.43,2.96C76.97,651.05,77.27,650.97,77.56,650.88z M220.18,798.71c2.54-0.39,5.21-0.41,7.59-1.24
	c8.59-3.01,17.11-6.22,25.6-9.51c2.9-1.13,5.66-2.65,8.37-4.2c0.8-0.46,1.7-1.67,1.65-2.48c-0.05-0.84-1.07-1.82-1.91-2.34
	c-0.75-0.46-1.83-0.4-2.76-0.55c-1.48-0.24-3.15-0.1-4.4-0.76c-5.61-2.94-12.55-1.33-17.83-5.3c-0.29-0.22-0.8-0.22-1.19-0.19
	c-3.66,0.33-6.98-0.74-10.21-2.32c-0.71-0.35-1.57-0.39-2.37-0.56c-2.64-0.57-5.3-1.06-7.93-1.71c-5.54-1.37-11.01-3.13-16.62-4.16
	c-4.62-0.85-8.66-2.66-11.93-5.81c-3.22-3.09-6.03-6.62-8.88-10.08c-3.98-4.83-7.62-9.94-11.77-14.61
	c-6.42-7.22-13.18-14.14-19.71-21.25c-5.18-5.65-8.01-12.62-10.15-19.8c-1.27-4.27-1.9-8.78-2.36-13.23
	c-0.68-6.65-3.22-12.62-6.09-18.5c-1.9-3.9-3.7-7.87-5.78-11.68c-2.21-4.05-4.4-8.18-7.15-11.86c-3.62-4.85-8.18-8.8-14.21-10.48
	c-2.64-0.74-5.71-1.3-7.6,1.18c-1.76,2.32-0.25,4.88,0.75,7.31c0.91,2.22,1.43,4.61,2.06,6.95c0.25,0.91,0.09,2,0.51,2.79
	c2.66,5.03,2.17,10.57,2.7,15.94c0.43,4.3-1.45,7.17-5.51,8.99c-5.67,2.54-6.49,4.49-5.07,11.55c0.16,0.79,0.58,1.53,0.79,2.32
	c1.13,4.19,2.8,8.34,3.22,12.6c0.6,6.13,3.06,11.53,5.28,17.06c0.69,1.72,1.81,3.39,3.1,4.73c6.92,7.12,13.86,14.22,20.98,21.14
	c8.28,8.06,16.83,15.84,25.09,23.92c6.03,5.9,11.72,12.14,17.66,18.14c4.27,4.31,9.1,7.61,15.16,9.19c3.69,0.96,7.3,2.02,11.1,2.4
	c1.32,0.13,2.59,0.78,3.9,1.12c2.35,0.62,4.7,1.23,7.07,1.77c1.45,0.34,3.03,0.3,4.38,0.87
	C210.34,798.01,215.22,798.21,220.18,798.71z M208.84,802.9c-1.85-0.65-3.41-1.54-5.04-1.71c-3.8-0.41-7.58-0.57-11.07-2.47
	c-1.02-0.55-2.39-0.7-3.58-0.65c-5.49,0.22-10.21-2.71-15.41-3.66c-0.63-0.12-1.19-0.64-1.78-0.98c-7.85-4.61-14.12-11-20.38-17.5
	c-10.11-10.49-20.43-20.79-30.89-30.94c-8.5-8.24-17.35-16.12-25.99-24.21c-2.97-2.78-5.09-6.04-5.08-10.33
	c0-0.67-0.19-1.35-0.34-2.01c-1.88-8.35-3.73-16.7-5.67-25.04c-0.83-3.56-1.45-7.26-2.87-10.59c-2.61-6.11-5.5-12.13-8.71-17.94
	c-4.48-8.11-10.58-14.8-18.68-19.55c-3.84-2.25-7.96-3.56-12.3-4.15c-3.34-0.46-4.68,1.09-3.69,4.33
	c1.51,4.93,0.94,10.32,3.39,15.04c0.36,0.69,0.28,1.6,0.43,2.4c0.69,3.6,1.15,7.27,2.14,10.79c1.52,5.41,0.49,9.18-4.35,12.3
	c-3.71,2.4-4.09,5.57-1.73,9.5c0.62,1.03,1.43,2.19,1.45,3.3c0.07,4.53,2.94,7.31,6.12,9.62c5.24,3.81,9.55,8.49,13.59,13.43
	c3.7,4.52,7.13,9.26,10.67,13.91c1.23,1.62,2.53,3.19,3.61,4.9c3.06,4.8,6.08,9.63,9,14.52c2.44,4.07,4.54,8.35,7.13,12.32
	c1.91,2.93,4.05,5.88,6.66,8.16c5.1,4.46,10.63,8.44,15.94,12.67c5.1,4.06,9.41,9.08,15.19,12.32c0.8,0.45,1.34,1.35,2.07,1.96
	c3.98,3.3,7.69,7.04,12.05,9.74c6.68,4.15,13.78,7.6,20.74,11.29c3.34,1.78,6.9,2.15,10.69,1.87c4.96-0.36,9.59-1.89,14.29-3.25
	c5.62-1.63,11.26-3.16,16.85-4.89C205.32,806.79,207.46,806.05,208.84,802.9z M180.91,622.14c2.82,4.31,5.74,8.21,8.04,12.44
	c2.27,4.16,4.11,8.59,5.77,13.03c1.02,2.71,0.92,5.74-0.49,8.37c-1.45,2.71-1.22,5.2,0.13,7.78c2.53,4.82,4.92,9.72,7.61,14.45
	c2.89,5.07,6.23,9.88,9.06,14.99c6.22,11.21,13.04,22,21.79,31.42c4.81,5.18,10,10.03,15.16,14.88c4.06,3.81,8.31,7.42,12.5,11.09
	c5.01,4.39,9.88,8.95,15.12,13.05c6.13,4.8,7.3,4.21,10.27-3.13c1.88-4.64,4.14-9.14,6.33-13.65c3.06-6.32,7.59-11.59,12.18-16.84
	c3.24-3.71,2.92-5.06-1.18-7.7c-11.57-7.44-23.13-14.9-34.72-22.29c-4.44-2.83-8.38-6.22-10.9-10.84
	c-4.62-8.44-10.42-15.9-17.18-22.72c-4.4-4.44-8.13-9.46-13.46-13.02c-4.28-2.85-8.33-6.2-11.95-9.85c-4.29-4.33-8-9.23-12-13.85
	c-0.8-0.92-1.73-1.74-2.69-2.5c-2.34-1.86-4.76-3.62-7.09-5.5C189.65,618.9,184.65,619.01,180.91,622.14z"/>
<path d="M542.19,243.76c0.28,0.87,0.39,1.86,0.88,2.58c1.9,2.81,2.56,5.93,2.8,9.25c0.46,6.63,2.33,13.11,1.84,19.87
	c-0.26,3.58-1.83,6.05-4.85,7.41c-2.92,1.31-5.57,0.04-7.84-2c-0.1-0.09-0.23-0.17-0.29-0.29c-3.4-6.02-9.76-7.78-15.33-10.69
	c-5.52-2.89-9.87-7.22-14.2-11.57c-3.94-3.96-7.79-7.96-10.85-12.72c-1.86-2.9-3.25-2.83-5.94-0.58c-0.62,0.52-1.22,1.24-1.95,1.44
	c-4.29,1.21-7.73,4.64-12.43,4.72c-0.13,0-0.28,0.04-0.39,0.11c-6.81,3.81-14.29,2.62-21.57,2.77c-5.57,0.12-11.15-0.01-16.7-0.3
	c-2.82-0.15-5.6-0.9-8.4-1.36c-1.07-0.17-2.17-0.54-3.21-0.4c-4.89,0.64-9.45-0.7-14.04-2.03c-3.53-1.02-6.95-1.96-10.71-0.34
	c-1.74,0.75-4.02,0.35-6.05,0.25c-0.68-0.03-1.65-0.57-1.93-1.14c-0.94-1.98-2.6-2.01-4.41-2.28c-4.54-0.67-8.88-0.62-13.14,1.49
	c-2.9,1.43-5.93,1.58-9.08,0.11c-1.34-0.63-3.26-0.65-4.73-0.25c-5.5,1.47-11.02,2.86-16.45,4.71c-8.84,3.01-17.4,6.86-26.62,8.9
	c-7.92,1.75-15.57,4.73-23.38,6.99c-3.39,0.98-6.9,1.56-10.37,2.27c-3.33,0.68-6.66,1.41-10.02,1.9c-3.08,0.45-6.19,0.69-9.3,0.9
	c-8.81,0.6-17.66,0.06-26.46,1.45c-9.07,1.44-18.21,1.27-27.25-0.65c-0.93-0.2-1.89-0.53-2.81-0.47c-8.27,0.54-16.2-1.48-24.22-2.99
	c-7.9-1.49-15.73-3.2-23.29-6c-5.85-2.17-11.81-4.05-17.19-7.4c-2.14-1.33-4.7-2.03-7.12-2.87c-7.27-2.52-12.25-8.45-18.56-12.42
	c-5.74-3.61-11.16-7.77-16.56-11.89c-6.37-4.87-12.72-9.8-18.82-15.01c-9.62-8.22-18.91-16.83-28.55-25.02
	c-5.99-5.09-12.42-9.68-18.58-14.58c-2.77-2.2-5.36-4.64-8.05-6.94c-4.35-3.73-8.68-7.4-14.24-9.38c-1.66-0.59-3.1-2.2-4.25-3.66
	c-0.62-0.78-0.93-2.52-0.48-3.27c0.44-0.72,2.24-1.25,3.11-0.94c2.67,0.93,5.49,1.91,7.7,3.6c5.18,3.97,9.99,8.42,15.05,12.55
	c3.79,3.09,7.84,5.88,11.62,8.99c10.41,8.56,20.53,17.44,30.56,26.45c9.9,8.89,20.07,17.57,31.18,25.05
	c8.01,5.4,15.51,11.54,23.53,16.92c3.43,2.3,6.86,4.81,11.06,5.93c2.46,0.66,4.69,2.13,7.04,3.22c3.57,1.66,7.07,3.54,10.75,4.91
	c3.43,1.27,7.03,2.11,10.6,2.93c9.28,2.13,18.6,4.15,27.9,6.21c0.93,0.21,1.87,0.42,2.82,0.46c8.03,0.39,16.06,1.09,24.09,1.01
	c11.03-0.1,22.06-0.8,33.09-1.25c2.45-0.1,4.9-0.2,7.35-0.33c1.77-0.09,3.62,0.06,5.29-0.4c9.56-2.66,19.54-3.47,28.92-6.98
	c5.18-1.94,10.8-2.68,16.1-4.36c6.75-2.14,13.38-4.63,20.03-7.06c9.22-3.37,18.46-6.61,28.44-6.85c1.49-0.04,2.98-0.27,4.48-0.41
	c4.46-0.4,8.92-0.78,13.38-1.2c3.67-0.34,7.11,0.12,10.74,1.19c4.5,1.32,9.4,1.29,14.13,1.83c0.94,0.11,2-0.06,2.82,0.31
	c4.92,2.19,10.17,1.59,15.3,1.88c3.93,0.22,7.92-0.04,11.59,1.85c0.59,0.3,1.31,0.46,1.98,0.46c7.2,0.01,14.38,1.06,21.62-0.09
	c5.1-0.81,10.25-1.23,15.24-2.69c4.29-1.25,8.08-3.24,11.16-6.5c2.05-2.18,1.96-3.14,0.44-5.74c-1.57-2.69-2.95-5.5-4.21-8.34
	c-3.33-7.46-6.45-15.01-7.99-23.09c-0.74-3.86-3.03-6.64-6.08-8.89c-5.04-3.71-10.11-7.4-15.18-11.06c-0.76-0.55-1.6-1.18-2.48-1.36
	c-5.59-1.19-11.17-2.51-16.83-3.29c-4.02-0.55-8.16-0.38-12.24-0.42c-12.53-0.14-25.07-0.33-37.61-0.3
	c-9.54,0.02-19.08,0.37-28.62,0.5c-7.36,0.1-14.72,0.05-22.08,0.16c-3.37,0.05-6.34,0.62-9.49,2.65
	c-7.85,5.06-16.06,9.67-24.52,13.62c-7.09,3.31-14.72,5.5-22.15,8.07c-6.54,2.27-13.39,3.83-19.6,6.77
	c-3.6,1.7-7.48,2.24-10.98,4.02c-1.54,0.78-3.38,0.98-5.1,1.38c-1.32,0.31-2.75,0.33-3.98,0.84c-4.34,1.77-8.92,2.36-13.5,3.04
	c-1.96,0.29-3.83,1.16-5.74,1.77c-0.39,0.12-0.76,0.35-1.15,0.41c-5.62,0.88-11.21,2.19-16.86,2.5c-8.02,0.44-16.08,0.12-24.13,0.15
	c-2.45,0.01-4.9,0.16-7.35,0.2c-0.95,0.02-2.07,0.21-2.79-0.21c-0.95-0.56-2.16-1.62-2.2-2.52c-0.04-0.85,1.12-2.04,2.04-2.57
	c0.86-0.5,2.1-0.44,3.18-0.44c9.54,0,19.09,0.06,28.63,0.08c4.38,0.01,8.71-0.27,12.8-2.15c0.96-0.44,2.1-0.53,3.17-0.69
	c1.08-0.17,2.22-0.06,3.24-0.38c10.37-3.21,21.32-4.03,31.5-8.25c8.15-3.38,16.83-5.48,25.22-8.33c4.76-1.61,9.4-3.57,14.1-5.37
	c3.17-1.22,6.37-2.34,9.49-3.67c9.69-4.12,18.29-10.21,27.49-15.2c6.18-3.35,11.81-7.97,19.1-8.95c2.28-0.31,4.59-0.72,6.88-0.66
	c6.96,0.17,13.86-0.29,20.8-0.88c7.76-0.66,15.4-1.89,23.04-3.17c7.23-1.22,14.43-2.72,21.58-4.34c4.61-1.05,8.71-1.07,12.71,2.12
	c6.7,5.33,13.64,10.37,20.57,15.41c7.16,5.21,14.45,10.24,21.6,15.45c2.08,1.52,4.1,3.22,5.77,5.17c1.28,1.5,2.29,3.41,2.86,5.3
	c1.14,3.77,1.81,7.68,2.83,11.49c0.52,1.97,1.21,3.92,2.09,5.75c3.25,6.75,6.32,13.61,10.02,20.11c2.33,4.09,5.57,7.7,8.61,11.35
	c2.78,3.34,5.71,6.58,8.8,9.63c2.11,2.08,4.55,3.85,6.98,5.57c0.88,0.62,2.15,0.68,3.77,1.15c-0.28-1.59-0.33-2.51-0.6-3.36
	c-2.19-6.88-4.36-13.77-6.64-20.62c-2.22-6.66-0.16-13.33,5.79-18.21c1.69-1.38,3.48-2.65,5.07-4.13c1.75-1.62,2.27-3.66,1.36-5.97
	c-1.75-4.42-3.44-8.86-5.23-13.26c-2.1-5.17-4.36-10.28-6.39-15.48c-1.71-4.41-3-8.99-4.82-13.35c-2.1-5.04-4.78-9.88-8.78-13.63
	c-8.11-7.59-14.82-16.32-21.37-25.22c-4.75-6.46-9.29-13.09-14.39-19.26c-3.96-4.79-8.43-9.25-13.11-13.35
	c-2.48-2.17-5.76-3.64-8.92-4.76c-4.59-1.63-8.82-4.12-13.73-5.03c-4.64-0.86-9.18-2.4-13.7-3.84c-3.52-1.13-7-2.28-10.76-2.04
	c-0.4,0.02-0.82-0.05-1.21-0.15c-1.99-0.54-3.21-2.14-2.87-3.88c0.36-1.87,1.69-3.01,3.48-2.8c2.68,0.31,5.33,0.99,7.96,1.66
	c2.5,0.64,4.95,1.45,7.41,2.21c1.69,0.52,3.36,1.08,5.04,1.64c1.16,0.39,2.28,1.06,3.46,1.16c5.44,0.45,10.2,2.81,15,5.07
	c3.33,1.56,6.63,3.2,9.88,4.93c5.4,2.89,9.31,7.51,13.31,11.96c2.27,2.53,4.22,5.33,6.26,8.06c4.97,6.64,9.73,13.46,14.91,19.93
	c5.78,7.23,11.73,14.35,18,21.15c3.58,3.88,6.5,8.1,8.63,12.81c1.96,4.32,3.32,8.92,5.01,13.36c1.65,4.32,3.4,8.61,5.09,12.91
	c2.64,6.7,5.26,13.4,7.88,20.11c0.2,0.5,0.4,1.06,0.38,1.58c-0.22,4.74,2.49,8.15,5.02,11.74c4.86,6.88,9.57,13.88,14.22,20.91
	c1.34,2.02,2.22,4.34,3.33,6.51c3.96,7.75,7.61,15.69,11.97,23.21c6.47,11.18,12.63,22.67,22.8,31.18c1.42,1.19,2.71,3.35,4.81,1.94
	c2.17-1.46,0.59-3.38-0.21-5.06c-0.29-0.61-0.56-1.24-0.79-1.88c-1.89-5.38-4.03-10.68-5.56-16.16c-1.01-3.63-1.37-7.48-1.62-11.26
	c-0.19-2.96,1.24-5.61,3.11-7.83c2.27-2.7,4.67-5.31,7.22-7.74c3.64-3.46,4.08-4.69,2.19-9.29c-1.7-4.14-3.55-8.22-5.28-12.35
	c-0.42-0.99-0.63-2.07-0.89-3.13c-0.19-0.79-0.11-1.72-0.49-2.39c-3.8-6.71-5.02-14.3-7.42-21.48c-1.94-5.81-4-11.59-6.1-17.35
	c-0.55-1.52-1.37-2.97-2.18-4.38c-4.72-8.25-9.43-16.51-14.24-24.72c-2.74-4.68-5.73-9.22-8.49-13.89
	c-2.49-4.22-4.81-8.53-7.19-12.81c-3.03-5.46-5.97-10.96-9.06-16.38c-3.44-6.03-6.94-12.02-10.55-17.95
	c-1.7-2.78-3.68-5.39-5.59-8.04c-3.16-4.4-7.5-7.49-12.02-10.27c-5.78-3.56-11.62-7.07-17.62-10.24c-6.11-3.24-12.41-6.12-18.7-9.01
	c-4.55-2.09-9.21-3.94-13.83-5.88c-0.62-0.26-1.3-0.64-1.93-0.6c-6.27,0.39-10.85-3.87-16.26-5.84c-3.95-1.44-7.82-3.09-11.79-4.48
	c-4.21-1.47-8.51-2.68-12.72-4.14c-0.97-0.34-1.95-1.07-2.58-1.88c-1.38-1.78-0.47-4.15,1.77-4.23c1.83-0.07,3.81,0.38,5.53,1.07
	c9.6,3.84,19.13,7.84,28.7,11.75c1.01,0.41,2.06,0.76,3.12,0.99c11.52,2.58,22.06,7.63,32.45,13.02c7.37,3.82,14.68,7.76,21.9,11.86
	c9.09,5.16,18.12,10.42,27.04,15.86c6.73,4.1,13.29,8.49,19.86,12.87c2.32,1.54,4.66,2.63,7.48,2.98c5.12,0.63,10.23,1.44,15.3,2.44
	c2.23,0.44,4.41,1.36,6.5,2.32c5.07,2.33,10.1,4.76,15.1,7.25c4.02,2,7.97,4.13,11.94,6.23c1.57,0.83,3.07,1.77,4.65,2.58
	c9.09,4.67,18.12,9.47,27.33,13.88c4.01,1.92,8.41,3.03,12.63,4.5c0.51,0.18,1.15,0.17,1.55,0.49c4.39,3.49,9.63,2.35,14.58,2.6
	c1.17,0.06,2.84-0.64,3.47-1.55c0.94-1.36-0.51-2.5-1.51-3.38c-4.85-4.23-9.31-8.8-12.76-14.28c-3.48-5.53-6.81-11.1-8.25-17.62
	c-0.36-1.62-1.32-3.42-2.55-4.49c-5.55-4.81-11.26-9.44-16.99-14.04c-7.86-6.3-15.66-12.69-23.75-18.69
	c-4.44-3.3-8.52-7.2-13.72-9.42c-0.25-0.11-0.5-0.24-0.71-0.4c-6.26-4.89-13.85-6.57-21.18-8.97c-8.11-2.65-16.03-5.87-24.06-8.78
	c-3.97-1.44-8.05-2.56-11.96-4.12c-6.89-2.76-13.68-5.78-20.54-8.63c-3.76-1.57-7.59-2.96-11.35-4.54c-3.37-1.41-6.71-2.9-10-4.49
	c-3.53-1.7-6.98-3.55-10.46-5.35c-3.61-1.86-7.18-3.81-10.83-5.58c-3.39-1.65-6.86-3.12-10.31-4.66c-2.47-1.11-4.88-2.41-7.44-3.25
	c-5.84-1.92-11.87-1.6-17.8-0.6c-3.31,0.56-6.42,2.15-9.69,3.02c-6.03,1.61-12.11,3.05-18.17,4.55c-2.5,0.62-5.08,0.98-7.49,1.83
	c-3.3,1.17-6.9,1.62-9.77,3.87c-0.2,0.16-0.51,0.24-0.77,0.25c-6.06,0.22-11.31,3.5-17.23,4.45c-4.77,0.77-9.35,2.73-14.04,4.1
	c-2.35,0.69-4.76,1.18-7.11,1.88c-6.36,1.91-12.7,3.9-19.06,5.81c-1.03,0.31-2.14,0.34-3.18,0.63c-1.42,0.39-2.84,0.84-4.21,1.39
	c-1.87,0.74-3.67,1.67-5.55,2.38c-4.52,1.7-9.04,3.4-13.62,4.95c-4.74,1.61-9.54,3.04-14.31,4.55c-5.56,1.76-11.12,3.55-16.69,5.29
	c-1.94,0.61-3.93,1.09-5.87,1.71c-1.4,0.45-2.77,1.01-4.12,1.59c-0.75,0.32-1.4,0.94-2.16,1.12c-3.67,0.82-7.17,1.91-10.7,3.37
	c-4.96,2.05-10.45,2.78-15.68,4.2c-3.92,1.07-7.76,2.43-11.68,3.49c-3.8,1.02-7.66,1.86-11.51,2.7c-3.72,0.81-7.44,1.65-11.2,2.2
	c-3.75,0.55-7.55,0.98-11.34,1.03c-5.06,0.08-10,0.44-14.94,1.82c-3.49,0.98-7.24,1.33-10.88,1.39c-7.76,0.14-15.53,0.15-23.27-0.25
	c-3.76-0.2-7.45-1.51-11.19-2.22c-9.26-1.78-18.29-4.53-26.63-8.76c-9.08-4.56-18.08-9.48-25.57-16.62c-1.17-1.12-2.67-1.89-3.85-3
	c-1.55-1.46-1.82-3.25-0.75-4.34c1.47-1.51,2.97-0.91,4.38,0.16c1.19,0.91,2.41,1.79,3.52,2.79c5.19,4.69,11.23,8.12,17.12,11.8
	c14.71,9.17,30.94,13.29,47.99,14.37c10.47,0.67,20.97-0.11,31.41-1.31c4.73-0.54,9.5-0.8,14.24-1.27c2.98-0.29,5.97-0.58,8.91-1.12
	c6.82-1.25,13.65-2.51,20.41-4.05c4.91-1.11,9.75-2.57,14.56-4.05c8.3-2.56,16.57-5.24,24.84-7.91c6.85-2.21,13.67-4.51,20.52-6.71
	c7.75-2.48,15.55-4.81,23.28-7.36c3.86-1.27,7.63-2.86,11.42-4.36c3.41-1.35,6.74-2.94,10.19-4.14c2.42-0.84,5.03-1.12,7.51-1.81
	c7.73-2.16,15.46-4.37,23.16-6.63c5.71-1.68,11.38-3.51,17.09-5.21c3.11-0.93,6.31-1.6,9.4-2.59c6.46-2.08,12.83-4.45,19.32-6.41
	c3.5-1.06,7.22-1.36,10.76-2.28c7.24-1.88,14.44-3.92,21.64-5.95c2.72-0.77,5.38-1.72,8.09-2.51c0.62-0.18,1.41-0.26,1.99-0.04
	c6.85,2.59,13.82,4.95,20.47,7.97c7.8,3.54,15.25,7.85,22.99,11.53c8.72,4.14,17.56,8.05,26.43,11.89
	c7.13,3.08,14.36,5.92,21.56,8.81c1.63,0.66,3.37,1.05,5.03,1.65c3.7,1.34,7.37,2.77,11.08,4.09c6.41,2.27,12.73,4.93,19.29,6.6
	c14.25,3.62,26.1,11.29,37.38,20.32c11.58,9.28,23.51,18.12,35.29,27.16c0.43,0.33,0.88,0.64,1.31,0.98
	c10.38,8.16,20.85,16.21,31.1,24.54c8.2,6.66,14.52,15.09,20.81,23.49c1.63,2.17,3.09,4.49,4.51,6.8c1.47,2.4,1.06,4.67-0.74,6.78
	c-1.71,2.02-3.97,2.68-6.26,1.71c-3.11-1.32-6.39-2.67-8.89-4.83c-2.75-2.37-5.59-3.16-8.96-3.06c-4.63,0.14-9.26,0.48-13.88,0.37
	c-2.38-0.06-4.76-0.86-7.12-1.39c-1.44-0.32-2.86-0.73-4.27-1.16c-1.81-0.55-3.64-1.07-5.39-1.77c-3.38-1.34-6.78-2.65-10.05-4.24
	c-5.95-2.9-11.8-5.99-17.69-9c-1.81-0.93-3.64-1.83-5.44-2.77c-6.73-3.53-13.29-7.44-20.23-10.48c-5.09-2.23-9.73-5.42-14.87-7.28
	c-4.39-1.59-9.29-1.89-14.01-2.4c-1.98-0.21-2.9,1.27-2.56,3.27c0.16,0.92,0.53,1.84,1,2.66c2.57,4.49,5.11,8.99,7.82,13.39
	c5.13,8.35,10.36,16.65,15.55,24.96c7.43,11.9,14.8,23.83,22.31,35.68c4.67,7.36,9.58,14.57,14.3,21.9
	c1.47,2.28,2.56,4.81,4.04,7.09c4.3,6.62,8.7,13.17,13.07,19.74c5.72,8.61,11.58,17.13,17.14,25.84
	c5.63,8.83,10.95,17.86,16.43,26.78c2.18,3.55,2.02,7.32,0.89,11.05c-1.1,3.64-4.29,5.22-8.05,4.31c-1.17-0.29-2.42-0.62-3.4-1.28
	c-4.98-3.35-10.64-4.77-16.4-5.85c-6.41-1.21-12.07-4.12-17.33-7.76c-3.45-2.38-6.53-5.27-9.85-7.85c-0.89-0.69-2.03-1.08-3.42-1.8
	c-0.38,1.4-0.82,2.27-0.8,3.12c0.05,1.76,0.17,3.56,0.57,5.27c1.43,6.09,3.05,12.14,4.45,18.24c0.42,1.83,0.73,3.8,0.5,5.64
	c-0.92,7.41-8.24,10.53-14.41,6.25c-0.45-0.31-0.89-0.64-1.27-1.02c-4.04-3.95-8.73-6.88-13.94-9.02c-1-0.41-2.07-0.82-2.89-1.49
	c-6.74-5.54-13.38-11.27-18.19-18.62c-4.91-7.5-9.48-15.25-13.85-23.08c-3.91-7-7.28-14.3-11.02-21.4
	c-1.45-2.76-3.19-5.37-4.91-7.98c-0.38-0.58-1.24-0.86-1.87-1.27C542.61,243.37,542.4,243.57,542.19,243.76z M534.83,99.22
	c-0.1,0.99-0.28,1.43-0.15,1.73c1.32,2.83,2.61,5.67,4.08,8.43c1.99,3.72,4.16,7.34,6.19,11.04c3.6,6.56,7.08,13.19,10.75,19.71
	c3.4,6.04,7.01,11.96,10.48,17.96c0.95,1.64,1.68,3.42,2.64,5.06c5.03,8.56,10.24,17.01,15.11,25.66
	c4.64,8.25,6.52,17.56,9.51,26.44c1.51,4.48,2.57,9.12,4.21,13.54c2.65,7.12,5.71,14.1,8.41,21.2c1.59,4.19,3.25,8.43,4.13,12.8
	c1.12,5.55,3.4,10.36,7.32,14.3c3.93,3.96,7.99,7.81,12.24,11.41c2.68,2.28,6.02,3.78,8.69,6.07c2.88,2.47,7.14,1.18,9.78,4.05
	c0.25,0.27,1.22-0.12,1.78-0.19c0.76-2.16-0.29-3.45-1.79-4.23c-1.07-0.55-1.79-0.92-1.72-2.32c0.04-0.72-0.48-1.55-0.94-2.2
	c-2.36-3.33-4.94-6.51-7.12-9.94c-1.88-2.96-3.75-6.06-4.84-9.36c-1.72-5.25-0.78-10.45,1.73-15.39c2.76-5.43,2.61-10.67-1.11-15.75
	c-2.73-3.73-5.25-7.61-7.71-11.52c-2.75-4.36-5.26-8.88-8.02-13.24c-3.92-6.2-8-12.29-11.94-18.47c-3.21-5.04-6.31-10.15-9.49-15.22
	c-2.38-3.8-4.82-7.57-7.2-11.37c-1.22-1.95-2.31-3.98-3.54-5.92c-4.9-7.66-10.02-15.2-14.72-22.98
	c-4.84-8.01-9.28-16.25-13.95-24.37c-0.53-0.92-1.45-1.61-2.14-2.45c-4.08-4.92-9.98-7.5-14.81-11.46
	C539.12,100.92,536.98,100.29,534.83,99.22z M434.86,170.99c0.19-0.38,0.37-0.76,0.56-1.14c-0.91-1.1-1.64-2.48-2.77-3.24
	c-2.81-1.9-5.79-3.54-8.72-5.24c-1.96-1.14-4.01-1.56-6.23-0.74c-7.06,2.6-14.59,2.86-21.88,4.35c-5.67,1.16-11.68,0.29-17.12,2.88
	c-0.47,0.23-1.06,0.29-1.6,0.3c-8,0.2-16,0.38-24,0.56c-1.49,0.03-2.99,0.06-4.49,0.09c2.98,0.71,5.92,0.68,8.85,0.71
	c9.08,0.1,18.16,0.29,27.24,0.34c13.04,0.06,26.08-0.03,39.13,0.05c2.28,0.01,4.55,0.55,6.83,0.8
	C432.04,170.84,433.45,170.89,434.86,170.99z"/>
<path d="M360.02,878.17c-5.72,0-11.44,0.01-17.15-0.01c-1.22,0-2.46-0.01-3.66-0.2c-1.65-0.26-2.76-1.21-2.76-3
	c0-1.69,0.92-2.97,2.52-3.3c1.43-0.29,2.97-0.19,4.44-0.05c11.12,1.07,22.25,1.66,33.43,1.02c3.44-0.2,6.25-1.52,8.93-3.54
	c3.91-2.94,7.95-5.7,11.89-8.61c2.51-1.86,4.97-3.81,7.37-5.81c6.79-5.66,13.68-11.22,20.23-17.14c2.27-2.05,4.98-2.66,6.4-0.97
	c1.33,1.58,0.72,3.64-1.78,5.94c-0.7,0.64-1.41,1.32-2.23,1.78c-8.82,5.02-16.05,12.08-23.78,18.51c-1.25,1.04-2.6,1.97-3.94,2.91
	c-4.56,3.19-9.23,6.24-13.66,9.6c-2.53,1.92-5.14,2.86-8.28,2.81c-5.99-0.09-11.98-0.03-17.97-0.03
	C360.02,878.12,360.02,878.14,360.02,878.17z"/>
</svg>
