<?xml version="1.0" encoding="utf-8"?>
<!-- Generator: Adobe Illustrator 27.1.1, SVG Export Plug-In . SVG Version: 6.00 Build 0)  -->
<svg version="1.1" id="Layer_1" xmlns="http://www.w3.org/2000/svg" xmlns:xlink="http://www.w3.org/1999/xlink" x="0px" y="0px"
	 viewBox="0 0 668.8 852.06" style="enable-background:new 0 0 668.8 852.06;" xml:space="preserve">
<g>
	<path d="M292.63,226.03c3.55,3.69,7.3,7.22,10.57,11.14c2.25,2.69,4.09,5.7,5.61,9.01c1.37,2.98,4.05,5.55,6.64,7.7
		c1.37,1.14,2.82,2.03,3.81,3.61c4.17,6.65,10.05,11.84,15.13,17.72c1.04,1.21,1.72,2.74,2.55,4.13c0.63,1.05,1.12,2.22,1.9,3.15
		c2.24,2.66,4.61,5.21,6.9,7.83c0.53,0.61,1.13,1.28,1.36,2.03c1.88,6.04,7.21,9.38,10.88,14.01c4.98,1.74,7.63,6.2,11.31,9.49
		c2.6,2.33,3.73,5.45,5.62,8.15c0.75,1.07,1.75,2.38,2.88,2.69c2.57,0.7,4.1,2.48,5.15,4.54c1.98,3.89,4.56,7.25,7.52,10.42
		c3.07,3.29,7.26,3.73,10.46,0.57c2.06-2.03,3.98-3.79,6.82-5.04c2.69-1.18,4.49-4.4,6.66-6.75c0.66-0.71,1.26-1.49,1.88-2.24
		c1.07-1.29,2.39-2.01,4.04-1.3c1.57,0.68,1.55,2.17,1.42,3.59c-0.05,0.54-0.28,1.06-0.41,1.52c-1.29,0.45-2.47,0.87-3.65,1.28
		c0.07,0.27,0.14,0.54,0.2,0.81c4.32,0.1,8.58,2.08,12.97-0.96c1.6-1.1,4.29-0.79,6.48-0.81c2.3-0.02,4.44-0.14,6.22-1.82
		c0.39-0.37,0.96-0.85,1.42-0.82c5.71,0.32,10.54-4.01,16.4-3.04c2.04,0.33,4.18,0.16,6.26,0.03c1.22-0.07,2.72-0.14,3.57-0.84
		c2.4-1.98,5.1-1.87,7.9-1.88c9.32-0.03,18.64-0.12,27.96-0.22c3.6-0.04,7.2-0.15,10.8-0.24c0.28-0.01,0.58-0.02,0.82-0.14
		c6.92-3.3,14.05-1.72,21.17-1.02c1.33,0.13,2.74-0.13,4.05-0.46c2.25-0.57,4.27-0.64,6.4,0.68c1.21,0.75,2.86,1.08,4.31,1.09
		c10.58,0.1,21.17,0.15,31.75,0.01c2.28-0.03,4.55-0.95,6.84-1.44c1.48-0.31,2.96-0.82,4.45-0.84c12.66-0.12,25.32-0.17,37.98-0.19
		c2.26,0,4.3-0.2,6.3-1.62c1.23-0.88,3.11-1.12,4.71-1.17c6.12-0.19,12.24-0.19,18.37-0.24c2.71-0.02,3.75,0.75,3.79,2.74
		c0.04,2.18-1.11,3.3-3.81,3.34c-4.73,0.07-9.48-0.14-14.2,0.05c-1.85,0.08-3.66,0.94-5.49,1.41c-1.59,0.41-3.18,1.11-4.77,1.14
		c-10.98,0.18-21.97,0.07-32.94,0.34c-6.08,0.15-12.26-0.26-18.15,1.94c-0.76,0.28-1.65,0.32-2.47,0.32
		c-10.28-0.04-20.56-0.08-30.84-0.17c-6.52-0.06-13.06,0.04-19.55-0.39c-7.94-0.54-15.77,0.93-23.7,0.67
		c-8.05-0.26-16.14-0.25-24.16,0.37c-4.59,0.35-9.28,0.14-13.88,2.06c-3.11,1.3-7.12,0.5-10.72,0.58c-1.81,0.04-3.63-0.17-5.42-0.02
		c-1.34,0.11-2.67,0.57-3.98,0.94c-2.11,0.6-4.17,1.61-6.31,1.8c-2.65,0.24-4.99,0.66-7.48,1.91c-2.3,1.15-5.39,0.84-8.14,0.94
		c-2.27,0.09-4.27,0.55-6.34,1.65c-3.62,1.91-7.7,1.05-11.47,0.56c-2.77-0.35-4.45,0.4-6.25,2.18c-1.74,1.73-3.42,3.46-5.94,4.4
		c-3.31,1.23-3.6,3.97-0.94,6.97c4.52,5.09,9.15,10.09,13.8,15.07c4.07,4.36,7.81,8.9,11.19,13.87c3.6,5.28,6.81,10.7,9.66,16.39
		c1.23,2.44,2.78,4.72,4.05,7.14c1.46,2.76,3.28,5.47,4.02,8.43c1.15,4.6,4.82,7.67,6.37,11.99c0.99,2.77,2.79,5.26,4.26,7.85
		c2.8,4.93,5.67,9.82,8.41,14.78c0.84,1.53,1.36,3.24,1.99,4.88c0.35,0.9,0.44,1.94,0.96,2.71c2.95,4.32,5.56,8.8,7.44,13.69
		c0.19,0.5,0.67,0.88,0.99,1.34c3.39,4.86,7.24,9.48,9.98,14.68c1.47,2.77,3.46,5.46,3.96,8.9c0.36,2.46,2.18,4.71,3.39,7.03
		c0.38,0.73,1.21,1.34,1.3,2.07c0.86,6.76,5.17,12.14,7.18,18.37c1.11,3.43,4.37,6.22,3.37,10.38c-0.15,0.63,0.62,1.47,0.91,2.24
		c0.56,1.51,1.11,3.03,1.62,4.55c0.47,1.41,0.93,2.82,1.33,4.25c0.4,1.44,0.9,2.88,1.03,4.35c0.34,3.7-0.24,7.56,2.36,10.79
		c0.38,0.47,0.44,1.35,0.38,2.01c-0.26,2.47,0.78,4.49,1.67,6.71c0.94,2.34,0.32,5.29,1.17,7.7c0.8,2.27,2.74,4.08,2.33,6.86
		c-0.31,2.11,0.58,3.95,1.48,5.92c1.6,3.46,2.54,7.22,3.77,10.85c0.4,1.17,0.88,2.32,1.24,3.5c0.45,1.45,1.05,2.9,1.16,4.38
		c0.21,2.73-0.39,5.57,1.98,7.81c0.47,0.45,0.39,1.59,0.4,2.41c0.04,11.28,0.04,22.55,0.06,33.83c0.01,7.24,0,14.49,0.02,21.73
		c0.01,3.78-0.26,7.46-1.79,11.04c-0.62,1.46-0.54,3.27-0.57,4.92c-0.18,10.3-0.23,20.6-0.47,30.9c-0.05,2.18-0.7,4.34-1.07,6.5
		c-0.12,0.68-0.52,1.5-0.28,2.02c1.52,3.35,0.08,6.37-0.5,9.62c-0.7,3.92-0.23,8.05-0.26,12.09c-0.02,2.5,0.18,5.05-1.86,7.04
		c-0.37,0.36-0.65,0.99-0.65,1.5c0.01,6.09-3.32,10.61-6.93,15.01c-0.18,0.21-0.42,0.44-0.45,0.69c-0.85,5.93-6.34,8.5-9.36,12.86
		c-1.09,1.58-2.62,2.87-3.98,4.25c-0.48,0.48-1.03,1.19-1.6,1.24c-2.81,0.27-4.09,2.54-6,4.09c-2.29,1.85-5.12,3.03-7.73,4.48
		c-2.72,1.5-5.44,3-8.18,4.45c-2.65,1.4-5.35,2.72-8.01,4.1c-0.72,0.37-1.38,0.85-2.06,1.3c-0.69,0.45-1.48,1.42-2.03,1.29
		c-4.19-0.98-7.11,2.9-11.14,2.69c-3.88-0.2-7.79,0.25-11.68,0.2c-2.43-0.03-4.73-0.2-6.42,2.05c-0.37,0.49-1.22,0.93-1.8,0.87
		c-3.35-0.33-6.1,1.34-9.12,2.21c-3.41,0.98-5.68,3.69-9,4.56c-1.15,0.3-2.2,1-3.31,1.47c-1.26,0.53-2.55,0.98-3.8,1.51
		c-0.88,0.38-1.73,1.18-2.6,1.19c-2.72,0.03-5.25,0.31-7.2,2.5c-0.23,0.25-0.81,0.35-1.19,0.29c-2.95-0.46-5.51,0.27-7.66,2.35
		c-0.1,0.09-0.25,0.2-0.37,0.18c-5.5-0.5-10,3.99-15.61,3.07c-1.79-0.29-3.45-0.02-4.91,1.56c-0.81,0.87-2.46,1.19-3.77,1.33
		c-2.07,0.22-4.17,0.03-6.26,0.09c-1.1,0.03-2.44-0.15-3.26,0.39c-2.28,1.48-4.53,2.68-7.35,2.08c-2.41,2.84-6.08,2.55-9.1,3.81
		c-1.86,0.77-3.38,2.24-5.63,2.01c-0.51-0.05-1.25,0.09-1.56,0.44c-2.72,3.04-6.32,2.44-9.75,2.41c-9.74-0.1-19.48-0.26-29.23-0.39
		c-0.42-0.01-0.99,0.15-1.23-0.06c-2.57-2.33-6.03-0.82-8.87-2.12c-1.06-0.49-2.46-0.32-3.7-0.33c-12.66-0.1-25.33,0.03-37.98-0.35
		c-5.35-0.16-10.9,0.34-16.04-1.99c-0.57-0.26-1.44-0.26-2.03-0.03c-3.55,1.38-7.21,0.05-10.7,0.5c-5.25,0.67-10.33-0.46-15.48-0.44
		c-2.97,0.01-6.14-1-8.91,1.03c-0.09,0.07-0.31,0.06-0.4,0c-3.18-2.36-6.37-0.63-9.58-0.1c-0.91,0.15-1.97-0.07-2.85-0.42
		c-1.51-0.6-2.78-0.65-4.36,0.08c-1.08,0.5-2.64,0.24-3.93-0.01c-2.2-0.43-4.34-1.07-6.52,0.07c-0.36,0.19-0.83,0.37-1.2,0.3
		c-6.12-1.24-12.15,0.34-18.22,0.53c-0.28,0.01-0.61,0.07-0.82-0.06c-4.89-2.96-10.33-1.39-15.51-1.86
		c-3.58-0.32-7.21-0.19-10.81-0.3c-0.82-0.03-1.78-0.02-2.43-0.43c-3.65-2.31-7.74-1.96-11.74-2.16c-2.5-0.13-5-0.23-7.5-0.37
		c-0.55-0.03-1.28,0.06-1.62-0.25c-3.17-2.83-7.1-1.8-10.74-2.19c-1.67-0.18-3.19-0.29-4.55-1.64c-0.75-0.75-2.22-0.95-3.4-1.08
		c-2.35-0.25-4.72-0.44-7.07-0.34c-2.17,0.1-3.98-0.72-5.97-1.27c-4.29-1.19-8.51-2.68-12.76-3.74c-3.18-0.79-6.04-1.72-8.69-3.46
		c-0.79-0.52-1.7-1.24-1.98-2.07c-1.22-3.6-2.24-7.27-3.32-10.91c-0.47-1.58-0.91-3.16-1.4-4.73c-0.32-1.05-0.67-2.09-1.05-3.12
		c-0.51-1.38-1.21-2.71-1.55-4.13c-0.81-3.45-2.71-6.47-3.93-9.76c-1.62-4.39-2.46-8.97-3.67-13.39c-1.33-4.85-3.72-9.49-3.81-14.67
		c-0.01-0.83,0.17-2-0.28-2.42c-2.55-2.37-2.31-5.43-2.51-8.45c-0.06-0.91-0.79-1.75-1.1-2.67c-0.48-1.42-0.92-2.86-1.27-4.32
		c-0.23-0.94,0.02-2.1-0.44-2.85c-2.72-4.48-2.15-9.4-2.09-14.24c0.03-2.54-0.29-4.84-1.52-7.2c-0.91-1.74-1.01-4.03-1.07-6.08
		c-0.14-4.73-0.01-9.47-0.07-14.2c-0.02-1.37,0.15-3.09-0.57-4.05c-2.03-2.74-1.75-5.76-1.78-8.81c-0.04-4.32,0.24-8.67-0.25-12.94
		c-0.57-5.01,0.33-10.24-2.05-15.01c-0.23-0.47-0.23-1.09-0.23-1.64c0-7.8-0.11-15.6,0.12-23.4c0.07-2.43,1.18-4.82,1.63-7.26
		c0.35-1.89,0.55-3.84,0.57-5.76c0.04-3.78-0.05-7.54,2.08-10.92c0.28-0.45,0.5-1.08,0.44-1.59c-0.77-6.01,3.25-11.24,2.81-17.19
		c-0.03-0.4,0.03-0.93,0.28-1.2c2.74-3.01,1.98-6.76,2.25-10.3c0.23-3.02,0.1-6.11,1.92-8.85c0.48-0.71,0.32-1.89,0.34-2.86
		c0.08-6.12,0.1-12.25,0.2-18.37c0.03-1.94-0.04-3.97,0.47-5.81c1.3-4.72,1.58-9.59,2.48-14.32c0.89-4.71,1.73-9.53,3.06-14.1
		c1.02-3.53,1.7-6.91,1.82-10.53c0.09-2.47,0.05-5.06,2-7.05c0.18-0.19,0.37-0.52,0.33-0.75c-0.87-5.35,3.41-9.64,3.04-14.9
		c-0.05-0.67,0.03-1.51,0.4-2c1.62-2.1,2.03-4.46,2.09-7.03c0.02-0.85,0.88-1.66,1.26-2.53c0.43-1,1.06-2.05,1.05-3.08
		c-0.02-2.45,0.33-4.57,2.1-6.52c0.68-0.74,0.5-2.36,0.51-3.59c0.03-2.51-0.06-4.91,1.8-7.07c0.76-0.88,0.71-2.6,0.73-3.94
		c0.06-3.35,0.01-6.67,1.9-9.69c0.55-0.88,0.69-2.11,0.73-3.19c0.06-1.85,0.42-3.43,1.48-5.07c0.82-1.26,0.89-3.11,0.98-4.71
		c0.12-2.24-0.06-4.49,1.68-6.27c0.1-0.1,0.2-0.22,0.23-0.34c1.13-4.06,2.26-8.12,3.36-12.19c0.54-1.99,0.97-4.02,1.55-6
		c1.14-3.94,2.36-7.86,3.53-11.79c0.12-0.4,0.02-0.88,0.2-1.23c4.33-8.14,6.3-17.42,11.98-24.91c0.66-4.93,5.67-7.13,7.27-11.23
		c2.16-5.54,7.13-8.99,9.32-14.57c1.55-3.94,5.29-7.01,7.9-10.28c-0.76-6.93-1.61-13.47-0.83-20.15c0.44-3.78,3.04-6.4,4.18-9.76
		c0.17-0.51,0.36-1,0.68-1.88c-1.73-0.95-3.29-2.12-5.05-2.72c-3.98-1.34-7.21-4-10.83-5.82c-3.26-1.64-5.61-3.87-7.92-6.37
		c-2.65-2.87-4.05-6.27-4-10.24c0.05-3.76-0.09-7.52,0.04-11.28c0.05-1.33,0.57-2.66,1-3.94c0.31-0.91,1.22-1.77,1.18-2.62
		c-0.18-3.75,1.95-6.09,4.36-8.51c1.33-1.34,2.24-3.2,2.97-4.98c0.33-0.82-0.03-2.1-0.43-3.01c-0.99-2.26-2.18-4.43-3.28-6.63
		c-0.19-0.37-0.29-0.81-0.54-1.12c-4.6-5.62-6.6-12.5-9.2-19.08c-0.54-1.35-0.58-3.04-0.37-4.51c0.43-3.02,0.61-6.28,1.95-8.89
		c1.4-2.72,3.93-4.94,6.22-7.1c1.26-1.19,3.13-1.71,4.59-2.74c1.33-0.94,2.47-2.15,3.89-3.41c-0.34-0.67-0.55-1.51-1.07-2.04
		c-2.78-2.81-3.3-6.89-5.65-9.93c-0.24-0.31-0.34-0.79-0.34-1.18c0.01-5.15-0.53-10.4,0.29-15.42c0.49-3,1.87-6.26,4.43-8.69
		c2.71-2.57,4.83-5.79,7.65-8.2c3.2-2.73,6.65-5.44,10.45-7.07c2.62-1.12,6.03-0.4,9.08-0.5c1.94-0.06,3.89-0.08,5.83-0.19
		c0.68-0.04,1.57-0.07,1.98-0.48c3.18-3.25,7.21-2.4,11.02-2.29c2.29,0.06,4.26-0.23,6.35-1.36c1.72-0.93,3.97-1.15,6-1.19
		c7.38-0.14,14.76-0.06,22.14-0.08c0.97,0,1.99,0.05,2.91-0.2c3.82-1.05,5.31-5.11,2.66-7.9c-2.07-2.17-4.69-3.82-7.1-5.66
		c-0.66-0.5-1.53-0.73-2.14-1.27c-3.42-3-6.77-6.06-10.17-9.08c-0.62-0.55-1.29-1.09-2.02-1.46c-2.97-1.52-5.56-3.5-7.61-6.16
		c-0.17-0.22-0.35-0.54-0.58-0.59c-4.89-1.16-7.84-5.99-12.96-6.8c-0.95-0.15-1.77-1.24-2.6-1.96c-1.55-1.34-2.71-3.14-5.14-3.25
		c-0.76-0.04-1.44-1.19-2.22-1.74c-1.69-1.18-3.35-2.42-5.14-3.41c-2.33-1.28-2.72-2.62-0.88-4.51c0.86-0.88,1.99-1.49,2.99-2.24
		c0.88-0.66,2.09-1.17,2.56-2.07c1.85-3.55,5.19-4.71,8.6-5.81c3.12-1.01,5.11-3.78,4.91-7.08c-0.2-3.27-0.02-3.39,3.16-4.13
		c1.3-0.3,2.51-1.01,3.75-1.57c0.37-0.17,0.68-0.65,1.03-0.68c6-0.41,8.19-5.78,11.68-9.28c1.9-1.91,3.57-2.71,6.11-2.59
		c3.75,0.17,7.53,0.29,11.27,0.03c2.88-0.2,5.78-0.8,8.55-1.61c2.84-0.83,3.76-2.58,2.71-5.03c-2.06-4.78-2.04-9.78-1.96-14.79
		c0.04-2.69-0.08-5.19-1.49-7.64c-0.69-1.2-0.81-2.99-0.52-4.37c0.2-0.96,1.45-2.3,2.36-2.41c2.79-0.33,5.81-1.26,8.2,1.46
		c0.55,0.63,1.72,0.95,2.62,1c1.89,0.09,3.43,0.66,4.97,1.81c0.89,0.67,2.32,0.76,3.52,0.83c2.5,0.15,5.01,0.06,7.51,0.19
		c1.09,0.06,2.5,0.04,3.18,0.68c2.67,2.51,5.95,2.55,9.06,2.07c4.68-0.72,8.4,1.55,12.12,3.42c3.87,1.95,7.28,4.79,10.98,7.09
		c0.87,0.54,2.1,0.65,3.17,0.69c2.5,0.08,5.01-0.07,7.52,0.01c3.72,0.12,4.16,0.74,4.24,4.57c0.08,3.73-2.6,6.3-3.74,9.51
		c-0.4,1.13-1.15,2.15-1.54,3.28c-0.72,2.11-1.95,2.99-3.55,2.38c-1.37-0.53-2.03-2.59-1.29-4.33c0.64-1.51,1.5-2.94,2.08-4.47
		c0.53-1.4,0.81-2.9,1.35-4.88c-2.37-0.05-4.64-0.23-6.9-0.12c-2.08,0.1-3.74-0.34-5.17-2.02c-1.51-1.77-3.19-3.22-5.67-3.99
		c-2.09-0.64-3.75-2.49-5.94-3.47c-3.95-1.77-3.81-2.09-9.08-0.85c3.42,0.74,3.52,2.94,3.45,5.25c-0.04,1.25-0.03,2.51,0,3.76
		c0.06,2.15-0.49,3.46-2.95,4.24c-2.52,0.8-4.88,2.46-6.96,4.17c-1.47,1.2-2.88,1.44-4.58,1.38c-2.37-0.07-4.74,0.05-7.1-0.09
		c-2.63-0.16-4.92,0.56-7.38,2.41c2.19,1.66,4.24,3.22,6.3,4.78c0.33,0.25,0.86,0.36,1.03,0.67c2.43,4.55,7.24,6.34,10.94,9.39
		c3.79,3.13,7.92,5.85,11.87,8.73c3.21-3.5,3.91-7.55,3.46-11.99c-0.12-1.21,0.21-2.48,0.46-3.71c0.33-1.62,1.42-2.36,3.04-2.16
		c1.45,0.18,2.25,1.1,2.25,2.55c-0.02,5.67,0.46,11.4-1.81,16.84c-1.11,2.66-0.71,3.73,1.65,5.15c5.77,3.48,11.44,7.13,17.34,10.38
		c3.19,1.76,6.75,2.85,10.14,4.23c3.8,1.55,7.6,3.08,11.4,4.62c0.51,0.21,1.01,0.54,1.54,0.6c4.5,0.51,8.25,2.56,11.88,5.15
		c1.74,1.24,4.08,1.6,6.02,2.62c1.43,0.75,2.63,1.93,3.93,2.92c1.1,0.84,2.13,1.81,3.31,2.52c2.78,1.68,5.61,3.3,8.47,4.83
		c3.08,1.65,6.3,3.05,9.32,4.81c3.21,1.87,6.09,4.38,9.41,6c3.93,1.91,7.81,3.59,11.05,6.79c1.91,1.88,5.02,2.55,7.58,3.77
		c0.25,0.12,0.62,0.16,0.74,0.36c2.24,3.75,6.48,4.89,9.7,7.35c3.14,2.4,6.59,4.46,10.09,6.32c4.92,2.62,9.92,5.14,15.06,7.29
		c3.79,1.59,7.16,3.82,10.72,5.74c2.86,1.54,6.1,2.37,9.11,3.65c1.5,0.64,3.02,1.43,4.26,2.46c1.45,1.21,2.51,2.9,3.95,4.13
		c1.36,1.17,3,2.02,4.74,3.15c-3.77,2.33-5.77,2.17-8.03-0.42c-1.57-1.8-3.22-3.09-5.69-3.83c-3.48-1.04-6.69-3-9.98-4.63
		c-3.75-1.85-7.44-3.81-11.21-5.63c-0.84-0.41-1.88-0.41-2.83-0.6c-0.67-0.14-1.54-0.06-1.98-0.45c-3.01-2.66-7.1-3.36-10.24-5.5
		c-6.56-4.46-13.74-7.91-19.92-13.03c-4.29-3.56-9.36-6.24-14.26-8.98c-2.22-1.24-4.1-3.51-7.07-3.18c-0.11,0.01-0.29-0.1-0.35-0.2
		c-3.12-5.34-9.52-5.7-14-9.06c-2.56-1.92-5.52-3.75-8.76-5.01c-3.12-1.21-5.67-3.86-8.5-5.83c-0.98-0.68-2.06-1.2-3.11-1.79
		c-0.81-0.46-1.63-0.9-2.45-1.35c-1.04-0.58-2.03-1.25-3.11-1.72c-1.25-0.55-2.57-0.94-3.87-1.37c-1.3-0.42-2.61-0.8-3.91-1.21
		c-1.04-0.32-2.29-0.41-3.07-1.05c-1.61-1.33-3.33-1.78-5.36-1.93c-1.31-0.1-2.57-0.86-3.85-1.34c-1.02-0.38-2.03-0.78-3.04-1.2
		c-1.62-0.68-3.23-1.36-4.83-2.09c-2.45-1.12-5-2.08-7.28-3.48c-3.28-2.02-7.32-2.87-9.73-6.25c-0.47-0.67-1.07-1.51-1.78-1.71
		c-5.59-1.55-9.98-5.03-14.57-9.07c-3.53,3.43-7.07,6.64-10.31,10.12c-1.43,1.53-2.88,1.77-4.78,1.83
		c-5.02,0.15-8.65-1.92-11.76-5.83c-3-3.77-6.56-7.08-10-10.73c-2.9,6.02-1.92,13.84,1.94,18.13c0.63,0.7,1.3,1.49,1.61,2.36
		c1.43,4.07,3.98,7.22,7.53,9.62c0.57,0.38,1.13,0.81,1.57,1.32c3.02,3.55,6,7.14,8.99,10.71c0.18,0.21,0.28,0.61,0.49,0.66
		c3.89,0.98,6.43,4.02,9.57,6.15c2.7,1.84,5.52,3.5,8.32,5.19c3.43,2.07,6.78,4.28,10.35,6.06c5.7,2.85,10.23,7.04,13.92,12.06
		c1.72,2.33,2.49,5.37,3.61,8.12c1.13,2.77,2.05,5.64,3.31,8.35c0.42,0.92,1.54,1.56,2.42,2.22c2.35,1.77,4.08,3.62,4.91,6.82
		c0.83,3.18,2.23,6.2,2.28,9.6c0.01,0.65,0.3,1.39,0.68,1.94c5.17,7.51,9.63,15.57,16.84,21.51c1.69,1.39,2.97,3.3,4.41,5
		c1.15,1.35,1.01,2.74,0.19,4.24c-2.31,4.2-2.46,4.37,0.75,7.82c4.62,4.98,9.55,9.66,14.27,14.54c1.74,1.8,3.16,3.95,6.06,3.9
		L292.63,226.03z M261.95,194.71c1.3,3.38,4.09,4.71,8.1,5.91c-2.69-2.94-4.4-5.64-7.82-6.2c-0.11-3.82-3.09-5.6-5.67-7.97
		C257.27,190.11,258.17,193.35,261.95,194.71z M287.61,232.8c-0.06-1.2,0.55-2.73-1.6-3c0.57,1.07,1.07,2.02,1.58,2.98
		c2.91,3.66,5.82,7.31,8.72,10.97c0.6,0.76,1.44,1.48,1.69,2.36c1.26,4.4,6.15,6.73,6.56,11.59c0.02,0.24,0.27,0.48,0.45,0.69
		c3.12,3.7,5.6,7.82,8.27,11.84c2.63,3.97,3.61,8.99,7.64,12.08c0.47,0.36,0.49,1.26,0.77,1.89c0.51,1.11,1.14,2.17,1.57,3.31
		c1.33,3.49,2.72,6.92,5.83,9.28c0.1,0.07,0.19,0.25,0.18,0.37c-0.28,3.02,2.3,4.58,3.46,6.86c1.66,3.28,3.72,6.33,4.91,9.9
		c0.97,2.92,2.87,5.53,4.36,8.27c2.61,4.8,5.68,9.42,7.65,14.47c1.18,3.02,2.89,5.27,4.98,7.48c1.51,1.59,3.35,2.89,3.38,5.5
		c0.01,0.73,1.04,1.51,1.7,2.16c0.68,0.67,1.61,1.1,2.2,1.83c2.11,2.54,4.13,5.17,6.19,7.76c0.78,0.98,2.17,1.9,2.24,2.91
		c0.22,3.1,2.29,4.95,3.98,7.11c0.58,0.74,1.02,1.65,1.29,2.56c1.04,3.48,0.8,5.12-0.69,5.6c-1.37,0.44-4.03-1.01-4.48-3.55
		c-0.7-3.94-3.62-6.11-5.61-9.04c-1.53-2.25-2.68-4.77-4.32-6.94c-4.12-5.46-9.52-9.76-12.89-16.02c-1.85-3.44-3.71-7.01-5.77-10.41
		c-3.63-5.98-5.3-13.05-10.03-18.47c-0.33-0.37-0.5-1.04-0.46-1.55c0.15-1.91-1.1-3.02-2.15-4.33c-1.1-1.38-2.02-2.91-2.93-4.43
		c-0.69-1.15-1.31-2.36-1.82-3.6c-1.37-3.33-3.31-6.28-5.49-9.16c-1.37-1.81-2.61-4.02-2.97-6.2c-0.45-2.75-1.75-4.56-3.78-6.17
		c-0.61-0.48-1.43-1.32-1.36-1.9c0.27-2.44-1.32-3.8-2.61-5.43c-0.93-1.18-1.6-2.57-2.41-3.86c-1.01-1.61-1.98-3.24-3.09-4.78
		c-0.8-1.11-1.95-1.99-2.69-3.14c-2.68-4.15-4.67-8.76-8.35-12.24c-0.39-0.37-0.77-0.9-0.87-1.41c-0.42-2.17-1.82-3.67-3.27-5.2
		c-1.79-1.89-4.13-3.65-5.01-5.93c-1.41-3.68-3.68-6.46-6.33-9.14c-0.64-0.64-1.2-1.49-1.45-2.35c-1.34-4.56-5.12-7.66-6.98-11.9
		c-0.19-0.44-0.9-0.63-1.31-1c-0.61-0.56-1.21-1.15-1.75-1.78c-3.05-3.58-6.02-7.23-9.16-10.72c-0.88-0.98-0.96-2.96-3.63-2.83
		c1.27,2.09,2.31,3.82,3.37,5.54c0.8,1.29,1.95,2.46,2.36,3.86c0.89,3.01,2.48,5.71,3.51,8.68c1.88,5.42,3.33,11.07,6.31,16.1
		c1.17,1.98,1.86,4.24,2.76,6.38c1.16,2.76,2.23,5.56,3.5,8.27c1.27,2.72,3.14,5.23,4,8.05c1.48,4.87,3.96,9.33,6.12,13.79
		c2.51,5.16,3.85,11.13,8.32,15.3c0.56,0.52,0.76,1.46,1.03,2.25c1.12,3.23,1.86,6.64,3.39,9.65c1.79,3.51,5,6.26,5.79,10.37
		c3.73,2.55,3.84,7.16,6.03,10.59c1.1,1.72,2.1,3.53,2.95,5.38c1.24,2.71,2.22,5.55,3.48,8.25c1.26,2.71,2.81,5.29,4.07,8
		c1.62,3.47,3.13,6.99,4.59,10.53c1.83,4.42,3.6,8.86,5.29,13.33c0.33,0.87,0.23,1.92,0.23,2.89c0,1.47-0.74,2.4-2.23,2.51
		c-1.51,0.11-2.88-0.25-3.08-2.04c-0.17-1.59-0.55-2.92-1.92-3.97c-0.55-0.42-0.74-1.4-0.97-2.17c-1.02-3.39-1.74-6.89-3.07-10.15
		c-1.43-3.52-3.43-6.8-5.15-10.2c-0.68-1.34-1.27-2.73-1.88-4.1c-1.43-3.22-2.33-6.83-4.4-9.56c-2.7-3.55-4.09-7.62-6.17-11.38
		c-1.97-3.55-2.98-7.6-5.94-10.71c-1.8-1.9-3.74-4.55-3.86-6.95c-0.16-3.49-3.8-5.19-3.39-8.59c-3.76-3.8-3.94-9.4-6.9-13.69
		c-1.71-2.48-2.19-5.77-3.48-8.58c-1.59-3.45-3.52-6.75-5.19-10.17c-1.25-2.56-2.33-5.21-3.48-7.82c-2-4.52-3.98-9.05-6.02-13.55
		c-0.68-1.51-1.66-2.89-2.27-4.42c-0.6-1.53-0.91-3.17-1.35-4.76c-0.94,0.89-1.32,1.76-1.22,2.58c0.54,4.72,4.19,8.62,3.62,13.66
		c-0.05,0.45,0.58,0.94,0.78,1.45c0.4,1.03,1,2.09,1.03,3.15c0.12,4.73,4.06,8.66,2.83,13.66c-0.06,0.22,0.08,0.62,0.27,0.76
		c2.46,1.86,2.48,4.44,2.29,7.16c-0.04,0.62,0.27,1.49,0.73,1.88c1.83,1.55,1.87,3.55,1.92,5.69c0.03,1.35,0.24,2.87,0.91,3.98
		c2.04,3.35,1.64,6.99,1.55,10.57c-0.02,0.9-0.78,2.32-1.47,2.51c-0.82,0.23-2.08-0.44-2.87-1.07c-0.7-0.56-1.2-1.56-1.48-2.46
		c-0.89-2.91-1.37-5.97-2.5-8.78c-1.51-3.77,0.55-8.53-3.33-11.58c0.88-3.66-1.98-6.45-2.29-9.69c-0.23-2.44-0.65-4.52-1.81-6.63
		c-0.57-1.03-0.86-2.36-0.84-3.54c0.04-2.7-0.18-5.19-1.91-7.47c-0.59-0.78-0.5-2.1-0.64-3.18c-0.15-1.13-0.22-2.28-0.39-4.16
		c-1.93,4.17-1.59,8.24,0.21,11.2c0.75,1.24,1.42,2.74,1.48,4.14c0.12,2.93,0.11,5.7,2.05,8.28c0.78,1.03,0.37,2.94,0.54,4.45
		c0.18,1.64,0.03,3.44,0.67,4.88c1.81,4.07,2.37,8.21,1.94,12.6c-0.14,1.47-0.11,3.11,0.41,4.46c1.43,3.7,2.04,7.45,1.99,11.42
		c-0.02,1.88,0.4,3.89,1.14,5.61c1.02,2.37,1.6,4.69,1.38,7.27c-0.21,2.5-0.31,4.99,1.22,7.26c0.44,0.65,0.6,1.58,0.64,2.39
		c0.25,4.57,0.4,9.15,0.64,13.73c0.08,1.51-0.09,3.21,0.55,4.47c1.84,3.63,2.11,7.46,1.96,11.36c-0.09,2.28,0.26,4.35,1.27,6.44
		c0.7,1.44,0.93,3.19,1,4.82c0.12,3.03-0.75,4.05-2.91,3.97c-2.02-0.07-2.61-0.95-2.8-3.76c-0.08-1.2-0.09-2.62-0.73-3.52
		c-1.41-1.98-1.45-4.09-1.57-6.34c-0.16-3.24,0.8-6.76-1.96-9.49c-0.25-0.25-0.28-0.78-0.32-1.19c-0.27-3.46-0.71-6.92-0.7-10.38
		c0.01-3.05,0.68-6.09-1.48-8.79c-0.44-0.56-0.26-1.61-0.38-2.43c-0.9-5.81,0.73-11.97-2.5-17.47c-0.38-0.65-0.17-1.64-0.27-2.47
		c-0.38-3-0.15-6.28-1.32-8.94c-1.9-4.3-2-8.56-1.64-13.02c0.08-1.06,0.21-2.48-0.36-3.17c-2.58-3.11-2.27-6.7-2.26-10.33
		c0-1.59-0.51-3.19-0.89-4.76c-0.48-1.98-1.12-3.91-1.56-5.89c-0.3-1.33,0.13-3.23-0.64-3.97c-2.38-2.31-1.99-5.01-1.94-7.78
		c0.03-1.99-0.09-3.99-0.17-7.11c-3.44,3.62-8.45,1.2-10.62,5.48c-0.14,0.27-0.77,0.5-1.12,0.44c-2.95-0.56-5.32,0.69-7.79,2.09
		c-1.1,0.63-2.71,0.47-4.08,0.49c-2.78,0.03-5.57-0.1-8.35-0.07c-0.94,0.01-2.24-0.01-2.77,0.55c-2.54,2.67-6.01,2.11-9.02,2.54
		c-4.32,0.61-8.61,0.39-13.02,1.68c-4.49,1.32-9.61,0.87-14.43,0.63c-5.36-0.27-10.22,0.63-14.7,3.83c2.79,0.27,5.36,0.71,7.42,2.78
		c0.32,0.32,1.51-0.31,2.3-0.38c1.6-0.13,3.41-0.67,4.78-0.14c2.68,1.03,5.35,1.25,8.15,1.39c5.6,0.28,11.45-0.73,16.57,2.72
		c0.58,0.39,1.61,0.23,2.41,0.16c3.96-0.34,7.75-0.01,11.26,2.17c0.87,0.54,2.12,0.76,3.15,0.67c4.68-0.42,8.95,0.67,13.4,2.19
		c3.14,1.07,6.44,1.3,9.35,3.41c1.11,0.8,2.59,1.31,3.63,2.43c1.51,1.62,3.29,3.05,4.56,4.84c1.9,2.69,3.53,5.58,5.09,8.48
		c0.4,0.75,0.15,1.87,0.11,2.82c-0.04,1.1-0.56,2.35-0.21,3.28c1.84,4.83-2.47,7.86-3.38,11.88c-0.3,1.3-1.69,2.78-2.95,3.34
		c-2.55,1.14-5.3,2.1-8.06,2.42c-4.26,0.51-8.59,0.39-12.89,0.62c-1.21,0.07-2.93,0.02-3.49,0.74c-1.6,2.06-3.62,1.72-5.68,1.75
		c-5.13,0.08-10.25,0.16-15.38,0.28c-0.54,0.01-1.24,0.08-1.57,0.42c-2.15,2.12-4.9,1.73-7.49,1.84c-4.25,0.19-8.55-0.06-12.77,0.42
		c-7.52,0.86-14.97,0.69-22.46-0.14c-1.69-0.19-3.42,0.02-5.13,0.05c-0.05,0.29-0.1,0.58-0.16,0.88c0.61,0.37,1.2,1.06,1.82,1.08
		c7.21,0.2,14.14,3.1,21.48,2.2c1.16-0.14,2.44,0.36,3.6,0.75c2.47,0.83,4.84,2.22,7.37,2.59c2.96,0.44,5.26,1.78,7.3,3.67
		c1.13,1.05,1.95,2.28,3.73,2.32c0.59,0.01,1.31,0.51,1.74,0.99c2.46,2.82,4.91,5.67,7.24,8.6c0.89,1.12,1.95,11.82,1.6,13.29
		c-0.26,1.07-0.6,2.18-0.53,3.25c0.38,5.56-4.55,7.47-7.32,10.85c-3.05,0.32-5.95,3.43-9.22,0.38c-0.45-0.42-1.61-0.06-2.44-0.08
		c-6.79-0.2-13.58-0.37-20.37-0.67c-0.86-0.04-1.87-0.6-2.51-1.24c-1.2-1.2-2.52-1.46-4.15-1.45c-3.58,0.04-7.17-0.08-10.75-0.3
		c-1.04-0.06-2.07-0.64-3.08-1.05c-0.87-0.35-1.7-1.09-2.57-1.13c-3.01-0.14-6.04-0.05-9.23-0.05c-0.2,1.02-0.33,1.81-0.52,2.59
		c-0.54,2.11-1.15,4.21-1.65,6.33c-0.35,1.47-0.76,2.95-0.83,4.44c-0.27,6.24-0.42,12.48-0.64,18.72c-0.03,0.83,0.03,1.82-0.38,2.44
		c-1.91,2.91-1.57,6.1-1.45,9.29c0.11,2.92-0.75,5.52-2.84,7.59c-0.52,0.52-1.64,1.17-2.02,0.95c-0.7-0.41-1.12-1.38-1.53-2.17
		c-0.17-0.33-0.04-0.82-0.02-1.24c0.25-6.66,0.49-13.33,0.77-19.99c0.03-0.82,0.08-1.78,0.49-2.43c2.27-3.57,1.45-7.52,1.66-11.37
		c0.1-1.89,0.36-3.87,1.07-5.6c1.61-3.91,1.48-7.78,0.77-11.33c-2.28-1.4-4.22-3.58-6-3.46c-3.54,0.24-6.07-1.11-8.67-2.95
		c-0.3-0.22-0.81-0.23-1.22-0.21c-3.24,0.17-5.07-2.97-8.04-3.42c-2.47-4.42-7.87-4.7-11.03-8.25c-6.11,4.08-7.9,11.08-12.26,16.11
		c0.24,2.62-1.8,3.79-3.22,5.47c-1.97,2.34-5.05,4.03-4.91,7.82c0.03,0.69-1.2,1.39-1.76,2.15c-1.06,1.42-2.14,2.84-3.07,4.34
		c-0.84,1.36-1.25,3.07-2.3,4.21c-1.86,2.03-3.28,4.01-2.86,6.99c0.11,0.79-0.68,1.73-1.09,2.58c-0.42,0.85-0.99,1.64-1.33,2.51
		c-1.23,3.15-2.16,6.44-3.63,9.47c-1.78,3.65-1.67,7.97-4.23,11.3c-0.46,5.99-2.55,11.53-4.63,17.08c-0.29,0.77-0.38,1.62-0.51,2.44
		c-0.49,3.26-0.51,6.49-2.39,9.57c-1.87,3.07,0.71,6.55,4.16,5.91c5.31-0.98,10.49,0.37,15.72,0.59c4.05,0.17,8.4-0.31,12.03,2.47
		c0.56,0.43,1.61,0.3,2.44,0.31c7.78,0.11,15.56,0.18,23.34,0.31c6.25,0.1,12.51,0.15,18.75,0.47c2.6,0.13,5.37,1.77,7.71,1.22
		c4.96-1.17,9.57-0.24,14.3,0.72c0.27,0.05,0.56,0.02,0.83,0.02c6.82,0,13.65,0.07,20.47-0.03c2.62-0.04,5.38,0,7.82-0.79
		c5.26-1.69,10.65-1.89,16.04-2.02c2-0.05,3.73,0.09,5.35-1.49c0.91-0.88,2.5-1.54,3.75-1.49c3.16,0.12,5.86-1.32,8.73-1.91
		c4.05-0.83,7.85-1.89,11.58-3.61c1.32-0.61,3.09-0.18,4.48-0.7c4.11-1.52,8.32-2.11,12.67-2.1c1.19,0,2.68-0.15,3.52-0.84
		c2.12-1.75,4.5-1.98,7.03-2.09c0.93-0.04,1.86-0.39,2.77-0.65c2.25-0.65,4.49-1.32,6.73-1.99c1.17-0.35,2.66-0.39,3.44-1.15
		c2.23-2.19,5-1.22,7.47-1.81c2.49-0.6,4.46-2.91,7.35-2.48c0.14,0.02,0.28,0,0.42,0.01c1.88,0.25,3.31-0.31,4.94-1.49
		c1.54-1.12,3.87-1.22,5.88-1.61c1.48-0.29,3.27,0.13,4.48-0.55c3.61-2.01,7.43-2.05,11.35-2.07c1.61-0.01,3.22-0.53,4.82-0.85
		c2.01-0.41,3.99-1.19,6-1.24c7.65-0.19,15.31-0.19,22.96-0.18c6.81,0.01,13.62,0.18,20.42,0.16c6.11-0.02,12.21-0.25,18.32-0.31
		c13.2-0.14,26.4-0.24,39.61-0.35c3.31-0.03,6.37-1.25,9.98-0.6c3.82,0.69,8.04-0.82,12.08-1.41c1.69-0.25,2.51-1.56,1.67-3
		c-1.53-2.62-3.29-5.11-4.97-7.64c-0.53-0.8-1.25-1.5-1.62-2.35c-1.25-2.88-2.31-5.85-3.61-8.7c-0.5-1.11-1.4-2.06-2.23-2.98
		c-2.6-2.88-5.33-5.64-7.83-8.6c-1.02-1.22-1.34-3.05-2.41-4.2c-1.14-1.23-2.92-1.84-4.18-2.99c-1.52-1.4-2.88-3.01-4.14-4.65
		c-5.28-6.85-12.89-11.81-16.34-20.14c-0.25-0.61-0.85-1.09-1.32-1.6c-4.79-5.21-9.57-10.44-14.38-15.63
		c-8.97-9.69-18.09-19.25-26.88-29.1c-2.96-3.32-7.05-5.92-8.02-10.84c-0.19-0.99-1.14-1.89-1.88-2.7c-2.15-2.37-4.38-4.66-6.57-7
		c-1.98-2.11-4.3-4.01-5.84-6.41c-2.18-3.4-2.74-7.98-7.46-9.37c-0.27-0.08-0.33-0.72-0.57-1.04c-0.79-1.1-1.52-2.25-2.43-3.24
		c-2.5-2.74-5.2-5.32-7.61-8.15c-2.41-2.82-4.41-6.01-6.88-8.77c-2.76-3.09-5.81-5.92-8.83-8.75
		C289.32,232.56,288.33,232.83,287.61,232.8z M39.37,455.89c-0.99,7.43-2.92,13.97-5.27,20.46c-0.97,2.67-0.42,5.91-2.59,8.39
		c-0.45,0.51-0.17,1.62-0.32,2.44c-0.26,1.36-0.57,2.72-0.92,4.06c-0.73,2.81-1.51,5.61-2.27,8.42c-0.25,0.92-0.25,2.03-0.79,2.73
		c-1.13,1.47-1.18,3-1.08,4.72c0.08,1.5-0.09,3.06-0.39,4.54c-0.81,3.92-1.82,7.8-2.61,11.72c-0.93,4.57-1.7,9.18-2.59,13.77
		c-0.13,0.67-0.55,1.28-0.71,1.95c-0.51,2.12-1.31,4.25-1.38,6.39c-0.29,9.31-0.33,18.64-0.53,27.95c-0.03,1.35-0.03,3.03-0.78,3.98
		c-1.37,1.74-1.32,3.57-1.35,5.51c-0.02,2.09,0.59,4.53-0.28,6.18c-1.93,3.66-1.48,7.78-2.8,11.31c-1.45,3.87-1.75,7.71-2.36,11.61
		c-0.21,1.37-0.37,2.86-1.04,4.02c-1.42,2.46-1.25,4.99-1.23,7.67c0.03,3.31,0.25,6.98-1.03,9.85c-1.41,3.14-1.56,6.04-1.46,9.23
		c0.13,3.9,0.12,7.8,0,11.7c-0.09,2.92-0.58,5.8,1.44,8.41c0.52,0.67,0.46,1.87,0.48,2.83c0.17,7.22,0.31,14.45,0.41,21.67
		c0.04,2.78-0.17,5.53,1.6,8.03c0.58,0.81,0.57,2.13,0.6,3.22c0.16,6.95,0.23,13.89,0.37,20.84c0.02,0.81,0.09,1.75,0.5,2.4
		c2.57,4.03,2.11,8.51,2.22,12.94c0.04,1.59,0.56,3.18,0.93,4.75c0.5,2.11,1.48,4.21,1.51,6.32c0.03,2.18,0.18,4.1,1.52,5.88
		c0.48,0.64,0.91,1.52,0.91,2.29c-0.02,2.9,1.13,5.39,2.38,7.89c0.36,0.73,0.7,1.63,0.6,2.39c-0.39,2.88-0.05,5.51,1.86,7.84
		c0.33,0.4,0.49,1.05,0.47,1.58c-0.08,3.4,1.33,6.32,2.32,9.46c1.11,3.54,1.55,7.33,2.66,11.02c0.99,3.3,2.96,6.06,3.89,9.34
		c0.36,1.28,1.48,2.44,1.59,4.06c0.08,1.18,0.8,2.31,1.12,3.5c0.5,1.83,1.11,3.67,1.28,5.54c0.15,1.57,0.22,2.96,1.43,4.18
		c0.61,0.62,0.99,1.67,1.08,2.56c0.2,2,1.35,2.37,3.1,2.56c5.72,0.63,11.08,2.85,16.72,3.91c0.26,0.05,0.54,0.19,0.75,0.35
		c1.78,1.36,3.81,1.31,5.94,1.41c2.88,0.14,5.98,0.29,8.52,1.45c2.17,0.99,4.16,1.15,6.37,1.27c2.05,0.11,4.41,0.02,6.05,1
		c3.2,1.92,6.54,2.05,10.02,2.21c2.91,0.14,6.11-0.12,8.61,1.04c2.71,1.26,5.29,1.45,8.05,1.46c4.18,0,8.36-0.19,12.53-0.02
		c3.88,0.16,7.93,0.07,11.55,1.22c4.88,1.54,9.85,0.76,14.7,1.68c1.3,0.25,2.74-0.24,4.11-0.42c0.96-0.12,1.92-0.44,2.87-0.42
		c10.27,0.27,20.54,0.8,30.81,0.81c7.61,0.01,15.22-0.63,22.83-1c0.83-0.04,1.67-0.18,2.48-0.37c6.07-1.43,12.18-0.9,18.27-0.31
		c5.1,0.49,10.16,1.57,15.26,1.72c10.27,0.31,20.55,0.15,30.82,0.22c1.38,0.01,2.79,0.11,4.14,0.38c3.25,0.64,6.45,1.75,9.72,2.05
		c7.17,0.66,14.39-0.02,21.61,0.52c5.52,0.41,11.55,0.89,16.5-3.07c0.39-0.31,1.06-0.4,1.6-0.38c1.88,0.06,3.35-0.91,5.02-1.54
		c4.1-1.55,7.84-4.31,12.49-4.29c0.54,0,1.16-0.08,1.62-0.34c3.8-2.14,7.94-2.2,12.14-2.23c1.44-0.01,3.08-0.36,4.27-1.11
		c1.87-1.19,3.71-1.73,5.9-1.55c2.5,0.2,4.89,0.11,7.06-1.69c1.08-0.89,2.82-1.25,4.29-1.35c2.01-0.14,3.63-0.75,5.39-1.76
		c1.51-0.86,3.77-0.28,5.53-0.85c1.87-0.61,3.45-2.3,5.32-2.64c1.93-0.36,3.81-0.28,5.27-1.92c0.41-0.46,1.23-0.78,1.85-0.76
		c2.11,0.05,3.72-0.88,5.25-2.19c0.5-0.43,1.22-0.62,1.85-0.89c2.58-1.09,5.52-1.71,7.65-3.37c2.53-1.96,5.04-2.72,8.08-2.53
		c0.8,0.05,1.73-0.1,2.42-0.48c2.83-1.59,5.89-1.49,8.96-1.46c4.04,0.03,8.02-0.31,11.8-1.91c1.27-0.54,2.61-1.24,3.94-1.29
		c6.47-0.21,11.23-4.39,16.65-6.99c2.49-1.2,4.71-3.15,7.3-3.94c2.78-0.84,4.46-3.85,7.7-3.58c0.25,0.02,0.53-0.59,0.83-0.87
		c2.84-2.77,4.73-6.5,8.51-8.32c0.45-0.22,0.7-0.85,1.06-1.27c1.25-1.47,2.59-2.86,3.75-4.4c1.48-1.98,3.04-3.96,4.15-6.14
		c1.39-2.73,2.25-5.73,3.53-8.52c1.19-2.58,2.7-5.02,3.94-7.58c0.34-0.7,0.25-1.63,0.27-2.46c0.04-1.53,0.11-3.06,0.01-4.58
		c-0.46-7.5,1.52-14.9,0.6-22.45c-0.43-3.52-0.12-7.33,0.77-10.76c1-3.86,1.17-7.66,1.23-11.56c0.1-6.24,0.12-12.5,0.5-18.73
		c0.52-8.35-0.67-16.85,1.98-25.04c0.04-0.13,0.03-0.28,0.03-0.42c0.06-3.47,0.18-6.94,0.17-10.41c-0.02-8.62-0.16-17.25-0.11-25.87
		c0.01-2.25,0.08-4.21-1.48-6.22c-0.97-1.25-0.86-3.37-1.14-5.12c-0.26-1.62,0.05-3.51-0.7-4.84c-1.42-2.52-2.3-5.01-2.1-7.91
		c0.04-0.65-0.2-1.38-0.47-2c-2.21-5.01-5.08-9.84-4.4-15.66c-2.43-4-2.29-8.71-3.61-12.98c-0.79-2.55-1.61-4.94-1.62-7.62
		c-0.01-1.19-0.14-2.75-0.87-3.48c-1.94-1.95-1.98-4.14-1.72-6.56c0.24-2.21,0.53-4.42-1.71-6.06c-0.62-0.46-0.98-1.78-0.87-2.62
		c0.63-4.77-3.61-8.18-3.45-12.78c-2.4-2.09-1.5-5.7-3.9-8.02c-1.52-1.47-2.58-4.06-2.66-6.2c-0.11-3.15-1.53-5.52-2.87-8.08
		c-2.46-4.71-5.51-9.15-6.95-14.37c-0.29-1.04-0.99-1.97-1.54-2.93c-1.93-3.38-2.97-7.37-6.55-9.63c-0.19-0.12-0.34-0.52-0.29-0.75
		c0.59-2.87-1.87-4.1-3.12-6c-0.88-1.34-1.49-2.86-2.24-4.29c-0.51-0.96-0.84-2.35-1.65-2.77c-3.85-1.97-3.84-6.25-5.42-9.38
		c-1.68-3.32-2.74-6.99-5.07-10.04c-0.31-0.41-0.53-1.03-0.5-1.54c0.2-2.59-1.48-4.02-3.13-5.57c-0.84-0.79-1.72-1.86-1.92-2.93
		c-0.67-3.57-3.57-5.63-4.93-9.18c-1.58,1.37-2.5,2.44-3.65,3.12c-4.3,2.55-9.78,2.46-13.63,6.08c-0.23,0.21-0.84-0.04-1.21,0.08
		c-1.29,0.45-2.55,0.98-3.83,1.45c-1.16,0.43-2.3,0.96-3.5,1.19c-4.34,0.84-8.36,2.76-12.67,3.79c-2.5,0.6-4.86,1.73-7.57,1.65
		c-1.48-0.04-3.26-0.1-4.39,0.64c-2.4,1.57-4.97,1.62-7.6,1.76c-3.87,0.2-7.73,0.41-11.59,0.66c-0.67,0.04-1.49,0.13-1.96,0.54
		c-1.88,1.64-4.16,1.17-6.32,1.55c-3.38,0.59-6.93-0.34-10.19,1.4c-1.67,0.89-3.58,1.6-5.44,1.82c-2.95,0.35-5.98-0.13-8.45,2.29
		c-0.6,0.59-2.12,0.35-3.21,0.29c-2.15-0.12-4.02,0.07-5.73,1.77c-0.87,0.86-2.5,1.01-3.82,1.36c-1.06,0.28-2.29,0.12-3.24,0.59
		c-3.48,1.72-7.16,2.18-10.95,1.94c-1.89-0.12-3.39,0.09-4.87,1.61c-0.91,0.93-2.71,1.18-4.16,1.36c-3.2,0.4-6.66-0.76-9.48,1.82
		c-0.43,0.4-1.32,0.36-2.01,0.41c-2.63,0.19-5.26,0.25-7.88,0.52c-1.05,0.11-2.33,0.36-3.04,1.03c-2.04,1.93-4.3,1.86-6.9,1.93
		c-2.3,0.06-4.5,1.99-6.85,2.28c-2.49,0.31-4.81,0.11-6.95,2.01c-1.09,0.97-3.1,1.11-4.72,1.21c-2.84,0.18-5.87-0.76-8.17,1.85
		c-0.23,0.26-0.78,0.29-1.19,0.31c-4.78,0.31-9.57,0.81-14.35,0.85c-13.51,0.12-27.02,0.26-40.53-0.02
		c-13.6-0.29-27.21,0.94-40.83-0.87c-5.17-0.69-10.52-0.07-15.61-1.89c-1-0.36-2.2-0.19-3.31-0.21c-9.44-0.16-18.88-0.3-28.32-0.5
		c-1.08-0.02-2.6-0.04-3.14-0.7c-1.81-2.22-4-2.03-6.42-1.8c-2.2,0.21-4.44,0.27-6.64,0.07c-2.47-0.22-5.19-0.25-7.28-1.35
		c-2.42-1.28-4.57-1.57-7.15-1.15c-1.11,0.18-2.89-0.03-3.44-0.76c-1.65-2.17-3.46-3.02-6.09-2.26c-0.44,0.13-1.07-0.22-1.56-0.45
		c-4.67-2.21-9.36-4.29-14.28-6.01C47.01,459.16,42.82,459.04,39.37,455.89z M105.72,468.89c0.15-0.23,0.31-0.47,0.46-0.7
		c1.83-0.13,3.68-0.46,5.5-0.33c2.03,0.15,4.03,1,6.05,1.06c7.09,0.23,14.18,0.23,21.27,0.37c1.38,0.03,3.05-0.12,4.06,0.58
		c2.54,1.74,5.27,1.46,8.02,1.51c6.4,0.11,12.8,0.31,19.2,0.35c10.42,0.06,20.84,0.05,31.26,0c14.04-0.07,28.09-0.21,42.13-0.29
		c2.8-0.02,5.44-0.23,7.97-1.83c1.27-0.8,3.2-0.56,4.83-0.77c1.23-0.16,3.03,0.16,3.59-0.53c2.67-3.32,6.23-2.45,9.63-2.62
		c1.47-0.07,3.29-0.12,4.3-0.96c1.94-1.61,3.98-1.43,6.19-1.69c2.19-0.26,4.18-1.93,6.38-2.34c2.55-0.47,5.24-0.14,7.85-0.35
		c1.18-0.09,2.52-0.37,3.46-1.03c2.42-1.71,5.02-2.18,7.9-2.01c1.49,0.09,3.29,0.2,4.46-0.51c3.03-1.84,6.28-2.04,9.62-2.24
		c1.08-0.07,2.22-0.32,3.19-0.79c2.64-1.28,5.22-2.58,8.32-2.31c0.72,0.06,1.72-0.37,2.21-0.91c1.65-1.82,3.77-1.81,5.8-1.46
		c2.27,0.39,4.04,0.18,5.54-1.78c0.49-0.63,1.71-1.06,2.55-1c3.98,0.28,7.7-0.39,11.32-2.13c1.18-0.57,2.71-0.38,4.07-0.61
		c1.9-0.33,3.79-0.74,5.68-1.09c3.66-0.67,7.3-1.73,10.98-1.87c5.65-0.22,11.29,0.22,16.64-2.3c1.16-0.55,2.74-0.2,4.12-0.32
		c1.23-0.11,2.93,0.14,3.59-0.55c2.53-2.66,5.61-2.72,8.85-2.66c0.66,0.01,1.5-0.16,1.95-0.59c2.39-2.24,6.22-1.45,8.42-4.14
		c0.41-0.51,1.59-0.34,2.37-0.6c1.18-0.39,2.47-0.68,3.44-1.39c1.45-1.06,2.85-1.34,4.64-1.28c3.33,0.12,4.96-3.57,8.14-4.04
		c0.08-0.01,0.16-0.22,0.2-0.36c0.58-1.97-0.7-3.12-1.9-4.29c-1.09-1.07-2.25-2.58-3.88-1.29c-1.65,1.31-3.07,1.5-4.92,0.57
		c-0.56-0.28-1.51,0.29-2.29,0.4c-1.61,0.24-3.23,0.53-4.85,0.61c-1.09,0.06-2.21-0.34-3.31-0.3c-10.13,0.38-20.26,1.1-30.39,1.17
		c-22.7,0.17-45.4,0.01-68.1,0.02c-1.36,0-2.73,0.33-4.08,0.6c-1.87,0.38-3.7,1.09-5.58,1.22c-6.49,0.42-12.98,0.64-19.48,0.98
		c-0.53,0.03-1.18,0.18-1.54,0.52c-2.85,2.68-6.31,2.68-9.81,2.16c-1.53-0.23-2.51,0.34-3.78,1.09c-4,2.34-8.72,2.93-12.92,4.87
		c-0.53,0.24-1.35-0.27-2.02-0.21c-0.77,0.07-1.88,0.13-2.23,0.62c-1.61,2.29-3.79,2.39-6.27,2.31c-1.13-0.04-2.35,0.65-3.43,1.2
		c-2.09,1.06-3.98,2.62-6.61,1.57c-0.52-0.21-1.45,0.05-1.95,0.42c-3.25,2.41-6.98,2.27-10.73,2.26c-1.18,0-2.46,0.31-3.51,0.84
		c-2.78,1.42-5.63,2.19-8.79,2.15c-1.44-0.02-3.09,0.34-4.3,1.09c-2.27,1.41-4.61,1.31-7.1,1.55c-2.29,0.21-4.39,2.08-6.66,2.99
		c-0.83,0.34-1.93-0.02-2.9,0.04c-0.96,0.06-2.22-0.1-2.82,0.42c-2.97,2.62-6.49,2.09-9.93,2.08c-2.63,0-5.19-0.21-7.5,1.72
		c-0.92,0.77-2.63,0.79-3.98,0.79c-10.86,0.06-21.72,0.1-32.59-0.01c-3.18-0.03-6.37-0.46-9.52-0.89c-2.88-0.39-5.72-1.43-8.59-1.51
		c-12.09-0.33-24.18-0.36-36.27-0.58c-4.44-0.08-9.02,0.19-13.26-0.83c-2.87-0.69-5.62-1.21-8.53-1.21c-1.11,0-2.28,0.1-3.31-0.21
		c-6.01-1.78-12.11-0.51-18.17-0.7c-1.61-0.05-2.76,0.56-2.79,2.33c-0.03,1.96,1.16,2.61,2.98,2.64c1.21,0.02,2.86-0.15,3.56,0.54
		c3.5,3.41,8.73,2.28,12.46,5.02c1.6,1.18,3.5,2.11,5.4,2.69c6.61,2,13.28,3.8,19.93,5.66c0.4,0.11,0.82,0.15,1.24,0.17
		c3.74,0.19,7.48,0.49,11.22,0.53C100.94,466.28,103.65,466.47,105.72,468.89z M239.97,199.89c-2.26-1.89-4.08-3.01-5.36-4.57
		c-2.05-2.49-5.93-1.95-7.62-4.9c-0.12-0.21-0.79-0.13-1.2-0.14c-6.11-0.17-12.21-0.44-18.32-0.46c-7.36-0.02-14.72,0.1-22.07,0.31
		c-7.28,0.21-14.58-1.28-21.84,0.38c-0.39,0.09-0.83-0.07-1.24-0.07c-6.96,0-13.92-0.03-20.87,0.03c-1.22,0.01-2.45,0.33-3.66,0.57
		c-3.1,0.64-6.18,1.76-9.3,1.88c-7.21,0.28-14.44,0.11-21.67,0.03c-1.21-0.01-2.73-0.08-3.58-0.77c-2.16-1.78-4.57-1.79-7.09-1.77
		c-4.59,0.03-9.18-0.01-13.78,0.02c-3.1,0.02-6.41-0.88-8.83,2.18c-0.42,0.53-1.58,0.41-2.35,0.73c-0.74,0.31-1.66,0.61-2.08,1.21
		c-3.84,5.43-5.98,11.25-3.5,17.91c1.93,5.19,4.67,10.09,5.19,15.78c0.1,1.11,1.08,2.22,1.86,3.16c0.97,1.17,2.21,2.11,3.24,3.24
		c1.47,1.61,2.98,2.86,5.42,2.28c0.7-0.17,1.89,0.08,2.31,0.59c2.47,3,5.75,2.06,8.89,2.21c3.71,0.18,7.69-0.04,11.05,1.24
		c5.1,1.95,10.47,2.67,15.66,3.8c5.58,1.22,11.63,0.32,17.47,0.24c0.92-0.01,1.82-0.64,2.75-0.84c2.69-0.59,5.39-1.12,8.08-1.67
		c1.19-0.24,2.68-0.12,3.51-0.8c2.11-1.74,4.49-2.03,7.01-2.16c1.52-0.08,3.09-0.08,4.56-0.45c5.96-1.48,11.98-2.04,18.12-1.91
		c2.71,0.06,5.56,0.28,7.99-1.58c0.61-0.47,1.57-0.59,2.39-0.66c3.87-0.35,7.75-0.55,11.61-0.96c2.34-0.25,4.68-0.64,6.95-1.25
		c3.06-0.83,3.47-2.13,2.12-5.09c-0.39-0.85-0.6-1.84-0.66-2.79c-0.32-4.56-0.6-9.13-0.83-13.7c-0.2-4.02,2.37-7.08,6.36-7.84
		c1.07-0.2,2.09-0.63,3.14-0.94c1.57-0.47,3.12-1.19,4.73-1.34C229.41,200.52,234.34,200.27,239.97,199.89z M227.54,264.83
		c0.07-0.37,0.15-0.74,0.22-1.11c-0.81-0.27-1.62-0.75-2.43-0.76c-2.36-0.04-4.73,0.24-7.08,0.16c-3-0.11-6.16,0.28-8.47-2.52
		c-0.45-0.54-1.79-0.38-2.73-0.46c-2.88-0.26-6.13,0.26-8.54-0.92c-3.08-1.52-5.93-1.73-9.16-1.54c-6.62,0.37-13.19-1.6-19.87-0.66
		c-1.08,0.15-2.32-0.7-3.47-1.14c-3.93-1.52-7.44-3.89-12.04-3.96c-3.26-0.05-7.01,0.29-9.91-2.39c-0.57-0.53-2.11-0.22-3.14-0.01
		c-2.97,0.61-5.87,1.69-8.86,2c-3.44,0.35-6.95,0.12-10.43,0.01c-1.05-0.03-2.49-0.16-3.06-0.83c-1.75-2.06-3.92-1.62-6.13-1.72
		c-2.74-0.13-5.85,0.14-8.12-1.06c-4.23-2.23-8.67-1.31-12.97-1.97c-3.54-0.55-7.4,1.06-10.47-2.29c-1.06-1.16-2.73-0.39-3.58,0.9
		c-1.91,2.9-5.63,4.72-5.31,8.99c0.04,0.54-0.83,1.1-1.08,1.72c-0.46,1.13-1.07,2.31-1.1,3.49c-0.14,4.85-0.01,9.7-0.12,14.55
		c-0.07,3.11,1.46,5.38,3.71,7.11c2.69,2.08,5.63,3.85,8.45,5.75c0.69,0.46,1.6,0.79,2.02,1.44c1.65,2.54,4.07,2.42,6.65,2.42
		c1.58,0,3.44,0.21,4.68,1.05c1.86,1.26,3.72,1.78,5.86,1.65c3.78-0.22,7.12,0.56,10.75,2.16c3.68,1.62,8.04,2.06,12.09,3.21
		c4.13,1.17,8.78,0.49,12.85,2.62c0.58,0.31,1.35,0.33,2.03,0.36c5.55,0.2,11.09,0.55,16.64,0.52c11.12-0.06,22.24-0.31,33.36-0.52
		c1.23-0.02,2.58-0.01,3.67-0.49c4.56-2,9.34-2.36,14.2-2.25c1.42,0.03,2.82,0.29,3.14-0.64c-0.27-2.53-1.12-4.54-0.51-5.91
		c1.76-3.94,0.95-7.95,1.1-11.93c0.04-1.02-0.37-2.24-0.97-3.08c-1.59-2.19-1.08-4.16,0.17-6.19c2.5-4.1,6.52-5.39,10.95-5.73
		C222.84,264.68,225.2,264.83,227.54,264.83z M215.03,177.76c-0.67-1.16-0.96-1.96-1.49-2.55c-2.32-2.55-2.93-5.54-2.75-8.89
		c0.15-2.91-0.17-5.85,0.03-8.76c0.11-1.56,0.5-3.35,1.41-4.54c1.85-2.44,4.13-4.55,6.36-6.92c-4.19-0.2-8.42-0.56-12.64-0.59
		c-13.35-0.07-26.71,0.01-40.06-0.05c-1.77-0.01-3.96,0.09-5.23-0.85c-2.38-1.76-4.86-1.72-7.5-1.81
		c-3.73-0.13-7.46-0.43-11.19-0.64c-2.46-0.13-5.06-0.78-7.37-0.23c-6.88,1.62-13.79,0.66-20.69,0.88c-0.44,0.01-0.89-0.45-1.33-0.7
		c0.25-0.46,0.32-0.84,0.5-0.9c4.18-1.4,8.37-2.78,12.56-4.13c0.38-0.12,0.83-0.11,1.24-0.08c8.98,0.56,17.97-1.06,26.94-0.04
		c3.85,0.44,7.67,1.08,11.49,1.73c2.86,0.49,5.64,0.64,8.81-0.68c-2.08-3.53-3.93-6.66-5.53-9.37c-2.98,0.21-5.3,0.36-7.61,0.55
		c-1.52,0.12-3.37-0.2-4.49,0.54c-3.99,2.66-8.39,1.28-12.55,1.53c-7.34,0.45-14.72,0.13-22.08,0.23c-2.05,0.03-4.04,0.17-5.79,1.81
		c-0.84,0.79-2.58,0.85-3.92,0.86c-5.34,0.04-10.83-1-15.54,2.65c-3.33-0.01-5.94,1.37-8.77,3.2c-2.24,1.45-4.31,2.82-5.96,4.88
		c-1.12,1.4-2.34,2.73-3.34,4.22c-2.99,4.44-5.32,9.06-3.94,14.71c0.33,1.33,0.48,2.79,0.31,4.14c-0.25,2.05,0.65,3.69,1.17,5.54
		c1.07,3.88,3.99,6.27,6.31,9.13c0.75,0.93,2.31,1.49,3.57,1.65c6.13,0.78,12.52-0.71,18.43,2.11c0.23,0.11,0.55,0.08,0.83,0.07
		c11.24-0.3,22.55,1.09,33.69-1.46c0.8-0.18,1.66-0.18,2.49-0.2c13.18-0.31,26.37-0.61,39.55-0.9c1.11-0.02,2.24,0.16,3.33,0.04
		c0.92-0.1,2.26-0.21,2.63-0.81c1.75-2.83,4.38-2.46,7.02-2.39c1.1,0.03,2.22-0.08,3.3-0.27c2.7-0.46,5.38-1.08,8.09-1.5
		C208.43,178.52,211.53,178.2,215.03,177.76z M199.32,337.32c0.29-0.28,0.58-0.56,0.87-0.85c-0.12-0.86-0.06-1.81-0.4-2.56
		c-0.4-0.86-1.41-1.46-1.72-2.33c-1.43-4.06-5-5.25-8.36-7.12c-2.92-1.62-5.58-3.26-9.02-3.06c-0.24,0.01-0.58-0.16-0.73-0.35
		c-1.77-2.26-4.25-2.25-6.79-2.3c-2.91-0.06-5.82-0.23-8.71-0.47c-2.06-0.17-4.28-0.1-6.13-0.87c-3.52-1.47-7.8-1.02-10.63-4.17
		c-3.14,0.2-4.62-2.25-6.3-4.18c-1.15-1.31-2.17-1.81-3.94-1.51c-1.03,0.17-2.57-0.24-3.27-0.97c-1.55-1.63-3.26-1.89-5.3-1.68
		c-1.38,0.14-2.9,0.37-4.15-0.05c-2.16-0.73-4.08-2.24-6.26-2.85c-2.2-0.62-4.98,0.14-6.81-0.91c-2.83-1.64-5.6-2.01-8.7-2.12
		c-2.7-0.09-4.9,0.2-6.4,2.72c-1.24,2.1-3.67,3.46-3.78,6.28c-0.12,3.06-0.45,6.11-0.45,9.17c0,5.12,1.62,9.45,6.47,12.03
		c0.57,0.31,0.91,1.04,1.42,1.5c1.23,1.12,2.47,3.08,3.77,3.13c3.64,0.13,6.08,2.56,9.12,3.78c0.87,0.35,1.7,0.79,2.57,1.14
		c1.23,0.5,2.46,1.04,3.74,1.41c1.19,0.35,2.5,0.33,3.65,0.76c5.94,2.22,11.86,4.36,18.32,4.61c1.75,0.07,3.69,0.61,5.14,1.55
		c2.54,1.65,5.21,1.51,8,1.63c4.52,0.19,9.15-0.36,13.38,2.18c2.27,1.37,4.1,0.24,4.23-2.55c0.23-4.87,3.13-8.12,6.14-11.43
		c1.85-2.04,4.02-2.65,6.71-2.52C189.88,334.6,195.01,333.39,199.32,337.32z M113.91,76.18c5.93,3.78,11.37,6.92,16.43,10.58
		c4.11,2.97,7.77,6.57,11.64,9.87c0.41,0.35,0.88,0.9,1.34,0.91c2.93,0.08,4.25,2.43,5.94,4.17c1.73,1.78,3.06,3.97,5.96,4.08
		c0.57,0.02,1.2,0.65,1.65,1.15c5.22,5.74,10.33,11.59,15.65,17.23c1.93,2.05,3.66,4.09,4.68,6.73c0.27,0.71,1.11,1.19,1.68,1.78
		c0.25-0.14,0.51-0.29,0.76-0.43c-0.49-1.68-0.94-3.38-1.48-5.05c-0.33-1.03-0.85-2.01-1.15-3.05c-1.03-3.68-1.98-7.38-2.99-11.07
		c-0.11-0.39-0.41-0.72-0.61-1.08c-1.35-2.46-3.34-4.8-3.87-7.44c-0.47-2.34-2.5-3.81-2.64-5.86c-0.23-3.34-3.69-5.16-3.5-8.52
		c-2.58-1.38-2.63-3.59-2.17-6.1c0.13-0.71-0.44-1.54-0.68-2.32c-0.44-1.44-1.01-2.86-1.28-4.33c-0.58-3.12-0.75-6.31-2.37-9.2
		c-0.58-1.02-0.88-2.49-0.65-3.62c0.87-4.3-1.96-7.12-3.8-11.35c-1.44,3.47-3.82,3.67-6.22,3.28c-2.67-0.44-4.56,0.47-6.09,2.58
		c-0.56,0.78-1.39,1.37-1.98,2.14c-1.73,2.25-4.38,3.94-4.26,7.34c0.02,0.53-1.19,1.66-1.59,1.56c-2.59-0.65-3.42,1.29-4.53,2.81
		c-1.41,1.92-3.09,2.93-5.64,2.78C119.6,75.6,117.02,75.99,113.91,76.18z M168.36,84.48c-0.31,0.18-0.61,0.36-0.92,0.53
		c0.31,0.96,0.52,1.97,0.94,2.88c0.51,1.12,1.27,2.13,1.79,3.26c1.29,2.83,2.42,5.73,3.76,8.53c2.48,5.18,6.08,9.88,6.69,15.86
		c0.05,0.51,0.55,0.96,0.72,1.48c0.55,1.69,0.99,3.41,1.56,5.09c1.24,3.64,3.14,7.04,3.39,11.02c0.07,1.11,1.43,2.11,1.59,3.24
		c0.34,2.42,1.68,2.8,3.78,2.74c4.17-0.13,8.34-0.07,12.51-0.05c3.39,0.01,3.92-0.45,3.7-3.8c-0.07-1.07-0.52-2.11-0.79-3.17
		c-0.78-3.04-1.84-6.05-2.27-9.14c-0.51-3.66-0.82-7.11-5.35-8.04c-0.7-0.14-1.22-1.06-1.89-1.52c-0.76-0.53-1.61-0.93-2.4-1.42
		c-1.02-0.62-2.12-1.16-3.01-1.94c-2.69-2.36-5.04-5.21-7.99-7.16c-5.85-3.87-9.84-9.13-13.08-15.17
		C170.41,86.49,169.27,85.55,168.36,84.48z M172.93,23.81c0.27,0.93,0.54,1.86,0.82,2.78c1.22,4.14,2.32,4.54,6.14,2.61
		c1.31-0.66,2.87-1.18,4.31-1.18c5.95,0.03,11.82,0.08,16.94-3.8c0.99-0.75,2.01-1.32,1.48-2.45c-0.37-0.81-1.51-1.67-2.38-1.76
		c-2.86-0.28-5.77-0.05-8.62-0.34c-1.56-0.16-3.04-0.99-4.57-1.48c-1-0.32-2.01-0.58-3.04-0.82c-1.42-0.32-2.89-0.46-4.26-0.93
		c-1.16-0.4-2.15-1.34-3.31-1.69c-0.97-0.29-2.41-0.47-3.06,0.03c-0.63,0.5-0.97,2.11-0.65,2.92
		C173.52,19.78,173.89,21.71,172.93,23.81z M143.2,46.39c-0.26-0.23-0.53-0.45-0.79-0.68c-0.95,0.93-2.02,1.77-2.84,2.8
		c-2.31,2.93-5.32,4.35-8.98,4.55c-0.69,0.04-1.4,0.02-2.08,0.15c-1.74,0.36-2.74,1.75-2.12,3.33c0.84,2.15,1.99,4.19,3.07,6.4
		c2.46-0.69,3.42-2.19,3.84-4.49c0.57-3.16,2.08-5.64,5.64-6.37C142.02,51.45,142.88,49.05,143.2,46.39z M168.11,40.45
		c-0.21-0.33-0.42-0.67-0.63-1c-1.63,0.58-3.25,1.15-4.88,1.73c-1.02,0.37-2,0.85-3.05,1.11c-2.34,0.57-2.91,1.56-2.16,3.8
		c0.73,2.21,1.5,4.42,2.01,6.68c0.49,2.2,0.67,4.47,1.06,7.22c0.58-0.82,1.06-1.22,0.98-1.41c-1.07-2.68,0.99-4.33,1.83-6.45
		c0.84-2.09,0.63-4.57,1.19-6.81c0.25-1,1.2-1.84,1.87-2.72C166.89,41.86,167.51,41.16,168.11,40.45z M224.67,182.43
		c-0.03,0.31-0.05,0.63-0.08,0.94c3.08,0.93,6.17,1.81,9.22,2.8c0.76,0.25,1.48,0.76,2.07,1.3c1.53,1.39,3,2.85,4.45,4.32
		c1.77,1.79,3.5,3.62,5.24,5.43c-0.37-3.76-1.72-6.8-4.39-9.16c-1.41-1.25-3.07-2.25-3.4-4.48c-0.24-1.58-1.58-2.23-3.14-1.61
		c-2.44,0.96-4.84,0.79-7.32,0.18C226.51,181.96,225.56,182.32,224.67,182.43z M210.48,128.12c1.08,3.05,2.25,6.72,3.69,10.29
		c0.55,1.36,2.05,2.17,3.42,1.39c0.63-0.36,1.02-1.94,0.82-2.81c-0.91-3.99-1.98-7.95-3.2-11.86c-0.21-0.67-1.38-1.31-2.18-1.42
		c-0.55-0.08-1.44,0.66-1.81,1.25C210.82,125.62,210.82,126.54,210.48,128.12z M240.27,179.44c0.12,0.46,0.12,0.61,0.19,0.71
		c3.3,4.62,8.24,8.04,10.14,13.72c0.06,0.19,0.65,0.21,1.34,0.4c-0.22-4.18-2.17-7.39-4.63-10.05c-1.96-2.11-3.87-4.06-4.18-7.82
		C241.73,177.89,240.94,178.73,240.27,179.44z M230.97,143.89c0.82-3.04-2.14-3.94-2.63-6.04c-0.51-2.16-0.98-4.59-3.67-5.45
		c-0.21,2.87-0.41,5.55-0.6,8.01C226.18,141.47,228.39,142.59,230.97,143.89z M112.2,67.69c0.66,0.78,0.92,1.33,1.16,1.33
		c3.45-0.05,6.9-0.12,10.34-0.34c0.48-0.03,1.17-0.82,1.27-1.35c0.11-0.54-0.22-1.55-0.64-1.75c-0.93-0.43-2.41-1.02-3.02-0.6
		C118.68,66.78,115.82,67.77,112.2,67.69z M235.3,266.45c-2.35-1.32-2.9-1.3-5.48,0.2C232.8,268.26,233.12,268.24,235.3,266.45z
		 M193.49,13.03c-0.02-0.42-0.03-0.84-0.05-1.26c-1.26-0.49-2.54-1.16-4.29,1.26C191.06,13.03,192.28,13.03,193.49,13.03z
		 M180.06,135.31c0.17,1.02,0.33,2.04,0.56,3.41C182.54,136.8,182.54,136.8,180.06,135.31z M173.78,5.31
		c-0.41,0.73-0.89,1.22-0.78,1.45c0.18,0.41,0.69,0.87,1.1,0.92c0.31,0.04,0.7-0.53,1.05-0.83C174.79,6.43,174.42,6.02,173.78,5.31z
		"/>
	<path d="M402.64,171.72c2.72-1.91,4.44-1.64,6.23-0.55c5.49,3.34,11.44,5.59,17.63,7.18c1.33,0.34,2.76,0.31,4.14,0.36
		c3.06,0.1,6.05,0.21,8.87,1.81c1.24,0.7,2.96,0.76,4.46,0.78c10.99,0.18,21.98,0.36,32.98,0.36c12.11,0,24.21-0.12,36.32-0.35
		c2-0.04,3.98-0.95,5.99-1.31c2.84-0.51,5.71-0.88,8.56-1.31c1.22-0.18,2.89,0.06,3.57-0.65c2.01-2.09,4.39-2.09,6.91-2.08
		c1.94,0.01,3.89-0.14,5.83-0.24c0.69-0.04,1.64,0.13,2.03-0.25c2.7-2.65,6.03-2.44,9.38-2.38c0.63,0.01,1.52-0.32,1.85-0.79
		c1.75-2.5,4.32-2.1,6.81-2.18c3.19-0.1,6.37-0.28,9.55-0.45c0.41-0.02,0.92-0.04,1.19-0.27c3.03-2.63,6.63-1.41,10.01-1.44
		c0.91-0.01,2.66,1.03,2.61,1.33c-0.22,1.24-0.75,2.64-1.64,3.48c-0.67,0.64-2.07,0.74-3.13,0.71c-4.33-0.11-8.53-0.08-12.53,2.17
		c-2.02,1.14-4.45,1.21-6.91,0.7c-1.36-0.28-3.29-0.1-4.3,0.71c-2.29,1.83-4.77,2.01-7.45,2.02c-1.08,0-2.53-0.05-3.17,0.58
		c-2.51,2.48-5.57,2.26-8.61,2.15c-2.14-0.07-3.93,0.57-5.91,1.45c-2.3,1.02-5.09,0.98-7.67,1.32c-1.23,0.16-2.76-0.27-3.67,0.32
		c-5.43,3.55-11.54,2.51-17.38,2.59c-15.87,0.21-31.74,0.1-47.61,0.07c-3.74-0.01-7.49-0.14-11.22-0.31
		c-0.94-0.04-2.14-0.14-2.76-0.71c-2.19-2-4.74-1.95-7.42-1.91c-2.78,0.04-5.57-0.13-8.33-0.37c-1.06-0.09-2.26-0.42-3.08-1.04
		c-1.54-1.17-3.29-1.18-5.01-1.63c-2.87-0.75-5.7-1.99-8.26-3.5C408.59,176.4,405.99,174.18,402.64,171.72z"/>
	<path d="M292.77,226.13c-1.03-1.71-2.05-3.42-3.22-5.38c0.88-0.45,1.74-1.25,2.21-1.07c2.91,1.16,6.23,1.58,8.36,4.27
		c2.07,2.61,5.1,3.58,7.99,4.86c1.71,0.75,3.33,1.81,4.75,3.02c0.5,0.43,0.57,1.82,0.29,2.57c-0.19,0.51-1.47,1.08-2.02,0.89
		c-2.08-0.71-4.24,0.02-6.48-1.76c-2.28-1.8-4.72-3.59-7.12-5.35c-1.4-1.03-3.24-1.45-4.89-2.15
		C292.63,226.03,292.77,226.13,292.77,226.13z"/>
	<path d="M416.95,198.92c4.46,1.87,5.97,4.67,4.79,8.58c-0.17,0.55-0.79,1.29-1.28,1.34c-0.5,0.06-1.28-0.48-1.6-0.98
		C417.19,205.25,416.05,202.48,416.95,198.92z"/>
	<path d="M399.4,766.39c-0.88-2.3,0.59-3.41,2.18-4.73c2.77-2.29,5.38-4.79,7.91-7.34c0.71-0.71,0.93-1.9,1.38-2.88
		c-1.57-1.74-3.21-1.32-4.82-0.95c-7.73,1.77-15.44,3.59-23.18,5.32c-4.46,1-8.97,1.81-13.42,2.84c-1.4,0.32-2.7,1.08-4.71,1.91
		c1.25,1.23,1.85,2.24,2.73,2.62c2.8,1.2,5.68,2.18,8.55,3.2c0.91,0.32,1.95,0.34,2.79,0.76c2.01,1.01,2.12,2.9,0.32,4.31
		c-1.75,1.38-3.78,1.51-5.94,1.4c-2.46-0.13-4.93,0.13-7.4,0.03c-1.48-0.06-3.04-0.25-4.41-0.78c-2.46-0.94-4.79-2.21-7.2-3.29
		c-3.54-1.6-5.45-1.09-8.16,1.55c-3.78,3.68-7.57,7.38-11.68,10.67c-1.74,1.39-4.29,1.8-6.51,2.58c-2.33,0.82-4.72,1.47-7.02,2.37
		c-1.34,0.52-2.69,1.37-3.76-0.05c-1.18-1.58-0.15-2.92,1.07-3.96c3.16-2.7,6.51-5.18,9.51-8.04c2.81-2.68,5.31-5.69,7.87-8.62
		c2.14-2.45,1.87-4.12-0.7-6.37c-5.7-4.99-12.01-5-18.71-2.47c-2.05,0.77-4.2,1.31-6.33,1.82c-3.35,0.81-6.72,1.59-10.11,2.22
		c-4.5,0.84-9.07,1.34-13.53,2.32c-5.02,1.1-9.97,2.53-14.92,3.95c-0.91,0.26-2.2,1.13-2.28,1.83c-0.09,0.83,0.76,2,1.53,2.64
		c2,1.67,4.02,3.42,6.3,4.62c4.78,2.51,9.7,4.76,14.63,6.96c1.22,0.54,2.83,0.22,4.03,0.8c1.85,0.89,3.5,2.2,5.19,3.3
		c0.15,1.74-0.85,2.55-2.23,2.41c-2.79-0.27-5.22,0.09-7.27,2.24c-0.45,0.47-1.63,0.64-2.31,0.43c-4.77-1.45-9.62-2.73-14.19-4.65
		c-4.58-1.93-8.88-4.53-13.3-6.85c-0.37-0.19-0.67-0.57-1.05-0.67c-7.1-1.84-11.52-7.56-16.78-11.93
		c-5.32-4.42-9.96-9.66-14.9-14.55c-2.17-2.15-4.35-4.31-6.47-6.51c-2.88-2.99-5.85-5.92-8.55-9.06
		c-6.42-7.47-12.72-15.05-19.05-22.6c-1.07-1.28-2.07-2.61-3.12-3.9c-1.15-1.43-2.4-2.98-4.42-2.66c-2.03,0.32-2.2,2.38-2.59,3.92
		c-0.96,3.76-2,7.54-2.51,11.38c-1.71,12.95-3.23,25.93-4.77,38.91c-0.15,1.23,0.04,2.5,0.02,3.75c-0.05,3.26-0.92,4.67-4,5.51
		c-10.46,2.85-20.92,5.7-31.77,6.74c-1.1,0.11-2.32,0.1-3.26,0.59c-6.04,3.16-12.69,3.89-19.22,5.16
		c-3.39,0.66-6.68,1.84-10.06,2.62c-4.46,1.02-8.98,1.83-13.45,2.8c-3.4,0.74-6.77,1.59-10.14,2.43c-4.07,1.01-5.23,0.47-5.22-3.81
		c0.02-6.1,0.59-12.21,1.05-18.31c0.35-4.71,0.77-9.41,1.37-14.09c0.37-2.88,1.32-5.68,1.69-8.55c1.6-12.78,5.41-24.96,10.48-36.69
		c2.35-5.44,5.51-10.71,9.19-15.36c3.49-4.41,8.08-7.97,12.34-11.72c0.95-0.83,2.55-1.07,3.89-1.28c2.05-0.32,4.15-0.42,6.23-0.53
		c2.22-0.12,3.07,1.11,2.1,3.16c-0.4,0.85-1.11,1.58-1.74,2.31c-3.36,3.88-6.74,7.73-10.1,11.61c-0.36,0.42-0.76,0.91-0.85,1.42
		c-0.16,0.91-0.45,2.13-0.01,2.72c0.39,0.52,1.75,0.64,2.58,0.46c9.62-2.13,19.24-4.31,28.83-6.57c3.09-0.73,6.1-1.85,9.19-2.55
		c1.74-0.39,3.62-0.17,5.39-0.45c1.35-0.21,3.16-0.68,2.93-2.32c-0.14-1.05-1.49-2.2-2.58-2.79c-2.55-1.37-5.28-2.39-7.9-3.63
		c-2.91-1.38-5.79-2.74-9.13-2.6c-0.83,0.03-1.67-0.11-2.5-0.18c-1.44-0.11-2.93-0.28-3.11-2.1c-0.16-1.58,1.15-1.99,2.32-2.53
		c3.84-1.75,7.91-1.01,11.9-1.34c7.8-0.65,14.13,3.52,21.06,5.7c4.53,1.43,4.72,1.33,7.77-2.26s6.16-7.15,9.45-10.52
		c1.1-1.13,2.79-1.82,4.33-2.36c3.26-1.14,6.58-2.13,9.93-2.98c0.9-0.23,2.21,0.02,2.9,0.59c0.39,0.31,0.14,1.86-0.28,2.6
		c-0.6,1.06-1.65,1.86-2.44,2.84c-4.17,5.19-8.57,10.21-12.38,15.65c-3.38,4.82-2.61,7.39,2.05,10.94
		c3.19,2.43,6.64,3.35,10.59,2.29c4.83-1.29,9.67-2.57,14.56-3.64c3.1-0.68,6.31-0.84,9.42-1.46c8.7-1.74,17.38-3.6,26.06-5.41
		c0.41-0.09,0.83-0.12,1.23-0.23c3.04-0.82,3.79-3.02,1.48-5.15c-2.03-1.87-4.63-3.1-6.69-4.94c-4.62-4.13-10.33-6.44-15.51-9.61
		c-1.92-1.18-3.79-2.16-6.25-1.68c-2.61,0.51-4.4-1.48-6.22-2.89c-1.32-1.03-1.04-2.85,0.55-3.34c1.64-0.5,3.5-0.29,5.26-0.41
		c1.05-0.07,2.51,0.21,3.05-0.36c1.63-1.72,3.55-1.75,5.41-1.21c4.79,1.4,9.62,2.78,14.21,4.7c3.3,1.38,6.15,3.78,9.37,5.41
		c8.55,4.33,15.69,10.37,22.02,17.47c1.38,1.55,3.13,2.78,4.56,4.29c3.06,3.22,5.86,6.7,9.06,9.78c8.63,8.3,15.2,18.4,23.57,26.9
		c6.43,6.53,12.15,13.78,19.76,19.12c3.12,2.19,4.03,2.09,5.65-1.27c0.72-1.5,1.5-2.97,2.31-4.43c1.42-2.57,2.75-5.13,2.82-8.2
		c0.03-1.19,0.75-2.36,1.08-3.56c0.56-2.11,1.08-4.23,1.57-6.35c0.13-0.54,0-1.14,0.18-1.65c2.48-6.98,3.24-14.3,3.98-21.58
		c0.82-8.14,1.72-16.32,1.73-24.49c0.02-12.78-0.55-25.56-1.14-38.32c-0.2-4.42-1.22-8.8-1.83-13.2c-0.21-1.51-0.23-3.05-0.44-4.57
		c-0.43-3.02-0.92-6.02-1.42-9.03c-0.11-0.68-0.42-1.33-0.53-2.02c-1.09-7.28-2.14-14.57-3.25-21.84c-0.23-1.5-0.64-2.98-1.02-4.45
		c-0.21-0.81-0.6-1.57-0.79-2.37c-1.35-5.81-2.71-11.61-3.99-17.44c-0.6-2.73,0.14-4.17,2.56-4.84c3.99-1.11,7.99-2.19,12.03-3.07
		c5.83-1.27,11.72-2.25,17.54-3.56c4.59-1.03,9.09-2.52,13.68-3.56c7.04-1.6,14.16-2.89,21.2-4.52c3.78-0.88,7.46-2.22,11.19-3.32
		c1.06-0.31,2.14-0.64,3.24-0.78c4.16-0.54,8.21-1.29,11.88-3.58c0.81-0.51,2.64-0.37,3.36,0.23c0.75,0.62,1.2,2.29,0.95,3.3
		c-1.07,4.37,0.62,8.1,2.2,11.92c0.41,1,0.77,2.04,0.96,3.1c0.79,4.5,1.47,9.01,2.24,13.51c1.03,6.02,2.16,12.02,3.16,18.05
		c0.84,5.07,1.62,10.15,2.29,15.24c1.27,9.62,2.81,19.22,2.95,28.95c0.11,7.38,0.23,14.76,0.1,22.14
		c-0.16,8.88-0.16,17.81-1.04,26.63c-0.82,8.25-2.28,16.5-4.26,24.55c-1.55,6.29-4.32,12.27-6.56,18.39
		c-0.24,0.65-0.67,1.24-0.87,1.89c-2.67,8.65-8.27,15.62-13.12,23.03c-1.22,1.86-2.56,3.63-3.89,5.42
		c-3.9,5.26-9.19,8.79-14.77,11.97c-1.08,0.62-2.1,1.36-3.15,2.03C406.9,766.95,403.56,767.44,399.4,766.39z M378.11,654.54
		c-0.14,0.01-0.28,0.01-0.42,0.02c0,3.76-0.07,7.51,0.03,11.27c0.05,1.65,0.28,3.35,0.75,4.93c0.68,2.3,2.43,3.49,4.44,2.51
		c3.26-1.59,6.77-1.38,10.11-2.21c2.95-0.73,5.87-1.56,8.83-2.23c4.74-1.07,9.46-2.25,14.25-2.99c5.47-0.84,10.59-3.19,16.23-3.29
		c3.05-0.05,6.12-1.19,6.92-4.42c1.13-4.56,2.56-9.4,2.06-13.92c-0.54-4.94-0.35-9.88-0.89-14.82c-1.02-9.23-0.79-18.6-2.97-27.72
		c-0.32-1.34-0.26-2.77-0.4-4.15c-0.37-3.73-0.51-7.49-1.17-11.17c-1.11-6.28-2.99-12.45-3.7-18.77c-0.49-4.4-2.1-8.34-3.32-12.43
		c-1.12-3.77-4.74-5.05-8.4-3.6c-1.92,0.76-3.9,1.48-5.93,1.88c-5.71,1.11-11.48,1.88-17.17,3.08c-8.56,1.81-17.07,3.88-25.6,5.83
		c-3.26,0.75-5.05,2.67-4.6,5.89c0.59,4.23,0.51,8.52,2.27,12.66c1.43,3.36,1.75,7.19,2.54,10.82c0.09,0.4-0.02,0.83,0.02,1.25
		c0.18,2.19,0.35,4.39,0.56,6.57c0.46,4.7,0.92,9.39,2.57,13.88c0.23,0.62,0.09,1.38,0.13,2.07c0.5,7.48,0.98,14.96,1.52,22.43
		C377.19,643.46,377.67,648.99,378.11,654.54z M263.13,762.03c1.1-0.27,2.17-0.53,3.24-0.8c3.08-0.78,6.13-1.91,9.26-2.26
		c5.01-0.55,9.85-1.54,14.67-3c4.77-1.45,9.68-2.46,14.53-3.64c4.04-0.98,8.11-1.82,12.1-2.95c2.17-0.62,2.63-2.31,1.26-4.25
		c-0.95-1.35-2.15-2.55-3.39-3.66c-2.78-2.51-5.9-4.68-8.44-7.41c-4.64-4.97-9.04-10.18-13.39-15.41
		c-5.24-6.3-10.37-12.68-15.45-19.1c-4.01-5.07-8.79-7.38-15.32-5.26c-3.41,1.11-6.99,1.73-10.5,2.5
		c-8.14,1.79-16.28,3.55-24.42,5.29c-1.35,0.29-2.73,0.44-4.09,0.68c-3.95,0.71-7.93,1.31-11.85,2.21
		c-2.76,0.63-3.27,2.82-1.31,5.01c0.83,0.93,1.69,1.93,2.74,2.54c4.34,2.54,6.72,6.95,9.92,10.53c5.26,5.89,9.9,12.34,15.05,18.34
		c3.61,4.2,7.76,7.93,11.44,12.08c2.82,3.19,6.53,5.06,9.94,7.38C260.2,761.6,261.74,761.65,263.13,762.03z M439.37,679.7
		c0.11-1.11,0.32-2.22,0.3-3.32c-0.07-3.87-1.86-5.09-5.61-4.18c-6.19,1.5-12.4,2.96-18.63,4.27c-7.19,1.52-14.42,2.84-21.62,4.3
		c-3.53,0.72-7.04,1.58-10.56,2.31c-3.31,0.69-4.81,2.9-5.51,6.04c-0.9,4.04-1.53,8.09-1.96,12.22c-0.69,6.59-2.08,13.11-3.2,19.66
		c-0.12,0.68-0.41,1.32-0.62,1.98c-0.71,2.22-1.41,4.45-2.12,6.67c-0.42,1.32-0.73,2.7-1.33,3.94c-1.38,2.88-2.92,5.69-4.36,8.55
		c-1.43,2.86-2.91,5.71-4.16,8.64c-0.44,1.04-0.29,2.35-0.41,3.53c1.15,0.1,2.3,0.22,3.45,0.28c0.25,0.01,0.51-0.2,0.78-0.28
		c4.4-1.23,8.76-2.67,13.23-3.61c7.05-1.49,14.2-2.5,21.25-4c4.47-0.95,8.77-2.82,13.26-3.57c6.92-1.16,11.28-4.84,13.34-11.46
		c0.25-0.79,0.64-1.54,1.05-2.27c3.51-6.32,6.35-12.82,8.14-19.94C436.54,699.65,438.19,689.74,439.37,679.7z M97.44,775.26
		c-0.29,3.56,0.72,4.42,4.26,3.71c1.09-0.22,2.17-0.46,3.26-0.7c7.58-1.68,15.15-3.38,22.73-5.04c1.22-0.27,2.5-0.3,3.7-0.62
		c8.16-2.22,16.25-4.71,24.72-5.66c3.26-0.36,4.21-2.06,4.18-5.53c-0.02-2.48,0.32-4.96,0.6-7.43c0.17-1.51,0.68-2.99,0.81-4.51
		c0.97-11.66,2.92-23.16,5.57-34.56c0.92-3.95,1.66-7.85,3.94-11.3c0.84-1.26,0.87-2.93-0.4-3.78c-1-0.67-2.6-0.98-3.79-0.74
		c-4.87,1.02-9.69,2.3-14.52,3.5c-2.29,0.57-4.54,1.29-6.84,1.8c-10.04,2.22-20.13,4.26-30.12,6.7c-2.12,0.52-4.45,2.06-5.7,3.82
		c-1.81,2.56-3.14,5.64-3.94,8.69c-1.54,5.88-2.49,11.92-3.82,17.86C99.59,752.6,97.76,763.83,97.44,775.26z M444.06,585.5
		c0.74-2.21,1.53-3.44,1.47-4.62c-0.12-2.49-0.62-4.96-1.09-7.42c-0.15-0.78-0.55-1.69-1.13-2.17c-0.66-0.54-1.71-0.96-2.5-0.84
		c-0.46,0.07-1.13,1.33-1.06,1.98c0.33,3.03,0.74,6.07,1.45,9.02C441.48,582.62,442.65,583.57,444.06,585.5z M356.11,562.42
		c-2.05,2.94-2.26,9.57-0.36,11.82c0.53,0.63,1.6,0.98,2.47,1.08c0.42,0.05,1.15-0.71,1.37-1.25
		C361,570.53,359.44,565.18,356.11,562.42z M440.85,555.39c-0.73-3.33-1.2-6.19-2.06-8.93c-0.23-0.73-1.72-1.6-2.48-1.47
		c-0.76,0.12-1.55,1.32-1.91,2.22c-0.27,0.67,0.01,1.64,0.25,2.41c0.64,2.1,1.38,4.17,2.1,6.25c0.39,1.14,1.15,2.16,2.38,1.61
		C439.93,557.11,440.39,555.98,440.85,555.39z M359.26,593.76c0.8,2.67,1.34,4.95,2.22,7.09c0.28,0.69,1.47,1.01,2.24,1.5
		c0.52-0.87,1.52-1.77,1.48-2.61c-0.1-2.06-0.66-4.1-1.06-6.14c-0.68-3.43-1.94-5.09-2.81-4.22
		C360.24,590.48,359.89,592.33,359.26,593.76z M366.1,630.28c3.98-3.64,3.57-10.64-0.5-14.41c-0.57,0.96-1.53,1.83-1.51,2.69
		C364.16,622.36,364.53,626.15,366.1,630.28z M446.12,597.5c-0.53,0.3-0.9,0.37-0.99,0.57c-1.87,4-0.23,7.82,0.71,11.65
		c0.1,0.42,1.12,0.91,1.66,0.85s1.22-0.66,1.48-1.2C450.35,606.61,448.72,599.84,446.12,597.5z M371.48,648.92
		c-0.33-1.53-0.54-3.34-1.19-4.98c-0.25-0.64-1.48-1.15-2.29-1.19c-0.41-0.02-1.2,1.13-1.25,1.8c-0.17,2.34-0.15,4.7-0.06,7.05
		c0.03,0.79,0.38,1.65,0.83,2.31c0.34,0.49,1.09,1.01,1.62,0.98c0.51-0.04,1.26-0.68,1.41-1.21
		C370.99,652.23,371.16,650.71,371.48,648.92z M451.83,631.88c-0.46-2.12-0.88-4.42-1.5-6.66c-0.14-0.49-0.96-0.96-1.55-1.09
		c-0.34-0.08-1.12,0.47-1.21,0.86c-0.77,3.22-1.48,6.49-0.06,9.69c0.28,0.63,1.25,1.47,1.74,1.38c0.78-0.15,1.63-0.88,2.09-1.59
		C451.75,633.84,451.67,632.89,451.83,631.88z M171.57,757.44c0.06,0,0.13-0.01,0.19-0.01c-0.1-1.37,0.02-2.82-0.4-4.09
		c-0.24-0.72-1.31-1.33-2.13-1.6c-0.42-0.14-1.29,0.44-1.66,0.93c-1.04,1.39-0.86,7.58,0.3,8.86c0.48,0.53,1.47,1,2.09,0.87
		s1.38-0.98,1.54-1.65C171.76,759.7,171.57,758.55,171.57,757.44z M88.78,782.1c2.34-3.32,2.59-6.7,2.49-10.08
		c-0.02-0.62-1.28-1.67-1.98-1.68c-0.69-0.01-1.9,0.99-1.99,1.66c-0.34,2.59-0.41,5.23-0.35,7.85
		C86.96,780.45,87.87,781.03,88.78,782.1z M367.28,671.86c-0.04,0-0.09,0.01-0.13,0.01c0.09,1.37,0.01,2.79,0.35,4.09
		c0.16,0.63,1.09,1.39,1.74,1.46c0.63,0.07,1.88-0.61,1.93-1.07c0.32-2.71,0.49-5.45,0.4-8.17c-0.02-0.55-1.45-1.46-2.2-1.43
		c-0.66,0.03-1.55,1.05-1.82,1.82C367.19,669.57,367.35,670.75,367.28,671.86z M452.01,653.7c-0.03,0-0.05,0-0.08-0.01
		c0.06-0.69,0.33-1.43,0.14-2.04c-0.28-0.93-0.88-1.77-1.34-2.65c-0.84,0.59-2.03,0.99-2.46,1.8c-1.21,2.27-1.39,4.79-0.44,7.2
		c0.29,0.74,1.33,1.65,2,1.64c0.63-0.02,1.54-1.07,1.76-1.84C451.97,656.49,451.9,655.07,452.01,653.7z M450.64,675.54
		c0-0.53,0.21-1.31-0.05-1.88c-0.36-0.8-1.07-1.44-1.62-2.14c-0.74,0.66-1.83,1.18-2.14,2c-0.63,1.65-0.89,3.46-1.21,5.22
		c-0.25,1.36,0.09,2.55,1.63,2.87c1.45,0.3,2.46-0.47,2.81-1.82C450.39,678.46,450.44,677.07,450.64,675.54z M169.31,735.78
		c0.1,0.93,0.02,1.68,0.28,2.28c0.24,0.56,0.79,1.27,1.3,1.35c0.52,0.08,1.35-0.36,1.7-0.83c1.39-1.86,1.98-4,1.38-6.28
		c-0.18-0.68-1.01-1.72-1.47-1.68c-0.79,0.07-1.87,0.68-2.2,1.37C169.7,733.21,169.58,734.64,169.31,735.78z M370.82,692.78
		c-0.41-0.65-0.76-1.98-1.53-2.29c-1.51-0.61-2.25,0.76-2.57,1.99c-0.39,1.46-0.74,3-0.67,4.49c0.03,0.71,0.94,1.63,1.68,1.95
		c0.38,0.16,1.56-0.64,1.81-1.25C370.11,696.28,370.33,694.74,370.82,692.78z M225.47,739.02c0.27-3.2-1.51-4.92-2.94-6.67
		c-0.52-0.64-2.12-1.03-2.86-0.71c-1.4,0.62-1.19,2.16-0.49,3.25C220.55,737,222.36,738.62,225.47,739.02z M98.23,731.35
		c-0.46-0.82-0.95-2.26-1.32-2.23c-0.91,0.07-2.11,0.61-2.56,1.35c-0.77,1.26-1.21,2.79-1.46,4.27c-0.1,0.6,0.52,1.7,1.07,1.92
		c0.57,0.23,1.82-0.11,2.13-0.6C96.94,734.69,97.47,733.1,98.23,731.35z M363.73,719.32c2.98-1.57,4.09-3.8,4.05-6.54
		c-0.01-0.76-0.78-1.93-1.45-2.14c-0.58-0.18-1.88,0.53-2.21,1.17C363,714.02,362.34,716.38,363.73,719.32z M91.75,747.77
		c-2.36,2.72-2.88,5.26-2.28,8.02c0.13,0.6,1.04,1.25,1.71,1.42c0.39,0.1,1.34-0.62,1.47-1.11
		C93.32,753.52,93.93,750.88,91.75,747.77z M299.94,715c-0.18,2.87,1.01,4.7,2.88,6c0.61,0.42,2.06,0.39,2.6-0.06
		c0.51-0.43,0.72-1.85,0.41-2.54C304.8,716.13,303.13,714.6,299.94,715z M292.19,706.5c0.7-2.87-0.25-5.5-2.31-6.54
		c-0.62-0.31-1.77-0.4-2.21-0.03c-0.45,0.38-0.66,1.57-0.42,2.18C288.09,704.21,289.61,705.7,292.19,706.5z M444.29,701.87
		c1.73-2.17,3.33-3.76,3.11-6.2c-0.06-0.68-0.73-1.63-1.33-1.84c-0.57-0.2-1.95,0.29-2.05,0.71
		C443.49,696.71,442.16,698.95,444.29,701.87z M212.67,722.41c-0.03-1.46-2.98-4.81-4.51-5c-1.23-0.15-2.12,0.76-1.57,1.71
		c1,1.72,2.33,3.35,3.83,4.66C211.38,724.61,212.7,723.65,212.67,722.41z M237.36,752.51c0.77-2.33,0-3.96-1.36-5.17
		c-0.68-0.61-1.93-0.59-2.93-0.86c-0.15,1-0.69,2.15-0.37,2.97C233.41,751.29,234.76,752.66,237.36,752.51z M175.91,712.12
		c-0.95,1.29-2.11,2.44-2.73,3.83c-0.56,1.26,0.11,2.52,1.55,2.92c1.44,0.41,2.05-0.61,2.27-1.79
		C177.29,715.51,178.11,713.82,175.91,712.12z M317.56,734.65c0.92-2.53-0.16-4.07-1.75-5.26c-0.51-0.39-1.72-0.49-2.17-0.14
		c-0.47,0.36-0.71,1.5-0.52,2.15C313.71,733.35,314.9,734.75,317.56,734.65z M275.13,687.93c-0.13,1.99,0.89,3.34,2.57,4.18
		c0.5,0.25,1.45,0.2,1.86-0.12c0.42-0.33,0.65-1.21,0.58-1.79C279.87,688.06,277.96,687.21,275.13,687.93z M441.38,712.2
		c-1.91,0.18-3.3,2.11-2.89,3.76c0.18,0.71,1.06,1.62,1.74,1.73c1.19,0.2,2.74-2.14,2.41-3.67
		C442.48,713.27,441.71,712.66,441.38,712.2z M99.45,719.34c0.37,0.07,0.74,0.14,1.11,0.21c0.69-1.02,1.73-1.97,1.96-3.08
		c0.14-0.69-0.92-1.64-1.44-2.47c-0.77,0.85-1.83,1.59-2.2,2.59C98.59,717.34,99.22,718.41,99.45,719.34z M196.45,705.2
		c-0.27,0.52-0.99,1.28-0.95,2c0.1,1.67,1.18,2.81,2.9,2.81c0.52,0,1.41-0.86,1.49-1.42C200.09,707.12,198.27,705.18,196.45,705.2z
		 M358.4,732.57c0.77,1.08,1.17,2.22,1.93,2.57c1.09,0.5,2.44-1.01,2.51-2.61c0.06-1.34-0.31-2.82-1.83-2.63
		C360.15,730.01,359.45,731.44,358.4,732.57z M246.11,759.13c-1.49,0.62-1.85,1.67-1.19,2.76c0.95,1.57,2.26,2.74,4.52,1.98
		C249.28,761.4,247.89,760.1,246.11,759.13z M433.96,732.33c0.73-1.73,1.28-2.85,1.61-4.03c0.05-0.17-0.97-0.64-1.5-0.97
		c-0.62,1-1.34,1.96-1.78,3.03C432.18,730.61,433.01,731.25,433.96,732.33z M325.84,741.99c-0.15,3.24,0.04,3.43,3.33,3.26
		C329.17,743.23,328.13,742.31,325.84,741.99z M353.86,749.84c0.78-1.1,1.53-1.75,1.68-2.52c0.08-0.42-0.83-1.04-1.29-1.57
		c-0.51,0.69-1.18,1.32-1.46,2.1C352.66,748.21,353.29,748.85,353.86,749.84z M264.29,679.58c1.05,0.69,1.7,1.46,2.28,1.41
		c0.6-0.05,1.14-0.89,1.7-1.39c-0.55-0.47-1.07-1.28-1.64-1.31C266.02,678.25,265.37,678.94,264.29,679.58z M186.93,683.28
		c-1.63,0.77-2.01,1.73-1.15,2.99c0.14,0.21,0.83,0.31,1.05,0.15C188.04,685.59,188.22,684.58,186.93,683.28z M107.11,701.48
		c-1.54,0.46-1.88,1.39-1.42,2.55c0.1,0.26,1.04,0.51,1.32,0.33C108.13,703.65,108.19,702.69,107.11,701.48z M427.2,741.93
		c-0.54-0.17-0.87-0.35-1.2-0.33c-0.15,0.01-0.45,0.5-0.39,0.61c0.17,0.3,0.5,0.5,0.76,0.75
		C426.6,742.67,426.83,742.39,427.2,741.93z"/>
	<path d="M100.64,604.93c0.95,5.41-2.56,8.82-6.16,12.68c-2.68,2.87-6.5,2.58-9.12,4.95c-0.34,0.3-1.13,0.35-1.61,0.2
		c-2.57-0.8-5.2-1.51-7.65-2.62c-2.62-1.19-4.06-3.32-4.9-6.25c-0.72-2.5-2.24-4.77-1.8-7.54c0.17-1.07,0.27-2.32,0.88-3.11
		c1.85-2.41,4.22-4.42,4.79-7.66c0.08-0.46,1.01-0.81,1.59-1.14c0.94-0.54,1.88-1.08,2.87-1.51c1.21-0.52,2.45-0.97,3.7-1.38
		c0.51-0.17,1.16-0.01,1.63-0.23c5-2.4,8.63,0.05,12,3.37c0.49,0.48,0.76,1.23,1.31,1.61c2.36,1.64,2.92,3.89,2.48,6.56
		C100.56,603.4,100.64,603.97,100.64,604.93z M84.04,597.97c-3.16,0.01-3.16,0.01-5.01,2.19c-0.72,0.85-1.4,1.73-2.16,2.54
		c-2.31,2.45-2.81,5.39-1.36,8.26c1.59,3.14,5.48,5.8,8.2,5.11c2.75-0.7,5.46-1.77,7.99-3.06c1.12-0.57,1.99-1.96,2.59-3.17
		c1.22-2.46,0.13-4.68-2.19-6.08c-1.6-0.96-3.21-2.26-4.18-3.81C86.87,598.28,85.86,597.44,84.04,597.97z"/>
	<path d="M275.31,507.94c0,2.79,0.74,5.5-0.18,7.4c-1.27,2.63-3.68,4.77-5.83,6.88c-0.78,0.77-2.2,0.99-3.37,1.22
		c-0.62,0.12-1.38-0.53-2-0.42c-4.15,0.71-5.63-2.8-7.9-4.98c-1.93-1.85-1.43-4.41-1.28-6.72c0.07-1.17,0.49-2.47,1.17-3.41
		c1.63-2.23,3.45-4.34,5.33-6.38c0.62-0.67,1.57-1.24,2.45-1.43c2.15-0.48,4.35-0.87,6.55-1.02c4.54-0.3,5.48,0.69,5.27,5.14
		C275.44,505.61,275.36,506.99,275.31,507.94z M263.34,506.1c-0.45,1.42-0.61,2.39-1.05,3.21c-0.51,0.96-1.34,1.75-1.86,2.7
		c-1.19,2.19,0,4.29,2.43,4.34c1.38,0.03,2.78,0.02,4.13-0.24c1.97-0.37,3.01-2.29,1.95-3.63
		C267.27,510.36,265.39,508.42,263.34,506.1z"/>
	<path d="M115.64,625.37c3.64-0.47,5.42,2.36,7.07,5.34c1.52,2.73,0.49,5.11-1.21,7.26c-1.02,1.28-2.21,2.5-3.56,3.42
		c-0.82,0.56-2.12,0.84-3.1,0.66c-5.67-1.03-8.28-6.57-5.6-11.61c0.26-0.49,0.52-0.98,0.71-1.5
		C111.24,625.44,111.47,625.27,115.64,625.37z M118.1,633.15c-1.18-1-1.8-1.95-2.52-2.03c-1.51-0.18-2.29,0.97-2.09,2.35
		c0.11,0.72,1.24,1.96,1.47,1.86C115.95,634.93,116.78,634.12,118.1,633.15z"/>
	<path d="M221.15,575.17c0.5,3.78-2.35,5.91-5.59,7.69c-0.52,0.29-1.63,0.38-1.93,0.06c-1.77-1.9-4.11-3.72-4.82-6.01
		c-0.53-1.7,0.92-4.19,1.91-6.11c0.47-0.9,1.87-1.5,2.97-1.85C219.21,567.22,221.26,568.82,221.15,575.17z"/>
	<path d="M291.71,496.74c-3.04-2.13-5.25-4.65-4.3-8.81c0.47-2.08,5.53-4.09,7.18-2.79c0.39,0.31,0.74,0.9,0.78,1.38
		C295.7,490.7,296.31,493.86,291.71,496.74z"/>
	<path d="M166.42,534.87c-0.87,0.23-1.51,0.4-2.15,0.57c-1.53,0.4-3.61,1.73-4.36-0.3c-0.7-1.9-0.52-4.35-0.06-6.4
		c0.46-2,2.58-1.73,4.22-1.61c2.21,0.16,2.82,0.91,2.72,3.2C166.74,531.7,166.57,533.06,166.42,534.87z"/>
	<path d="M234.06,556.51c1.04,3.42-1.23,5.38-3.2,7.13c-2.11,1.87-4.99,0.36-5.26-2.53c-0.1-1.09-0.19-2.24,0.06-3.28
		c0.15-0.65,0.93-1.61,1.45-1.62C229.32,556.13,231.53,556.37,234.06,556.51z"/>
	<path d="M215.09,548.93c0.5-1.33,0.62-3.01,1.41-3.44c1.17-0.64,2.95-0.81,4.23-0.41c1.67,0.51,1.27,2.32,0.89,3.61
		c-0.25,0.86-0.91,1.79-1.66,2.26c-0.98,0.61-2.43,1.33-3.31,1.01C215.89,551.68,215.61,550.02,215.09,548.93z"/>
</g>
</svg>
